<?xml version="1.0" encoding="utf-8"?>
<svg xmlns="http://www.w3.org/2000/svg" xmlns:xlink="http://www.w3.org/1999/xlink" width="600" height="400" viewBox="0 0 2400 1600">
<defs>
  <clipPath id="clip2000">
    <rect x="0" y="0" width="2400" height="1600"/>
  </clipPath>
</defs>
<path clip-path="url(#clip2000)" d="
M0 1600 L2400 1600 L2400 0 L0 0  Z
  " fill="#ffffff" fill-rule="evenodd" fill-opacity="1"/>
<defs>
  <clipPath id="clip2001">
    <rect x="480" y="0" width="1681" height="1600"/>
  </clipPath>
</defs>
<path clip-path="url(#clip2000)" d="
M167.279 1487.47 L2352.76 1487.47 L2352.76 47.2441 L167.279 47.2441  Z
  " fill="#ffffff" fill-rule="evenodd" fill-opacity="1"/>
<defs>
  <clipPath id="clip2002">
    <rect x="167" y="47" width="2186" height="1441"/>
  </clipPath>
</defs>
<polyline clip-path="url(#clip2002)" style="stroke:#000000; stroke-width:2; stroke-opacity:0.1; fill:none" points="
  457.931,1487.47 457.931,47.2441 
  "/>
<polyline clip-path="url(#clip2002)" style="stroke:#000000; stroke-width:2; stroke-opacity:0.1; fill:none" points="
  851.08,1487.47 851.08,47.2441 
  "/>
<polyline clip-path="url(#clip2002)" style="stroke:#000000; stroke-width:2; stroke-opacity:0.1; fill:none" points="
  1244.23,1487.47 1244.23,47.2441 
  "/>
<polyline clip-path="url(#clip2002)" style="stroke:#000000; stroke-width:2; stroke-opacity:0.1; fill:none" points="
  1637.38,1487.47 1637.38,47.2441 
  "/>
<polyline clip-path="url(#clip2002)" style="stroke:#000000; stroke-width:2; stroke-opacity:0.1; fill:none" points="
  2030.53,1487.47 2030.53,47.2441 
  "/>
<polyline clip-path="url(#clip2002)" style="stroke:#000000; stroke-width:2; stroke-opacity:0.1; fill:none" points="
  167.279,1426.92 2352.76,1426.92 
  "/>
<polyline clip-path="url(#clip2002)" style="stroke:#000000; stroke-width:2; stroke-opacity:0.1; fill:none" points="
  167.279,1126.78 2352.76,1126.78 
  "/>
<polyline clip-path="url(#clip2002)" style="stroke:#000000; stroke-width:2; stroke-opacity:0.1; fill:none" points="
  167.279,826.634 2352.76,826.634 
  "/>
<polyline clip-path="url(#clip2002)" style="stroke:#000000; stroke-width:2; stroke-opacity:0.1; fill:none" points="
  167.279,526.489 2352.76,526.489 
  "/>
<polyline clip-path="url(#clip2002)" style="stroke:#000000; stroke-width:2; stroke-opacity:0.1; fill:none" points="
  167.279,226.344 2352.76,226.344 
  "/>
<polyline clip-path="url(#clip2000)" style="stroke:#000000; stroke-width:4; stroke-opacity:1; fill:none" points="
  167.279,1487.47 2352.76,1487.47 
  "/>
<polyline clip-path="url(#clip2000)" style="stroke:#000000; stroke-width:4; stroke-opacity:1; fill:none" points="
  167.279,1487.47 167.279,47.2441 
  "/>
<polyline clip-path="url(#clip2000)" style="stroke:#000000; stroke-width:4; stroke-opacity:1; fill:none" points="
  457.931,1487.47 457.931,1470.19 
  "/>
<polyline clip-path="url(#clip2000)" style="stroke:#000000; stroke-width:4; stroke-opacity:1; fill:none" points="
  851.08,1487.47 851.08,1470.19 
  "/>
<polyline clip-path="url(#clip2000)" style="stroke:#000000; stroke-width:4; stroke-opacity:1; fill:none" points="
  1244.23,1487.47 1244.23,1470.19 
  "/>
<polyline clip-path="url(#clip2000)" style="stroke:#000000; stroke-width:4; stroke-opacity:1; fill:none" points="
  1637.38,1487.47 1637.38,1470.19 
  "/>
<polyline clip-path="url(#clip2000)" style="stroke:#000000; stroke-width:4; stroke-opacity:1; fill:none" points="
  2030.53,1487.47 2030.53,1470.19 
  "/>
<polyline clip-path="url(#clip2000)" style="stroke:#000000; stroke-width:4; stroke-opacity:1; fill:none" points="
  167.279,1426.92 193.505,1426.92 
  "/>
<polyline clip-path="url(#clip2000)" style="stroke:#000000; stroke-width:4; stroke-opacity:1; fill:none" points="
  167.279,1126.78 193.505,1126.78 
  "/>
<polyline clip-path="url(#clip2000)" style="stroke:#000000; stroke-width:4; stroke-opacity:1; fill:none" points="
  167.279,826.634 193.505,826.634 
  "/>
<polyline clip-path="url(#clip2000)" style="stroke:#000000; stroke-width:4; stroke-opacity:1; fill:none" points="
  167.279,526.489 193.505,526.489 
  "/>
<polyline clip-path="url(#clip2000)" style="stroke:#000000; stroke-width:4; stroke-opacity:1; fill:none" points="
  167.279,226.344 193.505,226.344 
  "/>
<g clip-path="url(#clip2000)">
<text style="fill:#000000; fill-opacity:1; font-family:Arial,Helvetica Neue,Helvetica,sans-serif; font-size:48px; text-anchor:start;" transform="rotate(0, 378.805, 1562.48)" x="378.805" y="1562.48">-</text>
</g>
<g clip-path="url(#clip2000)">
<text style="fill:#000000; fill-opacity:1; font-family:Arial,Helvetica Neue,Helvetica,sans-serif; font-size:48px; text-anchor:start;" transform="rotate(0, 406.915, 1562.48)" x="406.915" y="1562.48">1×10</text>
</g>
<g clip-path="url(#clip2000)">
<text style="fill:#000000; fill-opacity:1; font-family:Arial,Helvetica Neue,Helvetica,sans-serif; font-size:38px; text-anchor:start;" transform="rotate(0, 515.312, 1535.07)" x="515.312" y="1535.07">4</text>
</g>
<g clip-path="url(#clip2000)">
<text style="fill:#000000; fill-opacity:1; font-family:Arial,Helvetica Neue,Helvetica,sans-serif; font-size:48px; text-anchor:start;" transform="rotate(0, 771.955, 1562.48)" x="771.955" y="1562.48">-</text>
</g>
<g clip-path="url(#clip2000)">
<text style="fill:#000000; fill-opacity:1; font-family:Arial,Helvetica Neue,Helvetica,sans-serif; font-size:48px; text-anchor:start;" transform="rotate(0, 800.065, 1562.48)" x="800.065" y="1562.48">5×10</text>
</g>
<g clip-path="url(#clip2000)">
<text style="fill:#000000; fill-opacity:1; font-family:Arial,Helvetica Neue,Helvetica,sans-serif; font-size:38px; text-anchor:start;" transform="rotate(0, 908.462, 1535.07)" x="908.462" y="1535.07">3</text>
</g>
<g clip-path="url(#clip2000)">
<text style="fill:#000000; fill-opacity:1; font-family:Arial,Helvetica Neue,Helvetica,sans-serif; font-size:48px; text-anchor:middle;" transform="rotate(0, 1244.23, 1541.47)" x="1244.23" y="1541.47">0</text>
</g>
<g clip-path="url(#clip2000)">
<text style="fill:#000000; fill-opacity:1; font-family:Arial,Helvetica Neue,Helvetica,sans-serif; font-size:48px; text-anchor:start;" transform="rotate(0, 1572.31, 1562.48)" x="1572.31" y="1562.48">5×10</text>
</g>
<g clip-path="url(#clip2000)">
<text style="fill:#000000; fill-opacity:1; font-family:Arial,Helvetica Neue,Helvetica,sans-serif; font-size:38px; text-anchor:start;" transform="rotate(0, 1680.71, 1535.07)" x="1680.71" y="1535.07">3</text>
</g>
<g clip-path="url(#clip2000)">
<text style="fill:#000000; fill-opacity:1; font-family:Arial,Helvetica Neue,Helvetica,sans-serif; font-size:48px; text-anchor:start;" transform="rotate(0, 1965.46, 1562.48)" x="1965.46" y="1562.48">1×10</text>
</g>
<g clip-path="url(#clip2000)">
<text style="fill:#000000; fill-opacity:1; font-family:Arial,Helvetica Neue,Helvetica,sans-serif; font-size:38px; text-anchor:start;" transform="rotate(0, 2073.85, 1535.07)" x="2073.85" y="1535.07">4</text>
</g>
<g clip-path="url(#clip2000)">
<text style="fill:#000000; fill-opacity:1; font-family:Arial,Helvetica Neue,Helvetica,sans-serif; font-size:48px; text-anchor:end;" transform="rotate(0, 143.279, 1444.42)" x="143.279" y="1444.42">0</text>
</g>
<g clip-path="url(#clip2000)">
<text style="fill:#000000; fill-opacity:1; font-family:Arial,Helvetica Neue,Helvetica,sans-serif; font-size:48px; text-anchor:end;" transform="rotate(0, 143.279, 1144.28)" x="143.279" y="1144.28">200</text>
</g>
<g clip-path="url(#clip2000)">
<text style="fill:#000000; fill-opacity:1; font-family:Arial,Helvetica Neue,Helvetica,sans-serif; font-size:48px; text-anchor:end;" transform="rotate(0, 143.279, 844.134)" x="143.279" y="844.134">400</text>
</g>
<g clip-path="url(#clip2000)">
<text style="fill:#000000; fill-opacity:1; font-family:Arial,Helvetica Neue,Helvetica,sans-serif; font-size:48px; text-anchor:end;" transform="rotate(0, 143.279, 543.989)" x="143.279" y="543.989">600</text>
</g>
<g clip-path="url(#clip2000)">
<text style="fill:#000000; fill-opacity:1; font-family:Arial,Helvetica Neue,Helvetica,sans-serif; font-size:48px; text-anchor:end;" transform="rotate(0, 143.279, 243.844)" x="143.279" y="243.844">800</text>
</g>
<polyline clip-path="url(#clip2002)" style="stroke:#009af9; stroke-width:4; stroke-opacity:1; fill:none" points="
  1244.28,1338.96 1244.27,1339.59 1244.27,1340.24 1244.3,1340.53 1244.35,1341.26 1244.41,1340.02 1244.37,1337.23 1244.41,1334.69 1244.51,1331.73 1244.58,1330.41 
  1244.61,1330.74 1244.74,1329.4 1244.9,1326.7 1244.94,1324.33 1245.05,1321.11 1245.08,1316.65 1245.21,1312.3 1245.31,1309.24 1245.4,1307.73 1245.51,1305.88 
  1245.66,1303.19 1245.86,1301.18 1246,1297.96 1246.2,1294.88 1246.39,1290.56 1246.59,1287.89 1246.68,1284.74 1246.84,1279.31 1247.08,1274.05 1247.3,1269.92 
  1247.56,1265.64 1247.84,1262.66 1248.06,1256.88 1248.44,1253.06 1248.79,1249.3 1248.97,1242.82 1249.3,1238.13 1249.56,1234.44 1249.97,1228.41 1250.32,1221.67 
  1250.55,1215.22 1250.82,1210.15 1251.16,1204.54 1251.44,1196.88 1251.74,1190.58 1252.18,1185.49 1252.52,1178.54 1252.86,1172.36 1253.36,1163.6 1254.04,1156.86 
  1255.27,1149.72 1257.32,1143.02 1260.19,1135.3 1263.79,1128.81 1268.26,1120.39 1273.57,1111.02 1279.7,1102.07 1286.51,1094.84 1294.17,1084.55 1302.64,1075.74 
  1311.96,1068.04 1321.95,1057.05 1332.81,1045.89 1344.49,1038.05 1356.97,1026.98 1370.22,1017.34 1384.38,1006.58 1399.13,995.877 1414.74,986.099 1431.1,976.909 
  1448.21,968.173 1466.28,956.578 1485.04,946.042 1504.7,936.718 1525.08,925.003 1546.15,913.458 1568.1,901.829 1590.73,892.781 1614.33,882.654 1638.61,870.289 
  1663.73,857.295 1689.57,842.921 1716.34,832.29 1743.94,819.029 1772.24,806.931 1801.21,792.626 1831.04,781.192 1861.7,768.227 1893.2,752.881 1925.46,737.684 
  1958.52,725.446 1992.26,712.381 2026.85,696.908 2062.28,681.701 2098.54,665.634 2135.44,652.018 2173.21,637.906 2211.71,622.851 2250.94,608.287 2290.9,594.972 
  
  "/>
<polyline clip-path="url(#clip2002)" style="stroke:#e26f46; stroke-width:4; stroke-opacity:1; fill:none" points="
  1275.34,842.943 1275.35,842.638 1275.34,843.271 1275.36,842.72 1275.34,841.387 1275.3,839.174 1275.24,837.438 1275.15,835.398 1275.05,834.394 1275.04,831.546 
  1275.05,828.045 1275.02,825.985 1274.97,823.45 1274.86,818.861 1274.73,816.361 1274.62,814.344 1274.5,813.437 1274.41,811.526 1274.37,808.085 1274.31,804.815 
  1274.23,802.952 1273.95,797.667 1273.81,794.246 1273.62,790.58 1273.34,784.991 1273.22,779.673 1273.07,776.086 1272.99,773.893 1272.72,768.686 1272.47,763.643 
  1272.18,760.096 1272.03,755.842 1271.75,751.278 1271.4,745.516 1271.14,741.546 1270.9,736.625 1270.62,729.911 1270.37,725.952 1270.11,722.173 1269.81,717.693 
  1269.56,711.887 1269.29,706.675 1268.87,699.069 1268.55,694.936 1268.22,685.77 1267.78,676.661 1267.42,669.671 1267.17,661.198 1266.8,653.35 1266.12,645.457 
  1264.85,637.866 1262.67,629.863 1259.9,621.829 1256.17,612.649 1251.65,603.693 1246.33,593.934 1240.25,586.54 1233.43,579.92 1225.82,573.536 1217.4,566.193 
  1208.05,558.652 1197.98,549.991 1187.16,541.451 1175.55,532.981 1163.11,521.835 1149.81,513.319 1135.78,502.817 1121.06,492.367 1105.52,480.547 1089.03,470.047 
  1071.78,458.716 1053.71,449.094 1034.93,439.088 1015.23,427.991 994.839,415.472 973.553,404.7 951.61,393.36 928.83,383.841 905.247,370.714 880.931,360.359 
  855.887,349.444 829.971,337.078 803.369,324.457 775.912,310.989 747.515,300.282 718.516,287.69 688.667,272.336 658.098,257.944 626.769,245.252 594.633,233.832 
  561.51,220.759 527.739,206.223 493.115,191.693 457.745,177.647 421.654,161.992 384.627,146.505 346.947,133.783 308.4,118.718 269.208,102.326 229.132,88.0053 
  
  "/>
<polyline clip-path="url(#clip2002)" style="stroke:#3da44d; stroke-width:4; stroke-opacity:1; fill:none" points="
  1245,1372.18 1245.01,1371.48 1245.08,1371.59 1245.16,1371.68 1245.23,1371.91 1245.31,1372.1 1245.38,1373.17 1245.41,1374.28 1245.56,1374.29 1245.65,1374.69 
  1245.73,1374.69 1245.79,1373.99 1245.83,1374.97 1245.87,1375.36 1245.99,1373.74 1246.02,1372.5 1246.1,1370.34 1246.11,1370.59 1246.12,1369.86 1246.15,1369.48 
  1246.17,1367.88 1246.23,1364.96 1246.3,1364.88 1246.38,1364.88 1246.65,1362.38 1246.78,1359.39 1246.8,1358.54 1246.9,1357.75 1247.01,1354.77 1247.13,1352.06 
  1247.29,1350.01 1247.55,1347.91 1247.66,1343.2 1247.88,1341.76 1247.96,1339.43 1248.08,1334.91 1248.19,1333.03 1248.43,1332.38 1248.58,1331.93 1248.8,1329.76 
  1248.93,1325.59 1249.13,1322.65 1249.26,1318.68 1249.58,1315.81 1249.81,1313.08 1250.02,1307.64 1250.25,1302.86 1250.5,1297.58 1250.71,1294.02 1251.14,1290.99 
  1251.75,1287 1252.78,1283.4 1254.26,1281.37 1256,1278.55 1258.11,1273.05 1260.65,1268.1 1263.68,1262.82 1267.06,1259.7 1270.9,1256.63 1275.1,1253.77 
  1279.74,1247.7 1284.89,1241.55 1290.25,1237.96 1296.12,1234.82 1302.45,1230.9 1309.13,1224.24 1316.07,1218.14 1323.57,1211.26 1331.29,1207.16 1339.52,1202.02 
  1348.03,1197.68 1356.95,1194.75 1366.28,1189.24 1376.04,1184.74 1386.18,1177.73 1396.68,1170.13 1407.76,1164.33 1419.13,1159.28 1430.93,1152.84 1443.08,1146.32 
  1455.58,1140.89 1468.45,1133.7 1481.71,1129.68 1495.46,1125.58 1509.55,1120.26 1524.07,1112.03 1539.03,1106.15 1554.49,1098 1570.19,1090.37 1586.28,1084.39 
  1602.85,1077.81 1619.72,1070.39 1636.99,1062.34 1654.72,1057.7 1672.87,1049.72 1691.25,1043.22 1710.08,1036.92 1729.42,1028.3 1748.97,1022.22 1768.98,1015.34 
  
  "/>
<polyline clip-path="url(#clip2002)" style="stroke:#c271d2; stroke-width:4; stroke-opacity:1; fill:none" points="
  1270.67,1446.71 1270.63,1445.96 1270.6,1445.95 1270.61,1444.94 1270.65,1443.27 1270.7,1441.51 1270.67,1439.29 1270.66,1438.09 1270.61,1436.2 1270.66,1434.82 
  1270.73,1432.87 1270.72,1430.37 1270.61,1427.02 1270.53,1425.18 1270.57,1424.43 1270.49,1421.29 1270.47,1416.67 1270.55,1412.91 1270.48,1411.44 1270.41,1410.09 
  1270.38,1405.65 1270.47,1403.07 1270.45,1399.58 1270.45,1393.51 1270.51,1388.83 1270.59,1385.04 1270.59,1381.26 1270.6,1377.86 1270.62,1371.24 1270.54,1366.59 
  1270.55,1362.95 1270.55,1356.69 1270.48,1350.99 1270.51,1346.46 1270.56,1342.34 1270.59,1337.53 1270.63,1330.87 1270.6,1323.61 1270.56,1317.32 1270.59,1309.9 
  1270.62,1303.49 1270.48,1298.18 1270.42,1291.95 1270.38,1287.6 1270.39,1279.46 1270.39,1272.11 1270.31,1265.86 1270.33,1259.1 1270.44,1253.76 1270.37,1249.14 
  1270.32,1240.43 1270.28,1231.48 1270.28,1222.32 1270.31,1216.72 1270.32,1211.46 1270.3,1202.65 1270.29,1195.94 1270.22,1187.32 1270.26,1177.43 1270.29,1170.42 
  1270.21,1159.77 1270.14,1151.93 1270.25,1141.6 1270.23,1130.37 1270.27,1122.37 1270.28,1112.28 1270.24,1100.41 1270.22,1091.95 1270.19,1082 1270.25,1071.5 
  1270.29,1062.67 1270.33,1049.99 1270.38,1038.23 1270.41,1027.13 1270.46,1013.64 1270.39,1000.34 1270.49,989.945 1270.48,977.642 1270.62,966.769 1270.53,952.626 
  1270.53,939.083 1270.57,927.49 1270.58,917.807 1270.58,903.707 1270.53,891.096 1270.56,879.757 1270.48,866.357 1270.58,854.744 1270.62,841.928 1270.64,829.828 
  1270.7,817.168 1270.75,804.549 1270.6,789.047 1270.6,775.891 1270.64,760.924 1270.67,745.859 1270.57,731.879 1270.61,719 1270.57,705.754 1270.61,689.097 
  
  "/>
<path clip-path="url(#clip2000)" d="
M1853.52 433.164 L2280.76 433.164 L2280.76 130.764 L1853.52 130.764  Z
  " fill="#ffffff" fill-rule="evenodd" fill-opacity="1"/>
<polyline clip-path="url(#clip2000)" style="stroke:#000000; stroke-width:4; stroke-opacity:1; fill:none" points="
  1853.52,433.164 2280.76,433.164 2280.76,130.764 1853.52,130.764 1853.52,433.164 
  "/>
<polyline clip-path="url(#clip2000)" style="stroke:#009af9; stroke-width:4; stroke-opacity:1; fill:none" points="
  1877.52,191.244 2021.52,191.244 
  "/>
<g clip-path="url(#clip2000)">
<text style="fill:#000000; fill-opacity:1; font-family:Arial,Helvetica Neue,Helvetica,sans-serif; font-size:48px; text-anchor:start;" transform="rotate(0, 2045.52, 208.744)" x="2045.52" y="208.744">Filtered1</text>
</g>
<polyline clip-path="url(#clip2000)" style="stroke:#e26f46; stroke-width:4; stroke-opacity:1; fill:none" points="
  1877.52,251.724 2021.52,251.724 
  "/>
<g clip-path="url(#clip2000)">
<text style="fill:#000000; fill-opacity:1; font-family:Arial,Helvetica Neue,Helvetica,sans-serif; font-size:48px; text-anchor:start;" transform="rotate(0, 2045.52, 269.224)" x="2045.52" y="269.224">Filtered2</text>
</g>
<polyline clip-path="url(#clip2000)" style="stroke:#3da44d; stroke-width:4; stroke-opacity:1; fill:none" points="
  1877.52,312.204 2021.52,312.204 
  "/>
<g clip-path="url(#clip2000)">
<text style="fill:#000000; fill-opacity:1; font-family:Arial,Helvetica Neue,Helvetica,sans-serif; font-size:48px; text-anchor:start;" transform="rotate(0, 2045.52, 329.704)" x="2045.52" y="329.704">Filtered3</text>
</g>
<polyline clip-path="url(#clip2000)" style="stroke:#c271d2; stroke-width:4; stroke-opacity:1; fill:none" points="
  1877.52,372.684 2021.52,372.684 
  "/>
<g clip-path="url(#clip2000)">
<text style="fill:#000000; fill-opacity:1; font-family:Arial,Helvetica Neue,Helvetica,sans-serif; font-size:48px; text-anchor:start;" transform="rotate(0, 2045.52, 390.184)" x="2045.52" y="390.184">Filtered4</text>
</g>
</svg>
