<?xml version="1.0" encoding="utf-8"?>
<svg xmlns="http://www.w3.org/2000/svg" xmlns:xlink="http://www.w3.org/1999/xlink" width="600" height="400" viewBox="0 0 2400 1600">
<defs>
  <clipPath id="clip3200">
    <rect x="0" y="0" width="2400" height="1600"/>
  </clipPath>
</defs>
<path clip-path="url(#clip3200)" d="
M0 1600 L2400 1600 L2400 0 L0 0  Z
  " fill="#ffffff" fill-rule="evenodd" fill-opacity="1"/>
<defs>
  <clipPath id="clip3201">
    <rect x="480" y="0" width="1681" height="1600"/>
  </clipPath>
</defs>
<path clip-path="url(#clip3200)" d="
M167.279 1487.47 L2352.76 1487.47 L2352.76 47.2441 L167.279 47.2441  Z
  " fill="#ffffff" fill-rule="evenodd" fill-opacity="1"/>
<defs>
  <clipPath id="clip3202">
    <rect x="167" y="47" width="2186" height="1441"/>
  </clipPath>
</defs>
<polyline clip-path="url(#clip3202)" style="stroke:#000000; stroke-width:2; stroke-opacity:0.1; fill:none" points="
  196.655,1487.47 196.655,47.2441 
  "/>
<polyline clip-path="url(#clip3202)" style="stroke:#000000; stroke-width:2; stroke-opacity:0.1; fill:none" points="
  550.129,1487.47 550.129,47.2441 
  "/>
<polyline clip-path="url(#clip3202)" style="stroke:#000000; stroke-width:2; stroke-opacity:0.1; fill:none" points="
  903.602,1487.47 903.602,47.2441 
  "/>
<polyline clip-path="url(#clip3202)" style="stroke:#000000; stroke-width:2; stroke-opacity:0.1; fill:none" points="
  1257.08,1487.47 1257.08,47.2441 
  "/>
<polyline clip-path="url(#clip3202)" style="stroke:#000000; stroke-width:2; stroke-opacity:0.1; fill:none" points="
  1610.55,1487.47 1610.55,47.2441 
  "/>
<polyline clip-path="url(#clip3202)" style="stroke:#000000; stroke-width:2; stroke-opacity:0.1; fill:none" points="
  1964.02,1487.47 1964.02,47.2441 
  "/>
<polyline clip-path="url(#clip3202)" style="stroke:#000000; stroke-width:2; stroke-opacity:0.1; fill:none" points="
  2317.5,1487.47 2317.5,47.2441 
  "/>
<polyline clip-path="url(#clip3202)" style="stroke:#000000; stroke-width:2; stroke-opacity:0.1; fill:none" points="
  167.279,1434.39 2352.76,1434.39 
  "/>
<polyline clip-path="url(#clip3202)" style="stroke:#000000; stroke-width:2; stroke-opacity:0.1; fill:none" points="
  167.279,1132.43 2352.76,1132.43 
  "/>
<polyline clip-path="url(#clip3202)" style="stroke:#000000; stroke-width:2; stroke-opacity:0.1; fill:none" points="
  167.279,830.47 2352.76,830.47 
  "/>
<polyline clip-path="url(#clip3202)" style="stroke:#000000; stroke-width:2; stroke-opacity:0.1; fill:none" points="
  167.279,528.511 2352.76,528.511 
  "/>
<polyline clip-path="url(#clip3202)" style="stroke:#000000; stroke-width:2; stroke-opacity:0.1; fill:none" points="
  167.279,226.553 2352.76,226.553 
  "/>
<polyline clip-path="url(#clip3200)" style="stroke:#000000; stroke-width:4; stroke-opacity:1; fill:none" points="
  167.279,1487.47 2352.76,1487.47 
  "/>
<polyline clip-path="url(#clip3200)" style="stroke:#000000; stroke-width:4; stroke-opacity:1; fill:none" points="
  167.279,1487.47 167.279,47.2441 
  "/>
<polyline clip-path="url(#clip3200)" style="stroke:#000000; stroke-width:4; stroke-opacity:1; fill:none" points="
  196.655,1487.47 196.655,1470.19 
  "/>
<polyline clip-path="url(#clip3200)" style="stroke:#000000; stroke-width:4; stroke-opacity:1; fill:none" points="
  550.129,1487.47 550.129,1470.19 
  "/>
<polyline clip-path="url(#clip3200)" style="stroke:#000000; stroke-width:4; stroke-opacity:1; fill:none" points="
  903.602,1487.47 903.602,1470.19 
  "/>
<polyline clip-path="url(#clip3200)" style="stroke:#000000; stroke-width:4; stroke-opacity:1; fill:none" points="
  1257.08,1487.47 1257.08,1470.19 
  "/>
<polyline clip-path="url(#clip3200)" style="stroke:#000000; stroke-width:4; stroke-opacity:1; fill:none" points="
  1610.55,1487.47 1610.55,1470.19 
  "/>
<polyline clip-path="url(#clip3200)" style="stroke:#000000; stroke-width:4; stroke-opacity:1; fill:none" points="
  1964.02,1487.47 1964.02,1470.19 
  "/>
<polyline clip-path="url(#clip3200)" style="stroke:#000000; stroke-width:4; stroke-opacity:1; fill:none" points="
  2317.5,1487.47 2317.5,1470.19 
  "/>
<polyline clip-path="url(#clip3200)" style="stroke:#000000; stroke-width:4; stroke-opacity:1; fill:none" points="
  167.279,1434.39 193.505,1434.39 
  "/>
<polyline clip-path="url(#clip3200)" style="stroke:#000000; stroke-width:4; stroke-opacity:1; fill:none" points="
  167.279,1132.43 193.505,1132.43 
  "/>
<polyline clip-path="url(#clip3200)" style="stroke:#000000; stroke-width:4; stroke-opacity:1; fill:none" points="
  167.279,830.47 193.505,830.47 
  "/>
<polyline clip-path="url(#clip3200)" style="stroke:#000000; stroke-width:4; stroke-opacity:1; fill:none" points="
  167.279,528.511 193.505,528.511 
  "/>
<polyline clip-path="url(#clip3200)" style="stroke:#000000; stroke-width:4; stroke-opacity:1; fill:none" points="
  167.279,226.553 193.505,226.553 
  "/>
<g clip-path="url(#clip3200)">
<text style="fill:#000000; fill-opacity:1; font-family:Arial,Helvetica Neue,Helvetica,sans-serif; font-size:48px; text-anchor:middle;" transform="rotate(0, 196.655, 1541.47)" x="196.655" y="1541.47">-100</text>
</g>
<g clip-path="url(#clip3200)">
<text style="fill:#000000; fill-opacity:1; font-family:Arial,Helvetica Neue,Helvetica,sans-serif; font-size:48px; text-anchor:middle;" transform="rotate(0, 550.129, 1541.47)" x="550.129" y="1541.47">0</text>
</g>
<g clip-path="url(#clip3200)">
<text style="fill:#000000; fill-opacity:1; font-family:Arial,Helvetica Neue,Helvetica,sans-serif; font-size:48px; text-anchor:middle;" transform="rotate(0, 903.602, 1541.47)" x="903.602" y="1541.47">100</text>
</g>
<g clip-path="url(#clip3200)">
<text style="fill:#000000; fill-opacity:1; font-family:Arial,Helvetica Neue,Helvetica,sans-serif; font-size:48px; text-anchor:middle;" transform="rotate(0, 1257.08, 1541.47)" x="1257.08" y="1541.47">200</text>
</g>
<g clip-path="url(#clip3200)">
<text style="fill:#000000; fill-opacity:1; font-family:Arial,Helvetica Neue,Helvetica,sans-serif; font-size:48px; text-anchor:middle;" transform="rotate(0, 1610.55, 1541.47)" x="1610.55" y="1541.47">300</text>
</g>
<g clip-path="url(#clip3200)">
<text style="fill:#000000; fill-opacity:1; font-family:Arial,Helvetica Neue,Helvetica,sans-serif; font-size:48px; text-anchor:middle;" transform="rotate(0, 1964.02, 1541.47)" x="1964.02" y="1541.47">400</text>
</g>
<g clip-path="url(#clip3200)">
<text style="fill:#000000; fill-opacity:1; font-family:Arial,Helvetica Neue,Helvetica,sans-serif; font-size:48px; text-anchor:middle;" transform="rotate(0, 2317.5, 1541.47)" x="2317.5" y="1541.47">500</text>
</g>
<g clip-path="url(#clip3200)">
<text style="fill:#000000; fill-opacity:1; font-family:Arial,Helvetica Neue,Helvetica,sans-serif; font-size:48px; text-anchor:end;" transform="rotate(0, 143.279, 1451.89)" x="143.279" y="1451.89">0</text>
</g>
<g clip-path="url(#clip3200)">
<text style="fill:#000000; fill-opacity:1; font-family:Arial,Helvetica Neue,Helvetica,sans-serif; font-size:48px; text-anchor:end;" transform="rotate(0, 143.279, 1149.93)" x="143.279" y="1149.93">200</text>
</g>
<g clip-path="url(#clip3200)">
<text style="fill:#000000; fill-opacity:1; font-family:Arial,Helvetica Neue,Helvetica,sans-serif; font-size:48px; text-anchor:end;" transform="rotate(0, 143.279, 847.97)" x="143.279" y="847.97">400</text>
</g>
<g clip-path="url(#clip3200)">
<text style="fill:#000000; fill-opacity:1; font-family:Arial,Helvetica Neue,Helvetica,sans-serif; font-size:48px; text-anchor:end;" transform="rotate(0, 143.279, 546.011)" x="143.279" y="546.011">600</text>
</g>
<g clip-path="url(#clip3200)">
<text style="fill:#000000; fill-opacity:1; font-family:Arial,Helvetica Neue,Helvetica,sans-serif; font-size:48px; text-anchor:end;" transform="rotate(0, 143.279, 244.053)" x="143.279" y="244.053">800</text>
</g>
<polyline clip-path="url(#clip3202)" style="stroke:#009af9; stroke-width:4; stroke-opacity:1; fill:none" points="
  579.878,1361.42 577.535,1361.93 575.345,1360.96 574.297,1359.33 574.188,1358.26 572.101,1357.43 573.541,1355.86 573.239,1353.96 571.097,1350.32 570.498,1349.36 
  572.42,1346 573.812,1344.18 577.433,1339.48 578.289,1338.19 587.253,1336.95 595.452,1334.26 598.935,1330.01 602.849,1328.4 610.397,1325.11 619.435,1322.13 
  620.604,1319.29 622.124,1316 629.445,1310.85 638.74,1309.33 649.517,1306.39 658.674,1303.21 662.541,1297.14 667.644,1291.78 680.142,1287.98 693.412,1284.56 
  704.286,1279.27 712.103,1273.36 722.496,1266.52 734.068,1262.29 745.19,1259.28 760.603,1255.99 779.134,1249.33 795.365,1243.31 812.43,1237.51 823.156,1233.46 
  840.359,1226.28 850.255,1220.36 860.567,1212.46 873.735,1207.07 883.178,1202.7 895.867,1196.44 911.377,1188.41 931.834,1181.28 949.839,1172.04 974.008,1163.97 
  991.146,1154.12 1006,1144.96 1024.98,1138.04 1039.92,1129.37 1055.79,1123.21 1076.76,1116.36 1101.2,1110.02 1117.38,1100.59 1138.6,1092.63 1161.67,1083.28 
  1178.77,1071.42 1202.12,1061.21 1228.14,1053.75 1254.7,1042.72 1281.38,1032.47 1307.61,1023.96 1328.6,1012.77 1348.27,1001.58 1368.42,991.288 1392.14,981.478 
  1416.75,970.79 1439.15,959.482 1464.6,949.165 1487.81,939.594 1511.4,928.146 1536.36,916.034 1560.19,903.213 1587.13,892.238 1613.59,881.513 1646.01,870.957 
  1670.72,860.173 1695.05,849.401 1727.51,834.572 1759.26,820.639 1791.38,807.813 1824.82,794.825 1860.29,781.117 1889.48,768.065 1923.37,757.334 1956.09,746.05 
  1981.27,731.987 2009.42,720.961 2038.82,706.263 2068.27,691.434 2103.36,677.061 2141.13,664.535 2177.18,650.987 2216.56,637.249 2254.45,621.743 2290.9,606.476 
  
  "/>
<polyline clip-path="url(#clip3202)" style="stroke:#e26f46; stroke-width:4; stroke-opacity:1; fill:none" points="
  1984.23,838.585 1984.43,838.424 1984.21,838.323 1983.21,838.199 1979.11,838.606 1977.29,838.531 1974.72,838.587 1975.26,836.455 1974.45,836.566 1974.44,836.111 
  1971.6,833.469 1967.41,829.613 1965.23,825.65 1962.25,822.369 1952.79,820.157 1941.06,815.31 1931.58,814.185 1927.81,812.554 1919.03,809.746 1914.55,805.85 
  1905.63,801.176 1898.47,799.503 1891.92,797.846 1881.08,796.642 1868.89,791.23 1856.64,787.446 1849.84,783.898 1836.53,781.068 1828.4,777.156 1820.65,774.029 
  1809.49,770.867 1795.46,764.662 1783.26,758.531 1776.31,754.622 1765.72,750.828 1756.28,746.794 1742.89,742.761 1727.04,735.454 1713.35,729.874 1703.94,724.382 
  1687.46,719.629 1676.15,715.068 1660.86,708.182 1648.99,703.249 1630.3,696.132 1615.82,688.025 1599.99,681.623 1582.17,673.079 1564.13,663.068 1544.01,654.279 
  1521.77,647.652 1508.92,640.901 1492,633.308 1469.51,624.799 1452.19,617.969 1435.05,609.96 1417.2,602.855 1391.99,594.711 1369.45,584.158 1352.09,572.775 
  1332.06,563.875 1308.37,555.492 1287.32,544.727 1260.07,534.866 1241.75,527.578 1220.85,516.046 1199.35,505.387 1177.36,494.602 1150.31,484.865 1124.54,475.243 
  1097.3,465.382 1077.35,454.266 1052.01,440.665 1030.37,430.711 1001.65,417.319 974.924,407.301 946.035,394.645 917.929,382.06 886.149,369.94 860.829,358.152 
  834.479,345.659 808.287,334.773 776.939,323.275 745.839,312.34 719.354,298.478 694.586,283.417 668.29,269.661 638.11,258.198 601.727,246.573 569.694,232.364 
  538.618,219.391 504.918,204.27 473.397,189.412 437.539,175.609 406.972,161.555 372.766,147.202 334.386,134.054 297.122,118.515 261.731,102.687 229.132,88.0053 
  
  "/>
<polyline clip-path="url(#clip3202)" style="stroke:#3da44d; stroke-width:4; stroke-opacity:1; fill:none" points="
  610.716,1367.27 608.193,1368.11 608.572,1368.44 609.051,1369.09 609.921,1370.31 610.443,1370.64 612.27,1371.19 615.541,1370.53 619.243,1371.88 618.609,1371.24 
  622.925,1370.09 625.81,1369.09 630.133,1370.11 630.613,1368.9 632.281,1368.24 637.609,1368.74 643.107,1368.97 650.882,1367.51 653.748,1369.08 655.032,1368.51 
  653.739,1368.89 653.278,1368.81 658.85,1366.89 661.519,1365.07 666.815,1364.19 674.074,1363.2 676.104,1362.36 675.623,1360.55 677.412,1358.39 678.502,1358.32 
  686.864,1354.94 697.288,1352.46 707.157,1350.28 714.06,1349.41 722.662,1345.81 723.316,1341.95 727.441,1340.46 728.604,1338.25 737.375,1335.59 744.302,1332.51 
  754.647,1329.98 760.981,1327.88 765.1,1326.47 769.943,1322.71 777.954,1319.36 788.845,1313.28 792.392,1308.19 805.735,1303.39 817.029,1301.36 826.919,1298.65 
  831.982,1294.59 846.036,1289.45 854.062,1286.51 861.223,1282.17 869.443,1277.56 876.1,1274.5 885.21,1271.61 895.836,1266.45 910.448,1262.74 924.459,1258.54 
  941.924,1253.17 951.02,1246.85 965.256,1241.14 976.476,1235.93 987.549,1233.8 999.295,1227.64 1009.69,1223.07 1025.28,1218.12 1042.01,1211.67 1050.51,1206.71 
  1062.48,1202.76 1078.62,1199.21 1093.83,1194.73 1107.99,1190.2 1113.65,1182.32 1125.08,1176.03 1138.64,1170.82 1148.7,1164.98 1163.86,1157.6 1180.38,1152.17 
  1188.04,1148.35 1198.81,1142.88 1208.31,1135.86 1221.43,1127.85 1230.53,1121.58 1247.9,1113.36 1259.55,1107.63 1276.7,1101.64 1296.09,1093.33 1317.6,1087.35 
  1338.15,1079.72 1355.29,1072.25 1374.95,1064.36 1389.18,1056.79 1405.25,1050.83 1425.31,1045.59 1446.17,1037.39 1458.26,1031.59 1473.38,1024.2 1486.18,1018.41 
  
  "/>
<polyline clip-path="url(#clip3202)" style="stroke:#c271d2; stroke-width:4; stroke-opacity:1; fill:none" points="
  1678.34,1446.37 1678.39,1446.71 1680.29,1446.18 1682.04,1445.68 1683.53,1445.28 1687.1,1444.25 1688.38,1443.94 1692.75,1442.59 1697.68,1441.69 1701.06,1439.14 
  1699.26,1437.27 1698.28,1433.77 1703.08,1432.89 1706.88,1430.48 1709.78,1429.33 1710,1424.99 1713.82,1421.15 1713.4,1418.82 1716.7,1414.33 1719.26,1410.12 
  1718.63,1407.27 1720.86,1405.21 1721.79,1402.24 1719.1,1398.23 1716.38,1394.24 1712.71,1388.74 1714.1,1386.2 1720.58,1383.53 1717.86,1378.41 1719.86,1375.13 
  1719.69,1372.17 1720.01,1368.29 1716.02,1364.43 1722.11,1359.6 1720.33,1355.19 1725.81,1349.41 1722.51,1342.62 1725.64,1335.13 1728.96,1328.91 1726.67,1323.59 
  1726.1,1315.71 1725.55,1308 1729.46,1301.01 1724.73,1294.11 1720.29,1285.2 1716.71,1278.73 1720.26,1270.57 1721.84,1262.5 1720.3,1254.75 1721.64,1247.5 
  1721.74,1237.9 1721.15,1230.2 1720.26,1221.31 1718.76,1215.47 1724.79,1208.4 1730.82,1200.78 1733.05,1193.19 1734.95,1185.61 1730.84,1176.95 1728.73,1168.3 
  1734.04,1161.15 1736.19,1153.74 1733.7,1144.53 1738.01,1135.65 1735.8,1128.32 1732.14,1117.47 1727.06,1107.74 1723.22,1095.82 1722.4,1087.89 1721.91,1076.52 
  1722.65,1065.46 1718.82,1053.85 1718.34,1042.24 1722.03,1031.08 1722.99,1019.7 1722.91,1008.59 1723.32,998.111 1723.85,986.7 1721.13,974.411 1724.91,960.916 
  1729.15,951.214 1729.95,939.653 1728.04,927.147 1727.13,914.381 1729.2,900.467 1728.11,889.659 1727.7,875.156 1726.19,864.107 1727.66,851.463 1725.24,836.73 
  1727.86,821.656 1730.27,805.625 1735.66,792.981 1736.2,777.715 1732.83,763.134 1730.63,750.259 1729.61,734.616 1727.3,720.326 1723.04,706.494 1722.39,692.948 
  
  "/>
<path clip-path="url(#clip3200)" d="
M1853.52 433.164 L2280.76 433.164 L2280.76 130.764 L1853.52 130.764  Z
  " fill="#ffffff" fill-rule="evenodd" fill-opacity="1"/>
<polyline clip-path="url(#clip3200)" style="stroke:#000000; stroke-width:4; stroke-opacity:1; fill:none" points="
  1853.52,433.164 2280.76,433.164 2280.76,130.764 1853.52,130.764 1853.52,433.164 
  "/>
<polyline clip-path="url(#clip3200)" style="stroke:#009af9; stroke-width:4; stroke-opacity:1; fill:none" points="
  1877.52,191.244 2021.52,191.244 
  "/>
<g clip-path="url(#clip3200)">
<text style="fill:#000000; fill-opacity:1; font-family:Arial,Helvetica Neue,Helvetica,sans-serif; font-size:48px; text-anchor:start;" transform="rotate(0, 2045.52, 208.744)" x="2045.52" y="208.744">Filtered1</text>
</g>
<polyline clip-path="url(#clip3200)" style="stroke:#e26f46; stroke-width:4; stroke-opacity:1; fill:none" points="
  1877.52,251.724 2021.52,251.724 
  "/>
<g clip-path="url(#clip3200)">
<text style="fill:#000000; fill-opacity:1; font-family:Arial,Helvetica Neue,Helvetica,sans-serif; font-size:48px; text-anchor:start;" transform="rotate(0, 2045.52, 269.224)" x="2045.52" y="269.224">Filtered2</text>
</g>
<polyline clip-path="url(#clip3200)" style="stroke:#3da44d; stroke-width:4; stroke-opacity:1; fill:none" points="
  1877.52,312.204 2021.52,312.204 
  "/>
<g clip-path="url(#clip3200)">
<text style="fill:#000000; fill-opacity:1; font-family:Arial,Helvetica Neue,Helvetica,sans-serif; font-size:48px; text-anchor:start;" transform="rotate(0, 2045.52, 329.704)" x="2045.52" y="329.704">Filtered3</text>
</g>
<polyline clip-path="url(#clip3200)" style="stroke:#c271d2; stroke-width:4; stroke-opacity:1; fill:none" points="
  1877.52,372.684 2021.52,372.684 
  "/>
<g clip-path="url(#clip3200)">
<text style="fill:#000000; fill-opacity:1; font-family:Arial,Helvetica Neue,Helvetica,sans-serif; font-size:48px; text-anchor:start;" transform="rotate(0, 2045.52, 390.184)" x="2045.52" y="390.184">Filtered4</text>
</g>
</svg>
