<?xml version="1.0" encoding="utf-8"?>
<svg xmlns="http://www.w3.org/2000/svg" xmlns:xlink="http://www.w3.org/1999/xlink" width="600" height="400" viewBox="0 0 2400 1600">
<defs>
  <clipPath id="clip2400">
    <rect x="0" y="0" width="2400" height="1600"/>
  </clipPath>
</defs>
<path clip-path="url(#clip2400)" d="
M0 1600 L2400 1600 L2400 0 L0 0  Z
  " fill="#ffffff" fill-rule="evenodd" fill-opacity="1"/>
<defs>
  <clipPath id="clip2401">
    <rect x="480" y="0" width="1681" height="1600"/>
  </clipPath>
</defs>
<path clip-path="url(#clip2400)" d="
M167.279 1487.47 L2352.76 1487.47 L2352.76 47.2441 L167.279 47.2441  Z
  " fill="#ffffff" fill-rule="evenodd" fill-opacity="1"/>
<defs>
  <clipPath id="clip2402">
    <rect x="167" y="47" width="2186" height="1441"/>
  </clipPath>
</defs>
<polyline clip-path="url(#clip2402)" style="stroke:#000000; stroke-width:2; stroke-opacity:0.1; fill:none" points="
  193.768,1487.47 193.768,47.2441 
  "/>
<polyline clip-path="url(#clip2402)" style="stroke:#000000; stroke-width:2; stroke-opacity:0.1; fill:none" points="
  549.185,1487.47 549.185,47.2441 
  "/>
<polyline clip-path="url(#clip2402)" style="stroke:#000000; stroke-width:2; stroke-opacity:0.1; fill:none" points="
  904.601,1487.47 904.601,47.2441 
  "/>
<polyline clip-path="url(#clip2402)" style="stroke:#000000; stroke-width:2; stroke-opacity:0.1; fill:none" points="
  1260.02,1487.47 1260.02,47.2441 
  "/>
<polyline clip-path="url(#clip2402)" style="stroke:#000000; stroke-width:2; stroke-opacity:0.1; fill:none" points="
  1615.43,1487.47 1615.43,47.2441 
  "/>
<polyline clip-path="url(#clip2402)" style="stroke:#000000; stroke-width:2; stroke-opacity:0.1; fill:none" points="
  1970.85,1487.47 1970.85,47.2441 
  "/>
<polyline clip-path="url(#clip2402)" style="stroke:#000000; stroke-width:2; stroke-opacity:0.1; fill:none" points="
  2326.27,1487.47 2326.27,47.2441 
  "/>
<polyline clip-path="url(#clip2402)" style="stroke:#000000; stroke-width:2; stroke-opacity:0.1; fill:none" points="
  167.279,1446.71 2352.76,1446.71 
  "/>
<polyline clip-path="url(#clip2402)" style="stroke:#000000; stroke-width:2; stroke-opacity:0.1; fill:none" points="
  167.279,1141.4 2352.76,1141.4 
  "/>
<polyline clip-path="url(#clip2402)" style="stroke:#000000; stroke-width:2; stroke-opacity:0.1; fill:none" points="
  167.279,836.092 2352.76,836.092 
  "/>
<polyline clip-path="url(#clip2402)" style="stroke:#000000; stroke-width:2; stroke-opacity:0.1; fill:none" points="
  167.279,530.782 2352.76,530.782 
  "/>
<polyline clip-path="url(#clip2402)" style="stroke:#000000; stroke-width:2; stroke-opacity:0.1; fill:none" points="
  167.279,225.471 2352.76,225.471 
  "/>
<polyline clip-path="url(#clip2400)" style="stroke:#000000; stroke-width:4; stroke-opacity:1; fill:none" points="
  167.279,1487.47 2352.76,1487.47 
  "/>
<polyline clip-path="url(#clip2400)" style="stroke:#000000; stroke-width:4; stroke-opacity:1; fill:none" points="
  167.279,1487.47 167.279,47.2441 
  "/>
<polyline clip-path="url(#clip2400)" style="stroke:#000000; stroke-width:4; stroke-opacity:1; fill:none" points="
  193.768,1487.47 193.768,1470.19 
  "/>
<polyline clip-path="url(#clip2400)" style="stroke:#000000; stroke-width:4; stroke-opacity:1; fill:none" points="
  549.185,1487.47 549.185,1470.19 
  "/>
<polyline clip-path="url(#clip2400)" style="stroke:#000000; stroke-width:4; stroke-opacity:1; fill:none" points="
  904.601,1487.47 904.601,1470.19 
  "/>
<polyline clip-path="url(#clip2400)" style="stroke:#000000; stroke-width:4; stroke-opacity:1; fill:none" points="
  1260.02,1487.47 1260.02,1470.19 
  "/>
<polyline clip-path="url(#clip2400)" style="stroke:#000000; stroke-width:4; stroke-opacity:1; fill:none" points="
  1615.43,1487.47 1615.43,1470.19 
  "/>
<polyline clip-path="url(#clip2400)" style="stroke:#000000; stroke-width:4; stroke-opacity:1; fill:none" points="
  1970.85,1487.47 1970.85,1470.19 
  "/>
<polyline clip-path="url(#clip2400)" style="stroke:#000000; stroke-width:4; stroke-opacity:1; fill:none" points="
  2326.27,1487.47 2326.27,1470.19 
  "/>
<polyline clip-path="url(#clip2400)" style="stroke:#000000; stroke-width:4; stroke-opacity:1; fill:none" points="
  167.279,1446.71 193.505,1446.71 
  "/>
<polyline clip-path="url(#clip2400)" style="stroke:#000000; stroke-width:4; stroke-opacity:1; fill:none" points="
  167.279,1141.4 193.505,1141.4 
  "/>
<polyline clip-path="url(#clip2400)" style="stroke:#000000; stroke-width:4; stroke-opacity:1; fill:none" points="
  167.279,836.092 193.505,836.092 
  "/>
<polyline clip-path="url(#clip2400)" style="stroke:#000000; stroke-width:4; stroke-opacity:1; fill:none" points="
  167.279,530.782 193.505,530.782 
  "/>
<polyline clip-path="url(#clip2400)" style="stroke:#000000; stroke-width:4; stroke-opacity:1; fill:none" points="
  167.279,225.471 193.505,225.471 
  "/>
<g clip-path="url(#clip2400)">
<text style="fill:#000000; fill-opacity:1; font-family:Arial,Helvetica Neue,Helvetica,sans-serif; font-size:48px; text-anchor:middle;" transform="rotate(0, 193.768, 1541.47)" x="193.768" y="1541.47">-100</text>
</g>
<g clip-path="url(#clip2400)">
<text style="fill:#000000; fill-opacity:1; font-family:Arial,Helvetica Neue,Helvetica,sans-serif; font-size:48px; text-anchor:middle;" transform="rotate(0, 549.185, 1541.47)" x="549.185" y="1541.47">0</text>
</g>
<g clip-path="url(#clip2400)">
<text style="fill:#000000; fill-opacity:1; font-family:Arial,Helvetica Neue,Helvetica,sans-serif; font-size:48px; text-anchor:middle;" transform="rotate(0, 904.601, 1541.47)" x="904.601" y="1541.47">100</text>
</g>
<g clip-path="url(#clip2400)">
<text style="fill:#000000; fill-opacity:1; font-family:Arial,Helvetica Neue,Helvetica,sans-serif; font-size:48px; text-anchor:middle;" transform="rotate(0, 1260.02, 1541.47)" x="1260.02" y="1541.47">200</text>
</g>
<g clip-path="url(#clip2400)">
<text style="fill:#000000; fill-opacity:1; font-family:Arial,Helvetica Neue,Helvetica,sans-serif; font-size:48px; text-anchor:middle;" transform="rotate(0, 1615.43, 1541.47)" x="1615.43" y="1541.47">300</text>
</g>
<g clip-path="url(#clip2400)">
<text style="fill:#000000; fill-opacity:1; font-family:Arial,Helvetica Neue,Helvetica,sans-serif; font-size:48px; text-anchor:middle;" transform="rotate(0, 1970.85, 1541.47)" x="1970.85" y="1541.47">400</text>
</g>
<g clip-path="url(#clip2400)">
<text style="fill:#000000; fill-opacity:1; font-family:Arial,Helvetica Neue,Helvetica,sans-serif; font-size:48px; text-anchor:middle;" transform="rotate(0, 2326.27, 1541.47)" x="2326.27" y="1541.47">500</text>
</g>
<g clip-path="url(#clip2400)">
<text style="fill:#000000; fill-opacity:1; font-family:Arial,Helvetica Neue,Helvetica,sans-serif; font-size:48px; text-anchor:end;" transform="rotate(0, 143.279, 1464.21)" x="143.279" y="1464.21">0</text>
</g>
<g clip-path="url(#clip2400)">
<text style="fill:#000000; fill-opacity:1; font-family:Arial,Helvetica Neue,Helvetica,sans-serif; font-size:48px; text-anchor:end;" transform="rotate(0, 143.279, 1158.9)" x="143.279" y="1158.9">200</text>
</g>
<g clip-path="url(#clip2400)">
<text style="fill:#000000; fill-opacity:1; font-family:Arial,Helvetica Neue,Helvetica,sans-serif; font-size:48px; text-anchor:end;" transform="rotate(0, 143.279, 853.592)" x="143.279" y="853.592">400</text>
</g>
<g clip-path="url(#clip2400)">
<text style="fill:#000000; fill-opacity:1; font-family:Arial,Helvetica Neue,Helvetica,sans-serif; font-size:48px; text-anchor:end;" transform="rotate(0, 143.279, 548.282)" x="143.279" y="548.282">600</text>
</g>
<g clip-path="url(#clip2400)">
<text style="fill:#000000; fill-opacity:1; font-family:Arial,Helvetica Neue,Helvetica,sans-serif; font-size:48px; text-anchor:end;" transform="rotate(0, 143.279, 242.971)" x="143.279" y="242.971">800</text>
</g>
<polyline clip-path="url(#clip2402)" style="stroke:#009af9; stroke-width:4; stroke-opacity:1; fill:none" points="
  549.185,1355.12 549.362,1355.04 549.896,1354.82 550.784,1354.43 552.028,1353.9 553.627,1353.21 555.582,1352.37 557.892,1351.38 560.558,1350.24 563.579,1348.94 
  566.956,1347.49 570.687,1345.88 574.775,1344.13 579.217,1342.22 584.016,1340.16 589.169,1337.95 594.678,1335.58 600.542,1333.06 606.762,1330.39 613.337,1327.57 
  620.268,1324.59 627.554,1321.46 635.195,1318.18 643.192,1314.74 651.545,1311.16 660.252,1307.42 669.315,1303.52 678.734,1299.48 688.508,1295.28 698.637,1290.93 
  709.122,1286.43 719.962,1281.77 731.158,1276.96 742.709,1272 754.615,1266.89 766.877,1261.62 779.495,1256.2 792.467,1250.63 805.795,1244.9 819.479,1239.03 
  833.518,1233 847.912,1226.81 862.662,1220.48 877.767,1213.99 893.228,1207.35 909.044,1200.56 925.215,1193.61 941.742,1186.51 958.624,1179.26 975.862,1171.86 
  993.455,1164.3 1011.4,1156.59 1029.71,1148.73 1048.37,1140.72 1067.38,1132.55 1086.75,1124.23 1106.48,1115.76 1126.56,1107.13 1147,1098.35 1167.79,1089.42 
  1188.93,1080.34 1210.44,1071.11 1232.3,1061.72 1254.51,1052.18 1277.08,1042.48 1300,1032.64 1323.28,1022.64 1346.92,1012.49 1370.91,1002.18 1395.25,991.724 
  1419.95,981.115 1445.01,970.353 1470.42,959.438 1496.19,948.37 1522.31,937.15 1548.79,925.777 1575.63,914.252 1602.82,902.574 1630.36,890.743 1658.26,878.76 
  1686.52,866.623 1715.13,854.335 1744.09,841.893 1773.42,829.299 1803.09,816.553 1833.13,803.653 1863.51,790.601 1894.26,777.396 1925.36,764.039 1956.81,750.529 
  1988.62,736.867 2020.79,723.051 2053.31,709.083 2086.18,694.963 2119.41,680.689 2153,666.263 2186.94,651.685 2221.24,636.954 2255.89,622.07 2290.9,607.033 
  
  "/>
<polyline clip-path="url(#clip2402)" style="stroke:#e26f46; stroke-width:4; stroke-opacity:1; fill:none" points="
  1970.85,836.092 1970.67,836.016 1970.14,835.787 1969.25,835.405 1968.01,834.871 1966.41,834.184 1964.45,833.345 1962.14,832.352 1959.48,831.207 1956.46,829.91 
  1953.08,828.46 1949.35,826.857 1945.26,825.101 1940.82,823.193 1936.02,821.132 1930.87,818.919 1925.36,816.553 1919.49,814.034 1913.27,811.362 1906.7,808.538 
  1899.77,805.561 1892.48,802.432 1884.84,799.15 1876.84,795.715 1868.49,792.128 1859.78,788.388 1850.72,784.495 1841.3,780.45 1831.53,776.252 1821.4,771.901 
  1810.91,767.398 1800.07,762.742 1788.88,757.933 1777.33,752.972 1765.42,747.858 1753.16,742.591 1740.54,737.172 1727.57,731.6 1714.24,725.875 1700.56,719.998 
  1686.52,713.968 1672.12,707.786 1657.37,701.451 1642.27,694.963 1626.81,688.322 1610.99,681.529 1594.82,674.583 1578.29,667.485 1561.41,660.234 1544.17,652.83 
  1526.58,645.273 1508.63,637.564 1490.33,629.703 1471.67,621.688 1452.65,613.521 1433.28,605.201 1413.56,596.729 1393.48,588.104 1373.04,579.326 1352.25,570.396 
  1331.1,561.313 1309.6,552.077 1287.74,542.689 1265.53,533.148 1242.96,523.454 1220.03,513.608 1196.75,503.609 1173.12,493.458 1149.13,483.153 1124.78,472.697 
  1100.08,462.087 1075.02,451.325 1049.61,440.41 1023.84,429.343 997.72,418.122 971.242,406.75 944.408,395.224 917.218,383.546 889.674,371.715 861.773,359.732 
  833.518,347.596 804.907,335.307 775.94,322.865 746.619,310.271 716.941,297.525 686.909,284.625 656.52,271.573 625.777,258.369 594.678,245.011 563.224,231.501 
  531.414,217.839 499.249,204.023 466.728,190.055 433.852,175.935 400.621,161.662 367.034,147.236 333.092,132.657 298.794,117.926 264.141,103.042 229.132,88.0053 
  
  "/>
<polyline clip-path="url(#clip2402)" style="stroke:#3da44d; stroke-width:4; stroke-opacity:1; fill:none" points="
  620.268,1400.92 620.357,1400.88 620.623,1400.76 621.068,1400.57 621.69,1400.31 622.489,1399.96 623.467,1399.54 624.622,1399.05 625.955,1398.47 627.465,1397.83 
  629.153,1397.1 631.019,1396.3 633.063,1395.42 635.284,1394.47 637.683,1393.44 640.26,1392.33 643.015,1391.15 645.947,1389.89 649.057,1388.55 652.344,1387.14 
  655.81,1385.65 659.453,1384.09 663.273,1382.45 667.272,1380.73 671.448,1378.93 675.802,1377.06 680.333,1375.12 685.043,1373.1 689.93,1371 694.994,1368.82 
  700.237,1366.57 705.657,1364.24 711.255,1361.84 717.03,1359.36 722.983,1356.8 729.114,1354.17 735.423,1351.46 741.909,1348.67 748.573,1345.81 755.415,1342.87 
  762.435,1339.85 769.632,1336.76 777.007,1333.6 784.559,1330.35 792.29,1327.03 800.198,1323.64 808.283,1320.16 816.547,1316.61 824.988,1312.99 833.607,1309.29 
  842.403,1305.51 851.378,1301.65 860.529,1297.72 869.859,1293.71 879.367,1289.63 889.052,1285.47 898.914,1281.24 908.955,1276.92 919.173,1272.53 929.569,1268.07 
  940.143,1263.53 950.894,1258.91 961.823,1254.22 972.93,1249.44 984.214,1244.6 995.677,1239.67 1007.32,1234.68 1019.13,1229.6 1031.13,1224.45 1043.3,1219.22 
  1055.65,1213.91 1068.18,1208.53 1080.89,1203.08 1093.77,1197.54 1106.83,1191.93 1120.07,1186.25 1133.49,1180.48 1147.08,1174.64 1160.86,1168.73 1174.81,1162.74 
  1188.93,1156.67 1203.24,1150.52 1217.72,1144.3 1232.38,1138.01 1247.22,1131.63 1262.24,1125.18 1277.43,1118.66 1292.8,1112.05 1308.35,1105.38 1324.08,1098.62 
  1339.99,1091.79 1356.07,1084.88 1372.33,1077.9 1388.77,1070.84 1405.38,1063.7 1422.18,1056.49 1439.15,1049.2 1456.3,1041.83 1473.62,1034.39 1491.13,1026.87 
  
  "/>
<polyline clip-path="url(#clip2402)" style="stroke:#c271d2; stroke-width:4; stroke-opacity:1; fill:none" points="
  1732.72,1446.71 1732.72,1446.64 1732.72,1446.41 1732.72,1446.03 1732.72,1445.49 1732.72,1444.81 1732.72,1443.97 1732.72,1442.97 1732.72,1441.83 1732.72,1440.53 
  1732.72,1439.08 1732.72,1437.48 1732.72,1435.72 1732.72,1433.81 1732.72,1431.75 1732.72,1429.54 1732.72,1427.17 1732.72,1424.65 1732.72,1421.98 1732.72,1419.16 
  1732.72,1416.18 1732.72,1413.05 1732.72,1409.77 1732.72,1406.34 1732.72,1402.75 1732.72,1399.01 1732.72,1395.12 1732.72,1391.07 1732.72,1386.87 1732.72,1382.52 
  1732.72,1378.02 1732.72,1373.36 1732.72,1368.55 1732.72,1363.59 1732.72,1358.48 1732.72,1353.21 1732.72,1347.79 1732.72,1342.22 1732.72,1336.5 1732.72,1330.62 
  1732.72,1324.59 1732.72,1318.41 1732.72,1312.07 1732.72,1305.58 1732.72,1298.94 1732.72,1292.15 1732.72,1285.2 1732.72,1278.11 1732.72,1270.85 1732.72,1263.45 
  1732.72,1255.89 1732.72,1248.19 1732.72,1240.32 1732.72,1232.31 1732.72,1224.14 1732.72,1215.82 1732.72,1207.35 1732.72,1198.73 1732.72,1189.95 1732.72,1181.02 
  1732.72,1171.93 1732.72,1162.7 1732.72,1153.31 1732.72,1143.77 1732.72,1134.08 1732.72,1124.23 1732.72,1114.23 1732.72,1104.08 1732.72,1093.77 1732.72,1083.32 
  1732.72,1072.71 1732.72,1061.95 1732.72,1051.03 1732.72,1039.96 1732.72,1028.74 1732.72,1017.37 1732.72,1005.85 1732.72,994.167 1732.72,982.336 1732.72,970.353 
  1732.72,958.217 1732.72,945.928 1732.72,933.486 1732.72,920.892 1732.72,908.146 1732.72,895.246 1732.72,882.194 1732.72,868.99 1732.72,855.632 1732.72,842.122 
  1732.72,828.46 1732.72,814.644 1732.72,800.676 1732.72,786.556 1732.72,772.283 1732.72,757.857 1732.72,743.278 1732.72,728.547 1732.72,713.663 1732.72,698.626 
  
  "/>
<path clip-path="url(#clip2400)" d="
M1989.93 433.164 L2280.76 433.164 L2280.76 130.764 L1989.93 130.764  Z
  " fill="#ffffff" fill-rule="evenodd" fill-opacity="1"/>
<polyline clip-path="url(#clip2400)" style="stroke:#000000; stroke-width:4; stroke-opacity:1; fill:none" points="
  1989.93,433.164 2280.76,433.164 2280.76,130.764 1989.93,130.764 1989.93,433.164 
  "/>
<polyline clip-path="url(#clip2400)" style="stroke:#009af9; stroke-width:4; stroke-opacity:1; fill:none" points="
  2013.93,191.244 2157.93,191.244 
  "/>
<g clip-path="url(#clip2400)">
<text style="fill:#000000; fill-opacity:1; font-family:Arial,Helvetica Neue,Helvetica,sans-serif; font-size:48px; text-anchor:start;" transform="rotate(0, 2181.93, 208.744)" x="2181.93" y="208.744">y1</text>
</g>
<polyline clip-path="url(#clip2400)" style="stroke:#e26f46; stroke-width:4; stroke-opacity:1; fill:none" points="
  2013.93,251.724 2157.93,251.724 
  "/>
<g clip-path="url(#clip2400)">
<text style="fill:#000000; fill-opacity:1; font-family:Arial,Helvetica Neue,Helvetica,sans-serif; font-size:48px; text-anchor:start;" transform="rotate(0, 2181.93, 269.224)" x="2181.93" y="269.224">y2</text>
</g>
<polyline clip-path="url(#clip2400)" style="stroke:#3da44d; stroke-width:4; stroke-opacity:1; fill:none" points="
  2013.93,312.204 2157.93,312.204 
  "/>
<g clip-path="url(#clip2400)">
<text style="fill:#000000; fill-opacity:1; font-family:Arial,Helvetica Neue,Helvetica,sans-serif; font-size:48px; text-anchor:start;" transform="rotate(0, 2181.93, 329.704)" x="2181.93" y="329.704">y3</text>
</g>
<polyline clip-path="url(#clip2400)" style="stroke:#c271d2; stroke-width:4; stroke-opacity:1; fill:none" points="
  2013.93,372.684 2157.93,372.684 
  "/>
<g clip-path="url(#clip2400)">
<text style="fill:#000000; fill-opacity:1; font-family:Arial,Helvetica Neue,Helvetica,sans-serif; font-size:48px; text-anchor:start;" transform="rotate(0, 2181.93, 390.184)" x="2181.93" y="390.184">y4</text>
</g>
</svg>
