<?xml version="1.0" encoding="utf-8"?>
<svg xmlns="http://www.w3.org/2000/svg" xmlns:xlink="http://www.w3.org/1999/xlink" width="600" height="400" viewBox="0 0 2400 1600">
<defs>
  <clipPath id="clip0800">
    <rect x="0" y="0" width="2400" height="1600"/>
  </clipPath>
</defs>
<path clip-path="url(#clip0800)" d="
M0 1600 L2400 1600 L2400 0 L0 0  Z
  " fill="#ffffff" fill-rule="evenodd" fill-opacity="1"/>
<defs>
  <clipPath id="clip0801">
    <rect x="480" y="0" width="1681" height="1600"/>
  </clipPath>
</defs>
<path clip-path="url(#clip0800)" d="
M140.517 1487.47 L2352.76 1487.47 L2352.76 47.2441 L140.517 47.2441  Z
  " fill="#ffffff" fill-rule="evenodd" fill-opacity="1"/>
<defs>
  <clipPath id="clip0802">
    <rect x="140" y="47" width="2213" height="1441"/>
  </clipPath>
</defs>
<polyline clip-path="url(#clip0802)" style="stroke:#000000; stroke-width:2; stroke-opacity:0.1; fill:none" points="
  181.831,1487.47 181.831,47.2441 
  "/>
<polyline clip-path="url(#clip0802)" style="stroke:#000000; stroke-width:2; stroke-opacity:0.1; fill:none" points="
  714.234,1487.47 714.234,47.2441 
  "/>
<polyline clip-path="url(#clip0802)" style="stroke:#000000; stroke-width:2; stroke-opacity:0.1; fill:none" points="
  1246.64,1487.47 1246.64,47.2441 
  "/>
<polyline clip-path="url(#clip0802)" style="stroke:#000000; stroke-width:2; stroke-opacity:0.1; fill:none" points="
  1779.04,1487.47 1779.04,47.2441 
  "/>
<polyline clip-path="url(#clip0802)" style="stroke:#000000; stroke-width:2; stroke-opacity:0.1; fill:none" points="
  2311.44,1487.47 2311.44,47.2441 
  "/>
<polyline clip-path="url(#clip0802)" style="stroke:#000000; stroke-width:2; stroke-opacity:0.1; fill:none" points="
  140.517,1310.21 2352.76,1310.21 
  "/>
<polyline clip-path="url(#clip0802)" style="stroke:#000000; stroke-width:2; stroke-opacity:0.1; fill:none" points="
  140.517,979.164 2352.76,979.164 
  "/>
<polyline clip-path="url(#clip0802)" style="stroke:#000000; stroke-width:2; stroke-opacity:0.1; fill:none" points="
  140.517,648.117 2352.76,648.117 
  "/>
<polyline clip-path="url(#clip0802)" style="stroke:#000000; stroke-width:2; stroke-opacity:0.1; fill:none" points="
  140.517,317.071 2352.76,317.071 
  "/>
<polyline clip-path="url(#clip0800)" style="stroke:#000000; stroke-width:4; stroke-opacity:1; fill:none" points="
  140.517,1487.47 2352.76,1487.47 
  "/>
<polyline clip-path="url(#clip0800)" style="stroke:#000000; stroke-width:4; stroke-opacity:1; fill:none" points="
  140.517,1487.47 140.517,47.2441 
  "/>
<polyline clip-path="url(#clip0800)" style="stroke:#000000; stroke-width:4; stroke-opacity:1; fill:none" points="
  181.831,1487.47 181.831,1470.19 
  "/>
<polyline clip-path="url(#clip0800)" style="stroke:#000000; stroke-width:4; stroke-opacity:1; fill:none" points="
  714.234,1487.47 714.234,1470.19 
  "/>
<polyline clip-path="url(#clip0800)" style="stroke:#000000; stroke-width:4; stroke-opacity:1; fill:none" points="
  1246.64,1487.47 1246.64,1470.19 
  "/>
<polyline clip-path="url(#clip0800)" style="stroke:#000000; stroke-width:4; stroke-opacity:1; fill:none" points="
  1779.04,1487.47 1779.04,1470.19 
  "/>
<polyline clip-path="url(#clip0800)" style="stroke:#000000; stroke-width:4; stroke-opacity:1; fill:none" points="
  2311.44,1487.47 2311.44,1470.19 
  "/>
<polyline clip-path="url(#clip0800)" style="stroke:#000000; stroke-width:4; stroke-opacity:1; fill:none" points="
  140.517,1310.21 167.064,1310.21 
  "/>
<polyline clip-path="url(#clip0800)" style="stroke:#000000; stroke-width:4; stroke-opacity:1; fill:none" points="
  140.517,979.164 167.064,979.164 
  "/>
<polyline clip-path="url(#clip0800)" style="stroke:#000000; stroke-width:4; stroke-opacity:1; fill:none" points="
  140.517,648.117 167.064,648.117 
  "/>
<polyline clip-path="url(#clip0800)" style="stroke:#000000; stroke-width:4; stroke-opacity:1; fill:none" points="
  140.517,317.071 167.064,317.071 
  "/>
<g clip-path="url(#clip0800)">
<text style="fill:#000000; fill-opacity:1; font-family:Arial,Helvetica Neue,Helvetica,sans-serif; font-size:48px; text-anchor:middle;" transform="rotate(0, 181.831, 1541.47)" x="181.831" y="1541.47">0</text>
</g>
<g clip-path="url(#clip0800)">
<text style="fill:#000000; fill-opacity:1; font-family:Arial,Helvetica Neue,Helvetica,sans-serif; font-size:48px; text-anchor:middle;" transform="rotate(0, 714.234, 1541.47)" x="714.234" y="1541.47">25</text>
</g>
<g clip-path="url(#clip0800)">
<text style="fill:#000000; fill-opacity:1; font-family:Arial,Helvetica Neue,Helvetica,sans-serif; font-size:48px; text-anchor:middle;" transform="rotate(0, 1246.64, 1541.47)" x="1246.64" y="1541.47">50</text>
</g>
<g clip-path="url(#clip0800)">
<text style="fill:#000000; fill-opacity:1; font-family:Arial,Helvetica Neue,Helvetica,sans-serif; font-size:48px; text-anchor:middle;" transform="rotate(0, 1779.04, 1541.47)" x="1779.04" y="1541.47">75</text>
</g>
<g clip-path="url(#clip0800)">
<text style="fill:#000000; fill-opacity:1; font-family:Arial,Helvetica Neue,Helvetica,sans-serif; font-size:48px; text-anchor:middle;" transform="rotate(0, 2311.44, 1541.47)" x="2311.44" y="1541.47">100</text>
</g>
<g clip-path="url(#clip0800)">
<text style="fill:#000000; fill-opacity:1; font-family:Arial,Helvetica Neue,Helvetica,sans-serif; font-size:48px; text-anchor:end;" transform="rotate(0, 116.517, 1327.71)" x="116.517" y="1327.71">5</text>
</g>
<g clip-path="url(#clip0800)">
<text style="fill:#000000; fill-opacity:1; font-family:Arial,Helvetica Neue,Helvetica,sans-serif; font-size:48px; text-anchor:end;" transform="rotate(0, 116.517, 996.664)" x="116.517" y="996.664">10</text>
</g>
<g clip-path="url(#clip0800)">
<text style="fill:#000000; fill-opacity:1; font-family:Arial,Helvetica Neue,Helvetica,sans-serif; font-size:48px; text-anchor:end;" transform="rotate(0, 116.517, 665.617)" x="116.517" y="665.617">15</text>
</g>
<g clip-path="url(#clip0800)">
<text style="fill:#000000; fill-opacity:1; font-family:Arial,Helvetica Neue,Helvetica,sans-serif; font-size:48px; text-anchor:end;" transform="rotate(0, 116.517, 334.571)" x="116.517" y="334.571">20</text>
</g>
<polyline clip-path="url(#clip0802)" style="stroke:#009af9; stroke-width:4; stroke-opacity:1; fill:none" points="
  203.127,811.352 224.423,88.0053 245.72,732.843 267.016,511.456 288.312,395.941 309.608,881.757 330.904,1276.48 352.2,1175.58 373.496,806.823 394.792,794.004 
  416.088,728.336 437.384,1024.54 458.681,785.834 479.977,1050.4 501.273,803.443 522.569,871.384 543.865,912.872 565.161,965.152 586.457,1137.39 607.753,777.387 
  629.049,1090 650.345,1143.41 671.642,1072.51 692.938,1360.55 714.234,584.913 735.53,1090.18 756.826,1193.65 778.122,930.6 799.418,1162.37 820.714,1038.79 
  842.01,1180.57 863.307,1261.34 884.603,817.64 905.899,845.178 927.195,1284.84 948.491,1070.83 969.787,1187.89 991.083,1121.62 1012.38,1192.63 1033.68,968.063 
  1054.97,1087.08 1076.27,1219.22 1097.56,1012.07 1118.86,814.398 1140.16,1009.83 1161.45,1132.51 1182.75,499.389 1204.04,981.567 1225.34,1046.96 1246.64,1154.44 
  1267.93,953.357 1289.23,901.259 1310.52,1176.49 1331.82,1067.45 1353.12,1185.96 1374.41,616.421 1395.71,1291.78 1417.01,1193.77 1438.3,1092.13 1459.6,961.264 
  1480.89,1231.39 1502.19,993.838 1523.49,1123.83 1544.78,964.534 1566.08,1179.48 1587.37,1105.82 1608.67,944.412 1629.97,1126.13 1651.26,959.928 1672.56,985.265 
  1693.85,992.397 1715.15,1210.13 1736.45,996.303 1757.74,953.68 1779.04,1114.69 1800.34,974.861 1821.63,1301.14 1842.93,1141.63 1864.22,877.652 1885.52,849.703 
  1906.82,1130.58 1928.11,719.819 1949.41,1265.7 1970.7,1180.42 1992,1230.88 2013.3,957.544 2034.59,795.926 2055.89,987.435 2077.18,1194.22 2098.48,1207.88 
  2119.78,1143.27 2141.07,1268.6 2162.37,944.366 2183.66,1010.9 2204.96,598.659 2226.26,824.487 2247.55,916.878 2268.85,1245.26 2290.15,1446.71 
  "/>
<path clip-path="url(#clip0800)" d="
M1989.93 251.724 L2280.76 251.724 L2280.76 130.764 L1989.93 130.764  Z
  " fill="#ffffff" fill-rule="evenodd" fill-opacity="1"/>
<polyline clip-path="url(#clip0800)" style="stroke:#000000; stroke-width:4; stroke-opacity:1; fill:none" points="
  1989.93,251.724 2280.76,251.724 2280.76,130.764 1989.93,130.764 1989.93,251.724 
  "/>
<polyline clip-path="url(#clip0800)" style="stroke:#009af9; stroke-width:4; stroke-opacity:1; fill:none" points="
  2013.93,191.244 2157.93,191.244 
  "/>
<g clip-path="url(#clip0800)">
<text style="fill:#000000; fill-opacity:1; font-family:Arial,Helvetica Neue,Helvetica,sans-serif; font-size:48px; text-anchor:start;" transform="rotate(0, 2181.93, 208.744)" x="2181.93" y="208.744">y1</text>
</g>
</svg>
