<svg version="1.1" viewBox="0.0 0.0 600.0 371.0" fill="none" stroke="none" stroke-linecap="square" stroke-miterlimit="10" width="600" height="371" xmlns:xlink="http://www.w3.org/1999/xlink" xmlns="http://www.w3.org/2000/svg"><path fill="#ffffff" d="M0 0L600.0 0L600.0 371.0L0 371.0L0 0Z" fill-rule="nonzero"/><path stroke="#cccccc" stroke-width="1.0" stroke-linecap="butt" d="M121.5 88.5L121.5 300.5" fill-rule="nonzero"/><path stroke="#cccccc" stroke-width="1.0" stroke-linecap="butt" d="M233.5 88.5L233.5 300.5" fill-rule="nonzero"/><path stroke="#cccccc" stroke-width="1.0" stroke-linecap="butt" d="M344.5 88.5L344.5 300.5" fill-rule="nonzero"/><path stroke="#cccccc" stroke-width="1.0" stroke-linecap="butt" d="M456.5 88.5L456.5 300.5" fill-rule="nonzero"/><path stroke="#cccccc" stroke-width="1.0" stroke-linecap="butt" d="M568.5 88.5L568.5 300.5" fill-rule="nonzero"/><path stroke="#333333" stroke-width="1.0" stroke-linecap="butt" d="M45.5 300.5L581.5 300.5" fill-rule="nonzero"/><path stroke="#cccccc" stroke-width="1.0" stroke-linecap="butt" d="M45.5 247.5L581.5 247.5" fill-rule="nonzero"/><path stroke="#cccccc" stroke-width="1.0" stroke-linecap="butt" d="M45.5 194.5L581.5 194.5" fill-rule="nonzero"/><path stroke="#cccccc" stroke-width="1.0" stroke-linecap="butt" d="M45.5 141.5L581.5 141.5" fill-rule="nonzero"/><path stroke="#cccccc" stroke-width="1.0" stroke-linecap="butt" d="M45.5 88.5L581.5 88.5" fill-rule="nonzero"/><clipPath id="id_0"><path d="M45.55 88.28333L581.45 88.28333L581.45 300.45L45.55 300.45L45.55 88.28333Z" clip-rule="nonzero"/></clipPath><path stroke="#4285f4" stroke-width="2.0" stroke-linecap="butt" clip-path="url(#id_0)" d="M45.55 299.21704L81.276665 298.24225L152.73 293.46625L295.63666 272.27426L581.45 117.64826" fill-rule="nonzero"/><path stroke="#ea4335" stroke-width="2.0" stroke-linecap="butt" clip-path="url(#id_0)" d="M45.55 299.2955L81.276665 298.37076L152.73 293.9365L295.63666 272.80362L581.45 118.347565" fill-rule="nonzero"/><path fill="#000000" fill-opacity="0.0" clip-path="url(#id_0)" d="M48.55 299.21704C48.55 300.8739 47.206856 302.21704 45.55 302.21704C43.893147 302.21704 42.55 300.8739 42.55 299.21704C42.55 297.56018 43.893147 296.21704 45.55 296.21704C47.206856 296.21704 48.55 297.56018 48.55 299.21704Z" fill-rule="nonzero"/><path fill="#000000" fill-opacity="0.0" clip-path="url(#id_0)" d="M84.276665 298.24225C84.276665 299.89908 82.93352 301.24225 81.276665 301.24225C79.61981 301.24225 78.276665 299.89908 78.276665 298.24225C78.276665 296.5854 79.61981 295.24225 81.276665 295.24225C82.93352 295.24225 84.276665 296.5854 84.276665 298.24225Z" fill-rule="nonzero"/><path fill="#000000" fill-opacity="0.0" clip-path="url(#id_0)" d="M155.73 293.46625C155.73 295.1231 154.38686 296.46625 152.73 296.46625C151.07315 296.46625 149.73 295.1231 149.73 293.46625C149.73 291.80942 151.07315 290.46625 152.73 290.46625C154.38686 290.46625 155.73 291.80942 155.73 293.46625Z" fill-rule="nonzero"/><path fill="#000000" fill-opacity="0.0" clip-path="url(#id_0)" d="M298.63666 272.27426C298.63666 273.93112 297.29352 275.27426 295.63666 275.27426C293.9798 275.27426 292.63666 273.93112 292.63666 272.27426C292.63666 270.6174 293.9798 269.27426 295.63666 269.27426C297.29352 269.27426 298.63666 270.6174 298.63666 272.27426Z" fill-rule="nonzero"/><path fill="#000000" fill-opacity="0.0" clip-path="url(#id_0)" d="M584.45 117.64826C584.45 119.305115 583.1069 120.64826 581.45 120.64826C579.79315 120.64826 578.45 119.305115 578.45 117.64826C578.45 115.99141 579.79315 114.64826 581.45 114.64826C583.1069 114.64826 584.45 115.99141 584.45 117.64826Z" fill-rule="nonzero"/><path fill="#000000" fill-opacity="0.0" clip-path="url(#id_0)" d="M48.55 299.2955C48.55 300.95236 47.206856 302.2955 45.55 302.2955C43.893147 302.2955 42.55 300.95236 42.55 299.2955C42.55 297.63864 43.893147 296.2955 45.55 296.2955C47.206856 296.2955 48.55 297.63864 48.55 299.2955Z" fill-rule="nonzero"/><path fill="#000000" fill-opacity="0.0" clip-path="url(#id_0)" d="M84.276665 298.37076C84.276665 300.02762 82.93352 301.37076 81.276665 301.37076C79.61981 301.37076 78.276665 300.02762 78.276665 298.37076C78.276665 296.7139 79.61981 295.37076 81.276665 295.37076C82.93352 295.37076 84.276665 296.7139 84.276665 298.37076Z" fill-rule="nonzero"/><path fill="#000000" fill-opacity="0.0" clip-path="url(#id_0)" d="M155.73 293.9365C155.73 295.59332 154.38686 296.9365 152.73 296.9365C151.07315 296.9365 149.73 295.59332 149.73 293.9365C149.73 292.27963 151.07315 290.9365 152.73 290.9365C154.38686 290.9365 155.73 292.27963 155.73 293.9365Z" fill-rule="nonzero"/><path fill="#000000" fill-opacity="0.0" clip-path="url(#id_0)" d="M298.63666 272.80362C298.63666 274.46048 297.29352 275.80362 295.63666 275.80362C293.9798 275.80362 292.63666 274.46048 292.63666 272.80362C292.63666 271.14676 293.9798 269.80362 295.63666 269.80362C297.29352 269.80362 298.63666 271.14676 298.63666 272.80362Z" fill-rule="nonzero"/><path fill="#000000" fill-opacity="0.0" clip-path="url(#id_0)" d="M584.45 118.347565C584.45 120.00442 583.1069 121.347565 581.45 121.347565C579.79315 121.347565 578.45 120.00442 578.45 118.347565C578.45 116.690704 579.79315 115.347565 581.45 115.347565C583.1069 115.347565 584.45 116.690704 584.45 118.347565Z" fill-rule="nonzero"/><path fill="#000000" d="M284.39062 349.45L284.39062 340.85626L286.10938 340.85626L288.14062 346.9344Q288.42188 347.79376 288.54688 348.21564Q288.6875 347.7469 289.0 346.84064L291.0625 340.85626L292.59375 340.85626L292.59375 349.45L291.5 349.45L291.5 342.2625L289.0 349.45L287.96875 349.45L285.48438 342.1375L285.48438 349.45L284.39062 349.45ZM298.35938 348.6844Q297.76562 349.1844 297.21875 349.3875Q296.6875 349.59064 296.0625 349.59064Q295.03125 349.59064 294.48438 349.09064Q293.9375 348.59064 293.9375 347.8094Q293.9375 347.35626 294.14062 346.98126Q294.34375 346.59064 294.6875 346.3719Q295.03125 346.1375 295.45312 346.02814Q295.75 345.9344 296.39062 345.85626Q297.65625 345.71564 298.26562 345.4969Q298.26562 345.27814 298.26562 345.23126Q298.26562 344.575 297.96875 344.3094Q297.5625 343.96564 296.76562 343.96564Q296.03125 343.96564 295.67188 344.23126Q295.3125 344.48126 295.14062 345.1375L294.10938 344.9969Q294.25 344.34064 294.57812 343.9344Q294.90625 343.52814 295.51562 343.3094Q296.125 343.09064 296.92188 343.09064Q297.71875 343.09064 298.21875 343.27814Q298.71875 343.46564 298.95312 343.7469Q299.1875 344.02814 299.28125 344.46564Q299.32812 344.73126 299.32812 345.4344L299.32812 346.84064Q299.32812 348.3094 299.39062 348.7Q299.46875 349.09064 299.67188 349.45L298.5625 349.45Q298.40625 349.1219 298.35938 348.6844ZM298.26562 346.325Q297.6875 346.5594 296.54688 346.73126Q295.89062 346.825 295.625 346.95Q295.35938 347.0594 295.20312 347.27814Q295.0625 347.4969 295.0625 347.77814Q295.0625 348.2 295.375 348.48126Q295.70312 348.7625 296.3125 348.7625Q296.92188 348.7625 297.39062 348.4969Q297.875 348.23126 298.09375 347.7625Q298.26562 347.40314 298.26562 346.71564L298.26562 346.325ZM303.59375 348.5125L303.75 349.4344Q303.29688 349.52814 302.95312 349.52814Q302.375 349.52814 302.0625 349.35626Q301.75 349.16876 301.60938 348.8719Q301.48438 348.575 301.48438 347.6219L301.48438 344.04376L300.71875 344.04376L300.71875 343.23126L301.48438 343.23126L301.48438 341.6844L302.53125 341.0594L302.53125 343.23126L303.59375 343.23126L303.59375 344.04376L302.53125 344.04376L302.53125 347.6844Q302.53125 348.1375 302.57812 348.2625Q302.64062 348.3875 302.76562 348.46564Q302.89062 348.54376 303.125 348.54376Q303.3125 348.54376 303.59375 348.5125ZM304.28125 349.45L304.28125 343.23126L305.23438 343.23126L305.23438 344.16876Q305.59375 343.5125 305.89062 343.3094Q306.20312 343.09064 306.57812 343.09064Q307.10938 343.09064 307.65625 343.41876L307.29688 344.40314Q306.90625 344.16876 306.53125 344.16876Q306.17188 344.16876 305.89062 344.3875Q305.625 344.59064 305.51562 344.96564Q305.32812 345.52814 305.32812 346.1844L305.32812 349.45L304.28125 349.45ZM308.29688 342.075L308.29688 340.85626L309.35938 340.85626L309.35938 342.075L308.29688 342.075ZM308.29688 349.45L308.29688 343.23126L309.35938 343.23126L309.35938 349.45L308.29688 349.45ZM310.59375 349.45L312.85938 346.21564L310.76562 343.23126L312.07812 343.23126L313.03125 344.6844Q313.29688 345.10626 313.46875 345.3875Q313.71875 344.9969 313.9375 344.7L314.98438 343.23126L316.25 343.23126L314.09375 346.15314L316.40625 349.45L315.125 349.45L313.84375 347.5125L313.5 346.9969L311.85938 349.45L310.59375 349.45ZM320.04688 346.6844L321.10938 346.59064Q321.1875 347.2469 321.46875 347.65314Q321.75 348.0594 322.32812 348.325Q322.92188 348.575 323.65625 348.575Q324.29688 348.575 324.79688 348.3875Q325.29688 348.1844 325.53125 347.85626Q325.78125 347.5125 325.78125 347.1219Q325.78125 346.71564 325.54688 346.41876Q325.3125 346.10626 324.78125 345.90314Q324.42188 345.7625 323.23438 345.48126Q322.0625 345.2 321.59375 344.95Q320.96875 344.6219 320.67188 344.15314Q320.375 343.66876 320.375 343.075Q320.375 342.4344 320.73438 341.8719Q321.10938 341.29376 321.8125 341.0125Q322.53125 340.71564 323.39062 340.71564Q324.34375 340.71564 325.07812 341.02814Q325.8125 341.325 326.20312 341.9344Q326.59375 342.52814 326.625 343.27814L325.53125 343.35626Q325.4375 342.54376 324.92188 342.1375Q324.42188 341.71564 323.4375 341.71564Q322.40625 341.71564 321.9375 342.09064Q321.46875 342.46564 321.46875 342.9969Q321.46875 343.46564 321.79688 343.7625Q322.125 344.0594 323.5 344.3719Q324.89062 344.6844 325.40625 344.91876Q326.15625 345.27814 326.51562 345.8094Q326.875 346.325 326.875 347.02814Q326.875 347.71564 326.48438 348.325Q326.09375 348.91876 325.35938 349.2625Q324.625 349.59064 323.70312 349.59064Q322.53125 349.59064 321.73438 349.2625Q320.95312 348.91876 320.5 348.23126Q320.0625 347.54376 320.04688 346.6844ZM328.29688 342.075L328.29688 340.85626L329.35938 340.85626L329.35938 342.075L328.29688 342.075ZM328.29688 349.45L328.29688 343.23126L329.35938 343.23126L329.35938 349.45L328.29688 349.45ZM330.73438 349.45L330.73438 348.59064L334.70312 344.04376Q334.01562 344.075 333.5 344.075L330.96875 344.075L330.96875 343.23126L336.0625 343.23126L336.0625 343.91876L332.6875 347.8719L332.03125 348.59064Q332.75 348.54376 333.35938 348.54376L336.25 348.54376L336.25 349.45L330.73438 349.45ZM341.54688 347.45L342.64062 347.575Q342.39062 348.52814 341.6875 349.0594Q340.98438 349.59064 339.90625 349.59064Q338.54688 349.59064 337.73438 348.7469Q336.9375 347.90314 336.9375 346.3875Q336.9375 344.825 337.75 343.96564Q338.5625 343.09064 339.84375 343.09064Q341.09375 343.09064 341.875 343.9344Q342.67188 344.77814 342.67188 346.325Q342.67188 346.41876 342.67188 346.60626L338.03125 346.60626Q338.09375 347.6375 338.60938 348.1844Q339.125 348.71564 339.90625 348.71564Q340.48438 348.71564 340.89062 348.41876Q341.3125 348.10626 341.54688 347.45ZM338.09375 345.7469L341.5625 345.7469Q341.5 344.95 341.17188 344.5594Q340.65625 343.95 339.85938 343.95Q339.125 343.95 338.625 344.4344Q338.14062 344.91876 338.09375 345.7469Z" fill-rule="nonzero"/><path fill="#000000" d="M33.05 300.21564Q33.05 298.6844 33.3625 297.7625Q33.675 296.825 34.284374 296.325Q34.909374 295.825 35.846874 295.825Q36.534374 295.825 37.05 296.10626Q37.58125 296.3875 37.925 296.91876Q38.26875 297.4344 38.45625 298.1844Q38.64375 298.9344 38.64375 300.21564Q38.64375 301.73126 38.33125 302.65314Q38.034374 303.575 37.409374 304.09064Q36.8 304.59064 35.846874 304.59064Q34.6125 304.59064 33.89375 303.7Q33.05 302.6375 33.05 300.21564ZM34.128124 300.21564Q34.128124 302.325 34.628124 303.02814Q35.128124 303.73126 35.846874 303.73126Q36.58125 303.73126 37.065624 303.02814Q37.565624 302.325 37.565624 300.21564Q37.565624 298.09064 37.065624 297.40314Q36.58125 296.7 35.83125 296.7Q35.1125 296.7 34.675 297.3094Q34.128124 298.09064 34.128124 300.21564Z" fill-rule="nonzero"/><path fill="#000000" d="M31.596874 250.39272L31.596874 251.40834L25.909374 251.40834Q25.909374 251.03334 26.034374 250.67397Q26.253124 250.09584 26.721874 249.53334Q27.20625 248.97084 28.1125 248.23647Q29.51875 247.08022 30.003124 246.40834Q30.503124 245.73647 30.503124 245.14272Q30.503124 244.51772 30.05 244.09584Q29.596874 243.65834 28.878124 243.65834Q28.1125 243.65834 27.659374 244.11147Q27.20625 244.56459 27.190624 245.37709L26.1125 245.26772Q26.221874 244.04897 26.940624 243.42397Q27.675 242.78334 28.909374 242.78334Q30.14375 242.78334 30.8625 243.47084Q31.58125 244.15834 31.58125 245.17397Q31.58125 245.68959 31.3625 246.18959Q31.159374 246.67397 30.659374 247.23647Q30.175 247.78334 29.05 248.73647Q28.096874 249.53334 27.815624 249.83022Q27.55 250.11147 27.378124 250.39272L31.596874 250.39272ZM33.05 249.15834L34.159374 249.06459Q34.284374 249.87709 34.721874 250.28334Q35.175 250.68959 35.815624 250.68959Q36.565624 250.68959 37.096874 250.11147Q37.628124 249.53334 37.628124 248.59584Q37.628124 247.68959 37.1125 247.17397Q36.6125 246.64272 35.784374 246.64272Q35.284374 246.64272 34.8625 246.87709Q34.45625 247.11147 34.221874 247.47084L33.2375 247.34584L34.065624 242.93959L38.346874 242.93959L38.346874 243.93959L34.909374 243.93959L34.45625 246.25209Q35.221874 245.70522 36.065624 245.70522Q37.190624 245.70522 37.95625 246.48647Q38.7375 247.26772 38.7375 248.50209Q38.7375 249.65834 38.065624 250.51772Q37.2375 251.54897 35.815624 251.54897Q34.64375 251.54897 33.89375 250.89272Q33.159374 250.23647 33.05 249.15834Z" fill-rule="nonzero"/><path fill="#000000" d="M26.05 196.11667L27.159374 196.02292Q27.284374 196.83542 27.721874 197.24167Q28.175 197.64792 28.815624 197.64792Q29.565624 197.64792 30.096874 197.0698Q30.628124 196.49167 30.628124 195.55417Q30.628124 194.64792 30.1125 194.1323Q29.6125 193.60104 28.784374 193.60104Q28.284374 193.60104 27.8625 193.83542Q27.45625 194.0698 27.221874 194.42917L26.2375 194.30417L27.065624 189.89792L31.346874 189.89792L31.346874 190.89792L27.909374 190.89792L27.45625 193.21042Q28.221874 192.66354 29.065624 192.66354Q30.190624 192.66354 30.95625 193.4448Q31.7375 194.22604 31.7375 195.46042Q31.7375 196.61667 31.065624 197.47604Q30.2375 198.5073 28.815624 198.5073Q27.64375 198.5073 26.89375 197.85104Q26.159374 197.1948 26.05 196.11667ZM33.05 194.1323Q33.05 192.60104 33.3625 191.67917Q33.675 190.74167 34.284374 190.24167Q34.909374 189.74167 35.846874 189.74167Q36.534374 189.74167 37.05 190.02292Q37.58125 190.30417 37.925 190.83542Q38.26875 191.35104 38.45625 192.10104Q38.64375 192.85104 38.64375 194.1323Q38.64375 195.64792 38.33125 196.5698Q38.034374 197.49167 37.409374 198.0073Q36.8 198.5073 35.846874 198.5073Q34.6125 198.5073 33.89375 197.61667Q33.05 196.55417 33.05 194.1323ZM34.128124 194.1323Q34.128124 196.24167 34.628124 196.9448Q35.128124 197.64792 35.846874 197.64792Q36.58125 197.64792 37.065624 196.9448Q37.565624 196.24167 37.565624 194.1323Q37.565624 192.0073 37.065624 191.3198Q36.58125 190.61667 35.83125 190.61667Q35.1125 190.61667 34.675 191.22604Q34.128124 192.0073 34.128124 194.1323Z" fill-rule="nonzero"/><path fill="#000000" d="M26.1125 137.85625L26.1125 136.84062L31.675 136.84062L31.675 137.66875Q30.8625 138.54375 30.05 139.99687Q29.253124 141.43437 28.815624 142.96562Q28.4875 144.04375 28.409374 145.325L27.315624 145.325Q27.33125 144.30937 27.70625 142.87187Q28.096874 141.43437 28.8 140.10625Q29.51875 138.77812 30.33125 137.85625L26.1125 137.85625ZM33.05 143.075L34.159374 142.98125Q34.284374 143.79375 34.721874 144.2Q35.175 144.60625 35.815624 144.60625Q36.565624 144.60625 37.096874 144.02812Q37.628124 143.45 37.628124 142.5125Q37.628124 141.60625 37.1125 141.09062Q36.6125 140.55937 35.784374 140.55937Q35.284374 140.55937 34.8625 140.79375Q34.45625 141.02812 34.221874 141.3875L33.2375 141.2625L34.065624 136.85625L38.346874 136.85625L38.346874 137.85625L34.909374 137.85625L34.45625 140.16875Q35.221874 139.62187 36.065624 139.62187Q37.190624 139.62187 37.95625 140.40312Q38.7375 141.18437 38.7375 142.41875Q38.7375 143.575 38.065624 144.43437Q37.2375 145.46562 35.815624 145.46562Q34.64375 145.46562 33.89375 144.80937Q33.159374 144.15312 33.05 143.075Z" fill-rule="nonzero"/><path fill="#000000" d="M23.01875 92.28333L21.971874 92.28333L21.971874 85.56458Q21.58125 85.92396 20.95625 86.29896Q20.346874 86.65833 19.8625 86.83021L19.8625 85.81458Q20.7375 85.39271 21.39375 84.81458Q22.065624 84.22083 22.346874 83.65833L23.01875 83.65833L23.01875 92.28333ZM26.05 88.04896Q26.05 86.51771 26.3625 85.59583Q26.675 84.65833 27.284374 84.15833Q27.909374 83.65833 28.846874 83.65833Q29.534374 83.65833 30.05 83.93958Q30.58125 84.22083 30.925 84.75208Q31.26875 85.26771 31.45625 86.01771Q31.64375 86.76771 31.64375 88.04896Q31.64375 89.56458 31.33125 90.48646Q31.034374 91.40833 30.409374 91.92396Q29.8 92.42396 28.846874 92.42396Q27.6125 92.42396 26.89375 91.53333Q26.05 90.47083 26.05 88.04896ZM27.128124 88.04896Q27.128124 90.15833 27.628124 90.86146Q28.128124 91.56458 28.846874 91.56458Q29.58125 91.56458 30.065624 90.86146Q30.565624 90.15833 30.565624 88.04896Q30.565624 85.92396 30.065624 85.23646Q29.58125 84.53333 28.83125 84.53333Q28.1125 84.53333 27.675 85.14271Q27.128124 85.92396 27.128124 88.04896ZM33.05 88.04896Q33.05 86.51771 33.3625 85.59583Q33.675 84.65833 34.284374 84.15833Q34.909374 83.65833 35.846874 83.65833Q36.534374 83.65833 37.05 83.93958Q37.58125 84.22083 37.925 84.75208Q38.26875 85.26771 38.45625 86.01771Q38.64375 86.76771 38.64375 88.04896Q38.64375 89.56458 38.33125 90.48646Q38.034374 91.40833 37.409374 91.92396Q36.8 92.42396 35.846874 92.42396Q34.6125 92.42396 33.89375 91.53333Q33.05 90.47083 33.05 88.04896ZM34.128124 88.04896Q34.128124 90.15833 34.628124 90.86146Q35.128124 91.56458 35.846874 91.56458Q36.58125 91.56458 37.065624 90.86146Q37.565624 90.15833 37.565624 88.04896Q37.565624 85.92396 37.065624 85.23646Q36.58125 84.53333 35.83125 84.53333Q35.1125 84.53333 34.675 85.14271Q34.128124 85.92396 34.128124 88.04896Z" fill-rule="nonzero"/><path fill="#000000" d="M115.43792 317.45L114.391045 317.45L114.391045 310.73126Q114.00042 311.09064 113.37542 311.46564Q112.766045 311.825 112.28167 311.9969L112.28167 310.98126Q113.15667 310.5594 113.81292 309.98126Q114.484795 309.3875 114.766045 308.825L115.43792 308.825L115.43792 317.45ZM118.46917 313.21564Q118.46917 311.6844 118.78167 310.7625Q119.09417 309.825 119.703545 309.325Q120.328545 308.825 121.266045 308.825Q121.953545 308.825 122.46917 309.10626Q123.00042 309.3875 123.34417 309.91876Q123.68792 310.4344 123.87542 311.1844Q124.06292 311.9344 124.06292 313.21564Q124.06292 314.73126 123.75042 315.65314Q123.453545 316.575 122.828545 317.09064Q122.21917 317.59064 121.266045 317.59064Q120.03167 317.59064 119.31292 316.7Q118.46917 315.6375 118.46917 313.21564ZM119.547295 313.21564Q119.547295 315.325 120.047295 316.02814Q120.547295 316.73126 121.266045 316.73126Q122.00042 316.73126 122.484795 316.02814Q122.984795 315.325 122.984795 313.21564Q122.984795 311.09064 122.484795 310.40314Q122.00042 309.7 121.25042 309.7Q120.53167 309.7 120.09417 310.3094Q119.547295 311.09064 119.547295 313.21564ZM125.46917 313.21564Q125.46917 311.6844 125.78167 310.7625Q126.09417 309.825 126.703545 309.325Q127.328545 308.825 128.26605 308.825Q128.95355 308.825 129.46918 309.10626Q130.00043 309.3875 130.34418 309.91876Q130.68793 310.4344 130.87543 311.1844Q131.06293 311.9344 131.06293 313.21564Q131.06293 314.73126 130.75043 315.65314Q130.45355 316.575 129.82855 317.09064Q129.21918 317.59064 128.26605 317.59064Q127.03167 317.59064 126.31292 316.7Q125.46917 315.6375 125.46917 313.21564ZM126.547295 313.21564Q126.547295 315.325 127.047295 316.02814Q127.547295 316.73126 128.26605 316.73126Q129.00043 316.73126 129.4848 316.02814Q129.9848 315.325 129.9848 313.21564Q129.9848 311.09064 129.4848 310.40314Q129.00043 309.7 128.25043 309.7Q127.53167 309.7 127.09417 310.3094Q126.547295 311.09064 126.547295 313.21564Z" fill-rule="nonzero"/><path fill="#000000" d="M228.66188 316.4344L228.66188 317.45L222.97438 317.45Q222.97438 317.075 223.09938 316.71564Q223.31813 316.1375 223.78688 315.575Q224.27126 315.0125 225.1775 314.27814Q226.58376 313.1219 227.06813 312.45Q227.56813 311.77814 227.56813 311.1844Q227.56813 310.5594 227.115 310.1375Q226.66188 309.7 225.94313 309.7Q225.1775 309.7 224.72438 310.15314Q224.27126 310.60626 224.25563 311.41876L223.1775 311.3094Q223.28688 310.09064 224.00563 309.46564Q224.74 308.825 225.97438 308.825Q227.20876 308.825 227.9275 309.5125Q228.64626 310.2 228.64626 311.21564Q228.64626 311.73126 228.4275 312.23126Q228.22438 312.71564 227.72438 313.27814Q227.24 313.825 226.115 314.77814Q225.16188 315.575 224.88063 315.8719Q224.615 316.15314 224.44313 316.4344L228.66188 316.4344ZM230.115 313.21564Q230.115 311.6844 230.4275 310.7625Q230.74 309.825 231.34938 309.325Q231.97438 308.825 232.91188 308.825Q233.59938 308.825 234.115 309.10626Q234.64626 309.3875 234.99 309.91876Q235.33376 310.4344 235.52126 311.1844Q235.70876 311.9344 235.70876 313.21564Q235.70876 314.73126 235.39626 315.65314Q235.09938 316.575 234.47438 317.09064Q233.865 317.59064 232.91188 317.59064Q231.6775 317.59064 230.95876 316.7Q230.115 315.6375 230.115 313.21564ZM231.19313 313.21564Q231.19313 315.325 231.69313 316.02814Q232.19313 316.73126 232.91188 316.73126Q233.64626 316.73126 234.13063 316.02814Q234.63063 315.325 234.63063 313.21564Q234.63063 311.09064 234.13063 310.40314Q233.64626 309.7 232.89626 309.7Q232.1775 309.7 231.74 310.3094Q231.19313 311.09064 231.19313 313.21564ZM237.115 313.21564Q237.115 311.6844 237.4275 310.7625Q237.74 309.825 238.34938 309.325Q238.97438 308.825 239.91188 308.825Q240.59938 308.825 241.115 309.10626Q241.64626 309.3875 241.99 309.91876Q242.33376 310.4344 242.52126 311.1844Q242.70876 311.9344 242.70876 313.21564Q242.70876 314.73126 242.39626 315.65314Q242.09938 316.575 241.47438 317.09064Q240.865 317.59064 239.91188 317.59064Q238.6775 317.59064 237.95876 316.7Q237.115 315.6375 237.115 313.21564ZM238.19313 313.21564Q238.19313 315.325 238.69313 316.02814Q239.19313 316.73126 239.91188 316.73126Q240.64626 316.73126 241.13063 316.02814Q241.63063 315.325 241.63063 313.21564Q241.63063 311.09064 241.13063 310.40314Q240.64626 309.7 239.89626 309.7Q239.1775 309.7 238.74 310.3094Q238.19313 311.09064 238.19313 313.21564Z" fill-rule="nonzero"/><path fill="#000000" d="M334.76083 315.1844L335.82333 315.04376Q335.9952 315.9344 336.4327 316.34064Q336.8702 316.73126 337.4952 316.73126Q338.2452 316.73126 338.76083 316.21564Q339.27646 315.7 339.27646 314.9344Q339.27646 314.21564 338.79208 313.7469Q338.32333 313.2625 337.58896 313.2625Q337.29208 313.2625 336.83896 313.3875L336.96396 312.45Q337.07333 312.46564 337.13583 312.46564Q337.8077 312.46564 338.33896 312.1219Q338.88583 311.7625 338.88583 311.02814Q338.88583 310.45 338.4952 310.075Q338.10458 309.6844 337.47958 309.6844Q336.8702 309.6844 336.44833 310.075Q336.04208 310.46564 335.9327 311.23126L334.8702 311.04376Q335.0577 309.9969 335.7452 309.41876Q336.4327 308.825 337.44833 308.825Q338.15146 308.825 338.7452 309.1375Q339.33896 309.4344 339.65146 309.95Q339.96396 310.46564 339.96396 311.0594Q339.96396 311.60626 339.66708 312.075Q339.3702 312.52814 338.79208 312.79376Q339.54208 312.96564 339.96396 313.52814Q340.38583 314.075 340.38583 314.91876Q340.38583 316.04376 339.5577 316.825Q338.7452 317.60626 337.4952 317.60626Q336.3702 317.60626 335.6202 316.9344Q334.8702 316.2469 334.76083 315.1844ZM341.76083 313.21564Q341.76083 311.6844 342.07333 310.7625Q342.38583 309.825 342.9952 309.325Q343.6202 308.825 344.5577 308.825Q345.2452 308.825 345.76083 309.10626Q346.29208 309.3875 346.63583 309.91876Q346.97958 310.4344 347.16708 311.1844Q347.35458 311.9344 347.35458 313.21564Q347.35458 314.73126 347.04208 315.65314Q346.7452 316.575 346.1202 317.09064Q345.51083 317.59064 344.5577 317.59064Q343.32333 317.59064 342.60458 316.7Q341.76083 315.6375 341.76083 313.21564ZM342.83896 313.21564Q342.83896 315.325 343.33896 316.02814Q343.83896 316.73126 344.5577 316.73126Q345.29208 316.73126 345.77646 316.02814Q346.27646 315.325 346.27646 313.21564Q346.27646 311.09064 345.77646 310.40314Q345.29208 309.7 344.54208 309.7Q343.82333 309.7 343.38583 310.3094Q342.83896 311.09064 342.83896 313.21564ZM348.76083 313.21564Q348.76083 311.6844 349.07333 310.7625Q349.38583 309.825 349.9952 309.325Q350.6202 308.825 351.5577 308.825Q352.2452 308.825 352.76083 309.10626Q353.29208 309.3875 353.63583 309.91876Q353.97958 310.4344 354.16708 311.1844Q354.35458 311.9344 354.35458 313.21564Q354.35458 314.73126 354.04208 315.65314Q353.7452 316.575 353.1202 317.09064Q352.51083 317.59064 351.5577 317.59064Q350.32333 317.59064 349.60458 316.7Q348.76083 315.6375 348.76083 313.21564ZM349.83896 313.21564Q349.83896 315.325 350.33896 316.02814Q350.83896 316.73126 351.5577 316.73126Q352.29208 316.73126 352.77646 316.02814Q353.27646 315.325 353.27646 313.21564Q353.27646 311.09064 352.77646 310.40314Q352.29208 309.7 351.54208 309.7Q350.82333 309.7 350.38583 310.3094Q349.83896 311.09064 349.83896 313.21564Z" fill-rule="nonzero"/><path fill="#000000" d="M449.78168 317.45L449.78168 315.3875L446.06293 315.3875L446.06293 314.41876L449.9848 308.85626L450.84418 308.85626L450.84418 314.41876L452.00043 314.41876L452.00043 315.3875L450.84418 315.3875L450.84418 317.45L449.78168 317.45ZM449.78168 314.41876L449.78168 310.5594L447.09418 314.41876L449.78168 314.41876ZM453.40668 313.21564Q453.40668 311.6844 453.71918 310.7625Q454.03168 309.825 454.64105 309.325Q455.26605 308.825 456.20355 308.825Q456.89105 308.825 457.40668 309.10626Q457.93793 309.3875 458.28168 309.91876Q458.62543 310.4344 458.81293 311.1844Q459.00043 311.9344 459.00043 313.21564Q459.00043 314.73126 458.68793 315.65314Q458.39105 316.575 457.76605 317.09064Q457.15668 317.59064 456.20355 317.59064Q454.96918 317.59064 454.25043 316.7Q453.40668 315.6375 453.40668 313.21564ZM454.4848 313.21564Q454.4848 315.325 454.9848 316.02814Q455.4848 316.73126 456.20355 316.73126Q456.93793 316.73126 457.4223 316.02814Q457.9223 315.325 457.9223 313.21564Q457.9223 311.09064 457.4223 310.40314Q456.93793 309.7 456.18793 309.7Q455.46918 309.7 455.03168 310.3094Q454.4848 311.09064 454.4848 313.21564ZM460.40668 313.21564Q460.40668 311.6844 460.71918 310.7625Q461.03168 309.825 461.64105 309.325Q462.26605 308.825 463.20355 308.825Q463.89105 308.825 464.40668 309.10626Q464.93793 309.3875 465.28168 309.91876Q465.62543 310.4344 465.81293 311.1844Q466.00043 311.9344 466.00043 313.21564Q466.00043 314.73126 465.68793 315.65314Q465.39105 316.575 464.76605 317.09064Q464.15668 317.59064 463.20355 317.59064Q461.96918 317.59064 461.25043 316.7Q460.40668 315.6375 460.40668 313.21564ZM461.4848 313.21564Q461.4848 315.325 461.9848 316.02814Q462.4848 316.73126 463.20355 316.73126Q463.93793 316.73126 464.4223 316.02814Q464.9223 315.325 464.9223 313.21564Q464.9223 311.09064 464.4223 310.40314Q463.93793 309.7 463.18793 309.7Q462.46918 309.7 462.03168 310.3094Q461.4848 311.09064 461.4848 313.21564Z" fill-rule="nonzero"/><path fill="#000000" d="M558.0525 315.2L559.16187 315.10626Q559.28687 315.91876 559.72437 316.325Q560.1775 316.73126 560.8181 316.73126Q561.5681 316.73126 562.09937 316.15314Q562.6306 315.575 562.6306 314.6375Q562.6306 313.73126 562.115 313.21564Q561.615 312.6844 560.78687 312.6844Q560.28687 312.6844 559.865 312.91876Q559.45874 313.15314 559.22437 313.5125L558.24 313.3875L559.0681 308.98126L563.34937 308.98126L563.34937 309.98126L559.91187 309.98126L559.45874 312.29376Q560.22437 311.7469 561.0681 311.7469Q562.1931 311.7469 562.95874 312.52814Q563.74 313.3094 563.74 314.54376Q563.74 315.7 563.0681 316.5594Q562.24 317.59064 560.8181 317.59064Q559.64624 317.59064 558.89624 316.9344Q558.16187 316.27814 558.0525 315.2ZM565.0525 313.21564Q565.0525 311.6844 565.365 310.7625Q565.6775 309.825 566.28687 309.325Q566.91187 308.825 567.84937 308.825Q568.53687 308.825 569.0525 309.10626Q569.58374 309.3875 569.9275 309.91876Q570.27124 310.4344 570.45874 311.1844Q570.64624 311.9344 570.64624 313.21564Q570.64624 314.73126 570.33374 315.65314Q570.03687 316.575 569.41187 317.09064Q568.8025 317.59064 567.84937 317.59064Q566.615 317.59064 565.89624 316.7Q565.0525 315.6375 565.0525 313.21564ZM566.1306 313.21564Q566.1306 315.325 566.6306 316.02814Q567.1306 316.73126 567.84937 316.73126Q568.58374 316.73126 569.0681 316.02814Q569.5681 315.325 569.5681 313.21564Q569.5681 311.09064 569.0681 310.40314Q568.58374 309.7 567.83374 309.7Q567.115 309.7 566.6775 310.3094Q566.1306 311.09064 566.1306 313.21564ZM572.0525 313.21564Q572.0525 311.6844 572.365 310.7625Q572.6775 309.825 573.28687 309.325Q573.91187 308.825 574.84937 308.825Q575.53687 308.825 576.0525 309.10626Q576.58374 309.3875 576.9275 309.91876Q577.27124 310.4344 577.45874 311.1844Q577.64624 311.9344 577.64624 313.21564Q577.64624 314.73126 577.33374 315.65314Q577.03687 316.575 576.41187 317.09064Q575.8025 317.59064 574.84937 317.59064Q573.615 317.59064 572.89624 316.7Q572.0525 315.6375 572.0525 313.21564ZM573.1306 313.21564Q573.1306 315.325 573.6306 316.02814Q574.1306 316.73126 574.84937 316.73126Q575.58374 316.73126 576.0681 316.02814Q576.5681 315.325 576.5681 313.21564Q576.5681 311.09064 576.0681 310.40314Q575.58374 309.7 574.83374 309.7Q574.115 309.7 573.6775 310.3094Q573.1306 311.09064 573.1306 313.21564Z" fill-rule="nonzero"/><path stroke="#4285f4" stroke-width="4.0" stroke-linecap="butt" d="M211.0 61.916668L223.0 61.916668" fill-rule="nonzero"/><path fill="#1a1a1a" d="M230.98438 65.916664L234.28125 57.322914L235.5 57.322914L239.01562 65.916664L237.73438 65.916664L236.71875 63.30729L233.14062 63.30729L232.1875 65.916664L230.98438 65.916664ZM233.46875 62.385414L236.375 62.385414L235.48438 60.010414Q235.0625 58.93229 234.875 58.229164Q234.70312 59.05729 234.40625 59.86979L233.46875 62.385414ZM243.82812 65.916664L243.82812 65.135414Q243.23438 66.05729 242.09375 66.05729Q241.34375 66.05729 240.71875 65.65104Q240.09375 65.229164 239.75 64.49479Q239.40625 63.760414 239.40625 62.80729Q239.40625 61.885414 239.71875 61.11979Q240.03125 60.354164 240.65625 59.96354Q241.28125 59.55729 242.04688 59.55729Q242.60938 59.55729 243.04688 59.791664Q243.48438 60.02604 243.76562 60.40104L243.76562 57.322914L244.8125 57.322914L244.8125 65.916664L243.82812 65.916664ZM240.5 62.80729Q240.5 64.010414 241.0 64.604164Q241.5 65.18229 242.1875 65.18229Q242.875 65.18229 243.35938 64.61979Q243.84375 64.05729 243.84375 62.90104Q243.84375 61.61979 243.34375 61.02604Q242.85938 60.43229 242.14062 60.43229Q241.4375 60.43229 240.96875 61.010414Q240.5 61.572914 240.5 62.80729ZM250.85938 65.15104Q250.26562 65.65104 249.71875 65.854164Q249.1875 66.05729 248.5625 66.05729Q247.53125 66.05729 246.98438 65.55729Q246.4375 65.05729 246.4375 64.27604Q246.4375 63.822914 246.64062 63.447914Q246.84375 63.05729 247.1875 62.83854Q247.53125 62.604164 247.95312 62.49479Q248.25 62.40104 248.89062 62.322914Q250.15625 62.18229 250.76562 61.96354Q250.76562 61.74479 250.76562 61.697914Q250.76562 61.041664 250.46875 60.77604Q250.0625 60.43229 249.26562 60.43229Q248.53125 60.43229 248.17188 60.697914Q247.8125 60.947914 247.64062 61.604164L246.60938 61.46354Q246.75 60.80729 247.07812 60.40104Q247.40625 59.99479 248.01562 59.77604Q248.625 59.55729 249.42188 59.55729Q250.21875 59.55729 250.71875 59.74479Q251.21875 59.93229 251.45312 60.21354Q251.6875 60.49479 251.78125 60.93229Q251.82812 61.197914 251.82812 61.90104L251.82812 63.30729Q251.82812 64.77604 251.89062 65.166664Q251.96875 65.55729 252.17188 65.916664L251.0625 65.916664Q250.90625 65.58854 250.85938 65.15104ZM250.76562 62.791664Q250.1875 63.02604 249.04688 63.197914Q248.39062 63.291664 248.125 63.416664Q247.85938 63.52604 247.70312 63.74479Q247.5625 63.96354 247.5625 64.24479Q247.5625 64.666664 247.875 64.947914Q248.20312 65.229164 248.8125 65.229164Q249.42188 65.229164 249.89062 64.96354Q250.375 64.697914 250.59375 64.229164Q250.76562 63.86979 250.76562 63.18229L250.76562 62.791664ZM253.79688 68.30729L253.79688 59.697914L254.75 59.697914L254.75 60.49479Q255.09375 60.02604 255.51562 59.791664Q255.95312 59.55729 256.5625 59.55729Q257.35938 59.55729 257.96875 59.96354Q258.57812 60.36979 258.875 61.11979Q259.1875 61.86979 259.1875 62.760414Q259.1875 63.71354 258.84375 64.479164Q258.51562 65.24479 257.85938 65.65104Q257.20312 66.05729 256.48438 66.05729Q255.95312 66.05729 255.53125 65.83854Q255.10938 65.604164 254.84375 65.27604L254.84375 68.30729L253.79688 68.30729ZM254.75 62.83854Q254.75 64.041664 255.23438 64.61979Q255.71875 65.18229 256.40625 65.18229Q257.10938 65.18229 257.60938 64.58854Q258.10938 63.99479 258.10938 62.74479Q258.10938 61.55729 257.625 60.979164Q257.14062 60.385414 256.45312 60.385414Q255.78125 60.385414 255.26562 61.010414Q254.75 61.635414 254.75 62.83854ZM263.09375 64.979164L263.25 65.90104Q262.79688 65.99479 262.45312 65.99479Q261.875 65.99479 261.5625 65.822914Q261.25 65.635414 261.10938 65.33854Q260.98438 65.041664 260.98438 64.08854L260.98438 60.510414L260.21875 60.510414L260.21875 59.697914L260.98438 59.697914L260.98438 58.15104L262.03125 57.52604L262.03125 59.697914L263.09375 59.697914L263.09375 60.510414L262.03125 60.510414L262.03125 64.15104Q262.03125 64.604164 262.07812 64.729164Q262.14062 64.854164 262.26562 64.93229Q262.39062 65.010414 262.625 65.010414Q262.8125 65.010414 263.09375 64.979164ZM263.79688 58.541664L263.79688 57.322914L264.85938 57.322914L264.85938 58.541664L263.79688 58.541664ZM263.79688 65.916664L263.79688 59.697914L264.85938 59.697914L264.85938 65.916664L263.79688 65.916664ZM268.51562 65.916664L266.15625 59.697914L267.26562 59.697914L268.60938 63.416664Q268.8125 64.02604 269.0 64.666664Q269.14062 64.18229 269.39062 63.49479L270.78125 59.697914L271.85938 59.697914L269.5 65.916664L268.51562 65.916664ZM277.04688 63.916664L278.14062 64.041664Q277.89062 64.99479 277.1875 65.52604Q276.48438 66.05729 275.40625 66.05729Q274.04688 66.05729 273.23438 65.21354Q272.4375 64.36979 272.4375 62.854164Q272.4375 61.291664 273.25 60.43229Q274.0625 59.55729 275.34375 59.55729Q276.59375 59.55729 277.375 60.40104Q278.17188 61.24479 278.17188 62.791664Q278.17188 62.885414 278.17188 63.072914L273.53125 63.072914Q273.59375 64.104164 274.10938 64.65104Q274.625 65.18229 275.40625 65.18229Q275.98438 65.18229 276.39062 64.885414Q276.8125 64.572914 277.04688 63.916664ZM273.59375 62.21354L277.0625 62.21354Q277.0 61.416664 276.67188 61.02604Q276.15625 60.416664 275.35938 60.416664Q274.625 60.416664 274.125 60.90104Q273.64062 61.385414 273.59375 62.21354Z" fill-rule="nonzero"/><path stroke="#ea4335" stroke-width="4.0" stroke-linecap="butt" d="M295.0 61.916668L307.0 61.916668" fill-rule="nonzero"/><path fill="#1a1a1a" d="M315.92188 65.916664L315.92188 57.322914L317.07812 57.322914L321.59375 64.072914L321.59375 57.322914L322.6875 57.322914L322.6875 65.916664L321.51562 65.916664L317.0 59.166664L317.0 65.916664L315.92188 65.916664ZM324.40625 62.80729Q324.40625 61.072914 325.35938 60.24479Q326.15625 59.55729 327.3125 59.55729Q328.59375 59.55729 329.40625 60.40104Q330.23438 61.229164 330.23438 62.71354Q330.23438 63.916664 329.875 64.604164Q329.51562 65.291664 328.8125 65.68229Q328.125 66.05729 327.3125 66.05729Q326.01562 66.05729 325.20312 65.229164Q324.40625 64.385414 324.40625 62.80729ZM325.48438 62.80729Q325.48438 63.99479 326.0 64.58854Q326.53125 65.18229 327.3125 65.18229Q328.10938 65.18229 328.625 64.58854Q329.14062 63.99479 329.14062 62.77604Q329.14062 61.61979 328.60938 61.02604Q328.09375 60.43229 327.3125 60.43229Q326.53125 60.43229 326.0 61.02604Q325.48438 61.604164 325.48438 62.80729ZM331.79688 65.916664L331.79688 59.697914L332.73438 59.697914L332.73438 60.572914Q333.42188 59.55729 334.71875 59.55729Q335.28125 59.55729 335.75 59.760414Q336.23438 59.96354 336.46875 60.291664Q336.70312 60.61979 336.79688 61.05729Q336.84375 61.354164 336.84375 62.08854L336.84375 65.916664L335.79688 65.916664L335.79688 62.135414Q335.79688 61.479164 335.67188 61.166664Q335.54688 60.854164 335.23438 60.666664Q334.92188 60.46354 334.5 60.46354Q333.82812 60.46354 333.32812 60.90104Q332.84375 61.322914 332.84375 62.510414L332.84375 65.916664L331.79688 65.916664ZM340.98438 65.916664L344.28125 57.322914L345.5 57.322914L349.01562 65.916664L347.73438 65.916664L346.71875 63.30729L343.14062 63.30729L342.1875 65.916664L340.98438 65.916664ZM343.46875 62.385414L346.375 62.385414L345.48438 60.010414Q345.0625 58.93229 344.875 58.229164Q344.70312 59.05729 344.40625 59.86979L343.46875 62.385414ZM353.82812 65.916664L353.82812 65.135414Q353.23438 66.05729 352.09375 66.05729Q351.34375 66.05729 350.71875 65.65104Q350.09375 65.229164 349.75 64.49479Q349.40625 63.760414 349.40625 62.80729Q349.40625 61.885414 349.71875 61.11979Q350.03125 60.354164 350.65625 59.96354Q351.28125 59.55729 352.04688 59.55729Q352.60938 59.55729 353.04688 59.791664Q353.48438 60.02604 353.76562 60.40104L353.76562 57.322914L354.8125 57.322914L354.8125 65.916664L353.82812 65.916664ZM350.5 62.80729Q350.5 64.010414 351.0 64.604164Q351.5 65.18229 352.1875 65.18229Q352.875 65.18229 353.35938 64.61979Q353.84375 64.05729 353.84375 62.90104Q353.84375 61.61979 353.34375 61.02604Q352.85938 60.43229 352.14062 60.43229Q351.4375 60.43229 350.96875 61.010414Q350.5 61.572914 350.5 62.80729ZM360.85938 65.15104Q360.26562 65.65104 359.71875 65.854164Q359.1875 66.05729 358.5625 66.05729Q357.53125 66.05729 356.98438 65.55729Q356.4375 65.05729 356.4375 64.27604Q356.4375 63.822914 356.64062 63.447914Q356.84375 63.05729 357.1875 62.83854Q357.53125 62.604164 357.95312 62.49479Q358.25 62.40104 358.89062 62.322914Q360.15625 62.18229 360.76562 61.96354Q360.76562 61.74479 360.76562 61.697914Q360.76562 61.041664 360.46875 60.77604Q360.0625 60.43229 359.26562 60.43229Q358.53125 60.43229 358.17188 60.697914Q357.8125 60.947914 357.64062 61.604164L356.60938 61.46354Q356.75 60.80729 357.07812 60.40104Q357.40625 59.99479 358.01562 59.77604Q358.625 59.55729 359.42188 59.55729Q360.21875 59.55729 360.71875 59.74479Q361.21875 59.93229 361.45312 60.21354Q361.6875 60.49479 361.78125 60.93229Q361.82812 61.197914 361.82812 61.90104L361.82812 63.30729Q361.82812 64.77604 361.89062 65.166664Q361.96875 65.55729 362.17188 65.916664L361.0625 65.916664Q360.90625 65.58854 360.85938 65.15104ZM360.76562 62.791664Q360.1875 63.02604 359.04688 63.197914Q358.39062 63.291664 358.125 63.416664Q357.85938 63.52604 357.70312 63.74479Q357.5625 63.96354 357.5625 64.24479Q357.5625 64.666664 357.875 64.947914Q358.20312 65.229164 358.8125 65.229164Q359.42188 65.229164 359.89062 64.96354Q360.375 64.697914 360.59375 64.229164Q360.76562 63.86979 360.76562 63.18229L360.76562 62.791664ZM363.79688 68.30729L363.79688 59.697914L364.75 59.697914L364.75 60.49479Q365.09375 60.02604 365.51562 59.791664Q365.95312 59.55729 366.5625 59.55729Q367.35938 59.55729 367.96875 59.96354Q368.57812 60.36979 368.875 61.11979Q369.1875 61.86979 369.1875 62.760414Q369.1875 63.71354 368.84375 64.479164Q368.51562 65.24479 367.85938 65.65104Q367.20312 66.05729 366.48438 66.05729Q365.95312 66.05729 365.53125 65.83854Q365.10938 65.604164 364.84375 65.27604L364.84375 68.30729L363.79688 68.30729ZM364.75 62.83854Q364.75 64.041664 365.23438 64.61979Q365.71875 65.18229 366.40625 65.18229Q367.10938 65.18229 367.60938 64.58854Q368.10938 63.99479 368.10938 62.74479Q368.10938 61.55729 367.625 60.979164Q367.14062 60.385414 366.45312 60.385414Q365.78125 60.385414 365.26562 61.010414Q364.75 61.635414 364.75 62.83854ZM373.09375 64.979164L373.25 65.90104Q372.79688 65.99479 372.45312 65.99479Q371.875 65.99479 371.5625 65.822914Q371.25 65.635414 371.10938 65.33854Q370.98438 65.041664 370.98438 64.08854L370.98438 60.510414L370.21875 60.510414L370.21875 59.697914L370.98438 59.697914L370.98438 58.15104L372.03125 57.52604L372.03125 59.697914L373.09375 59.697914L373.09375 60.510414L372.03125 60.510414L372.03125 64.15104Q372.03125 64.604164 372.07812 64.729164Q372.14062 64.854164 372.26562 64.93229Q372.39062 65.010414 372.625 65.010414Q372.8125 65.010414 373.09375 64.979164ZM373.79688 58.541664L373.79688 57.322914L374.85938 57.322914L374.85938 58.541664L373.79688 58.541664ZM373.79688 65.916664L373.79688 59.697914L374.85938 59.697914L374.85938 65.916664L373.79688 65.916664ZM378.51562 65.916664L376.15625 59.697914L377.26562 59.697914L378.60938 63.416664Q378.8125 64.02604 379.0 64.666664Q379.14062 64.18229 379.39062 63.49479L380.78125 59.697914L381.85938 59.697914L379.5 65.916664L378.51562 65.916664ZM387.04688 63.916664L388.14062 64.041664Q387.89062 64.99479 387.1875 65.52604Q386.48438 66.05729 385.40625 66.05729Q384.04688 66.05729 383.23438 65.21354Q382.4375 64.36979 382.4375 62.854164Q382.4375 61.291664 383.25 60.43229Q384.0625 59.55729 385.34375 59.55729Q386.59375 59.55729 387.375 60.40104Q388.17188 61.24479 388.17188 62.791664Q388.17188 62.885414 388.17188 63.072914L383.53125 63.072914Q383.59375 64.104164 384.10938 64.65104Q384.625 65.18229 385.40625 65.18229Q385.98438 65.18229 386.39062 64.885414Q386.8125 64.572914 387.04688 63.916664ZM383.59375 62.21354L387.0625 62.21354Q387.0 61.416664 386.67188 61.02604Q386.15625 60.416664 385.35938 60.416664Q384.625 60.416664 384.125 60.90104Q383.64062 61.385414 383.59375 62.21354Z" fill-rule="nonzero"/><path fill="#757575" d="M20.096874 37.55L20.096874 23.2375L25.4875 23.2375Q26.925 23.2375 27.675 23.3625Q28.721874 23.55 29.440624 24.05Q30.159374 24.534374 30.58125 25.425Q31.01875 26.315624 31.01875 27.378124Q31.01875 29.20625 29.846874 30.471874Q28.690624 31.721874 25.659374 31.721874L21.9875 31.721874L21.9875 37.55L20.096874 37.55ZM21.9875 30.034374L25.690624 30.034374Q27.51875 30.034374 28.284374 29.3625Q29.065624 28.675 29.065624 27.425Q29.065624 26.534374 28.6125 25.89375Q28.159374 25.253124 27.425 25.05Q26.940624 24.925 25.64375 24.925L21.9875 24.925L21.9875 30.034374ZM39.971874 34.20625L41.784374 34.440624Q41.3625 36.01875 40.190624 36.909374Q39.034374 37.784374 37.221874 37.784374Q34.95625 37.784374 33.6125 36.39375Q32.284374 34.9875 32.284374 32.45625Q32.284374 29.83125 33.628124 28.39375Q34.971874 26.940624 37.128124 26.940624Q39.20625 26.940624 40.51875 28.3625Q41.846874 29.76875 41.846874 32.346874Q41.846874 32.503124 41.83125 32.815624L34.096874 32.815624Q34.190624 34.51875 35.065624 35.425Q35.940624 36.33125 37.2375 36.33125Q38.20625 36.33125 38.878124 35.83125Q39.565624 35.315624 39.971874 34.20625ZM34.190624 31.3625L39.9875 31.3625Q39.878124 30.065624 39.33125 29.409374Q38.4875 28.39375 37.14375 28.39375Q35.940624 28.39375 35.1125 29.20625Q34.284374 30.003124 34.190624 31.3625ZM43.846874 37.55L43.846874 27.175L45.425 27.175L45.425 28.753124Q46.034374 27.64375 46.55 27.3Q47.065624 26.940624 47.675 26.940624Q48.565624 26.940624 49.4875 27.503124L48.878124 29.14375Q48.2375 28.753124 47.596874 28.753124Q47.01875 28.753124 46.55 29.1125Q46.096874 29.45625 45.89375 30.065624Q45.6125 31.003124 45.6125 32.1125L45.6125 37.55L43.846874 37.55ZM57.034374 37.55L57.034374 23.2375L59.89375 23.2375L63.26875 33.3625Q63.7375 34.784374 63.95625 35.4875Q64.20625 34.70625 64.72188 33.190624L68.14375 23.2375L70.69063 23.2375L70.69063 37.55L68.87813 37.55L68.87813 25.565624L64.70625 37.55L63.003124 37.55L58.8625 25.3625L58.8625 37.55L57.034374 37.55ZM80.97188 34.20625L82.78438 34.440624Q82.3625 36.01875 81.19063 36.909374Q80.03438 37.784374 78.22188 37.784374Q75.95625 37.784374 74.6125 36.39375Q73.28438 34.9875 73.28438 32.45625Q73.28438 29.83125 74.62813 28.39375Q75.97188 26.940624 78.12813 26.940624Q80.20625 26.940624 81.51875 28.3625Q82.84688 29.76875 82.84688 32.346874Q82.84688 32.503124 82.83125 32.815624L75.09688 32.815624Q75.19063 34.51875 76.06563 35.425Q76.94063 36.33125 78.2375 36.33125Q79.20625 36.33125 79.87813 35.83125Q80.56563 35.315624 80.97188 34.20625ZM75.19063 31.3625L80.9875 31.3625Q80.87813 30.065624 80.33125 29.409374Q79.4875 28.39375 78.14375 28.39375Q76.94063 28.39375 76.1125 29.20625Q75.28438 30.003124 75.19063 31.3625ZM91.64375 36.26875Q90.65938 37.096874 89.75313 37.440624Q88.84688 37.784374 87.81563 37.784374Q86.1125 37.784374 85.19063 36.95625Q84.26875 36.1125 84.26875 34.815624Q84.26875 34.05 84.6125 33.425Q84.97188 32.8 85.53438 32.425Q86.09688 32.034374 86.8 31.83125Q87.31563 31.70625 88.3625 31.565624Q90.4875 31.315624 91.4875 30.971874Q91.50313 30.6125 91.50313 30.503124Q91.50313 29.440624 91.00313 28.9875Q90.33125 28.39375 89.00313 28.39375Q87.75313 28.39375 87.15938 28.83125Q86.58125 29.26875 86.3 30.378124L84.58125 30.14375Q84.81563 29.034374 85.34688 28.3625Q85.87813 27.675 86.89375 27.315624Q87.90938 26.940624 89.25313 26.940624Q90.58125 26.940624 91.40938 27.253124Q92.2375 27.565624 92.62813 28.05Q93.01875 28.51875 93.175 29.2375Q93.26875 29.690624 93.26875 30.8625L93.26875 33.20625Q93.26875 35.659374 93.37813 36.315624Q93.4875 36.95625 93.83125 37.55L91.9875 37.55Q91.72188 37.003124 91.64375 36.26875ZM91.4875 32.346874Q90.53438 32.7375 88.6125 33.003124Q87.53438 33.159374 87.08125 33.3625Q86.64375 33.55 86.39375 33.925Q86.14375 34.3 86.14375 34.76875Q86.14375 35.471874 86.675 35.940624Q87.20625 36.409374 88.2375 36.409374Q89.25313 36.409374 90.03438 35.971874Q90.83125 35.51875 91.20625 34.753124Q91.4875 34.14375 91.4875 32.9875L91.4875 32.346874ZM95.15938 34.45625L96.90938 34.175Q97.05 35.221874 97.72188 35.784374Q98.39375 36.33125 99.59688 36.33125Q100.8 36.33125 101.37813 35.846874Q101.97188 35.346874 101.97188 34.690624Q101.97188 34.096874 101.45625 33.753124Q101.09688 33.51875 99.65938 33.159374Q97.72188 32.659374 96.97188 32.315624Q96.2375 31.95625 95.84688 31.33125Q95.45625 30.690624 95.45625 29.925Q95.45625 29.2375 95.76875 28.64375Q96.09688 28.05 96.64375 27.659374Q97.05 27.3625 97.75313 27.159374Q98.47188 26.940624 99.28438 26.940624Q100.50313 26.940624 101.425 27.3Q102.34688 27.64375 102.78438 28.253124Q103.22188 28.846874 103.39375 29.846874L101.675 30.08125Q101.55 29.284374 100.9875 28.846874Q100.425 28.39375 99.40938 28.39375Q98.19063 28.39375 97.675 28.8Q97.15938 29.190624 97.15938 29.721874Q97.15938 30.065624 97.37813 30.346874Q97.58125 30.628124 98.05 30.815624Q98.31563 30.909374 99.59688 31.253124Q101.47188 31.753124 102.20625 32.08125Q102.94063 32.39375 103.3625 33.003124Q103.78438 33.596874 103.78438 34.503124Q103.78438 35.378124 103.26875 36.159374Q102.75313 36.940624 101.78438 37.3625Q100.81563 37.784374 99.59688 37.784374Q97.58125 37.784374 96.51875 36.940624Q95.45625 36.096874 95.15938 34.45625ZM112.65938 37.55L112.65938 36.01875Q111.45625 37.784374 109.37813 37.784374Q108.45625 37.784374 107.65938 37.440624Q106.8625 37.08125 106.47188 36.55Q106.09688 36.01875 105.94063 35.2375Q105.83125 34.721874 105.83125 33.596874L105.83125 27.175L107.58125 27.175L107.58125 32.925Q107.58125 34.3 107.69063 34.784374Q107.8625 35.471874 108.39375 35.878124Q108.94063 36.26875 109.72188 36.26875Q110.51875 36.26875 111.20625 35.8625Q111.90938 35.45625 112.19063 34.76875Q112.4875 34.065624 112.4875 32.7375L112.4875 27.175L114.2375 27.175L114.2375 37.55L112.65938 37.55ZM116.84688 37.55L116.84688 27.175L118.425 27.175L118.425 28.753124Q119.03438 27.64375 119.55 27.3Q120.06563 26.940624 120.675 26.940624Q121.56563 26.940624 122.4875 27.503124L121.87813 29.14375Q121.2375 28.753124 120.59688 28.753124Q120.01875 28.753124 119.55 29.1125Q119.09688 29.45625 118.89375 30.065624Q118.6125 31.003124 118.6125 32.1125L118.6125 37.55L116.84688 37.55ZM130.97188 34.20625L132.78438 34.440624Q132.3625 36.01875 131.19063 36.909374Q130.03438 37.784374 128.22188 37.784374Q125.95625 37.784374 124.6125 36.39375Q123.28438 34.9875 123.28438 32.45625Q123.28438 29.83125 124.62813 28.39375Q125.97188 26.940624 128.12813 26.940624Q130.20625 26.940624 131.51875 28.3625Q132.84688 29.76875 132.84688 32.346874Q132.84688 32.503124 132.83125 32.815624L125.09688 32.815624Q125.19063 34.51875 126.06563 35.425Q126.94063 36.33125 128.2375 36.33125Q129.20625 36.33125 129.87813 35.83125Q130.56563 35.315624 130.97188 34.20625ZM125.19063 31.3625L130.9875 31.3625Q130.87813 30.065624 130.33125 29.409374Q129.4875 28.39375 128.14375 28.39375Q126.94063 28.39375 126.1125 29.20625Q125.28438 30.003124 125.19063 31.3625ZM134.8625 37.55L134.8625 27.175L136.44063 27.175L136.44063 28.628124Q136.925 27.878124 137.7375 27.409374Q138.55 26.940624 139.58125 26.940624Q140.7375 26.940624 141.47188 27.425Q142.20625 27.89375 142.51875 28.753124Q143.75313 26.940624 145.72188 26.940624Q147.26875 26.940624 148.09688 27.8Q148.925 28.659374 148.925 30.425L148.925 37.55L147.175 37.55L147.175 31.01875Q147.175 29.95625 147.00313 29.503124Q146.83125 29.034374 146.37813 28.753124Q145.94063 28.471874 145.33125 28.471874Q144.2375 28.471874 143.50313 29.20625Q142.78438 29.925 142.78438 31.51875L142.78438 37.55L141.03438 37.55L141.03438 30.815624Q141.03438 29.64375 140.59688 29.065624Q140.175 28.471874 139.19063 28.471874Q138.45625 28.471874 137.81563 28.8625Q137.19063 29.253124 136.90938 30.003124Q136.62813 30.753124 136.62813 32.175L136.62813 37.55L134.8625 37.55ZM158.97188 34.20625L160.78438 34.440624Q160.3625 36.01875 159.19063 36.909374Q158.03438 37.784374 156.22188 37.784374Q153.95625 37.784374 152.6125 36.39375Q151.28438 34.9875 151.28438 32.45625Q151.28438 29.83125 152.62813 28.39375Q153.97188 26.940624 156.12813 26.940624Q158.20625 26.940624 159.51875 28.3625Q160.84688 29.76875 160.84688 32.346874Q160.84688 32.503124 160.83125 32.815624L153.09688 32.815624Q153.19063 34.51875 154.06563 35.425Q154.94063 36.33125 156.2375 36.33125Q157.20625 36.33125 157.87813 35.83125Q158.56563 35.315624 158.97188 34.20625ZM153.19063 31.3625L158.9875 31.3625Q158.87813 30.065624 158.33125 29.409374Q157.4875 28.39375 156.14375 28.39375Q154.94063 28.39375 154.1125 29.20625Q153.28438 30.003124 153.19063 31.3625ZM162.8625 37.55L162.8625 27.175L164.45625 27.175L164.45625 28.659374Q165.59688 26.940624 167.75313 26.940624Q168.69063 26.940624 169.47188 27.284374Q170.26875 27.6125 170.65938 28.159374Q171.05 28.70625 171.20625 29.45625Q171.3 29.95625 171.3 31.175L171.3 37.55L169.53438 37.55L169.53438 31.2375Q169.53438 30.159374 169.33125 29.628124Q169.12813 29.096874 168.59688 28.784374Q168.08125 28.471874 167.37813 28.471874Q166.25313 28.471874 165.44063 29.190624Q164.62813 29.89375 164.62813 31.878124L164.62813 37.55L162.8625 37.55ZM177.70625 35.971874L177.95625 37.534374Q177.22188 37.690624 176.62813 37.690624Q175.675 37.690624 175.14375 37.39375Q174.62813 37.08125 174.40938 36.596874Q174.19063 36.096874 174.19063 34.51875L174.19063 28.55L172.90938 28.55L172.90938 27.175L174.19063 27.175L174.19063 24.6125L175.94063 23.55L175.94063 27.175L177.70625 27.175L177.70625 28.55L175.94063 28.55L175.94063 34.6125Q175.94063 35.3625 176.03438 35.58125Q176.12813 35.784374 176.33125 35.925Q176.55 36.05 176.94063 36.05Q177.22188 36.05 177.70625 35.971874ZM184.51875 37.55L190.01875 23.2375L192.06563 23.2375L197.925 37.55L195.76875 37.55L194.09688 33.20625L188.1125 33.20625L186.53438 37.55L184.51875 37.55ZM188.65938 31.675L193.50313 31.675L192.01875 27.70625Q191.33125 25.89375 191.00313 24.7375Q190.72188 26.1125 190.22188 27.471874L188.65938 31.675ZM205.59688 37.55L205.59688 36.2375Q204.6125 37.784374 202.69063 37.784374Q201.45625 37.784374 200.40938 37.096874Q199.37813 36.409374 198.8 35.190624Q198.2375 33.971874 198.2375 32.378124Q198.2375 30.815624 198.75313 29.55Q199.26875 28.284374 200.3 27.6125Q201.34688 26.940624 202.6125 26.940624Q203.55 26.940624 204.28438 27.346874Q205.01875 27.7375 205.4875 28.3625L205.4875 23.2375L207.22188 23.2375L207.22188 37.55L205.59688 37.55ZM200.03438 32.378124Q200.03438 34.3625 200.87813 35.346874Q201.72188 36.33125 202.8625 36.33125Q204.01875 36.33125 204.81563 35.39375Q205.62813 34.45625 205.62813 32.51875Q205.62813 30.39375 204.8 29.39375Q203.9875 28.39375 202.78438 28.39375Q201.6125 28.39375 200.81563 29.3625Q200.03438 30.315624 200.03438 32.378124ZM216.64375 36.26875Q215.65938 37.096874 214.75313 37.440624Q213.84688 37.784374 212.81563 37.784374Q211.1125 37.784374 210.19063 36.95625Q209.26875 36.1125 209.26875 34.815624Q209.26875 34.05 209.6125 33.425Q209.97188 32.8 210.53438 32.425Q211.09688 32.034374 211.8 31.83125Q212.31563 31.70625 213.3625 31.565624Q215.4875 31.315624 216.4875 30.971874Q216.50313 30.6125 216.50313 30.503124Q216.50313 29.440624 216.00313 28.9875Q215.33125 28.39375 214.00313 28.39375Q212.75313 28.39375 212.15938 28.83125Q211.58125 29.26875 211.3 30.378124L209.58125 30.14375Q209.81563 29.034374 210.34688 28.3625Q210.87813 27.675 211.89375 27.315624Q212.90938 26.940624 214.25313 26.940624Q215.58125 26.940624 216.40938 27.253124Q217.2375 27.565624 217.62813 28.05Q218.01875 28.51875 218.175 29.2375Q218.26875 29.690624 218.26875 30.8625L218.26875 33.20625Q218.26875 35.659374 218.37813 36.315624Q218.4875 36.95625 218.83125 37.55L216.9875 37.55Q216.72188 37.003124 216.64375 36.26875ZM216.4875 32.346874Q215.53438 32.7375 213.6125 33.003124Q212.53438 33.159374 212.08125 33.3625Q211.64375 33.55 211.39375 33.925Q211.14375 34.3 211.14375 34.76875Q211.14375 35.471874 211.675 35.940624Q212.20625 36.409374 213.2375 36.409374Q214.25313 36.409374 215.03438 35.971874Q215.83125 35.51875 216.20625 34.753124Q216.4875 34.14375 216.4875 32.9875L216.4875 32.346874ZM220.8625 41.51875L220.8625 27.175L222.47188 27.175L222.47188 28.51875Q223.03438 27.7375 223.7375 27.346874Q224.45625 26.940624 225.47188 26.940624Q226.8 26.940624 227.81563 27.628124Q228.83125 28.315624 229.34688 29.565624Q229.87813 30.8 229.87813 32.284374Q229.87813 33.878124 229.3 35.159374Q228.7375 36.425 227.64375 37.1125Q226.55 37.784374 225.34688 37.784374Q224.47188 37.784374 223.76875 37.409374Q223.08125 37.034374 222.62813 36.471874L222.62813 41.51875L220.8625 41.51875ZM222.45625 32.425Q222.45625 34.425 223.26875 35.378124Q224.08125 36.33125 225.2375 36.33125Q226.40938 36.33125 227.2375 35.346874Q228.08125 34.3625 228.08125 32.26875Q228.08125 30.3 227.25313 29.315624Q226.44063 28.315624 225.31563 28.315624Q224.19063 28.315624 223.31563 29.378124Q222.45625 30.425 222.45625 32.425ZM235.70625 35.971874L235.95625 37.534374Q235.22188 37.690624 234.62813 37.690624Q233.675 37.690624 233.14375 37.39375Q232.62813 37.08125 232.40938 36.596874Q232.19063 36.096874 232.19063 34.51875L232.19063 28.55L230.90938 28.55L230.90938 27.175L232.19063 27.175L232.19063 24.6125L233.94063 23.55L233.94063 27.175L235.70625 27.175L235.70625 28.55L233.94063 28.55L233.94063 34.6125Q233.94063 35.3625 234.03438 35.58125Q234.12813 35.784374 234.33125 35.925Q234.55 36.05 234.94063 36.05Q235.22188 36.05 235.70625 35.971874ZM237.87813 25.253124L237.87813 23.2375L239.64375 23.2375L239.64375 25.253124L237.87813 25.253124ZM237.87813 37.55L237.87813 27.175L239.64375 27.175L239.64375 37.55L237.87813 37.55ZM244.75313 37.55L240.8 27.175L242.65938 27.175L244.89375 33.39375Q245.25313 34.39375 245.55 35.471874Q245.78438 34.659374 246.20625 33.503124L248.50313 27.175L250.31563 27.175L246.39375 37.55L244.75313 37.55ZM258.97186 34.20625L260.78436 34.440624Q260.3625 36.01875 259.1906 36.909374Q258.03436 37.784374 256.22186 37.784374Q253.95625 37.784374 252.6125 36.39375Q251.28438 34.9875 251.28438 32.45625Q251.28438 29.83125 252.62813 28.39375Q253.97188 26.940624 256.1281 26.940624Q258.20624 26.940624 259.51874 28.3625Q260.84686 29.76875 260.84686 32.346874Q260.84686 32.503124 260.83124 32.815624L253.09688 32.815624Q253.19063 34.51875 254.06563 35.425Q254.94063 36.33125 256.2375 36.33125Q257.20624 36.33125 257.8781 35.83125Q258.5656 35.315624 258.97186 34.20625ZM253.19063 31.3625L258.9875 31.3625Q258.8781 30.065624 258.33124 29.409374Q257.4875 28.39375 256.14374 28.39375Q254.94063 28.39375 254.1125 29.20625Q253.28438 30.003124 253.19063 31.3625ZM275.64374 36.26875Q274.65936 37.096874 273.7531 37.440624Q272.84686 37.784374 271.8156 37.784374Q270.1125 37.784374 269.1906 36.95625Q268.26874 36.1125 268.26874 34.815624Q268.26874 34.05 268.6125 33.425Q268.97186 32.8 269.53436 32.425Q270.09686 32.034374 270.8 31.83125Q271.3156 31.70625 272.3625 31.565624Q274.4875 31.315624 275.4875 30.971874Q275.5031 30.6125 275.5031 30.503124Q275.5031 29.440624 275.0031 28.9875Q274.33124 28.39375 273.0031 28.39375Q271.7531 28.39375 271.15936 28.83125Q270.58124 29.26875 270.3 30.378124L268.58124 30.14375Q268.8156 29.034374 269.34686 28.3625Q269.8781 27.675 270.89374 27.315624Q271.90936 26.940624 273.2531 26.940624Q274.58124 26.940624 275.40936 27.253124Q276.2375 27.565624 276.6281 28.05Q277.01874 28.51875 277.175 29.2375Q277.26874 29.690624 277.26874 30.8625L277.26874 33.20625Q277.26874 35.659374 277.3781 36.315624Q277.4875 36.95625 277.83124 37.55L275.9875 37.55Q275.72186 37.003124 275.64374 36.26875ZM275.4875 32.346874Q274.53436 32.7375 272.6125 33.003124Q271.53436 33.159374 271.08124 33.3625Q270.64374 33.55 270.39374 33.925Q270.14374 34.3 270.14374 34.76875Q270.14374 35.471874 270.675 35.940624Q271.20624 36.409374 272.2375 36.409374Q273.2531 36.409374 274.03436 35.971874Q274.83124 35.51875 275.20624 34.753124Q275.4875 34.14375 275.4875 32.9875L275.4875 32.346874ZM279.8625 37.55L279.8625 27.175L281.45624 27.175L281.45624 28.659374Q282.59686 26.940624 284.7531 26.940624Q285.6906 26.940624 286.47186 27.284374Q287.26874 27.6125 287.65936 28.159374Q288.05 28.70625 288.20624 29.45625Q288.3 29.95625 288.3 31.175L288.3 37.55L286.53436 37.55L286.53436 31.2375Q286.53436 30.159374 286.33124 29.628124Q286.1281 29.096874 285.59686 28.784374Q285.08124 28.471874 284.3781 28.471874Q283.2531 28.471874 282.4406 29.190624Q281.6281 29.89375 281.6281 31.878124L281.6281 37.55L279.8625 37.55ZM297.59686 37.55L297.59686 36.2375Q296.6125 37.784374 294.6906 37.784374Q293.45624 37.784374 292.40936 37.096874Q291.3781 36.409374 290.8 35.190624Q290.2375 33.971874 290.2375 32.378124Q290.2375 30.815624 290.7531 29.55Q291.26874 28.284374 292.3 27.6125Q293.34686 26.940624 294.6125 26.940624Q295.55 26.940624 296.28436 27.346874Q297.01874 27.7375 297.4875 28.3625L297.4875 23.2375L299.22186 23.2375L299.22186 37.55L297.59686 37.55ZM292.03436 32.378124Q292.03436 34.3625 292.8781 35.346874Q293.72186 36.33125 294.8625 36.33125Q296.01874 36.33125 296.8156 35.39375Q297.6281 34.45625 297.6281 32.51875Q297.6281 30.39375 296.8 29.39375Q295.9875 28.39375 294.78436 28.39375Q293.6125 28.39375 292.8156 29.3625Q292.03436 30.315624 292.03436 32.378124ZM308.08124 37.55L308.08124 23.2375L310.01874 23.2375L317.53436 34.471874L317.53436 23.2375L319.34686 23.2375L319.34686 37.55L317.40936 37.55L309.89374 26.3L309.89374 37.55L308.08124 37.55ZM321.22186 32.3625Q321.22186 29.4875 322.8156 28.096874Q324.15936 26.940624 326.08124 26.940624Q328.22186 26.940624 329.5656 28.346874Q330.925 29.753124 330.925 32.221874Q330.925 34.221874 330.33124 35.378124Q329.7375 36.51875 328.58124 37.159374Q327.4406 37.784374 326.08124 37.784374Q323.89374 37.784374 322.55 36.39375Q321.22186 34.9875 321.22186 32.3625ZM323.01874 32.3625Q323.01874 34.3625 323.8781 35.346874Q324.7531 36.33125 326.08124 36.33125Q327.39374 36.33125 328.2531 35.346874Q329.1281 34.346874 329.1281 32.3Q329.1281 30.378124 328.2531 29.39375Q327.3781 28.39375 326.08124 28.39375Q324.7531 28.39375 323.8781 29.39375Q323.01874 30.378124 323.01874 32.3625ZM332.8625 37.55L332.8625 27.175L334.45624 27.175L334.45624 28.659374Q335.59686 26.940624 337.7531 26.940624Q338.6906 26.940624 339.47186 27.284374Q340.26874 27.6125 340.65936 28.159374Q341.05 28.70625 341.20624 29.45625Q341.3 29.95625 341.3 31.175L341.3 37.55L339.53436 37.55L339.53436 31.2375Q339.53436 30.159374 339.33124 29.628124Q339.1281 29.096874 338.59686 28.784374Q338.08124 28.471874 337.3781 28.471874Q336.2531 28.471874 335.4406 29.190624Q334.6281 29.89375 334.6281 31.878124L334.6281 37.55L332.8625 37.55ZM348.51874 37.55L354.01874 23.2375L356.0656 23.2375L361.925 37.55L359.76874 37.55L358.09686 33.20625L352.1125 33.20625L350.53436 37.55L348.51874 37.55ZM352.65936 31.675L357.5031 31.675L356.01874 27.70625Q355.33124 25.89375 355.0031 24.7375Q354.72186 26.1125 354.22186 27.471874L352.65936 31.675ZM369.59686 37.55L369.59686 36.2375Q368.6125 37.784374 366.6906 37.784374Q365.45624 37.784374 364.40936 37.096874Q363.3781 36.409374 362.8 35.190624Q362.2375 33.971874 362.2375 32.378124Q362.2375 30.815624 362.7531 29.55Q363.26874 28.284374 364.3 27.6125Q365.34686 26.940624 366.6125 26.940624Q367.55 26.940624 368.28436 27.346874Q369.01874 27.7375 369.4875 28.3625L369.4875 23.2375L371.22186 23.2375L371.22186 37.55L369.59686 37.55ZM364.03436 32.378124Q364.03436 34.3625 364.8781 35.346874Q365.72186 36.33125 366.8625 36.33125Q368.01874 36.33125 368.8156 35.39375Q369.6281 34.45625 369.6281 32.51875Q369.6281 30.39375 368.8 29.39375Q367.9875 28.39375 366.78436 28.39375Q365.6125 28.39375 364.8156 29.3625Q364.03436 30.315624 364.03436 32.378124ZM380.64374 36.26875Q379.65936 37.096874 378.7531 37.440624Q377.84686 37.784374 376.8156 37.784374Q375.1125 37.784374 374.1906 36.95625Q373.26874 36.1125 373.26874 34.815624Q373.26874 34.05 373.6125 33.425Q373.97186 32.8 374.53436 32.425Q375.09686 32.034374 375.8 31.83125Q376.3156 31.70625 377.3625 31.565624Q379.4875 31.315624 380.4875 30.971874Q380.5031 30.6125 380.5031 30.503124Q380.5031 29.440624 380.0031 28.9875Q379.33124 28.39375 378.0031 28.39375Q376.7531 28.39375 376.15936 28.83125Q375.58124 29.26875 375.3 30.378124L373.58124 30.14375Q373.8156 29.034374 374.34686 28.3625Q374.8781 27.675 375.89374 27.315624Q376.90936 26.940624 378.2531 26.940624Q379.58124 26.940624 380.40936 27.253124Q381.2375 27.565624 381.6281 28.05Q382.01874 28.51875 382.175 29.2375Q382.26874 29.690624 382.26874 30.8625L382.26874 33.20625Q382.26874 35.659374 382.3781 36.315624Q382.4875 36.95625 382.83124 37.55L380.9875 37.55Q380.72186 37.003124 380.64374 36.26875ZM380.4875 32.346874Q379.53436 32.7375 377.6125 33.003124Q376.53436 33.159374 376.08124 33.3625Q375.64374 33.55 375.39374 33.925Q375.14374 34.3 375.14374 34.76875Q375.14374 35.471874 375.675 35.940624Q376.20624 36.409374 377.2375 36.409374Q378.2531 36.409374 379.03436 35.971874Q379.83124 35.51875 380.20624 34.753124Q380.4875 34.14375 380.4875 32.9875L380.4875 32.346874ZM384.8625 41.51875L384.8625 27.175L386.47186 27.175L386.47186 28.51875Q387.03436 27.7375 387.7375 27.346874Q388.45624 26.940624 389.47186 26.940624Q390.8 26.940624 391.8156 27.628124Q392.83124 28.315624 393.34686 29.565624Q393.8781 30.8 393.8781 32.284374Q393.8781 33.878124 393.3 35.159374Q392.7375 36.425 391.64374 37.1125Q390.55 37.784374 389.34686 37.784374Q388.47186 37.784374 387.76874 37.409374Q387.08124 37.034374 386.6281 36.471874L386.6281 41.51875L384.8625 41.51875ZM386.45624 32.425Q386.45624 34.425 387.26874 35.378124Q388.08124 36.33125 389.2375 36.33125Q390.40936 36.33125 391.2375 35.346874Q392.08124 34.3625 392.08124 32.26875Q392.08124 30.3 391.2531 29.315624Q390.4406 28.315624 389.3156 28.315624Q388.1906 28.315624 387.3156 29.378124Q386.45624 30.425 386.45624 32.425ZM399.70624 35.971874L399.95624 37.534374Q399.22186 37.690624 398.6281 37.690624Q397.675 37.690624 397.14374 37.39375Q396.6281 37.08125 396.40936 36.596874Q396.1906 36.096874 396.1906 34.51875L396.1906 28.55L394.90936 28.55L394.90936 27.175L396.1906 27.175L396.1906 24.6125L397.9406 23.55L397.9406 27.175L399.70624 27.175L399.70624 28.55L397.9406 28.55L397.9406 34.6125Q397.9406 35.3625 398.03436 35.58125Q398.1281 35.784374 398.33124 35.925Q398.55 36.05 398.9406 36.05Q399.22186 36.05 399.70624 35.971874ZM401.8781 25.253124L401.8781 23.2375L403.64374 23.2375L403.64374 25.253124L401.8781 25.253124ZM401.8781 37.55L401.8781 27.175L403.64374 27.175L403.64374 37.55L401.8781 37.55ZM408.7531 37.55L404.8 27.175L406.65936 27.175L408.89374 33.39375Q409.2531 34.39375 409.55 35.471874Q409.78436 34.659374 410.20624 33.503124L412.5031 27.175L414.3156 27.175L410.39374 37.55L408.7531 37.55ZM422.97186 34.20625L424.78436 34.440624Q424.3625 36.01875 423.1906 36.909374Q422.03436 37.784374 420.22186 37.784374Q417.95624 37.784374 416.6125 36.39375Q415.28436 34.9875 415.28436 32.45625Q415.28436 29.83125 416.6281 28.39375Q417.97186 26.940624 420.1281 26.940624Q422.20624 26.940624 423.51874 28.3625Q424.84686 29.76875 424.84686 32.346874Q424.84686 32.503124 424.83124 32.815624L417.09686 32.815624Q417.1906 34.51875 418.0656 35.425Q418.9406 36.33125 420.2375 36.33125Q421.20624 36.33125 421.8781 35.83125Q422.5656 35.315624 422.97186 34.20625ZM417.1906 31.3625L422.9875 31.3625Q422.8781 30.065624 422.33124 29.409374Q421.4875 28.39375 420.14374 28.39375Q418.9406 28.39375 418.1125 29.20625Q417.28436 30.003124 417.1906 31.3625Z" fill-rule="nonzero"/></svg>