<svg version="1.1" viewBox="0.0 0.0 731.0 467.0" fill="none" stroke="none" stroke-linecap="square" stroke-miterlimit="10" width="731" height="467" xmlns:xlink="http://www.w3.org/1999/xlink" xmlns="http://www.w3.org/2000/svg"><path fill="#ffffff" d="M0 0L731.0 0L731.0 467.0L0 467.0L0 0Z" fill-rule="nonzero"/><path stroke="#cccccc" stroke-width="1.0" stroke-linecap="butt" d="M227.5 99.5L227.5 391.5" fill-rule="nonzero"/><path stroke="#cccccc" stroke-width="1.0" stroke-linecap="butt" d="M382.5 99.5L382.5 391.5" fill-rule="nonzero"/><path stroke="#cccccc" stroke-width="1.0" stroke-linecap="butt" d="M537.5 99.5L537.5 391.5" fill-rule="nonzero"/><path stroke="#cccccc" stroke-width="1.0" stroke-linecap="butt" d="M692.5 99.5L692.5 391.5" fill-rule="nonzero"/><path stroke="#333333" stroke-width="1.0" stroke-linecap="butt" d="M82.5 391.5L707.5 391.5" fill-rule="nonzero"/><path stroke="#cccccc" stroke-width="1.0" stroke-linecap="butt" d="M82.5 318.5L707.5 318.5" fill-rule="nonzero"/><path stroke="#cccccc" stroke-width="1.0" stroke-linecap="butt" d="M82.5 245.5L707.5 245.5" fill-rule="nonzero"/><path stroke="#cccccc" stroke-width="1.0" stroke-linecap="butt" d="M82.5 172.5L707.5 172.5" fill-rule="nonzero"/><path stroke="#cccccc" stroke-width="1.0" stroke-linecap="butt" d="M82.5 99.5L707.5 99.5" fill-rule="nonzero"/><clipPath id="id_0"><path d="M82.35 99.48333L707.65 99.48333L707.65 391.65L82.35 391.65L82.35 99.48333Z" clip-rule="nonzero"/></clipPath><path stroke="#4285f4" stroke-width="2.0" stroke-linecap="butt" clip-path="url(#id_0)" d="M82.35 391.62747L92.2754 391.5601L112.12619 391.29074L151.82777 390.2135L231.23096 385.90497L390.0373 368.67154L707.65 299.73926" fill-rule="nonzero"/><path stroke="#ea4335" stroke-width="2.0" stroke-linecap="butt" clip-path="url(#id_0)" d="M82.35 391.59454L92.2754 391.42847L112.12619 390.7642L151.82777 388.1073L231.23096 377.4801L390.0373 334.97205L707.65 164.94133" fill-rule="nonzero"/><path fill="#000000" fill-opacity="0.0" clip-path="url(#id_0)" d="M85.35 391.62747C85.35 393.2843 84.00685 394.62747 82.35 394.62747C80.693146 394.62747 79.35 393.2843 79.35 391.62747C79.35 389.9706 80.693146 388.62747 82.35 388.62747C84.00685 388.62747 85.35 389.9706 85.35 391.62747Z" fill-rule="nonzero"/><path fill="#000000" fill-opacity="0.0" clip-path="url(#id_0)" d="M95.2754 391.5601C95.2754 393.21695 93.93225 394.5601 92.2754 394.5601C90.618546 394.5601 89.2754 393.21695 89.2754 391.5601C89.2754 389.90323 90.618546 388.5601 92.2754 388.5601C93.93225 388.5601 95.2754 389.90323 95.2754 391.5601Z" fill-rule="nonzero"/><path fill="#000000" fill-opacity="0.0" clip-path="url(#id_0)" d="M115.12619 391.29074C115.12619 392.9476 113.78304 394.29074 112.12619 394.29074C110.46934 394.29074 109.12619 392.9476 109.12619 391.29074C109.12619 389.63388 110.46934 388.29074 112.12619 388.29074C113.78304 388.29074 115.12619 389.63388 115.12619 391.29074Z" fill-rule="nonzero"/><path fill="#000000" fill-opacity="0.0" clip-path="url(#id_0)" d="M154.82777 390.2135C154.82777 391.87036 153.48463 393.2135 151.82777 393.2135C150.17093 393.2135 148.82777 391.87036 148.82777 390.2135C148.82777 388.55667 150.17093 387.2135 151.82777 387.2135C153.48463 387.2135 154.82777 388.55667 154.82777 390.2135Z" fill-rule="nonzero"/><path fill="#000000" fill-opacity="0.0" clip-path="url(#id_0)" d="M234.23096 385.90497C234.23096 387.56183 232.8878 388.90497 231.23096 388.90497C229.5741 388.90497 228.23096 387.56183 228.23096 385.90497C228.23096 384.2481 229.5741 382.90497 231.23096 382.90497C232.8878 382.90497 234.23096 384.2481 234.23096 385.90497Z" fill-rule="nonzero"/><path fill="#000000" fill-opacity="0.0" clip-path="url(#id_0)" d="M393.0373 368.67154C393.0373 370.32837 391.69415 371.67154 390.0373 371.67154C388.38043 371.67154 387.0373 370.32837 387.0373 368.67154C387.0373 367.01468 388.38043 365.67154 390.0373 365.67154C391.69415 365.67154 393.0373 367.01468 393.0373 368.67154Z" fill-rule="nonzero"/><path fill="#000000" fill-opacity="0.0" clip-path="url(#id_0)" d="M710.65 299.73926C710.65 301.39612 709.3069 302.73926 707.65 302.73926C705.99316 302.73926 704.65 301.39612 704.65 299.73926C704.65 298.0824 705.99316 296.73926 707.65 296.73926C709.3069 296.73926 710.65 298.0824 710.65 299.73926Z" fill-rule="nonzero"/><path fill="#000000" fill-opacity="0.0" clip-path="url(#id_0)" d="M85.35 391.59454C85.35 393.2514 84.00685 394.59454 82.35 394.59454C80.693146 394.59454 79.35 393.2514 79.35 391.59454C79.35 389.93768 80.693146 388.59454 82.35 388.59454C84.00685 388.59454 85.35 389.93768 85.35 391.59454Z" fill-rule="nonzero"/><path fill="#000000" fill-opacity="0.0" clip-path="url(#id_0)" d="M95.2754 391.42847C95.2754 393.0853 93.93225 394.42847 92.2754 394.42847C90.618546 394.42847 89.2754 393.0853 89.2754 391.42847C89.2754 389.7716 90.618546 388.42847 92.2754 388.42847C93.93225 388.42847 95.2754 389.7716 95.2754 391.42847Z" fill-rule="nonzero"/><path fill="#000000" fill-opacity="0.0" clip-path="url(#id_0)" d="M115.12619 390.7642C115.12619 392.42105 113.78304 393.7642 112.12619 393.7642C110.46934 393.7642 109.12619 392.42105 109.12619 390.7642C109.12619 389.10733 110.46934 387.7642 112.12619 387.7642C113.78304 387.7642 115.12619 389.10733 115.12619 390.7642Z" fill-rule="nonzero"/><path fill="#000000" fill-opacity="0.0" clip-path="url(#id_0)" d="M154.82777 388.1073C154.82777 389.76416 153.48463 391.1073 151.82777 391.1073C150.17093 391.1073 148.82777 389.76416 148.82777 388.1073C148.82777 386.45044 150.17093 385.1073 151.82777 385.1073C153.48463 385.1073 154.82777 386.45044 154.82777 388.1073Z" fill-rule="nonzero"/><path fill="#000000" fill-opacity="0.0" clip-path="url(#id_0)" d="M234.23096 377.4801C234.23096 379.13696 232.8878 380.4801 231.23096 380.4801C229.5741 380.4801 228.23096 379.13696 228.23096 377.4801C228.23096 375.82324 229.5741 374.4801 231.23096 374.4801C232.8878 374.4801 234.23096 375.82324 234.23096 377.4801Z" fill-rule="nonzero"/><path fill="#000000" fill-opacity="0.0" clip-path="url(#id_0)" d="M393.0373 334.97205C393.0373 336.6289 391.69415 337.97205 390.0373 337.97205C388.38043 337.97205 387.0373 336.6289 387.0373 334.97205C387.0373 333.3152 388.38043 331.97205 390.0373 331.97205C391.69415 331.97205 393.0373 333.3152 393.0373 334.97205Z" fill-rule="nonzero"/><path fill="#000000" fill-opacity="0.0" clip-path="url(#id_0)" d="M710.65 164.94133C710.65 166.59818 709.3069 167.94133 707.65 167.94133C705.99316 167.94133 704.65 166.59818 704.65 164.94133C704.65 163.28447 705.99316 161.94133 707.65 161.94133C709.3069 161.94133 710.65 163.28447 710.65 164.94133Z" fill-rule="nonzero"/><path fill="#000000" d="M344.89062 440.65L344.89062 432.05624L346.60938 432.05624L348.64062 438.13437Q348.92188 438.99374 349.04688 439.41562Q349.1875 438.94687 349.5 438.04062L351.5625 432.05624L353.09375 432.05624L353.09375 440.65L352.0 440.65L352.0 433.4625L349.5 440.65L348.46875 440.65L345.98438 433.3375L345.98438 440.65L344.89062 440.65ZM359.04688 438.65L360.14062 438.775Q359.89062 439.72812 359.1875 440.25937Q358.48438 440.79062 357.40625 440.79062Q356.04688 440.79062 355.23438 439.94687Q354.4375 439.10312 354.4375 437.5875Q354.4375 436.025 355.25 435.16562Q356.0625 434.29062 357.34375 434.29062Q358.59375 434.29062 359.375 435.13437Q360.17188 435.97812 360.17188 437.525Q360.17188 437.61874 360.17188 437.80624L355.53125 437.80624Q355.59375 438.8375 356.10938 439.38437Q356.625 439.91562 357.40625 439.91562Q357.98438 439.91562 358.39062 439.61874Q358.8125 439.30624 359.04688 438.65ZM355.59375 436.94687L359.0625 436.94687Q359.0 436.15 358.67188 435.75937Q358.15625 435.15 357.35938 435.15Q356.625 435.15 356.125 435.63437Q355.64062 436.11874 355.59375 436.94687ZM365.85938 439.88437Q365.26562 440.38437 364.71875 440.5875Q364.1875 440.79062 363.5625 440.79062Q362.53125 440.79062 361.98438 440.29062Q361.4375 439.79062 361.4375 439.00937Q361.4375 438.55624 361.64062 438.18124Q361.84375 437.79062 362.1875 437.57187Q362.53125 437.3375 362.95312 437.22812Q363.25 437.13437 363.89062 437.05624Q365.15625 436.91562 365.76562 436.69687Q365.76562 436.47812 365.76562 436.43124Q365.76562 435.775 365.46875 435.50937Q365.0625 435.16562 364.26562 435.16562Q363.53125 435.16562 363.17188 435.43124Q362.8125 435.68124 362.64062 436.3375L361.60938 436.19687Q361.75 435.54062 362.07812 435.13437Q362.40625 434.72812 363.01562 434.50937Q363.625 434.29062 364.42188 434.29062Q365.21875 434.29062 365.71875 434.47812Q366.21875 434.66562 366.45312 434.94687Q366.6875 435.22812 366.78125 435.66562Q366.82812 435.93124 366.82812 436.63437L366.82812 438.04062Q366.82812 439.50937 366.89062 439.9Q366.96875 440.29062 367.17188 440.65L366.0625 440.65Q365.90625 440.32187 365.85938 439.88437ZM365.76562 437.525Q365.1875 437.75937 364.04688 437.93124Q363.39062 438.025 363.125 438.15Q362.85938 438.25937 362.70312 438.47812Q362.5625 438.69687 362.5625 438.97812Q362.5625 439.4 362.875 439.68124Q363.20312 439.9625 363.8125 439.9625Q364.42188 439.9625 364.89062 439.69687Q365.375 439.43124 365.59375 438.9625Q365.76562 438.60312 365.76562 437.91562L365.76562 437.525ZM368.375 438.79062L369.40625 438.63437Q369.5 439.25937 369.89062 439.5875Q370.29688 439.91562 371.03125 439.91562Q371.75 439.91562 372.09375 439.63437Q372.45312 439.3375 372.45312 438.93124Q372.45312 438.57187 372.14062 438.36874Q371.92188 438.22812 371.0625 438.00937Q369.90625 437.7125 369.45312 437.50937Q369.01562 437.29062 368.78125 436.91562Q368.54688 436.54062 368.54688 436.07187Q368.54688 435.66562 368.73438 435.30624Q368.92188 434.94687 369.25 434.7125Q369.5 434.54062 369.92188 434.41562Q370.34375 434.29062 370.84375 434.29062Q371.5625 434.29062 372.10938 434.50937Q372.67188 434.7125 372.9375 435.07187Q373.20312 435.43124 373.29688 436.025L372.26562 436.16562Q372.20312 435.69687 371.85938 435.43124Q371.53125 435.15 370.90625 435.15Q370.1875 435.15 369.875 435.4Q369.5625 435.63437 369.5625 435.9625Q369.5625 436.16562 369.6875 436.32187Q369.82812 436.49374 370.09375 436.60312Q370.25 436.66562 371.03125 436.86874Q372.15625 437.18124 372.59375 437.36874Q373.03125 437.55624 373.28125 437.91562Q373.53125 438.275 373.53125 438.82187Q373.53125 439.35312 373.21875 439.82187Q372.92188 440.275 372.34375 440.54062Q371.76562 440.79062 371.03125 440.79062Q369.8125 440.79062 369.17188 440.29062Q368.54688 439.775 368.375 438.79062ZM378.875 440.65L378.875 439.72812Q378.14062 440.79062 376.89062 440.79062Q376.34375 440.79062 375.85938 440.5875Q375.39062 440.36874 375.15625 440.05624Q374.92188 439.72812 374.82812 439.25937Q374.76562 438.9625 374.76562 438.275L374.76562 434.43124L375.82812 434.43124L375.82812 437.88437Q375.82812 438.69687 375.89062 438.99374Q375.98438 439.4 376.29688 439.65Q376.625 439.88437 377.10938 439.88437Q377.57812 439.88437 377.98438 439.65Q378.40625 439.4 378.57812 438.97812Q378.76562 438.55624 378.76562 437.75937L378.76562 434.43124L379.8125 434.43124L379.8125 440.65L378.875 440.65ZM381.78125 440.65L381.78125 434.43124L382.73438 434.43124L382.73438 435.36874Q383.09375 434.7125 383.39062 434.50937Q383.70312 434.29062 384.07812 434.29062Q384.60938 434.29062 385.15625 434.61874L384.79688 435.60312Q384.40625 435.36874 384.03125 435.36874Q383.67188 435.36874 383.39062 435.5875Q383.125 435.79062 383.01562 436.16562Q382.82812 436.72812 382.82812 437.38437L382.82812 440.65L381.78125 440.65ZM390.04688 438.65L391.14062 438.775Q390.89062 439.72812 390.1875 440.25937Q389.48438 440.79062 388.40625 440.79062Q387.04688 440.79062 386.23438 439.94687Q385.4375 439.10312 385.4375 437.5875Q385.4375 436.025 386.25 435.16562Q387.0625 434.29062 388.34375 434.29062Q389.59375 434.29062 390.375 435.13437Q391.17188 435.97812 391.17188 437.525Q391.17188 437.61874 391.17188 437.80624L386.53125 437.80624Q386.59375 438.8375 387.10938 439.38437Q387.625 439.91562 388.40625 439.91562Q388.98438 439.91562 389.39062 439.61874Q389.8125 439.30624 390.04688 438.65ZM386.59375 436.94687L390.0625 436.94687Q390.0 436.15 389.67188 435.75937Q389.15625 435.15 388.35938 435.15Q387.625 435.15 387.125 435.63437Q386.64062 436.11874 386.59375 436.94687ZM392.79688 440.65L392.79688 434.43124L393.73438 434.43124L393.73438 435.30624Q394.03125 434.8375 394.51562 434.57187Q395.0 434.29062 395.625 434.29062Q396.3125 434.29062 396.75 434.57187Q397.20312 434.85312 397.375 435.36874Q398.125 434.29062 399.29688 434.29062Q400.23438 434.29062 400.71875 434.80624Q401.21875 435.30624 401.21875 436.38437L401.21875 440.65L400.17188 440.65L400.17188 436.72812Q400.17188 436.10312 400.0625 435.82187Q399.96875 435.54062 399.70312 435.36874Q399.4375 435.19687 399.0625 435.19687Q398.40625 435.19687 397.96875 435.63437Q397.54688 436.07187 397.54688 437.04062L397.54688 440.65L396.48438 440.65L396.48438 436.60312Q396.48438 435.9 396.21875 435.55624Q395.96875 435.19687 395.39062 435.19687Q394.9375 435.19687 394.5625 435.43124Q394.1875 435.66562 394.01562 436.11874Q393.84375 436.57187 393.84375 437.41562L393.84375 440.65L392.79688 440.65ZM407.04688 438.65L408.14062 438.775Q407.89062 439.72812 407.1875 440.25937Q406.48438 440.79062 405.40625 440.79062Q404.04688 440.79062 403.23438 439.94687Q402.4375 439.10312 402.4375 437.5875Q402.4375 436.025 403.25 435.16562Q404.0625 434.29062 405.34375 434.29062Q406.59375 434.29062 407.375 435.13437Q408.17188 435.97812 408.17188 437.525Q408.17188 437.61874 408.17188 437.80624L403.53125 437.80624Q403.59375 438.8375 404.10938 439.38437Q404.625 439.91562 405.40625 439.91562Q405.98438 439.91562 406.39062 439.61874Q406.8125 439.30624 407.04688 438.65ZM403.59375 436.94687L407.0625 436.94687Q407.0 436.15 406.67188 435.75937Q406.15625 435.15 405.35938 435.15Q404.625 435.15 404.125 435.63437Q403.64062 436.11874 403.59375 436.94687ZM409.79688 440.65L409.79688 434.43124L410.73438 434.43124L410.73438 435.30624Q411.42188 434.29062 412.71875 434.29062Q413.28125 434.29062 413.75 434.49374Q414.23438 434.69687 414.46875 435.025Q414.70312 435.35312 414.79688 435.79062Q414.84375 436.0875 414.84375 436.82187L414.84375 440.65L413.79688 440.65L413.79688 436.86874Q413.79688 436.2125 413.67188 435.9Q413.54688 435.5875 413.23438 435.4Q412.92188 435.19687 412.5 435.19687Q411.82812 435.19687 411.32812 435.63437Q410.84375 436.05624 410.84375 437.24374L410.84375 440.65L409.79688 440.65ZM419.09375 439.7125L419.25 440.63437Q418.79688 440.72812 418.45312 440.72812Q417.875 440.72812 417.5625 440.55624Q417.25 440.36874 417.10938 440.07187Q416.98438 439.775 416.98438 438.82187L416.98438 435.24374L416.21875 435.24374L416.21875 434.43124L416.98438 434.43124L416.98438 432.88437L418.03125 432.25937L418.03125 434.43124L419.09375 434.43124L419.09375 435.24374L418.03125 435.24374L418.03125 438.88437Q418.03125 439.3375 418.07812 439.4625Q418.14062 439.5875 418.26562 439.66562Q418.39062 439.74374 418.625 439.74374Q418.8125 439.74374 419.09375 439.7125ZM422.54688 437.88437L423.60938 437.79062Q423.6875 438.44687 423.96875 438.85312Q424.25 439.25937 424.82812 439.525Q425.42188 439.775 426.15625 439.775Q426.79688 439.775 427.29688 439.5875Q427.79688 439.38437 428.03125 439.05624Q428.28125 438.7125 428.28125 438.32187Q428.28125 437.91562 428.04688 437.61874Q427.8125 437.30624 427.28125 437.10312Q426.92188 436.9625 425.73438 436.68124Q424.5625 436.4 424.09375 436.15Q423.46875 435.82187 423.17188 435.35312Q422.875 434.86874 422.875 434.275Q422.875 433.63437 423.23438 433.07187Q423.60938 432.49374 424.3125 432.2125Q425.03125 431.91562 425.89062 431.91562Q426.84375 431.91562 427.57812 432.22812Q428.3125 432.525 428.70312 433.13437Q429.09375 433.72812 429.125 434.47812L428.03125 434.55624Q427.9375 433.74374 427.42188 433.3375Q426.92188 432.91562 425.9375 432.91562Q424.90625 432.91562 424.4375 433.29062Q423.96875 433.66562 423.96875 434.19687Q423.96875 434.66562 424.29688 434.9625Q424.625 435.25937 426.0 435.57187Q427.39062 435.88437 427.90625 436.11874Q428.65625 436.47812 429.01562 437.00937Q429.375 437.525 429.375 438.22812Q429.375 438.91562 428.98438 439.525Q428.59375 440.11874 427.85938 440.4625Q427.125 440.79062 426.20312 440.79062Q425.03125 440.79062 424.23438 440.4625Q423.45312 440.11874 423.0 439.43124Q422.5625 438.74374 422.54688 437.88437ZM430.79688 433.275L430.79688 432.05624L431.85938 432.05624L431.85938 433.275L430.79688 433.275ZM430.79688 440.65L430.79688 434.43124L431.85938 434.43124L431.85938 440.65L430.79688 440.65ZM433.23438 440.65L433.23438 439.79062L437.20312 435.24374Q436.51562 435.275 436.0 435.275L433.46875 435.275L433.46875 434.43124L438.5625 434.43124L438.5625 435.11874L435.1875 439.07187L434.53125 439.79062Q435.25 439.74374 435.85938 439.74374L438.75 439.74374L438.75 440.65L433.23438 440.65ZM444.04688 438.65L445.14062 438.775Q444.89062 439.72812 444.1875 440.25937Q443.48438 440.79062 442.40625 440.79062Q441.04688 440.79062 440.23438 439.94687Q439.4375 439.10312 439.4375 437.5875Q439.4375 436.025 440.25 435.16562Q441.0625 434.29062 442.34375 434.29062Q443.59375 434.29062 444.375 435.13437Q445.17188 435.97812 445.17188 437.525Q445.17188 437.61874 445.17188 437.80624L440.53125 437.80624Q440.59375 438.8375 441.10938 439.38437Q441.625 439.91562 442.40625 439.91562Q442.98438 439.91562 443.39062 439.61874Q443.8125 439.30624 444.04688 438.65ZM440.59375 436.94687L444.0625 436.94687Q444.0 436.15 443.67188 435.75937Q443.15625 435.15 442.35938 435.15Q441.625 435.15 441.125 435.63437Q440.64062 436.11874 440.59375 436.94687Z" fill-rule="nonzero"/><path fill="#000000" d="M34.349995 325.67603L25.756245 325.67603L25.756245 323.95728L31.83437 321.92603Q32.693745 321.64478 33.11562 321.51978Q32.64687 321.37915 31.74062 321.06665L25.756245 319.00415L25.756245 317.4729L34.349995 317.4729L34.349995 318.56665L27.162495 318.56665L34.349995 321.06665L34.349995 322.0979L27.037495 324.58228L34.349995 324.58228L34.349995 325.67603ZM32.349995 311.51978L32.474995 310.42603Q33.42812 310.67603 33.95937 311.37915Q34.49062 312.08228 34.49062 313.1604Q34.49062 314.51978 33.64687 315.33228Q32.80312 316.12915 31.287495 316.12915Q29.724995 316.12915 28.86562 315.31665Q27.99062 314.50415 27.99062 313.2229Q27.99062 311.9729 28.83437 311.19165Q29.67812 310.39478 31.224995 310.39478Q31.318745 310.39478 31.506245 310.39478L31.506245 315.0354Q32.537495 314.9729 33.08437 314.45728Q33.61562 313.94165 33.61562 313.1604Q33.61562 312.58228 33.318745 312.17603Q33.006245 311.75415 32.349995 311.51978ZM30.64687 314.9729L30.64687 311.50415Q29.849995 311.56665 29.45937 311.89478Q28.849995 312.4104 28.849995 313.20728Q28.849995 313.94165 29.33437 314.44165Q29.818745 314.92603 30.64687 314.9729ZM34.349995 308.76978L28.131245 308.76978L28.131245 307.83228L29.006245 307.83228Q28.537495 307.5354 28.27187 307.05103Q27.99062 306.56665 27.99062 305.94165Q27.99062 305.25415 28.27187 304.81665Q28.55312 304.36353 29.068745 304.19165Q27.99062 303.44165 27.99062 302.26978Q27.99062 301.33228 28.506245 300.8479Q29.006245 300.3479 30.08437 300.3479L34.349995 300.3479L34.349995 301.39478L30.42812 301.39478Q29.80312 301.39478 29.52187 301.50415Q29.24062 301.5979 29.068745 301.86353Q28.89687 302.12915 28.89687 302.50415Q28.89687 303.1604 29.33437 303.5979Q29.77187 304.01978 30.74062 304.01978L34.349995 304.01978L34.349995 305.08228L30.30312 305.08228Q29.599995 305.08228 29.256245 305.3479Q28.89687 305.5979 28.89687 306.17603Q28.89687 306.62915 29.131245 307.00415Q29.36562 307.37915 29.818745 307.55103Q30.27187 307.7229 31.11562 307.7229L34.349995 307.7229L34.349995 308.76978ZM31.24062 299.1604Q29.506245 299.1604 28.67812 298.20728Q27.99062 297.4104 27.99062 296.25415Q27.99062 294.9729 28.83437 294.1604Q29.662495 293.33228 31.14687 293.33228Q32.349995 293.33228 33.037495 293.69165Q33.724995 294.05103 34.11562 294.75415Q34.49062 295.44165 34.49062 296.25415Q34.49062 297.55103 33.662495 298.36353Q32.818745 299.1604 31.24062 299.1604ZM31.24062 298.08228Q32.42812 298.08228 33.02187 297.56665Q33.61562 297.0354 33.61562 296.25415Q33.61562 295.45728 33.02187 294.94165Q32.42812 294.42603 31.20937 294.42603Q30.05312 294.42603 29.45937 294.95728Q28.86562 295.4729 28.86562 296.25415Q28.86562 297.0354 29.45937 297.56665Q30.037495 298.08228 31.24062 298.08228ZM34.349995 291.7854L28.131245 291.7854L28.131245 290.83228L29.068745 290.83228Q28.412495 290.4729 28.20937 290.17603Q27.99062 289.86353 27.99062 289.48853Q27.99062 288.95728 28.318745 288.4104L29.30312 288.76978Q29.068745 289.1604 29.068745 289.5354Q29.068745 289.89478 29.287495 290.17603Q29.49062 290.44165 29.86562 290.55103Q30.42812 290.73853 31.08437 290.73853L34.349995 290.73853L34.349995 291.7854ZM36.74062 287.81665L35.756245 287.94165Q35.849995 287.5979 35.849995 287.33228Q35.849995 286.98853 35.724995 286.7854Q35.61562 286.56665 35.412495 286.42603Q35.24062 286.33228 34.61562 286.0979Q34.537495 286.08228 34.36562 286.00415L28.131245 288.37915L28.131245 287.23853L31.724995 285.94165Q32.412495 285.69165 33.17812 285.48853Q32.443745 285.30103 31.756245 285.05103L28.131245 283.7229L28.131245 282.67603L34.45937 285.0354Q35.474995 285.42603 35.86562 285.62915Q36.39687 285.9104 36.631245 286.2854Q36.881245 286.64478 36.881245 287.14478Q36.881245 287.44165 36.74062 287.81665ZM25.756245 273.00415L25.756245 271.86353L30.724995 271.86353Q32.02187 271.86353 32.787495 272.1604Q33.537495 272.45728 34.02187 273.2229Q34.49062 273.98853 34.49062 275.2229Q34.49062 276.42603 34.08437 277.20728Q33.662495 277.9729 32.881245 278.30103Q32.08437 278.62915 30.724995 278.62915L25.756245 278.62915L25.756245 277.48853L30.70937 277.48853Q31.83437 277.48853 32.36562 277.2854Q32.89687 277.06665 33.193745 276.56665Q33.474995 276.05103 33.474995 275.31665Q33.474995 274.06665 32.912495 273.5354Q32.33437 273.00415 30.70937 273.00415L25.756245 273.00415ZM32.49062 270.19165L32.33437 269.1604Q32.95937 269.06665 33.287495 268.67603Q33.61562 268.26978 33.61562 267.5354Q33.61562 266.81665 33.33437 266.4729Q33.037495 266.11353 32.631245 266.11353Q32.27187 266.11353 32.068745 266.42603Q31.92812 266.64478 31.70937 267.50415Q31.412495 268.6604 31.20937 269.11353Q30.99062 269.55103 30.61562 269.7854Q30.24062 270.01978 29.77187 270.01978Q29.36562 270.01978 29.006245 269.83228Q28.64687 269.64478 28.412495 269.31665Q28.24062 269.06665 28.11562 268.64478Q27.99062 268.2229 27.99062 267.7229Q27.99062 267.00415 28.20937 266.45728Q28.412495 265.89478 28.77187 265.62915Q29.131245 265.36353 29.724995 265.26978L29.86562 266.30103Q29.39687 266.36353 29.131245 266.70728Q28.849995 267.0354 28.849995 267.6604Q28.849995 268.37915 29.099995 268.69165Q29.33437 269.00415 29.662495 269.00415Q29.86562 269.00415 30.02187 268.87915Q30.193745 268.73853 30.30312 268.4729Q30.36562 268.31665 30.568745 267.5354Q30.881245 266.4104 31.068745 265.9729Q31.256245 265.5354 31.61562 265.2854Q31.974995 265.0354 32.52187 265.0354Q33.05312 265.0354 33.52187 265.3479Q33.974995 265.64478 34.24062 266.2229Q34.49062 266.80103 34.49062 267.5354Q34.49062 268.75415 33.99062 269.39478Q33.474995 270.01978 32.49062 270.19165ZM33.58437 259.70728Q34.08437 260.30103 34.287495 260.8479Q34.49062 261.37915 34.49062 262.00415Q34.49062 263.0354 33.99062 263.58228Q33.49062 264.12915 32.70937 264.12915Q32.256245 264.12915 31.881245 263.92603Q31.49062 263.7229 31.27187 263.37915Q31.037495 263.0354 30.92812 262.61353Q30.83437 262.31665 30.756245 261.67603Q30.61562 260.4104 30.39687 259.80103Q30.17812 259.80103 30.131245 259.80103Q29.474995 259.80103 29.20937 260.0979Q28.86562 260.50415 28.86562 261.30103Q28.86562 262.0354 29.131245 262.39478Q29.381245 262.75415 30.037495 262.92603L29.89687 263.95728Q29.24062 263.81665 28.83437 263.48853Q28.42812 263.1604 28.20937 262.55103Q27.99062 261.94165 27.99062 261.14478Q27.99062 260.3479 28.17812 259.8479Q28.36562 259.3479 28.64687 259.11353Q28.92812 258.87915 29.36562 258.7854Q29.631245 258.73853 30.33437 258.73853L31.74062 258.73853Q33.20937 258.73853 33.599995 258.67603Q33.99062 258.5979 34.349995 258.39478L34.349995 259.50415Q34.02187 259.6604 33.58437 259.70728ZM31.224995 259.80103Q31.45937 260.37915 31.631245 261.51978Q31.724995 262.17603 31.849995 262.44165Q31.95937 262.70728 32.17812 262.86353Q32.39687 263.00415 32.67812 263.00415Q33.099995 263.00415 33.381245 262.69165Q33.662495 262.36353 33.662495 261.75415Q33.662495 261.14478 33.39687 260.67603Q33.131245 260.19165 32.662495 259.9729Q32.30312 259.80103 31.61562 259.80103L31.224995 259.80103ZM34.86562 256.9729L35.02187 255.94167Q35.49062 255.87917 35.70937 255.58229Q36.006245 255.19167 36.006245 254.51979Q36.006245 253.78542 35.70937 253.39479Q35.412495 252.98854 34.89687 252.84792Q34.568745 252.75417 33.537495 252.76979Q34.349995 253.45729 34.349995 254.48854Q34.349995 255.76979 33.42812 256.4729Q32.49062 257.17603 31.20937 257.17603Q30.318745 257.17603 29.568745 256.86353Q28.80312 256.5354 28.39687 255.92604Q27.99062 255.31667 27.99062 254.48854Q27.99062 253.37917 28.881245 252.66042L28.131245 252.66042L28.131245 251.69167L33.506245 251.69167Q34.95937 251.69167 35.568745 251.98854Q36.17812 252.28542 36.52187 252.92604Q36.881245 253.56667 36.881245 254.50417Q36.881245 255.61354 36.381245 256.30103Q35.881245 256.98853 34.86562 256.9729ZM31.131245 256.0979Q32.349995 256.0979 32.912495 255.61354Q33.474995 255.12917 33.474995 254.39479Q33.474995 253.66042 32.912495 253.17604Q32.349995 252.67604 31.162495 252.67604Q30.02187 252.67604 29.443745 253.19167Q28.86562 253.69167 28.86562 254.41042Q28.86562 255.11354 29.443745 255.61354Q30.006245 256.0979 31.131245 256.0979ZM32.349995 245.51979L32.474995 244.42604Q33.42812 244.67604 33.95937 245.37917Q34.49062 246.08229 34.49062 247.16042Q34.49062 248.51979 33.64687 249.33229Q32.80312 250.12917 31.287495 250.12917Q29.724995 250.12917 28.86562 249.31667Q27.99062 248.50417 27.99062 247.22292Q27.99062 245.97292 28.83437 245.19167Q29.67812 244.39479 31.224995 244.39479Q31.318745 244.39479 31.506245 244.39479L31.506245 249.03542Q32.537495 248.97292 33.08437 248.45729Q33.61562 247.94167 33.61562 247.16042Q33.61562 246.58229 33.318745 246.17604Q33.006245 245.75417 32.349995 245.51979ZM30.64687 248.97292L30.64687 245.50417Q29.849995 245.56667 29.45937 245.89479Q28.849995 246.41042 28.849995 247.20729Q28.849995 247.94167 29.33437 248.44167Q29.818745 248.92604 30.64687 248.97292ZM36.881245 237.75417Q35.77187 238.62917 34.30312 239.23854Q32.818745 239.83229 31.24062 239.83229Q29.849995 239.83229 28.568745 239.39479Q27.08437 238.86354 25.61562 237.75417L25.61562 237.00417Q26.83437 237.70729 27.349995 237.94167Q28.162495 238.30104 29.037495 238.50417Q30.131245 238.75417 31.24062 238.75417Q34.068745 238.75417 36.881245 237.00417L36.881245 237.75417ZM30.974995 231.61354L29.974995 231.61354L29.95937 227.98854L33.14687 227.98854Q33.818745 228.81667 34.162495 229.70729Q34.49062 230.59792 34.49062 231.53542Q34.49062 232.80104 33.95937 233.84792Q33.412495 234.87917 32.39687 235.41042Q31.36562 235.92604 30.099995 235.92604Q28.83437 235.92604 27.756245 235.41042Q26.662495 234.87917 26.14687 233.89479Q25.61562 232.91042 25.61562 231.62917Q25.61562 230.69167 25.912495 229.94167Q26.20937 229.19167 26.756245 228.76979Q27.287495 228.33229 28.162495 228.11354L28.443745 229.12917Q27.787495 229.33229 27.412495 229.62917Q27.037495 229.91042 26.818745 230.44167Q26.58437 230.97292 26.58437 231.61354Q26.58437 232.39479 26.818745 232.97292Q27.05312 233.53542 27.443745 233.89479Q27.83437 234.23854 28.30312 234.42604Q29.099995 234.75417 30.02187 234.75417Q31.17812 234.75417 31.95937 234.36354Q32.724995 233.95729 33.099995 233.20729Q33.474995 232.45729 33.474995 231.59792Q33.474995 230.86354 33.193745 230.16042Q32.89687 229.45729 32.58437 229.09792L30.974995 229.09792L30.974995 231.61354ZM26.974995 226.76979L25.756245 226.76979L25.756245 225.70729L26.974995 225.70729L26.974995 226.76979ZM34.349995 226.76979L28.131245 226.76979L28.131245 225.70729L34.349995 225.70729L34.349995 226.76979ZM34.86562 223.97292L35.02187 222.94167Q35.49062 222.87917 35.70937 222.58229Q36.006245 222.19167 36.006245 221.51979Q36.006245 220.78542 35.70937 220.39479Q35.412495 219.98854 34.89687 219.84792Q34.568745 219.75417 33.537495 219.76979Q34.349995 220.45729 34.349995 221.48854Q34.349995 222.76979 33.42812 223.47292Q32.49062 224.17604 31.20937 224.17604Q30.318745 224.17604 29.568745 223.86354Q28.80312 223.53542 28.39687 222.92604Q27.99062 222.31667 27.99062 221.48854Q27.99062 220.37917 28.881245 219.66042L28.131245 219.66042L28.131245 218.69167L33.506245 218.69167Q34.95937 218.69167 35.568745 218.98854Q36.17812 219.28542 36.52187 219.92604Q36.881245 220.56667 36.881245 221.50417Q36.881245 222.61354 36.381245 223.30104Q35.881245 223.98854 34.86562 223.97292ZM31.131245 223.09792Q32.349995 223.09792 32.912495 222.61354Q33.474995 222.12917 33.474995 221.39479Q33.474995 220.66042 32.912495 220.17604Q32.349995 219.67604 31.162495 219.67604Q30.02187 219.67604 29.443745 220.19167Q28.86562 220.69167 28.86562 221.41042Q28.86562 222.11354 29.443745 222.61354Q30.006245 223.09792 31.131245 223.09792ZM33.58437 212.70729Q34.08437 213.30104 34.287495 213.84792Q34.49062 214.37917 34.49062 215.00417Q34.49062 216.03542 33.99062 216.58229Q33.49062 217.12917 32.70937 217.12917Q32.256245 217.12917 31.881245 216.92604Q31.49062 216.72292 31.27187 216.37917Q31.037495 216.03542 30.92812 215.61354Q30.83437 215.31667 30.756245 214.67604Q30.61562 213.41042 30.39687 212.80104Q30.17812 212.80104 30.131245 212.80104Q29.474995 212.80104 29.20937 213.09792Q28.86562 213.50417 28.86562 214.30104Q28.86562 215.03542 29.131245 215.39479Q29.381245 215.75417 30.037495 215.92604L29.89687 216.95729Q29.24062 216.81667 28.83437 216.48854Q28.42812 216.16042 28.20937 215.55104Q27.99062 214.94167 27.99062 214.14479Q27.99062 213.34792 28.17812 212.84792Q28.36562 212.34792 28.64687 212.11354Q28.92812 211.87917 29.36562 211.78542Q29.631245 211.73854 30.33437 211.73854L31.74062 211.73854Q33.20937 211.73854 33.599995 211.67604Q33.99062 211.59792 34.349995 211.39479L34.349995 212.50417Q34.02187 212.66042 33.58437 212.70729ZM31.224995 212.80104Q31.45937 213.37917 31.631245 214.51979Q31.724995 215.17604 31.849995 215.44167Q31.95937 215.70729 32.17812 215.86354Q32.39687 216.00417 32.67812 216.00417Q33.099995 216.00417 33.381245 215.69167Q33.662495 215.36354 33.662495 214.75417Q33.662495 214.14479 33.39687 213.67604Q33.131245 213.19167 32.662495 212.97292Q32.30312 212.80104 31.61562 212.80104L31.224995 212.80104ZM34.349995 208.80104L34.349995 209.78542L25.756245 209.78542L25.756245 208.72292L28.818745 208.72292Q27.99062 208.05104 27.99062 207.01979Q27.99062 206.44167 28.224995 205.94167Q28.443745 205.42604 28.86562 205.09792Q29.287495 204.75417 29.881245 204.56667Q30.474995 204.37917 31.14687 204.37917Q32.74062 204.37917 33.61562 205.17604Q34.49062 205.97292 34.49062 207.06667Q34.49062 208.17604 33.568745 208.80104L34.349995 208.80104ZM31.193745 208.81667Q32.30312 208.81667 32.80312 208.50417Q33.61562 208.00417 33.61562 207.16042Q33.61562 206.47292 33.02187 205.97292Q32.42812 205.45729 31.224995 205.45729Q30.006245 205.45729 29.42812 205.94167Q28.849995 206.42604 28.849995 207.11354Q28.849995 207.80104 29.45937 208.31667Q30.05312 208.81667 31.193745 208.81667ZM36.74062 202.81667L35.756245 202.94167Q35.849995 202.59792 35.849995 202.33229Q35.849995 201.98854 35.724995 201.78542Q35.61562 201.56667 35.412495 201.42604Q35.24062 201.33229 34.61562 201.09792Q34.537495 201.08229 34.36562 201.00417L28.131245 203.37917L28.131245 202.23854L31.724995 200.94167Q32.412495 200.69167 33.17812 200.48854Q32.443745 200.30104 31.756245 200.05104L28.131245 198.72292L28.131245 197.67604L34.45937 200.03542Q35.474995 200.42604 35.86562 200.62917Q36.39687 200.91042 36.631245 201.28542Q36.881245 201.64479 36.881245 202.14479Q36.881245 202.44167 36.74062 202.81667ZM33.412495 194.47292L34.33437 194.31667Q34.42812 194.76979 34.42812 195.11354Q34.42812 195.69167 34.256245 196.00417Q34.068745 196.31667 33.77187 196.45729Q33.474995 196.58229 32.52187 196.58229L28.943745 196.58229L28.943745 197.34792L28.131245 197.34792L28.131245 196.58229L26.58437 196.58229L25.95937 195.53542L28.131245 195.53542L28.131245 194.47292L28.943745 194.47292L28.943745 195.53542L32.58437 195.53542Q33.037495 195.53542 33.162495 195.48854Q33.287495 195.42604 33.36562 195.30104Q33.443745 195.17604 33.443745 194.94167Q33.443745 194.75417 33.412495 194.47292ZM32.349995 189.51979L32.474995 188.42604Q33.42812 188.67604 33.95937 189.37917Q34.49062 190.08229 34.49062 191.16042Q34.49062 192.51979 33.64687 193.33229Q32.80312 194.12917 31.287495 194.12917Q29.724995 194.12917 28.86562 193.31667Q27.99062 192.50417 27.99062 191.22292Q27.99062 189.97292 28.83437 189.19167Q29.67812 188.39479 31.224995 188.39479Q31.318745 188.39479 31.506245 188.39479L31.506245 193.03542Q32.537495 192.97292 33.08437 192.45729Q33.61562 191.94167 33.61562 191.16042Q33.61562 190.58229 33.318745 190.17604Q33.006245 189.75417 32.349995 189.51979ZM30.64687 192.97292L30.64687 189.50417Q29.849995 189.56667 29.45937 189.89479Q28.849995 190.41042 28.849995 191.20729Q28.849995 191.94167 29.33437 192.44167Q29.818745 192.92604 30.64687 192.97292ZM32.49062 187.19167L32.33437 186.16042Q32.95937 186.06667 33.287495 185.67604Q33.61562 185.26979 33.61562 184.53542Q33.61562 183.81667 33.33437 183.47292Q33.037495 183.11354 32.631245 183.11354Q32.27187 183.11354 32.068745 183.42604Q31.92812 183.64479 31.70937 184.50417Q31.412495 185.66042 31.20937 186.11354Q30.99062 186.55104 30.61562 186.78542Q30.24062 187.01979 29.77187 187.01979Q29.36562 187.01979 29.006245 186.83229Q28.64687 186.64479 28.412495 186.31667Q28.24062 186.06667 28.11562 185.64479Q27.99062 185.22292 27.99062 184.72292Q27.99062 184.00417 28.20937 183.45729Q28.412495 182.89479 28.77187 182.62917Q29.131245 182.36354 29.724995 182.26979L29.86562 183.30104Q29.39687 183.36354 29.131245 183.70729Q28.849995 184.03542 28.849995 184.66042Q28.849995 185.37917 29.099995 185.69167Q29.33437 186.00417 29.662495 186.00417Q29.86562 186.00417 30.02187 185.87917Q30.193745 185.73854 30.30312 185.47292Q30.36562 185.31667 30.568745 184.53542Q30.881245 183.41042 31.068745 182.97292Q31.256245 182.53542 31.61562 182.28542Q31.974995 182.03542 32.52187 182.03542Q33.05312 182.03542 33.52187 182.34792Q33.974995 182.64479 34.24062 183.22292Q34.49062 183.80104 34.49062 184.53542Q34.49062 185.75417 33.99062 186.39479Q33.474995 187.01979 32.49062 187.19167ZM36.881245 180.08229L36.881245 180.83229Q34.068745 179.08229 31.24062 179.08229Q30.14687 179.08229 29.05312 179.33229Q28.17812 179.53542 27.36562 179.89479Q26.849995 180.12917 25.61562 180.83229L25.61562 180.08229Q27.08437 178.98853 28.568745 178.45728Q29.849995 178.00415 31.24062 178.00415Q32.818745 178.00415 34.30312 178.61353Q35.77187 179.22292 36.881245 180.08229Z" fill-rule="nonzero"/><path fill="#000000" d="M59.85 391.41562Q59.85 389.88437 60.1625 388.9625Q60.475 388.025 61.084373 387.525Q61.709373 387.025 62.646873 387.025Q63.334373 387.025 63.85 387.30624Q64.38125 387.5875 64.725 388.11874Q65.06875 388.63437 65.25625 389.38437Q65.44375 390.13437 65.44375 391.41562Q65.44375 392.93124 65.13125 393.85312Q64.83437 394.775 64.20937 395.29062Q63.6 395.79062 62.646873 395.79062Q61.4125 395.79062 60.69375 394.9Q59.85 393.8375 59.85 391.41562ZM60.928123 391.41562Q60.928123 393.525 61.428123 394.22812Q61.928123 394.93124 62.646873 394.93124Q63.38125 394.93124 63.865623 394.22812Q64.36562 393.525 64.36562 391.41562Q64.36562 389.29062 63.865623 388.60312Q63.38125 387.9 62.63125 387.9Q61.9125 387.9 61.475 388.50937Q60.928123 389.29062 60.928123 391.41562ZM67.44375 395.65L67.44375 394.44687L68.64687 394.44687L68.64687 395.65L67.44375 395.65ZM69.85 391.41562Q69.85 389.88437 70.1625 388.9625Q70.475 388.025 71.08437 387.525Q71.70937 387.025 72.64687 387.025Q73.33437 387.025 73.85 387.30624Q74.38125 387.5875 74.725 388.11874Q75.06875 388.63437 75.25625 389.38437Q75.44375 390.13437 75.44375 391.41562Q75.44375 392.93124 75.13125 393.85312Q74.83437 394.775 74.20937 395.29062Q73.6 395.79062 72.64687 395.79062Q71.4125 395.79062 70.69375 394.9Q69.85 393.8375 69.85 391.41562ZM70.92812 391.41562Q70.92812 393.525 71.42812 394.22812Q71.92812 394.93124 72.64687 394.93124Q73.38125 394.93124 73.86562 394.22812Q74.36562 393.525 74.36562 391.41562Q74.36562 389.29062 73.86562 388.60312Q73.38125 387.9 72.63125 387.9Q71.9125 387.9 71.475 388.50937Q70.92812 389.29062 70.92812 391.41562Z" fill-rule="nonzero"/><path fill="#000000" d="M59.85 318.37396Q59.85 316.8427 60.1625 315.92084Q60.475 314.98334 61.084373 314.48334Q61.709373 313.98334 62.646873 313.98334Q63.334373 313.98334 63.85 314.2646Q64.38125 314.54584 64.725 315.0771Q65.06875 315.5927 65.25625 316.3427Q65.44375 317.0927 65.44375 318.37396Q65.44375 319.8896 65.13125 320.81146Q64.83437 321.73334 64.20937 322.24896Q63.6 322.74896 62.646873 322.74896Q61.4125 322.74896 60.69375 321.85834Q59.85 320.79584 59.85 318.37396ZM60.928123 318.37396Q60.928123 320.48334 61.428123 321.18646Q61.928123 321.8896 62.646873 321.8896Q63.38125 321.8896 63.865623 321.18646Q64.36562 320.48334 64.36562 318.37396Q64.36562 316.24896 63.865623 315.56146Q63.38125 314.85834 62.63125 314.85834Q61.9125 314.85834 61.475 315.4677Q60.928123 316.24896 60.928123 318.37396ZM67.44375 322.60834L67.44375 321.4052L68.64687 321.4052L68.64687 322.60834L67.44375 322.60834ZM75.39687 321.5927L75.39687 322.60834L69.70937 322.60834Q69.70937 322.23334 69.83437 321.87396Q70.05312 321.29584 70.52187 320.73334Q71.00625 320.17084 71.9125 319.43646Q73.31875 318.2802 73.80312 317.60834Q74.30312 316.93646 74.30312 316.3427Q74.30312 315.7177 73.85 315.29584Q73.39687 314.85834 72.67812 314.85834Q71.9125 314.85834 71.45937 315.31146Q71.00625 315.7646 70.99062 316.5771L69.9125 316.4677Q70.02187 315.24896 70.74062 314.62396Q71.475 313.98334 72.70937 313.98334Q73.94375 313.98334 74.6625 314.67084Q75.38125 315.35834 75.38125 316.37396Q75.38125 316.8896 75.1625 317.3896Q74.95937 317.87396 74.45937 318.43646Q73.975 318.98334 72.85 319.93646Q71.89687 320.73334 71.61562 321.0302Q71.35 321.31146 71.17812 321.5927L75.39687 321.5927Z" fill-rule="nonzero"/><path fill="#000000" d="M59.85 245.33229Q59.85 243.80104 60.1625 242.87917Q60.475 241.94167 61.084373 241.44167Q61.709373 240.94167 62.646873 240.94167Q63.334373 240.94167 63.85 241.22292Q64.38125 241.50417 64.725 242.03542Q65.06875 242.55104 65.25625 243.30104Q65.44375 244.05104 65.44375 245.33229Q65.44375 246.84792 65.13125 247.76979Q64.83437 248.69167 64.20937 249.20729Q63.6 249.70729 62.646873 249.70729Q61.4125 249.70729 60.69375 248.81667Q59.85 247.75417 59.85 245.33229ZM60.928123 245.33229Q60.928123 247.44167 61.428123 248.14479Q61.928123 248.84792 62.646873 248.84792Q63.38125 248.84792 63.865623 248.14479Q64.36562 247.44167 64.36562 245.33229Q64.36562 243.20729 63.865623 242.51979Q63.38125 241.81667 62.63125 241.81667Q61.9125 241.81667 61.475 242.42604Q60.928123 243.20729 60.928123 245.33229ZM67.44375 249.56667L67.44375 248.36354L68.64687 248.36354L68.64687 249.56667L67.44375 249.56667ZM73.225 249.56667L73.225 247.50417L69.50625 247.50417L69.50625 246.53542L73.42812 240.97292L74.2875 240.97292L74.2875 246.53542L75.44375 246.53542L75.44375 247.50417L74.2875 247.50417L74.2875 249.56667L73.225 249.56667ZM73.225 246.53542L73.225 242.67604L70.5375 246.53542L73.225 246.53542Z" fill-rule="nonzero"/><path fill="#000000" d="M59.85 172.29062Q59.85 170.75937 60.1625 169.8375Q60.475 168.9 61.084373 168.4Q61.709373 167.9 62.646873 167.9Q63.334373 167.9 63.85 168.18124Q64.38125 168.4625 64.725 168.99374Q65.06875 169.50937 65.25625 170.25937Q65.44375 171.00937 65.44375 172.29062Q65.44375 173.80624 65.13125 174.72812Q64.83437 175.65 64.20937 176.16562Q63.6 176.66562 62.646873 176.66562Q61.4125 176.66562 60.69375 175.775Q59.85 174.7125 59.85 172.29062ZM60.928123 172.29062Q60.928123 174.4 61.428123 175.10312Q61.928123 175.80624 62.646873 175.80624Q63.38125 175.80624 63.865623 175.10312Q64.36562 174.4 64.36562 172.29062Q64.36562 170.16562 63.865623 169.47812Q63.38125 168.775 62.63125 168.775Q61.9125 168.775 61.475 169.38437Q60.928123 170.16562 60.928123 172.29062ZM67.44375 176.525L67.44375 175.32187L68.64687 175.32187L68.64687 176.525L67.44375 176.525ZM75.31875 170.04062L74.27187 170.11874Q74.13125 169.49374 73.88125 169.2125Q73.44375 168.75937 72.81875 168.75937Q72.31875 168.75937 71.92812 169.04062Q71.44375 169.41562 71.14687 170.11874Q70.86562 170.80624 70.85 172.0875Q71.225 171.50937 71.77187 171.22812Q72.33437 170.94687 72.94375 170.94687Q73.99062 170.94687 74.725 171.72812Q75.475 172.50937 75.475 173.72812Q75.475 174.54062 75.11562 175.24374Q74.77187 175.93124 74.1625 176.30624Q73.55312 176.66562 72.7875 176.66562Q71.45937 176.66562 70.63125 175.69687Q69.80312 174.72812 69.80312 172.50937Q69.80312 170.00937 70.725 168.88437Q71.52187 167.9 72.88125 167.9Q73.89687 167.9 74.5375 168.47812Q75.19375 169.04062 75.31875 170.04062ZM71.02187 173.74374Q71.02187 174.29062 71.24062 174.79062Q71.475 175.275 71.88125 175.54062Q72.30312 175.80624 72.77187 175.80624Q73.42812 175.80624 73.9125 175.275Q74.39687 174.72812 74.39687 173.80624Q74.39687 172.91562 73.9125 172.4Q73.44375 171.88437 72.725 171.88437Q72.00625 171.88437 71.50625 172.4Q71.02187 172.91562 71.02187 173.74374Z" fill-rule="nonzero"/><path fill="#000000" d="M59.85 99.248955Q59.85 97.717705 60.1625 96.79583Q60.475 95.85833 61.084373 95.35833Q61.709373 94.85833 62.646873 94.85833Q63.334373 94.85833 63.85 95.13958Q64.38125 95.42083 64.725 95.95208Q65.06875 96.467705 65.25625 97.217705Q65.44375 97.967705 65.44375 99.248955Q65.44375 100.76458 65.13125 101.686455Q64.83437 102.60833 64.20937 103.123955Q63.6 103.623955 62.646873 103.623955Q61.4125 103.623955 60.69375 102.73333Q59.85 101.67083 59.85 99.248955ZM60.928123 99.248955Q60.928123 101.35833 61.428123 102.061455Q61.928123 102.76458 62.646873 102.76458Q63.38125 102.76458 63.865623 102.061455Q64.36562 101.35833 64.36562 99.248955Q64.36562 97.123955 63.865623 96.436455Q63.38125 95.73333 62.63125 95.73333Q61.9125 95.73333 61.475 96.342705Q60.928123 97.123955 60.928123 99.248955ZM67.44375 103.48333L67.44375 102.280205L68.64687 102.280205L68.64687 103.48333L67.44375 103.48333ZM71.475 98.82708Q70.81875 98.57708 70.49062 98.13958Q70.17812 97.686455 70.17812 97.07708Q70.17812 96.13958 70.85 95.498955Q71.5375 94.85833 72.64687 94.85833Q73.77187 94.85833 74.45937 95.51458Q75.14687 96.17083 75.14687 97.10833Q75.14687 97.70208 74.83437 98.13958Q74.52187 98.57708 73.88125 98.82708Q74.67812 99.07708 75.08437 99.655205Q75.49062 100.23333 75.49062 101.030205Q75.49062 102.123955 74.70937 102.873955Q73.94375 103.623955 72.6625 103.623955Q71.39687 103.623955 70.61562 102.873955Q69.83437 102.123955 69.83437 100.998955Q69.83437 100.155205 70.25625 99.592705Q70.69375 99.030205 71.475 98.82708ZM71.25625 97.030205Q71.25625 97.63958 71.64687 98.030205Q72.05312 98.42083 72.67812 98.42083Q73.2875 98.42083 73.67812 98.04583Q74.06875 97.655205 74.06875 97.092705Q74.06875 96.51458 73.6625 96.123955Q73.25625 95.717705 72.6625 95.717705Q72.05312 95.717705 71.64687 96.10833Q71.25625 96.498955 71.25625 97.030205ZM70.92812 100.998955Q70.92812 101.45208 71.13125 101.873955Q71.35 102.29583 71.77187 102.530205Q72.19375 102.76458 72.67812 102.76458Q73.42812 102.76458 73.9125 102.280205Q74.4125 101.79583 74.4125 101.04583Q74.4125 100.280205 73.9125 99.780205Q73.4125 99.280205 72.64687 99.280205Q71.89687 99.280205 71.4125 99.780205Q70.92812 100.26458 70.92812 100.998955Z" fill-rule="nonzero"/><path fill="#000000" d="M217.50893 406.4L218.6183 406.30624Q218.7433 407.11874 219.1808 407.525Q219.63393 407.93124 220.27455 407.93124Q221.02455 407.93124 221.5558 407.35312Q222.08705 406.775 222.08705 405.8375Q222.08705 404.93124 221.57143 404.41562Q221.07143 403.88437 220.2433 403.88437Q219.7433 403.88437 219.32143 404.11874Q218.91518 404.35312 218.6808 404.7125L217.69643 404.5875L218.52455 400.18124L222.8058 400.18124L222.8058 401.18124L219.3683 401.18124L218.91518 403.49374Q219.6808 402.94687 220.52455 402.94687Q221.64955 402.94687 222.41518 403.72812Q223.19643 404.50937 223.19643 405.74374Q223.19643 406.9 222.52455 407.75937Q221.69643 408.79062 220.27455 408.79062Q219.10268 408.79062 218.35268 408.13437Q217.6183 407.47812 217.50893 406.4ZM224.50893 404.41562Q224.50893 402.88437 224.82143 401.9625Q225.13393 401.025 225.7433 400.525Q226.3683 400.025 227.3058 400.025Q227.9933 400.025 228.50893 400.30624Q229.04018 400.5875 229.38393 401.11874Q229.72768 401.63437 229.91518 402.38437Q230.10268 403.13437 230.10268 404.41562Q230.10268 405.93124 229.79018 406.85312Q229.4933 407.775 228.8683 408.29062Q228.25893 408.79062 227.3058 408.79062Q226.07143 408.79062 225.35268 407.9Q224.50893 406.8375 224.50893 404.41562ZM225.58705 404.41562Q225.58705 406.525 226.08705 407.22812Q226.58705 407.93124 227.3058 407.93124Q228.04018 407.93124 228.52455 407.22812Q229.02455 406.525 229.02455 404.41562Q229.02455 402.29062 228.52455 401.60312Q228.04018 400.9 227.29018 400.9Q226.57143 400.9 226.13393 401.50937Q225.58705 402.29062 225.58705 404.41562ZM231.50893 404.41562Q231.50893 402.88437 231.82143 401.9625Q232.13393 401.025 232.7433 400.525Q233.3683 400.025 234.3058 400.025Q234.9933 400.025 235.50893 400.30624Q236.04018 400.5875 236.38393 401.11874Q236.72768 401.63437 236.91518 402.38437Q237.10268 403.13437 237.10268 404.41562Q237.10268 405.93124 236.79018 406.85312Q236.4933 407.775 235.8683 408.29062Q235.25893 408.79062 234.3058 408.79062Q233.07143 408.79062 232.35268 407.9Q231.50893 406.8375 231.50893 404.41562ZM232.58705 404.41562Q232.58705 406.525 233.08705 407.22812Q233.58705 407.93124 234.3058 407.93124Q235.04018 407.93124 235.52455 407.22812Q236.02455 406.525 236.02455 404.41562Q236.02455 402.29062 235.52455 401.60312Q235.04018 400.9 234.29018 400.9Q233.57143 400.9 233.13393 401.50937Q232.58705 402.29062 232.58705 404.41562Z" fill-rule="nonzero"/><path fill="#000000" d="M373.062 408.65L372.01514 408.65L372.01514 401.93124Q371.6245 402.29062 370.9995 402.66562Q370.39014 403.025 369.90576 403.19687L369.90576 402.18124Q370.78076 401.75937 371.437 401.18124Q372.1089 400.5875 372.39014 400.025L373.062 400.025L373.062 408.65ZM376.09326 404.41562Q376.09326 402.88437 376.40576 401.9625Q376.71826 401.025 377.32764 400.525Q377.95264 400.025 378.89014 400.025Q379.57764 400.025 380.09326 400.30624Q380.6245 400.5875 380.96826 401.11874Q381.312 401.63437 381.4995 402.38437Q381.687 403.13437 381.687 404.41562Q381.687 405.93124 381.3745 406.85312Q381.07764 407.775 380.45264 408.29062Q379.84326 408.79062 378.89014 408.79062Q377.65576 408.79062 376.937 407.9Q376.09326 406.8375 376.09326 404.41562ZM377.1714 404.41562Q377.1714 406.525 377.6714 407.22812Q378.1714 407.93124 378.89014 407.93124Q379.6245 407.93124 380.1089 407.22812Q380.6089 406.525 380.6089 404.41562Q380.6089 402.29062 380.1089 401.60312Q379.6245 400.9 378.8745 400.9Q378.15576 400.9 377.71826 401.50937Q377.1714 402.29062 377.1714 404.41562ZM383.09326 404.41562Q383.09326 402.88437 383.40576 401.9625Q383.71826 401.025 384.32764 400.525Q384.95264 400.025 385.89014 400.025Q386.57764 400.025 387.09326 400.30624Q387.6245 400.5875 387.96826 401.11874Q388.312 401.63437 388.4995 402.38437Q388.687 403.13437 388.687 404.41562Q388.687 405.93124 388.3745 406.85312Q388.07764 407.775 387.45264 408.29062Q386.84326 408.79062 385.89014 408.79062Q384.65576 408.79062 383.937 407.9Q383.09326 406.8375 383.09326 404.41562ZM384.1714 404.41562Q384.1714 406.525 384.6714 407.22812Q385.1714 407.93124 385.89014 407.93124Q386.6245 407.93124 387.1089 407.22812Q387.6089 406.525 387.6089 404.41562Q387.6089 402.29062 387.1089 401.60312Q386.6245 400.9 385.8745 400.9Q385.15576 400.9 384.71826 401.50937Q384.1714 402.29062 384.1714 404.41562ZM390.09326 404.41562Q390.09326 402.88437 390.40576 401.9625Q390.71826 401.025 391.32764 400.525Q391.95264 400.025 392.89014 400.025Q393.57764 400.025 394.09326 400.30624Q394.6245 400.5875 394.96826 401.11874Q395.312 401.63437 395.4995 402.38437Q395.687 403.13437 395.687 404.41562Q395.687 405.93124 395.3745 406.85312Q395.07764 407.775 394.45264 408.29062Q393.84326 408.79062 392.89014 408.79062Q391.65576 408.79062 390.937 407.9Q390.09326 406.8375 390.09326 404.41562ZM391.1714 404.41562Q391.1714 406.525 391.6714 407.22812Q392.1714 407.93124 392.89014 407.93124Q393.6245 407.93124 394.1089 407.22812Q394.6089 406.525 394.6089 404.41562Q394.6089 402.29062 394.1089 401.60312Q393.6245 400.9 392.8745 400.9Q392.15576 400.9 391.71826 401.50937Q391.1714 402.29062 391.1714 404.41562Z" fill-rule="nonzero"/><path fill="#000000" d="M528.1463 408.65L527.0994 408.65L527.0994 401.93124Q526.7088 402.29062 526.0838 402.66562Q525.4744 403.025 524.99005 403.19687L524.99005 402.18124Q525.86505 401.75937 526.5213 401.18124Q527.1932 400.5875 527.4744 400.025L528.1463 400.025L528.1463 408.65ZM531.17755 406.4L532.2869 406.30624Q532.4119 407.11874 532.8494 407.525Q533.30255 407.93124 533.9432 407.93124Q534.6932 407.93124 535.2244 407.35312Q535.7557 406.775 535.7557 405.8375Q535.7557 404.93124 535.24005 404.41562Q534.74005 403.88437 533.9119 403.88437Q533.4119 403.88437 532.99005 404.11874Q532.5838 404.35312 532.3494 404.7125L531.36505 404.5875L532.1932 400.18124L536.4744 400.18124L536.4744 401.18124L533.0369 401.18124L532.5838 403.49374Q533.3494 402.94687 534.1932 402.94687Q535.3182 402.94687 536.0838 403.72812Q536.86505 404.50937 536.86505 405.74374Q536.86505 406.9 536.1932 407.75937Q535.36505 408.79062 533.9432 408.79062Q532.7713 408.79062 532.0213 408.13437Q531.2869 407.47812 531.17755 406.4ZM538.17755 404.41562Q538.17755 402.88437 538.49005 401.9625Q538.80255 401.025 539.4119 400.525Q540.0369 400.025 540.9744 400.025Q541.6619 400.025 542.17755 400.30624Q542.7088 400.5875 543.05255 401.11874Q543.3963 401.63437 543.5838 402.38437Q543.7713 403.13437 543.7713 404.41562Q543.7713 405.93124 543.4588 406.85312Q543.1619 407.775 542.5369 408.29062Q541.92755 408.79062 540.9744 408.79062Q539.74005 408.79062 539.0213 407.9Q538.17755 406.8375 538.17755 404.41562ZM539.2557 404.41562Q539.2557 406.525 539.7557 407.22812Q540.2557 407.93124 540.9744 407.93124Q541.7088 407.93124 542.1932 407.22812Q542.6932 406.525 542.6932 404.41562Q542.6932 402.29062 542.1932 401.60312Q541.7088 400.9 540.9588 400.9Q540.24005 400.9 539.80255 401.50937Q539.2557 402.29062 539.2557 404.41562ZM545.17755 404.41562Q545.17755 402.88437 545.49005 401.9625Q545.80255 401.025 546.4119 400.525Q547.0369 400.025 547.9744 400.025Q548.6619 400.025 549.17755 400.30624Q549.7088 400.5875 550.05255 401.11874Q550.3963 401.63437 550.5838 402.38437Q550.7713 403.13437 550.7713 404.41562Q550.7713 405.93124 550.4588 406.85312Q550.1619 407.775 549.5369 408.29062Q548.92755 408.79062 547.9744 408.79062Q546.74005 408.79062 546.0213 407.9Q545.17755 406.8375 545.17755 404.41562ZM546.2557 404.41562Q546.2557 406.525 546.7557 407.22812Q547.2557 407.93124 547.9744 407.93124Q548.7088 407.93124 549.1932 407.22812Q549.6932 406.525 549.6932 404.41562Q549.6932 402.29062 549.1932 401.60312Q548.7088 400.9 547.9588 400.9Q547.24005 400.9 546.80255 401.50937Q546.2557 402.29062 546.2557 404.41562Z" fill-rule="nonzero"/><path fill="#000000" d="M684.8088 407.63437L684.8088 408.65L679.1213 408.65Q679.1213 408.275 679.2463 407.91562Q679.465 407.3375 679.9338 406.775Q680.41815 406.2125 681.3244 405.47812Q682.73065 404.32187 683.215 403.65Q683.715 402.97812 683.715 402.38437Q683.715 401.75937 683.2619 401.3375Q682.8088 400.9 682.09 400.9Q681.3244 400.9 680.8713 401.35312Q680.41815 401.80624 680.4025 402.61874L679.3244 402.50937Q679.4338 401.29062 680.1525 400.66562Q680.8869 400.025 682.1213 400.025Q683.35565 400.025 684.0744 400.7125Q684.79315 401.4 684.79315 402.41562Q684.79315 402.93124 684.5744 403.43124Q684.3713 403.91562 683.8713 404.47812Q683.3869 405.025 682.2619 405.97812Q681.3088 406.775 681.0275 407.07187Q680.7619 407.35312 680.59 407.63437L684.8088 407.63437ZM686.2619 404.41562Q686.2619 402.88437 686.5744 401.9625Q686.8869 401.025 687.4963 400.525Q688.1213 400.025 689.0588 400.025Q689.7463 400.025 690.2619 400.30624Q690.79315 400.5875 691.1369 401.11874Q691.48065 401.63437 691.66815 402.38437Q691.85565 403.13437 691.85565 404.41562Q691.85565 405.93124 691.54315 406.85312Q691.2463 407.775 690.6213 408.29062Q690.0119 408.79062 689.0588 408.79062Q687.8244 408.79062 687.10565 407.9Q686.2619 406.8375 686.2619 404.41562ZM687.34 404.41562Q687.34 406.525 687.84 407.22812Q688.34 407.93124 689.0588 407.93124Q689.79315 407.93124 690.2775 407.22812Q690.7775 406.525 690.7775 404.41562Q690.7775 402.29062 690.2775 401.60312Q689.79315 400.9 689.04315 400.9Q688.3244 400.9 687.8869 401.50937Q687.34 402.29062 687.34 404.41562ZM693.2619 404.41562Q693.2619 402.88437 693.5744 401.9625Q693.8869 401.025 694.4963 400.525Q695.1213 400.025 696.0588 400.025Q696.7463 400.025 697.2619 400.30624Q697.79315 400.5875 698.1369 401.11874Q698.48065 401.63437 698.66815 402.38437Q698.85565 403.13437 698.85565 404.41562Q698.85565 405.93124 698.54315 406.85312Q698.2463 407.775 697.6213 408.29062Q697.0119 408.79062 696.0588 408.79062Q694.8244 408.79062 694.10565 407.9Q693.2619 406.8375 693.2619 404.41562ZM694.34 404.41562Q694.34 406.525 694.84 407.22812Q695.34 407.93124 696.0588 407.93124Q696.79315 407.93124 697.2775 407.22812Q697.7775 406.525 697.7775 404.41562Q697.7775 402.29062 697.2775 401.60312Q696.79315 400.9 696.04315 400.9Q695.3244 400.9 694.8869 401.50937Q694.34 402.29062 694.34 404.41562ZM700.2619 404.41562Q700.2619 402.88437 700.5744 401.9625Q700.8869 401.025 701.4963 400.525Q702.1213 400.025 703.0588 400.025Q703.7463 400.025 704.2619 400.30624Q704.79315 400.5875 705.1369 401.11874Q705.48065 401.63437 705.66815 402.38437Q705.85565 403.13437 705.85565 404.41562Q705.85565 405.93124 705.54315 406.85312Q705.2463 407.775 704.6213 408.29062Q704.0119 408.79062 703.0588 408.79062Q701.8244 408.79062 701.10565 407.9Q700.2619 406.8375 700.2619 404.41562ZM701.34 404.41562Q701.34 406.525 701.84 407.22812Q702.34 407.93124 703.0588 407.93124Q703.79315 407.93124 704.2775 407.22812Q704.7775 406.525 704.7775 404.41562Q704.7775 402.29062 704.2775 401.60312Q703.79315 400.9 703.04315 400.9Q702.3244 400.9 701.8869 401.50937Q701.34 402.29062 701.34 404.41562Z" fill-rule="nonzero"/><path stroke="#4285f4" stroke-width="4.0" stroke-linecap="butt" d="M276.5 69.916664L288.5 69.916664" fill-rule="nonzero"/><path fill="#1a1a1a" d="M297.42188 73.916664L297.42188 65.322914L298.57812 65.322914L303.09375 72.072914L303.09375 65.322914L304.1875 65.322914L304.1875 73.916664L303.01562 73.916664L298.5 67.166664L298.5 73.916664L297.42188 73.916664ZM305.90625 70.80729Q305.90625 69.072914 306.85938 68.24479Q307.65625 67.55729 308.8125 67.55729Q310.09375 67.55729 310.90625 68.40104Q311.73438 69.229164 311.73438 70.71354Q311.73438 71.916664 311.375 72.604164Q311.01562 73.291664 310.3125 73.68229Q309.625 74.05729 308.8125 74.05729Q307.51562 74.05729 306.70312 73.229164Q305.90625 72.385414 305.90625 70.80729ZM306.98438 70.80729Q306.98438 71.99479 307.5 72.58854Q308.03125 73.18229 308.8125 73.18229Q309.60938 73.18229 310.125 72.58854Q310.64062 71.99479 310.64062 70.77604Q310.64062 69.61979 310.10938 69.02604Q309.59375 68.43229 308.8125 68.43229Q308.03125 68.43229 307.5 69.02604Q306.98438 69.604164 306.98438 70.80729ZM313.29688 73.916664L313.29688 67.697914L314.23438 67.697914L314.23438 68.572914Q314.92188 67.55729 316.21875 67.55729Q316.78125 67.55729 317.25 67.760414Q317.73438 67.96354 317.96875 68.291664Q318.20312 68.61979 318.29688 69.05729Q318.34375 69.354164 318.34375 70.08854L318.34375 73.916664L317.29688 73.916664L317.29688 70.135414Q317.29688 69.479164 317.17188 69.166664Q317.04688 68.854164 316.73438 68.666664Q316.42188 68.46354 316.0 68.46354Q315.32812 68.46354 314.82812 68.90104Q314.34375 69.322914 314.34375 70.510414L314.34375 73.916664L313.29688 73.916664ZM322.48438 73.916664L325.78125 65.322914L327.0 65.322914L330.51562 73.916664L329.23438 73.916664L328.21875 71.30729L324.64062 71.30729L323.6875 73.916664L322.48438 73.916664ZM324.96875 70.385414L327.875 70.385414L326.98438 68.010414Q326.5625 66.93229 326.375 66.229164Q326.20312 67.05729 325.90625 67.86979L324.96875 70.385414ZM335.32812 73.916664L335.32812 73.135414Q334.73438 74.05729 333.59375 74.05729Q332.84375 74.05729 332.21875 73.65104Q331.59375 73.229164 331.25 72.49479Q330.90625 71.760414 330.90625 70.80729Q330.90625 69.885414 331.21875 69.11979Q331.53125 68.354164 332.15625 67.96354Q332.78125 67.55729 333.54688 67.55729Q334.10938 67.55729 334.54688 67.791664Q334.98438 68.02604 335.26562 68.40104L335.26562 65.322914L336.3125 65.322914L336.3125 73.916664L335.32812 73.916664ZM332.0 70.80729Q332.0 72.010414 332.5 72.604164Q333.0 73.18229 333.6875 73.18229Q334.375 73.18229 334.85938 72.61979Q335.34375 72.05729 335.34375 70.90104Q335.34375 69.61979 334.84375 69.02604Q334.35938 68.43229 333.64062 68.43229Q332.9375 68.43229 332.46875 69.010414Q332.0 69.572914 332.0 70.80729ZM342.35938 73.15104Q341.76562 73.65104 341.21875 73.854164Q340.6875 74.05729 340.0625 74.05729Q339.03125 74.05729 338.48438 73.55729Q337.9375 73.05729 337.9375 72.27604Q337.9375 71.822914 338.14062 71.447914Q338.34375 71.05729 338.6875 70.83854Q339.03125 70.604164 339.45312 70.49479Q339.75 70.40104 340.39062 70.322914Q341.65625 70.18229 342.26562 69.96354Q342.26562 69.74479 342.26562 69.697914Q342.26562 69.041664 341.96875 68.77604Q341.5625 68.43229 340.76562 68.43229Q340.03125 68.43229 339.67188 68.697914Q339.3125 68.947914 339.14062 69.604164L338.10938 69.46354Q338.25 68.80729 338.57812 68.40104Q338.90625 67.99479 339.51562 67.77604Q340.125 67.55729 340.92188 67.55729Q341.71875 67.55729 342.21875 67.74479Q342.71875 67.93229 342.95312 68.21354Q343.1875 68.49479 343.28125 68.93229Q343.32812 69.197914 343.32812 69.90104L343.32812 71.30729Q343.32812 72.77604 343.39062 73.166664Q343.46875 73.55729 343.67188 73.916664L342.5625 73.916664Q342.40625 73.58854 342.35938 73.15104ZM342.26562 70.791664Q341.6875 71.02604 340.54688 71.197914Q339.89062 71.291664 339.625 71.416664Q339.35938 71.52604 339.20312 71.74479Q339.0625 71.96354 339.0625 72.24479Q339.0625 72.666664 339.375 72.947914Q339.70312 73.229164 340.3125 73.229164Q340.92188 73.229164 341.39062 72.96354Q341.875 72.697914 342.09375 72.229164Q342.26562 71.86979 342.26562 71.18229L342.26562 70.791664ZM345.29688 76.30729L345.29688 67.697914L346.25 67.697914L346.25 68.49479Q346.59375 68.02604 347.01562 67.791664Q347.45312 67.55729 348.0625 67.55729Q348.85938 67.55729 349.46875 67.96354Q350.07812 68.36979 350.375 69.11979Q350.6875 69.86979 350.6875 70.760414Q350.6875 71.71354 350.34375 72.479164Q350.01562 73.24479 349.35938 73.65104Q348.70312 74.05729 347.98438 74.05729Q347.45312 74.05729 347.03125 73.83854Q346.60938 73.604164 346.34375 73.27604L346.34375 76.30729L345.29688 76.30729ZM346.25 70.83854Q346.25 72.041664 346.73438 72.61979Q347.21875 73.18229 347.90625 73.18229Q348.60938 73.18229 349.10938 72.58854Q349.60938 71.99479 349.60938 70.74479Q349.60938 69.55729 349.125 68.979164Q348.64062 68.385414 347.95312 68.385414Q347.28125 68.385414 346.76562 69.010414Q346.25 69.635414 346.25 70.83854ZM354.59375 72.979164L354.75 73.90104Q354.29688 73.99479 353.95312 73.99479Q353.375 73.99479 353.0625 73.822914Q352.75 73.635414 352.60938 73.33854Q352.48438 73.041664 352.48438 72.08854L352.48438 68.510414L351.71875 68.510414L351.71875 67.697914L352.48438 67.697914L352.48438 66.15104L353.53125 65.52604L353.53125 67.697914L354.59375 67.697914L354.59375 68.510414L353.53125 68.510414L353.53125 72.15104Q353.53125 72.604164 353.57812 72.729164Q353.64062 72.854164 353.76562 72.93229Q353.89062 73.010414 354.125 73.010414Q354.3125 73.010414 354.59375 72.979164ZM355.29688 66.541664L355.29688 65.322914L356.35938 65.322914L356.35938 66.541664L355.29688 66.541664ZM355.29688 73.916664L355.29688 67.697914L356.35938 67.697914L356.35938 73.916664L355.29688 73.916664ZM360.01562 73.916664L357.65625 67.697914L358.76562 67.697914L360.10938 71.416664Q360.3125 72.02604 360.5 72.666664Q360.64062 72.18229 360.89062 71.49479L362.28125 67.697914L363.35938 67.697914L361.0 73.916664L360.01562 73.916664ZM368.54688 71.916664L369.64062 72.041664Q369.39062 72.99479 368.6875 73.52604Q367.98438 74.05729 366.90625 74.05729Q365.54688 74.05729 364.73438 73.21354Q363.9375 72.36979 363.9375 70.854164Q363.9375 69.291664 364.75 68.43229Q365.5625 67.55729 366.84375 67.55729Q368.09375 67.55729 368.875 68.40104Q369.67188 69.24479 369.67188 70.791664Q369.67188 70.885414 369.67188 71.072914L365.03125 71.072914Q365.09375 72.104164 365.60938 72.65104Q366.125 73.18229 366.90625 73.18229Q367.48438 73.18229 367.89062 72.885414Q368.3125 72.572914 368.54688 71.916664ZM365.09375 70.21354L368.5625 70.21354Q368.5 69.416664 368.17188 69.02604Q367.65625 68.416664 366.85938 68.416664Q366.125 68.416664 365.625 68.90104Q365.14062 69.385414 365.09375 70.21354Z" fill-rule="nonzero"/><path stroke="#ea4335" stroke-width="4.0" stroke-linecap="butt" d="M386.5 69.916664L398.5 69.916664" fill-rule="nonzero"/><path fill="#1a1a1a" d="M406.48438 73.916664L409.78125 65.322914L411.0 65.322914L414.51562 73.916664L413.23438 73.916664L412.21875 71.30729L408.64062 71.30729L407.6875 73.916664L406.48438 73.916664ZM408.96875 70.385414L411.875 70.385414L410.98438 68.010414Q410.5625 66.93229 410.375 66.229164Q410.20312 67.05729 409.90625 67.86979L408.96875 70.385414ZM419.32812 73.916664L419.32812 73.135414Q418.73438 74.05729 417.59375 74.05729Q416.84375 74.05729 416.21875 73.65104Q415.59375 73.229164 415.25 72.49479Q414.90625 71.760414 414.90625 70.80729Q414.90625 69.885414 415.21875 69.11979Q415.53125 68.354164 416.15625 67.96354Q416.78125 67.55729 417.54688 67.55729Q418.10938 67.55729 418.54688 67.791664Q418.98438 68.02604 419.26562 68.40104L419.26562 65.322914L420.3125 65.322914L420.3125 73.916664L419.32812 73.916664ZM416.0 70.80729Q416.0 72.010414 416.5 72.604164Q417.0 73.18229 417.6875 73.18229Q418.375 73.18229 418.85938 72.61979Q419.34375 72.05729 419.34375 70.90104Q419.34375 69.61979 418.84375 69.02604Q418.35938 68.43229 417.64062 68.43229Q416.9375 68.43229 416.46875 69.010414Q416.0 69.572914 416.0 70.80729ZM426.35938 73.15104Q425.76562 73.65104 425.21875 73.854164Q424.6875 74.05729 424.0625 74.05729Q423.03125 74.05729 422.48438 73.55729Q421.9375 73.05729 421.9375 72.27604Q421.9375 71.822914 422.14062 71.447914Q422.34375 71.05729 422.6875 70.83854Q423.03125 70.604164 423.45312 70.49479Q423.75 70.40104 424.39062 70.322914Q425.65625 70.18229 426.26562 69.96354Q426.26562 69.74479 426.26562 69.697914Q426.26562 69.041664 425.96875 68.77604Q425.5625 68.43229 424.76562 68.43229Q424.03125 68.43229 423.67188 68.697914Q423.3125 68.947914 423.14062 69.604164L422.10938 69.46354Q422.25 68.80729 422.57812 68.40104Q422.90625 67.99479 423.51562 67.77604Q424.125 67.55729 424.92188 67.55729Q425.71875 67.55729 426.21875 67.74479Q426.71875 67.93229 426.95312 68.21354Q427.1875 68.49479 427.28125 68.93229Q427.32812 69.197914 427.32812 69.90104L427.32812 71.30729Q427.32812 72.77604 427.39062 73.166664Q427.46875 73.55729 427.67188 73.916664L426.5625 73.916664Q426.40625 73.58854 426.35938 73.15104ZM426.26562 70.791664Q425.6875 71.02604 424.54688 71.197914Q423.89062 71.291664 423.625 71.416664Q423.35938 71.52604 423.20312 71.74479Q423.0625 71.96354 423.0625 72.24479Q423.0625 72.666664 423.375 72.947914Q423.70312 73.229164 424.3125 73.229164Q424.92188 73.229164 425.39062 72.96354Q425.875 72.697914 426.09375 72.229164Q426.26562 71.86979 426.26562 71.18229L426.26562 70.791664ZM429.29688 76.30729L429.29688 67.697914L430.25 67.697914L430.25 68.49479Q430.59375 68.02604 431.01562 67.791664Q431.45312 67.55729 432.0625 67.55729Q432.85938 67.55729 433.46875 67.96354Q434.07812 68.36979 434.375 69.11979Q434.6875 69.86979 434.6875 70.760414Q434.6875 71.71354 434.34375 72.479164Q434.01562 73.24479 433.35938 73.65104Q432.70312 74.05729 431.98438 74.05729Q431.45312 74.05729 431.03125 73.83854Q430.60938 73.604164 430.34375 73.27604L430.34375 76.30729L429.29688 76.30729ZM430.25 70.83854Q430.25 72.041664 430.73438 72.61979Q431.21875 73.18229 431.90625 73.18229Q432.60938 73.18229 433.10938 72.58854Q433.60938 71.99479 433.60938 70.74479Q433.60938 69.55729 433.125 68.979164Q432.64062 68.385414 431.95312 68.385414Q431.28125 68.385414 430.76562 69.010414Q430.25 69.635414 430.25 70.83854ZM438.59375 72.979164L438.75 73.90104Q438.29688 73.99479 437.95312 73.99479Q437.375 73.99479 437.0625 73.822914Q436.75 73.635414 436.60938 73.33854Q436.48438 73.041664 436.48438 72.08854L436.48438 68.510414L435.71875 68.510414L435.71875 67.697914L436.48438 67.697914L436.48438 66.15104L437.53125 65.52604L437.53125 67.697914L438.59375 67.697914L438.59375 68.510414L437.53125 68.510414L437.53125 72.15104Q437.53125 72.604164 437.57812 72.729164Q437.64062 72.854164 437.76562 72.93229Q437.89062 73.010414 438.125 73.010414Q438.3125 73.010414 438.59375 72.979164ZM439.29688 66.541664L439.29688 65.322914L440.35938 65.322914L440.35938 66.541664L439.29688 66.541664ZM439.29688 73.916664L439.29688 67.697914L440.35938 67.697914L440.35938 73.916664L439.29688 73.916664ZM444.01562 73.916664L441.65625 67.697914L442.76562 67.697914L444.10938 71.416664Q444.3125 72.02604 444.5 72.666664Q444.64062 72.18229 444.89062 71.49479L446.28125 67.697914L447.35938 67.697914L445.0 73.916664L444.01562 73.916664ZM452.54688 71.916664L453.64062 72.041664Q453.39062 72.99479 452.6875 73.52604Q451.98438 74.05729 450.90625 74.05729Q449.54688 74.05729 448.73438 73.21354Q447.9375 72.36979 447.9375 70.854164Q447.9375 69.291664 448.75 68.43229Q449.5625 67.55729 450.84375 67.55729Q452.09375 67.55729 452.875 68.40104Q453.67188 69.24479 453.67188 70.791664Q453.67188 70.885414 453.67188 71.072914L449.03125 71.072914Q449.09375 72.104164 449.60938 72.65104Q450.125 73.18229 450.90625 73.18229Q451.48438 73.18229 451.89062 72.885414Q452.3125 72.572914 452.54688 71.916664ZM449.09375 70.21354L452.5625 70.21354Q452.5 69.416664 452.17188 69.02604Q451.65625 68.416664 450.85938 68.416664Q450.125 68.416664 449.625 68.90104Q449.14062 69.385414 449.09375 70.21354Z" fill-rule="nonzero"/><path fill="#757575" d="M24.834375 42.35L24.834375 28.037498L27.69375 28.037498L31.06875 38.1625Q31.5375 39.584373 31.75625 40.2875Q32.00625 39.50625 32.521873 37.990623L35.94375 28.037498L38.490623 28.037498L38.490623 42.35L36.678123 42.35L36.678123 30.365623L32.50625 42.35L30.803125 42.35L26.6625 30.162498L26.6625 42.35L24.834375 42.35ZM48.771873 39.00625L50.584373 39.240623Q50.1625 40.81875 48.990623 41.709373Q47.834373 42.584373 46.021873 42.584373Q43.75625 42.584373 42.4125 41.19375Q41.084373 39.7875 41.084373 37.25625Q41.084373 34.63125 42.428123 33.19375Q43.771873 31.740623 45.928123 31.740623Q48.00625 31.740623 49.31875 33.1625Q50.646873 34.56875 50.646873 37.146873Q50.646873 37.303123 50.63125 37.615623L42.896873 37.615623Q42.990623 39.31875 43.865623 40.225Q44.740623 41.13125 46.0375 41.13125Q47.00625 41.13125 47.678123 40.63125Q48.365623 40.115623 48.771873 39.00625ZM42.990623 36.1625L48.7875 36.1625Q48.678123 34.865623 48.13125 34.209373Q47.2875 33.19375 45.94375 33.19375Q44.740623 33.19375 43.9125 34.00625Q43.084373 34.803123 42.990623 36.1625ZM52.6625 42.35L52.6625 31.974998L54.240623 31.974998L54.240623 33.428123Q54.725 32.678123 55.5375 32.209373Q56.35 31.740623 57.38125 31.740623Q58.5375 31.740623 59.271873 32.225Q60.00625 32.69375 60.31875 33.553123Q61.553123 31.740623 63.521873 31.740623Q65.06875 31.740623 65.89687 32.6Q66.725 33.459373 66.725 35.225L66.725 42.35L64.975 42.35L64.975 35.81875Q64.975 34.75625 64.80312 34.303123Q64.63125 33.834373 64.17812 33.553123Q63.740623 33.271873 63.13125 33.271873Q62.0375 33.271873 61.303123 34.00625Q60.584373 34.725 60.584373 36.31875L60.584373 42.35L58.834373 42.35L58.834373 35.615623Q58.834373 34.44375 58.396873 33.865623Q57.975 33.271873 56.990623 33.271873Q56.25625 33.271873 55.615623 33.6625Q54.990623 34.053123 54.709373 34.803123Q54.428123 35.553123 54.428123 36.975L54.428123 42.35L52.6625 42.35ZM69.02187 37.1625Q69.02187 34.2875 70.61562 32.896873Q71.95937 31.740623 73.88125 31.740623Q76.02187 31.740623 77.36562 33.146873Q78.725 34.553123 78.725 37.021873Q78.725 39.021873 78.13125 40.178123Q77.5375 41.31875 76.38125 41.959373Q75.24062 42.584373 73.88125 42.584373Q71.69375 42.584373 70.35 41.19375Q69.02187 39.7875 69.02187 37.1625ZM70.81875 37.1625Q70.81875 39.1625 71.67812 40.146873Q72.55312 41.13125 73.88125 41.13125Q75.19375 41.13125 76.05312 40.146873Q76.92812 39.146873 76.92812 37.1Q76.92812 35.178123 76.05312 34.19375Q75.17812 33.19375 73.88125 33.19375Q72.55312 33.19375 71.67812 34.19375Q70.81875 35.178123 70.81875 37.1625ZM80.64687 42.35L80.64687 31.974998L82.225 31.974998L82.225 33.553123Q82.83437 32.44375 83.35 32.1Q83.86562 31.740623 84.475 31.740623Q85.36562 31.740623 86.2875 32.303123L85.67812 33.94375Q85.0375 33.553123 84.39687 33.553123Q83.81875 33.553123 83.35 33.9125Q82.89687 34.25625 82.69375 34.865623Q82.4125 35.803123 82.4125 36.9125L82.4125 42.35L80.64687 42.35ZM87.58437 46.35L87.39687 44.69375Q87.975 44.85 88.39687 44.85Q88.99062 44.85 89.33437 44.646873Q89.69375 44.459373 89.9125 44.115623Q90.08437 43.85 90.45937 42.803123Q90.50625 42.646873 90.61562 42.365623L86.67812 31.974998L88.56875 31.974998L90.725 37.990623Q91.14687 39.13125 91.475 40.38125Q91.7875 39.178123 92.19375 38.021873L94.4125 31.974998L96.17812 31.974998L92.225 42.521873Q91.6 44.240623 91.24062 44.88125Q90.77187 45.75625 90.1625 46.146873Q89.56875 46.553123 88.725 46.553123Q88.20937 46.553123 87.58437 46.35ZM113.2875 28.037498L115.17812 28.037498L115.17812 36.303123Q115.17812 38.459373 114.69375 39.740623Q114.20937 41.00625 112.92812 41.803123Q111.6625 42.6 109.58437 42.6Q107.56875 42.6 106.2875 41.9125Q105.02187 41.209373 104.475 39.896873Q103.92812 38.584373 103.92812 36.303123L103.92812 28.037498L105.81875 28.037498L105.81875 36.2875Q105.81875 38.1625 106.1625 39.053123Q106.50625 39.928123 107.35 40.4125Q108.19375 40.88125 109.42812 40.88125Q111.50625 40.88125 112.39687 39.94375Q113.2875 38.990623 113.2875 36.2875L113.2875 28.037498ZM116.95937 39.25625L118.70937 38.975Q118.85 40.021873 119.52187 40.584373Q120.19375 41.13125 121.39687 41.13125Q122.6 41.13125 123.17812 40.646873Q123.77187 40.146873 123.77187 39.490623Q123.77187 38.896873 123.25625 38.553123Q122.89687 38.31875 121.45937 37.959373Q119.52187 37.459373 118.77187 37.115623Q118.0375 36.75625 117.64687 36.13125Q117.25625 35.490623 117.25625 34.725Q117.25625 34.0375 117.56875 33.44375Q117.89687 32.85 118.44375 32.459373Q118.85 32.1625 119.55312 31.959373Q120.27187 31.740623 121.08437 31.740623Q122.30312 31.740623 123.225 32.1Q124.14687 32.44375 124.58437 33.053123Q125.02187 33.646873 125.19375 34.646873L123.475 34.88125Q123.35 34.084373 122.7875 33.646873Q122.225 33.19375 121.20937 33.19375Q119.99062 33.19375 119.475 33.6Q118.95937 33.990623 118.95937 34.521873Q118.95937 34.865623 119.17812 35.146873Q119.38125 35.428123 119.85 35.615623Q120.11562 35.709373 121.39687 36.053123Q123.27187 36.553123 124.00625 36.88125Q124.74062 37.19375 125.1625 37.803123Q125.58437 38.396873 125.58437 39.303123Q125.58437 40.178123 125.06875 40.959373Q124.55312 41.740623 123.58437 42.1625Q122.61562 42.584373 121.39687 42.584373Q119.38125 42.584373 118.31875 41.740623Q117.25625 40.896873 116.95937 39.25625ZM134.44376 41.06875Q133.45938 41.896873 132.55313 42.240623Q131.64688 42.584373 130.61563 42.584373Q128.9125 42.584373 127.99062 41.75625Q127.06875 40.9125 127.06875 39.615623Q127.06875 38.85 127.4125 38.225Q127.77187 37.6 128.33438 37.225Q128.89688 36.834373 129.6 36.63125Q130.11563 36.50625 131.1625 36.365623Q133.2875 36.115623 134.2875 35.771873Q134.30313 35.4125 134.30313 35.303123Q134.30313 34.240623 133.80313 33.7875Q133.13126 33.19375 131.80313 33.19375Q130.55313 33.19375 129.95938 33.63125Q129.38126 34.06875 129.1 35.178123L127.38125 34.94375Q127.61562 33.834373 128.14688 33.1625Q128.67813 32.475 129.69376 32.115623Q130.70938 31.740623 132.05313 31.740623Q133.38126 31.740623 134.20938 32.053123Q135.0375 32.365623 135.42813 32.85Q135.81876 33.31875 135.975 34.0375Q136.06876 34.490623 136.06876 35.6625L136.06876 38.00625Q136.06876 40.459373 136.17813 41.115623Q136.2875 41.75625 136.63126 42.35L134.7875 42.35Q134.52188 41.803123 134.44376 41.06875ZM134.2875 37.146873Q133.33438 37.5375 131.4125 37.803123Q130.33438 37.959373 129.88126 38.1625Q129.44376 38.35 129.19376 38.725Q128.94376 39.1 128.94376 39.56875Q128.94376 40.271873 129.475 40.740623Q130.00626 41.209373 131.0375 41.209373Q132.05313 41.209373 132.83438 40.771873Q133.63126 40.31875 134.00626 39.553123Q134.2875 38.94375 134.2875 37.7875L134.2875 37.146873ZM138.35 43.209373L140.05313 43.459373Q140.1625 44.25625 140.64688 44.615623Q141.30313 45.1 142.44376 45.1Q143.6625 45.1 144.31876 44.615623Q144.99063 44.13125 145.225 43.25625Q145.36563 42.709373 145.35 40.990623Q144.19376 42.35 142.475 42.35Q140.33438 42.35 139.1625 40.803123Q137.99063 39.25625 137.99063 37.1Q137.99063 35.615623 138.52188 34.365623Q139.06876 33.115623 140.08438 32.428123Q141.11563 31.740623 142.49063 31.740623Q144.31876 31.740623 145.52188 33.225L145.52188 31.974998L147.13126 31.974998L147.13126 40.94375Q147.13126 43.365623 146.63126 44.365623Q146.14688 45.38125 145.06876 45.959373Q144.00626 46.553123 142.44376 46.553123Q140.6 46.553123 139.44376 45.725Q138.30313 44.896873 138.35 43.209373ZM139.80313 36.975Q139.80313 39.021873 140.61563 39.959373Q141.42813 40.896873 142.64688 40.896873Q143.85 40.896873 144.6625 39.959373Q145.49063 39.021873 145.49063 37.0375Q145.49063 35.13125 144.64688 34.1625Q143.80313 33.19375 142.61563 33.19375Q141.44376 33.19375 140.61563 34.146873Q139.80313 35.1 139.80313 36.975ZM156.77188 39.00625L158.58438 39.240623Q158.1625 40.81875 156.99063 41.709373Q155.83438 42.584373 154.02188 42.584373Q151.75626 42.584373 150.4125 41.19375Q149.08438 39.7875 149.08438 37.25625Q149.08438 34.63125 150.42813 33.19375Q151.77188 31.740623 153.92813 31.740623Q156.00626 31.740623 157.31876 33.1625Q158.64688 34.56875 158.64688 37.146873Q158.64688 37.303123 158.63126 37.615623L150.89688 37.615623Q150.99063 39.31875 151.86563 40.225Q152.74063 41.13125 154.0375 41.13125Q155.00626 41.13125 155.67813 40.63125Q156.36563 40.115623 156.77188 39.00625ZM150.99063 36.1625L156.7875 36.1625Q156.67813 34.865623 156.13126 34.209373Q155.2875 33.19375 153.94376 33.19375Q152.74063 33.19375 151.9125 34.00625Q151.08438 34.803123 150.99063 36.1625ZM166.02188 37.1625Q166.02188 34.2875 167.61563 32.896873Q168.95938 31.740623 170.88126 31.740623Q173.02188 31.740623 174.36563 33.146873Q175.725 34.553123 175.725 37.021873Q175.725 39.021873 175.13126 40.178123Q174.5375 41.31875 173.38126 41.959373Q172.24063 42.584373 170.88126 42.584373Q168.69376 42.584373 167.35 41.19375Q166.02188 39.7875 166.02188 37.1625ZM167.81876 37.1625Q167.81876 39.1625 168.67813 40.146873Q169.55313 41.13125 170.88126 41.13125Q172.19376 41.13125 173.05313 40.146873Q173.92813 39.146873 173.92813 37.1Q173.92813 35.178123 173.05313 34.19375Q172.17813 33.19375 170.88126 33.19375Q169.55313 33.19375 168.67813 34.19375Q167.81876 35.178123 167.81876 37.1625ZM178.08438 42.35L178.08438 33.35L176.5375 33.35L176.5375 31.974998L178.08438 31.974998L178.08438 30.881248Q178.08438 29.834373 178.27188 29.318748Q178.52188 28.631248 179.1625 28.209373Q179.80313 27.787498 180.95938 27.787498Q181.70938 27.787498 182.6 27.959373L182.33438 29.490623Q181.7875 29.396873 181.30313 29.396873Q180.50626 29.396873 180.1625 29.740623Q179.83438 30.084373 179.83438 31.021873L179.83438 31.974998L181.86563 31.974998L181.86563 33.35L179.83438 33.35L179.83438 42.35L178.08438 42.35ZM189.99063 42.35L189.99063 28.037498L199.64688 28.037498L199.64688 29.724998L191.88126 29.724998L191.88126 34.1625L198.6 34.1625L198.6 35.85L191.88126 35.85L191.88126 42.35L189.99063 42.35ZM201.67813 30.053123L201.67813 28.037498L203.44376 28.037498L203.44376 30.053123L201.67813 30.053123ZM201.67813 42.35L201.67813 31.974998L203.44376 31.974998L203.44376 42.35L201.67813 42.35ZM205.63126 42.35L205.63126 28.037498L207.38126 28.037498L207.38126 42.35L205.63126 42.35ZM213.50626 40.771873L213.75626 42.334373Q213.02188 42.490623 212.42813 42.490623Q211.475 42.490623 210.94376 42.19375Q210.42813 41.88125 210.20938 41.396873Q209.99063 40.896873 209.99063 39.31875L209.99063 33.35L208.70938 33.35L208.70938 31.974998L209.99063 31.974998L209.99063 29.412498L211.74063 28.349998L211.74063 31.974998L213.50626 31.974998L213.50626 33.35L211.74063 33.35L211.74063 39.4125Q211.74063 40.1625 211.83438 40.38125Q211.92813 40.584373 212.13126 40.725Q212.35 40.85 212.74063 40.85Q213.02188 40.85 213.50626 40.771873ZM222.77188 39.00625L224.58438 39.240623Q224.1625 40.81875 222.99063 41.709373Q221.83438 42.584373 220.02188 42.584373Q217.75626 42.584373 216.4125 41.19375Q215.08438 39.7875 215.08438 37.25625Q215.08438 34.63125 216.42813 33.19375Q217.77188 31.740623 219.92813 31.740623Q222.00626 31.740623 223.31876 33.1625Q224.64688 34.56875 224.64688 37.146873Q224.64688 37.303123 224.63126 37.615623L216.89688 37.615623Q216.99063 39.31875 217.86563 40.225Q218.74063 41.13125 220.0375 41.13125Q221.00626 41.13125 221.67813 40.63125Q222.36563 40.115623 222.77188 39.00625ZM216.99063 36.1625L222.7875 36.1625Q222.67813 34.865623 222.13126 34.209373Q221.2875 33.19375 219.94376 33.19375Q218.74063 33.19375 217.9125 34.00625Q217.08438 34.803123 216.99063 36.1625ZM226.64688 42.35L226.64688 31.974998L228.225 31.974998L228.225 33.553123Q228.83438 32.44375 229.35 32.1Q229.86563 31.740623 230.475 31.740623Q231.36563 31.740623 232.2875 32.303123L231.67813 33.94375Q231.0375 33.553123 230.39688 33.553123Q229.81876 33.553123 229.35 33.9125Q228.89688 34.25625 228.69376 34.865623Q228.4125 35.803123 228.4125 36.9125L228.4125 42.35L226.64688 42.35ZM243.5375 42.35L243.5375 29.724998L238.81876 29.724998L238.81876 28.037498L250.1625 28.037498L250.1625 29.724998L245.42813 29.724998L245.42813 42.35L243.5375 42.35ZM251.58438 46.35L251.39688 44.69375Q251.975 44.85 252.39688 44.85Q252.99063 44.85 253.33438 44.646873Q253.69376 44.459373 253.9125 44.115623Q254.08438 43.85 254.45938 42.803123Q254.50626 42.646873 254.61563 42.365623L250.67813 31.974998L252.56876 31.974998L254.725 37.990623Q255.14688 39.13125 255.475 40.38125Q255.7875 39.178123 256.19376 38.021873L258.4125 31.974998L260.17813 31.974998L256.225 42.521873Q255.6 44.240623 255.24063 44.88125Q254.77188 45.75625 254.1625 46.146873Q253.56876 46.553123 252.725 46.553123Q252.20938 46.553123 251.58438 46.35ZM261.6625 46.31875L261.6625 31.974998L263.27188 31.974998L263.27188 33.31875Q263.83438 32.5375 264.5375 32.146873Q265.25626 31.740623 266.27188 31.740623Q267.6 31.740623 268.61563 32.428123Q269.63126 33.115623 270.14688 34.365623Q270.67813 35.6 270.67813 37.084373Q270.67813 38.678123 270.1 39.959373Q269.5375 41.225 268.44376 41.9125Q267.35 42.584373 266.14688 42.584373Q265.27188 42.584373 264.56876 42.209373Q263.88126 41.834373 263.42813 41.271873L263.42813 46.31875L261.6625 46.31875ZM263.25626 37.225Q263.25626 39.225 264.06876 40.178123Q264.88126 41.13125 266.0375 41.13125Q267.20938 41.13125 268.0375 40.146873Q268.88126 39.1625 268.88126 37.06875Q268.88126 35.1 268.05313 34.115623Q267.24063 33.115623 266.11563 33.115623Q264.99063 33.115623 264.11563 34.178123Q263.25626 35.225 263.25626 37.225ZM279.77188 39.00625L281.58438 39.240623Q281.1625 40.81875 279.99063 41.709373Q278.83438 42.584373 277.02188 42.584373Q274.75626 42.584373 273.4125 41.19375Q272.08438 39.7875 272.08438 37.25625Q272.08438 34.63125 273.42813 33.19375Q274.77188 31.740623 276.92813 31.740623Q279.00626 31.740623 280.31876 33.1625Q281.64688 34.56875 281.64688 37.146873Q281.64688 37.303123 281.63126 37.615623L273.89688 37.615623Q273.99063 39.31875 274.86563 40.225Q275.74063 41.13125 277.0375 41.13125Q278.00626 41.13125 278.67813 40.63125Q279.36563 40.115623 279.77188 39.00625ZM273.99063 36.1625L279.7875 36.1625Q279.67813 34.865623 279.13126 34.209373Q278.2875 33.19375 276.94376 33.19375Q275.74063 33.19375 274.9125 34.00625Q274.08438 34.803123 273.99063 36.1625ZM282.95938 39.25625L284.70938 38.975Q284.85 40.021873 285.52188 40.584373Q286.19376 41.13125 287.39688 41.13125Q288.6 41.13125 289.17813 40.646873Q289.77188 40.146873 289.77188 39.490623Q289.77188 38.896873 289.25626 38.553123Q288.89688 38.31875 287.45938 37.959373Q285.52188 37.459373 284.77188 37.115623Q284.0375 36.75625 283.64688 36.13125Q283.25626 35.490623 283.25626 34.725Q283.25626 34.0375 283.56876 33.44375Q283.89688 32.85 284.44376 32.459373Q284.85 32.1625 285.55313 31.959373Q286.27188 31.740623 287.08438 31.740623Q288.30313 31.740623 289.225 32.1Q290.14688 32.44375 290.58438 33.053123Q291.02188 33.646873 291.19376 34.646873L289.475 34.88125Q289.35 34.084373 288.7875 33.646873Q288.225 33.19375 287.20938 33.19375Q285.99063 33.19375 285.475 33.6Q284.95938 33.990623 284.95938 34.521873Q284.95938 34.865623 285.17813 35.146873Q285.38126 35.428123 285.85 35.615623Q286.11563 35.709373 287.39688 36.053123Q289.27188 36.553123 290.00626 36.88125Q290.74063 37.19375 291.1625 37.803123Q291.58438 38.396873 291.58438 39.303123Q291.58438 40.178123 291.06876 40.959373Q290.55313 41.740623 289.58438 42.1625Q288.61563 42.584373 287.39688 42.584373Q285.38126 42.584373 284.31876 41.740623Q283.25626 40.896873 282.95938 39.25625Z" fill-rule="nonzero"/></svg>