<svg version="1.1" viewBox="0.0 0.0 731.0 467.0" fill="none" stroke="none" stroke-linecap="square" stroke-miterlimit="10" width="731" height="467" xmlns:xlink="http://www.w3.org/1999/xlink" xmlns="http://www.w3.org/2000/svg"><path fill="#ffffff" d="M0 0L731.0 0L731.0 467.0L0 467.0L0 0Z" fill-rule="nonzero"/><path stroke="#333333" stroke-width="1.0" stroke-linecap="butt" d="M82.5 391.5L707.5 391.5" fill-rule="nonzero"/><path stroke="#cccccc" stroke-width="1.0" stroke-linecap="butt" d="M82.5 294.5L707.5 294.5" fill-rule="nonzero"/><path stroke="#cccccc" stroke-width="1.0" stroke-linecap="butt" d="M82.5 196.5L707.5 196.5" fill-rule="nonzero"/><path stroke="#cccccc" stroke-width="1.0" stroke-linecap="butt" d="M82.5 99.5L707.5 99.5" fill-rule="nonzero"/><clipPath id="id_0"><path d="M82.35 99.48333L707.65 99.48333L707.65 391.65L82.35 391.65L82.35 99.48333Z" clip-rule="nonzero"/></clipPath><path stroke="#4285f4" stroke-width="2.0" stroke-linecap="butt" clip-path="url(#id_0)" d="M127.01428 391.61993L216.34285 391.53012L305.67142 391.171L395.0 389.73468L484.32858 383.98996L573.65717 361.01202L662.9857 269.10236" fill-rule="nonzero"/><path stroke="#ea4335" stroke-width="2.0" stroke-linecap="butt" clip-path="url(#id_0)" d="M127.01428 391.57605L216.34285 391.3546L305.67142 390.4689L395.0 386.9264L484.32858 372.7568L573.65717 316.07938L662.9857 89.371765" fill-rule="nonzero"/><path fill="#000000" fill-opacity="0.0" clip-path="url(#id_0)" d="M130.01428 391.61993C130.01428 393.2768 128.67114 394.61993 127.01428 394.61993C125.35743 394.61993 124.01428 393.2768 124.01428 391.61993C124.01428 389.9631 125.35743 388.61993 127.01428 388.61993C128.67114 388.61993 130.01428 389.9631 130.01428 391.61993Z" fill-rule="nonzero"/><path fill="#000000" fill-opacity="0.0" clip-path="url(#id_0)" d="M219.34285 391.53012C219.34285 393.18698 217.99971 394.53012 216.34285 394.53012C214.686 394.53012 213.34285 393.18698 213.34285 391.53012C213.34285 389.87326 214.686 388.53012 216.34285 388.53012C217.99971 388.53012 219.34285 389.87326 219.34285 391.53012Z" fill-rule="nonzero"/><path fill="#000000" fill-opacity="0.0" clip-path="url(#id_0)" d="M308.67142 391.171C308.67142 392.82785 307.32828 394.171 305.67142 394.171C304.0146 394.171 302.67142 392.82785 302.67142 391.171C302.67142 389.51413 304.0146 388.171 305.67142 388.171C307.32828 388.171 308.67142 389.51413 308.67142 391.171Z" fill-rule="nonzero"/><path fill="#000000" fill-opacity="0.0" clip-path="url(#id_0)" d="M398.0 389.73468C398.0 391.39154 396.65686 392.73468 395.0 392.73468C393.34314 392.73468 392.0 391.39154 392.0 389.73468C392.0 388.07782 393.34314 386.73468 395.0 386.73468C396.65686 386.73468 398.0 388.07782 398.0 389.73468Z" fill-rule="nonzero"/><path fill="#000000" fill-opacity="0.0" clip-path="url(#id_0)" d="M487.32858 383.98996C487.32858 385.64682 485.9854 386.98996 484.32858 386.98996C482.67172 386.98996 481.32858 385.64682 481.32858 383.98996C481.32858 382.3331 482.67172 380.98996 484.32858 380.98996C485.9854 380.98996 487.32858 382.3331 487.32858 383.98996Z" fill-rule="nonzero"/><path fill="#000000" fill-opacity="0.0" clip-path="url(#id_0)" d="M576.65717 361.01202C576.65717 362.66888 575.314 364.01202 573.65717 364.01202C572.0003 364.01202 570.65717 362.66888 570.65717 361.01202C570.65717 359.3552 572.0003 358.01202 573.65717 358.01202C575.314 358.01202 576.65717 359.3552 576.65717 361.01202Z" fill-rule="nonzero"/><path fill="#000000" fill-opacity="0.0" clip-path="url(#id_0)" d="M665.9857 269.10236C665.9857 270.75922 664.6426 272.10236 662.9857 272.10236C661.32886 272.10236 659.9857 270.75922 659.9857 269.10236C659.9857 267.4455 661.32886 266.10236 662.9857 266.10236C664.6426 266.10236 665.9857 267.4455 665.9857 269.10236Z" fill-rule="nonzero"/><path fill="#000000" fill-opacity="0.0" clip-path="url(#id_0)" d="M130.01428 391.57605C130.01428 393.2329 128.67114 394.57605 127.01428 394.57605C125.35743 394.57605 124.01428 393.2329 124.01428 391.57605C124.01428 389.91922 125.35743 388.57605 127.01428 388.57605C128.67114 388.57605 130.01428 389.91922 130.01428 391.57605Z" fill-rule="nonzero"/><path fill="#000000" fill-opacity="0.0" clip-path="url(#id_0)" d="M219.34285 391.3546C219.34285 393.01147 217.99971 394.3546 216.34285 394.3546C214.686 394.3546 213.34285 393.01147 213.34285 391.3546C213.34285 389.69775 214.686 388.3546 216.34285 388.3546C217.99971 388.3546 219.34285 389.69775 219.34285 391.3546Z" fill-rule="nonzero"/><path fill="#000000" fill-opacity="0.0" clip-path="url(#id_0)" d="M308.67142 390.4689C308.67142 392.12576 307.32828 393.4689 305.67142 393.4689C304.0146 393.4689 302.67142 392.12576 302.67142 390.4689C302.67142 388.81207 304.0146 387.4689 305.67142 387.4689C307.32828 387.4689 308.67142 388.81207 308.67142 390.4689Z" fill-rule="nonzero"/><path fill="#000000" fill-opacity="0.0" clip-path="url(#id_0)" d="M398.0 386.9264C398.0 388.58325 396.65686 389.9264 395.0 389.9264C393.34314 389.9264 392.0 388.58325 392.0 386.9264C392.0 385.26953 393.34314 383.9264 395.0 383.9264C396.65686 383.9264 398.0 385.26953 398.0 386.9264Z" fill-rule="nonzero"/><path fill="#000000" fill-opacity="0.0" clip-path="url(#id_0)" d="M487.32858 372.7568C487.32858 374.41364 485.9854 375.7568 484.32858 375.7568C482.67172 375.7568 481.32858 374.41364 481.32858 372.7568C481.32858 371.09995 482.67172 369.7568 484.32858 369.7568C485.9854 369.7568 487.32858 371.09995 487.32858 372.7568Z" fill-rule="nonzero"/><path fill="#000000" fill-opacity="0.0" clip-path="url(#id_0)" d="M576.65717 316.07938C576.65717 317.73624 575.314 319.07938 573.65717 319.07938C572.0003 319.07938 570.65717 317.73624 570.65717 316.07938C570.65717 314.42255 572.0003 313.07938 573.65717 313.07938C575.314 313.07938 576.65717 314.42255 576.65717 316.07938Z" fill-rule="nonzero"/><path fill="#000000" fill-opacity="0.0" clip-path="url(#id_0)" d="M665.9857 89.371765C665.9857 91.02862 664.6426 92.371765 662.9857 92.371765C661.32886 92.371765 659.9857 91.02862 659.9857 89.371765C659.9857 87.71491 661.32886 86.371765 662.9857 86.371765C664.6426 86.371765 665.9857 87.71491 665.9857 89.371765Z" fill-rule="nonzero"/><path fill="#000000" d="M344.89062 440.65L344.89062 432.05624L346.60938 432.05624L348.64062 438.13437Q348.92188 438.99374 349.04688 439.41562Q349.1875 438.94687 349.5 438.04062L351.5625 432.05624L353.09375 432.05624L353.09375 440.65L352.0 440.65L352.0 433.4625L349.5 440.65L348.46875 440.65L345.98438 433.3375L345.98438 440.65L344.89062 440.65ZM359.04688 438.65L360.14062 438.775Q359.89062 439.72812 359.1875 440.25937Q358.48438 440.79062 357.40625 440.79062Q356.04688 440.79062 355.23438 439.94687Q354.4375 439.10312 354.4375 437.5875Q354.4375 436.025 355.25 435.16562Q356.0625 434.29062 357.34375 434.29062Q358.59375 434.29062 359.375 435.13437Q360.17188 435.97812 360.17188 437.525Q360.17188 437.61874 360.17188 437.80624L355.53125 437.80624Q355.59375 438.8375 356.10938 439.38437Q356.625 439.91562 357.40625 439.91562Q357.98438 439.91562 358.39062 439.61874Q358.8125 439.30624 359.04688 438.65ZM355.59375 436.94687L359.0625 436.94687Q359.0 436.15 358.67188 435.75937Q358.15625 435.15 357.35938 435.15Q356.625 435.15 356.125 435.63437Q355.64062 436.11874 355.59375 436.94687ZM365.85938 439.88437Q365.26562 440.38437 364.71875 440.5875Q364.1875 440.79062 363.5625 440.79062Q362.53125 440.79062 361.98438 440.29062Q361.4375 439.79062 361.4375 439.00937Q361.4375 438.55624 361.64062 438.18124Q361.84375 437.79062 362.1875 437.57187Q362.53125 437.3375 362.95312 437.22812Q363.25 437.13437 363.89062 437.05624Q365.15625 436.91562 365.76562 436.69687Q365.76562 436.47812 365.76562 436.43124Q365.76562 435.775 365.46875 435.50937Q365.0625 435.16562 364.26562 435.16562Q363.53125 435.16562 363.17188 435.43124Q362.8125 435.68124 362.64062 436.3375L361.60938 436.19687Q361.75 435.54062 362.07812 435.13437Q362.40625 434.72812 363.01562 434.50937Q363.625 434.29062 364.42188 434.29062Q365.21875 434.29062 365.71875 434.47812Q366.21875 434.66562 366.45312 434.94687Q366.6875 435.22812 366.78125 435.66562Q366.82812 435.93124 366.82812 436.63437L366.82812 438.04062Q366.82812 439.50937 366.89062 439.9Q366.96875 440.29062 367.17188 440.65L366.0625 440.65Q365.90625 440.32187 365.85938 439.88437ZM365.76562 437.525Q365.1875 437.75937 364.04688 437.93124Q363.39062 438.025 363.125 438.15Q362.85938 438.25937 362.70312 438.47812Q362.5625 438.69687 362.5625 438.97812Q362.5625 439.4 362.875 439.68124Q363.20312 439.9625 363.8125 439.9625Q364.42188 439.9625 364.89062 439.69687Q365.375 439.43124 365.59375 438.9625Q365.76562 438.60312 365.76562 437.91562L365.76562 437.525ZM368.375 438.79062L369.40625 438.63437Q369.5 439.25937 369.89062 439.5875Q370.29688 439.91562 371.03125 439.91562Q371.75 439.91562 372.09375 439.63437Q372.45312 439.3375 372.45312 438.93124Q372.45312 438.57187 372.14062 438.36874Q371.92188 438.22812 371.0625 438.00937Q369.90625 437.7125 369.45312 437.50937Q369.01562 437.29062 368.78125 436.91562Q368.54688 436.54062 368.54688 436.07187Q368.54688 435.66562 368.73438 435.30624Q368.92188 434.94687 369.25 434.7125Q369.5 434.54062 369.92188 434.41562Q370.34375 434.29062 370.84375 434.29062Q371.5625 434.29062 372.10938 434.50937Q372.67188 434.7125 372.9375 435.07187Q373.20312 435.43124 373.29688 436.025L372.26562 436.16562Q372.20312 435.69687 371.85938 435.43124Q371.53125 435.15 370.90625 435.15Q370.1875 435.15 369.875 435.4Q369.5625 435.63437 369.5625 435.9625Q369.5625 436.16562 369.6875 436.32187Q369.82812 436.49374 370.09375 436.60312Q370.25 436.66562 371.03125 436.86874Q372.15625 437.18124 372.59375 437.36874Q373.03125 437.55624 373.28125 437.91562Q373.53125 438.275 373.53125 438.82187Q373.53125 439.35312 373.21875 439.82187Q372.92188 440.275 372.34375 440.54062Q371.76562 440.79062 371.03125 440.79062Q369.8125 440.79062 369.17188 440.29062Q368.54688 439.775 368.375 438.79062ZM378.875 440.65L378.875 439.72812Q378.14062 440.79062 376.89062 440.79062Q376.34375 440.79062 375.85938 440.5875Q375.39062 440.36874 375.15625 440.05624Q374.92188 439.72812 374.82812 439.25937Q374.76562 438.9625 374.76562 438.275L374.76562 434.43124L375.82812 434.43124L375.82812 437.88437Q375.82812 438.69687 375.89062 438.99374Q375.98438 439.4 376.29688 439.65Q376.625 439.88437 377.10938 439.88437Q377.57812 439.88437 377.98438 439.65Q378.40625 439.4 378.57812 438.97812Q378.76562 438.55624 378.76562 437.75937L378.76562 434.43124L379.8125 434.43124L379.8125 440.65L378.875 440.65ZM381.78125 440.65L381.78125 434.43124L382.73438 434.43124L382.73438 435.36874Q383.09375 434.7125 383.39062 434.50937Q383.70312 434.29062 384.07812 434.29062Q384.60938 434.29062 385.15625 434.61874L384.79688 435.60312Q384.40625 435.36874 384.03125 435.36874Q383.67188 435.36874 383.39062 435.5875Q383.125 435.79062 383.01562 436.16562Q382.82812 436.72812 382.82812 437.38437L382.82812 440.65L381.78125 440.65ZM390.04688 438.65L391.14062 438.775Q390.89062 439.72812 390.1875 440.25937Q389.48438 440.79062 388.40625 440.79062Q387.04688 440.79062 386.23438 439.94687Q385.4375 439.10312 385.4375 437.5875Q385.4375 436.025 386.25 435.16562Q387.0625 434.29062 388.34375 434.29062Q389.59375 434.29062 390.375 435.13437Q391.17188 435.97812 391.17188 437.525Q391.17188 437.61874 391.17188 437.80624L386.53125 437.80624Q386.59375 438.8375 387.10938 439.38437Q387.625 439.91562 388.40625 439.91562Q388.98438 439.91562 389.39062 439.61874Q389.8125 439.30624 390.04688 438.65ZM386.59375 436.94687L390.0625 436.94687Q390.0 436.15 389.67188 435.75937Q389.15625 435.15 388.35938 435.15Q387.625 435.15 387.125 435.63437Q386.64062 436.11874 386.59375 436.94687ZM392.79688 440.65L392.79688 434.43124L393.73438 434.43124L393.73438 435.30624Q394.03125 434.8375 394.51562 434.57187Q395.0 434.29062 395.625 434.29062Q396.3125 434.29062 396.75 434.57187Q397.20312 434.85312 397.375 435.36874Q398.125 434.29062 399.29688 434.29062Q400.23438 434.29062 400.71875 434.80624Q401.21875 435.30624 401.21875 436.38437L401.21875 440.65L400.17188 440.65L400.17188 436.72812Q400.17188 436.10312 400.0625 435.82187Q399.96875 435.54062 399.70312 435.36874Q399.4375 435.19687 399.0625 435.19687Q398.40625 435.19687 397.96875 435.63437Q397.54688 436.07187 397.54688 437.04062L397.54688 440.65L396.48438 440.65L396.48438 436.60312Q396.48438 435.9 396.21875 435.55624Q395.96875 435.19687 395.39062 435.19687Q394.9375 435.19687 394.5625 435.43124Q394.1875 435.66562 394.01562 436.11874Q393.84375 436.57187 393.84375 437.41562L393.84375 440.65L392.79688 440.65ZM407.04688 438.65L408.14062 438.775Q407.89062 439.72812 407.1875 440.25937Q406.48438 440.79062 405.40625 440.79062Q404.04688 440.79062 403.23438 439.94687Q402.4375 439.10312 402.4375 437.5875Q402.4375 436.025 403.25 435.16562Q404.0625 434.29062 405.34375 434.29062Q406.59375 434.29062 407.375 435.13437Q408.17188 435.97812 408.17188 437.525Q408.17188 437.61874 408.17188 437.80624L403.53125 437.80624Q403.59375 438.8375 404.10938 439.38437Q404.625 439.91562 405.40625 439.91562Q405.98438 439.91562 406.39062 439.61874Q406.8125 439.30624 407.04688 438.65ZM403.59375 436.94687L407.0625 436.94687Q407.0 436.15 406.67188 435.75937Q406.15625 435.15 405.35938 435.15Q404.625 435.15 404.125 435.63437Q403.64062 436.11874 403.59375 436.94687ZM409.79688 440.65L409.79688 434.43124L410.73438 434.43124L410.73438 435.30624Q411.42188 434.29062 412.71875 434.29062Q413.28125 434.29062 413.75 434.49374Q414.23438 434.69687 414.46875 435.025Q414.70312 435.35312 414.79688 435.79062Q414.84375 436.0875 414.84375 436.82187L414.84375 440.65L413.79688 440.65L413.79688 436.86874Q413.79688 436.2125 413.67188 435.9Q413.54688 435.5875 413.23438 435.4Q412.92188 435.19687 412.5 435.19687Q411.82812 435.19687 411.32812 435.63437Q410.84375 436.05624 410.84375 437.24374L410.84375 440.65L409.79688 440.65ZM419.09375 439.7125L419.25 440.63437Q418.79688 440.72812 418.45312 440.72812Q417.875 440.72812 417.5625 440.55624Q417.25 440.36874 417.10938 440.07187Q416.98438 439.775 416.98438 438.82187L416.98438 435.24374L416.21875 435.24374L416.21875 434.43124L416.98438 434.43124L416.98438 432.88437L418.03125 432.25937L418.03125 434.43124L419.09375 434.43124L419.09375 435.24374L418.03125 435.24374L418.03125 438.88437Q418.03125 439.3375 418.07812 439.4625Q418.14062 439.5875 418.26562 439.66562Q418.39062 439.74374 418.625 439.74374Q418.8125 439.74374 419.09375 439.7125ZM422.54688 437.88437L423.60938 437.79062Q423.6875 438.44687 423.96875 438.85312Q424.25 439.25937 424.82812 439.525Q425.42188 439.775 426.15625 439.775Q426.79688 439.775 427.29688 439.5875Q427.79688 439.38437 428.03125 439.05624Q428.28125 438.7125 428.28125 438.32187Q428.28125 437.91562 428.04688 437.61874Q427.8125 437.30624 427.28125 437.10312Q426.92188 436.9625 425.73438 436.68124Q424.5625 436.4 424.09375 436.15Q423.46875 435.82187 423.17188 435.35312Q422.875 434.86874 422.875 434.275Q422.875 433.63437 423.23438 433.07187Q423.60938 432.49374 424.3125 432.2125Q425.03125 431.91562 425.89062 431.91562Q426.84375 431.91562 427.57812 432.22812Q428.3125 432.525 428.70312 433.13437Q429.09375 433.72812 429.125 434.47812L428.03125 434.55624Q427.9375 433.74374 427.42188 433.3375Q426.92188 432.91562 425.9375 432.91562Q424.90625 432.91562 424.4375 433.29062Q423.96875 433.66562 423.96875 434.19687Q423.96875 434.66562 424.29688 434.9625Q424.625 435.25937 426.0 435.57187Q427.39062 435.88437 427.90625 436.11874Q428.65625 436.47812 429.01562 437.00937Q429.375 437.525 429.375 438.22812Q429.375 438.91562 428.98438 439.525Q428.59375 440.11874 427.85938 440.4625Q427.125 440.79062 426.20312 440.79062Q425.03125 440.79062 424.23438 440.4625Q423.45312 440.11874 423.0 439.43124Q422.5625 438.74374 422.54688 437.88437ZM430.79688 433.275L430.79688 432.05624L431.85938 432.05624L431.85938 433.275L430.79688 433.275ZM430.79688 440.65L430.79688 434.43124L431.85938 434.43124L431.85938 440.65L430.79688 440.65ZM433.23438 440.65L433.23438 439.79062L437.20312 435.24374Q436.51562 435.275 436.0 435.275L433.46875 435.275L433.46875 434.43124L438.5625 434.43124L438.5625 435.11874L435.1875 439.07187L434.53125 439.79062Q435.25 439.74374 435.85938 439.74374L438.75 439.74374L438.75 440.65L433.23438 440.65ZM444.04688 438.65L445.14062 438.775Q444.89062 439.72812 444.1875 440.25937Q443.48438 440.79062 442.40625 440.79062Q441.04688 440.79062 440.23438 439.94687Q439.4375 439.10312 439.4375 437.5875Q439.4375 436.025 440.25 435.16562Q441.0625 434.29062 442.34375 434.29062Q443.59375 434.29062 444.375 435.13437Q445.17188 435.97812 445.17188 437.525Q445.17188 437.61874 445.17188 437.80624L440.53125 437.80624Q440.59375 438.8375 441.10938 439.38437Q441.625 439.91562 442.40625 439.91562Q442.98438 439.91562 443.39062 439.61874Q443.8125 439.30624 444.04688 438.65ZM440.59375 436.94687L444.0625 436.94687Q444.0 436.15 443.67188 435.75937Q443.15625 435.15 442.35938 435.15Q441.625 435.15 441.125 435.63437Q440.64062 436.11874 440.59375 436.94687Z" fill-rule="nonzero"/><path fill="#000000" d="M34.349995 328.17603L25.756245 328.17603L25.756245 326.45728L31.83437 324.42603Q32.693745 324.14478 33.11562 324.01978Q32.64687 323.87915 31.74062 323.56665L25.756245 321.50415L25.756245 319.9729L34.349995 319.9729L34.349995 321.06665L27.162495 321.06665L34.349995 323.56665L34.349995 324.5979L27.037495 327.08228L34.349995 327.08228L34.349995 328.17603ZM32.349995 314.01978L32.474995 312.92603Q33.42812 313.17603 33.95937 313.87915Q34.49062 314.58228 34.49062 315.6604Q34.49062 317.01978 33.64687 317.83228Q32.80312 318.62915 31.287495 318.62915Q29.724995 318.62915 28.86562 317.81665Q27.99062 317.00415 27.99062 315.7229Q27.99062 314.4729 28.83437 313.69165Q29.67812 312.89478 31.224995 312.89478Q31.318745 312.89478 31.506245 312.89478L31.506245 317.5354Q32.537495 317.4729 33.08437 316.95728Q33.61562 316.44165 33.61562 315.6604Q33.61562 315.08228 33.318745 314.67603Q33.006245 314.25415 32.349995 314.01978ZM30.64687 317.4729L30.64687 314.00415Q29.849995 314.06665 29.45937 314.39478Q28.849995 314.9104 28.849995 315.70728Q28.849995 316.44165 29.33437 316.94165Q29.818745 317.42603 30.64687 317.4729ZM34.349995 311.26978L28.131245 311.26978L28.131245 310.33228L29.006245 310.33228Q28.537495 310.0354 28.27187 309.55103Q27.99062 309.06665 27.99062 308.44165Q27.99062 307.75415 28.27187 307.31665Q28.55312 306.86353 29.068745 306.69165Q27.99062 305.94165 27.99062 304.76978Q27.99062 303.83228 28.506245 303.3479Q29.006245 302.8479 30.08437 302.8479L34.349995 302.8479L34.349995 303.89478L30.42812 303.89478Q29.80312 303.89478 29.52187 304.00415Q29.24062 304.0979 29.068745 304.36353Q28.89687 304.62915 28.89687 305.00415Q28.89687 305.6604 29.33437 306.0979Q29.77187 306.51978 30.74062 306.51978L34.349995 306.51978L34.349995 307.58228L30.30312 307.58228Q29.599995 307.58228 29.256245 307.8479Q28.89687 308.0979 28.89687 308.67603Q28.89687 309.12915 29.131245 309.50415Q29.36562 309.87915 29.818745 310.05103Q30.27187 310.2229 31.11562 310.2229L34.349995 310.2229L34.349995 311.26978ZM31.24062 301.6604Q29.506245 301.6604 28.67812 300.70728Q27.99062 299.9104 27.99062 298.75415Q27.99062 297.4729 28.83437 296.6604Q29.662495 295.83228 31.14687 295.83228Q32.349995 295.83228 33.037495 296.19165Q33.724995 296.55103 34.11562 297.25415Q34.49062 297.94165 34.49062 298.75415Q34.49062 300.05103 33.662495 300.86353Q32.818745 301.6604 31.24062 301.6604ZM31.24062 300.58228Q32.42812 300.58228 33.02187 300.06665Q33.61562 299.5354 33.61562 298.75415Q33.61562 297.95728 33.02187 297.44165Q32.42812 296.92603 31.20937 296.92603Q30.05312 296.92603 29.45937 297.45728Q28.86562 297.9729 28.86562 298.75415Q28.86562 299.5354 29.45937 300.06665Q30.037495 300.58228 31.24062 300.58228ZM34.349995 294.2854L28.131245 294.2854L28.131245 293.33228L29.068745 293.33228Q28.412495 292.9729 28.20937 292.67603Q27.99062 292.36353 27.99062 291.98853Q27.99062 291.45728 28.318745 290.9104L29.30312 291.26978Q29.068745 291.6604 29.068745 292.0354Q29.068745 292.39478 29.287495 292.67603Q29.49062 292.94165 29.86562 293.05103Q30.42812 293.23853 31.08437 293.23853L34.349995 293.23853L34.349995 294.2854ZM36.74062 290.31665L35.756245 290.44165Q35.849995 290.0979 35.849995 289.83228Q35.849995 289.48853 35.724995 289.2854Q35.61562 289.06665 35.412495 288.92603Q35.24062 288.83228 34.61562 288.5979Q34.537495 288.58228 34.36562 288.50415L28.131245 290.87915L28.131245 289.73853L31.724995 288.44165Q32.412495 288.19165 33.17812 287.98853Q32.443745 287.80103 31.756245 287.55103L28.131245 286.2229L28.131245 285.17603L34.45937 287.5354Q35.474995 287.92603 35.86562 288.12915Q36.39687 288.4104 36.631245 288.7854Q36.881245 289.14478 36.881245 289.64478Q36.881245 289.94165 36.74062 290.31665ZM25.756245 275.50415L25.756245 274.36353L30.724995 274.36353Q32.02187 274.36353 32.787495 274.6604Q33.537495 274.95728 34.02187 275.7229Q34.49062 276.48853 34.49062 277.7229Q34.49062 278.92603 34.08437 279.70728Q33.662495 280.4729 32.881245 280.80103Q32.08437 281.12915 30.724995 281.12915L25.756245 281.12915L25.756245 279.98853L30.70937 279.98853Q31.83437 279.98853 32.36562 279.7854Q32.89687 279.56665 33.193745 279.06665Q33.474995 278.55103 33.474995 277.81665Q33.474995 276.56665 32.912495 276.0354Q32.33437 275.50415 30.70937 275.50415L25.756245 275.50415ZM32.49062 272.69165L32.33437 271.6604Q32.95937 271.56665 33.287495 271.17603Q33.61562 270.76978 33.61562 270.0354Q33.61562 269.31665 33.33437 268.9729Q33.037495 268.61353 32.631245 268.61353Q32.27187 268.61353 32.068745 268.92603Q31.92812 269.14478 31.70937 270.00415Q31.412495 271.1604 31.20937 271.61353Q30.99062 272.05103 30.61562 272.2854Q30.24062 272.51978 29.77187 272.51978Q29.36562 272.51978 29.006245 272.33228Q28.64687 272.14478 28.412495 271.81665Q28.24062 271.56665 28.11562 271.14478Q27.99062 270.7229 27.99062 270.2229Q27.99062 269.50415 28.20937 268.95728Q28.412495 268.39478 28.77187 268.12915Q29.131245 267.86353 29.724995 267.76978L29.86562 268.80103Q29.39687 268.86353 29.131245 269.20728Q28.849995 269.5354 28.849995 270.1604Q28.849995 270.87915 29.099995 271.19165Q29.33437 271.50415 29.662495 271.50415Q29.86562 271.50415 30.02187 271.37915Q30.193745 271.23853 30.30312 270.9729Q30.36562 270.81665 30.568745 270.0354Q30.881245 268.9104 31.068745 268.4729Q31.256245 268.0354 31.61562 267.7854Q31.974995 267.5354 32.52187 267.5354Q33.05312 267.5354 33.52187 267.8479Q33.974995 268.14478 34.24062 268.7229Q34.49062 269.30103 34.49062 270.0354Q34.49062 271.25415 33.99062 271.89478Q33.474995 272.51978 32.49062 272.69165ZM33.58437 262.20728Q34.08437 262.80103 34.287495 263.3479Q34.49062 263.87915 34.49062 264.50415Q34.49062 265.5354 33.99062 266.08228Q33.49062 266.62915 32.70937 266.62915Q32.256245 266.62915 31.881245 266.42603Q31.49062 266.2229 31.27187 265.87915Q31.037495 265.5354 30.92812 265.11353Q30.83437 264.81665 30.756245 264.17603Q30.61562 262.9104 30.39687 262.30103Q30.17812 262.30103 30.131245 262.30103Q29.474995 262.30103 29.20937 262.5979Q28.86562 263.00415 28.86562 263.80103Q28.86562 264.5354 29.131245 264.89478Q29.381245 265.25415 30.037495 265.42603L29.89687 266.45728Q29.24062 266.31665 28.83437 265.98853Q28.42812 265.6604 28.20937 265.05103Q27.99062 264.44165 27.99062 263.64478Q27.99062 262.8479 28.17812 262.3479Q28.36562 261.8479 28.64687 261.61353Q28.92812 261.37915 29.36562 261.2854Q29.631245 261.23853 30.33437 261.23853L31.74062 261.23853Q33.20937 261.23853 33.599995 261.17603Q33.99062 261.0979 34.349995 260.89478L34.349995 262.00415Q34.02187 262.1604 33.58437 262.20728ZM31.224995 262.30103Q31.45937 262.87915 31.631245 264.01978Q31.724995 264.67603 31.849995 264.94165Q31.95937 265.20728 32.17812 265.36353Q32.39687 265.50415 32.67812 265.50415Q33.099995 265.50415 33.381245 265.19165Q33.662495 264.86353 33.662495 264.25415Q33.662495 263.64478 33.39687 263.17603Q33.131245 262.69165 32.662495 262.4729Q32.30312 262.30103 31.61562 262.30103L31.224995 262.30103ZM34.86562 259.4729L35.02187 258.44165Q35.49062 258.37915 35.70937 258.08228Q36.006245 257.69165 36.006245 257.01978Q36.006245 256.2854 35.70937 255.89479Q35.412495 255.48854 34.89687 255.34792Q34.568745 255.25417 33.537495 255.26979Q34.349995 255.95729 34.349995 256.98853Q34.349995 258.26978 33.42812 258.9729Q32.49062 259.67603 31.20937 259.67603Q30.318745 259.67603 29.568745 259.36353Q28.80312 259.0354 28.39687 258.42603Q27.99062 257.81665 27.99062 256.98853Q27.99062 255.87917 28.881245 255.16042L28.131245 255.16042L28.131245 254.19167L33.506245 254.19167Q34.95937 254.19167 35.568745 254.48854Q36.17812 254.78542 36.52187 255.42604Q36.881245 256.06665 36.881245 257.00415Q36.881245 258.11353 36.381245 258.80103Q35.881245 259.48853 34.86562 259.4729ZM31.131245 258.5979Q32.349995 258.5979 32.912495 258.11353Q33.474995 257.62915 33.474995 256.89478Q33.474995 256.1604 32.912495 255.67604Q32.349995 255.17604 31.162495 255.17604Q30.02187 255.17604 29.443745 255.69167Q28.86562 256.19165 28.86562 256.9104Q28.86562 257.61353 29.443745 258.11353Q30.006245 258.5979 31.131245 258.5979ZM32.349995 248.01979L32.474995 246.92604Q33.42812 247.17604 33.95937 247.87917Q34.49062 248.58229 34.49062 249.66042Q34.49062 251.01979 33.64687 251.83229Q32.80312 252.62917 31.287495 252.62917Q29.724995 252.62917 28.86562 251.81667Q27.99062 251.00417 27.99062 249.72292Q27.99062 248.47292 28.83437 247.69167Q29.67812 246.89479 31.224995 246.89479Q31.318745 246.89479 31.506245 246.89479L31.506245 251.53542Q32.537495 251.47292 33.08437 250.95729Q33.61562 250.44167 33.61562 249.66042Q33.61562 249.08229 33.318745 248.67604Q33.006245 248.25417 32.349995 248.01979ZM30.64687 251.47292L30.64687 248.00417Q29.849995 248.06667 29.45937 248.39479Q28.849995 248.91042 28.849995 249.70729Q28.849995 250.44167 29.33437 250.94167Q29.818745 251.42604 30.64687 251.47292ZM36.881245 240.25417Q35.77187 241.12917 34.30312 241.73854Q32.818745 242.33229 31.24062 242.33229Q29.849995 242.33229 28.568745 241.89479Q27.08437 241.36354 25.61562 240.25417L25.61562 239.50417Q26.83437 240.20729 27.349995 240.44167Q28.162495 240.80104 29.037495 241.00417Q30.131245 241.25417 31.24062 241.25417Q34.068745 241.25417 36.881245 239.50417L36.881245 240.25417ZM34.349995 238.17604L25.756245 238.17604L25.756245 236.45729L31.83437 234.42604Q32.693745 234.14479 33.11562 234.01979Q32.64687 233.87917 31.74062 233.56667L25.756245 231.50417L25.756245 229.97292L34.349995 229.97292L34.349995 231.06667L27.162495 231.06667L34.349995 233.56667L34.349995 234.59792L27.037495 237.08229L34.349995 237.08229L34.349995 238.17604ZM32.349995 224.01979L32.474995 222.92604Q33.42812 223.17604 33.95937 223.87917Q34.49062 224.58229 34.49062 225.66042Q34.49062 227.01979 33.64687 227.83229Q32.80312 228.62917 31.287495 228.62917Q29.724995 228.62917 28.86562 227.81667Q27.99062 227.00417 27.99062 225.72292Q27.99062 224.47292 28.83437 223.69167Q29.67812 222.89479 31.224995 222.89479Q31.318745 222.89479 31.506245 222.89479L31.506245 227.53542Q32.537495 227.47292 33.08437 226.95729Q33.61562 226.44167 33.61562 225.66042Q33.61562 225.08229 33.318745 224.67604Q33.006245 224.25417 32.349995 224.01979ZM30.64687 227.47292L30.64687 224.00417Q29.849995 224.06667 29.45937 224.39479Q28.849995 224.91042 28.849995 225.70729Q28.849995 226.44167 29.33437 226.94167Q29.818745 227.42604 30.64687 227.47292ZM34.86562 221.47292L35.02187 220.44167Q35.49062 220.37917 35.70937 220.08229Q36.006245 219.69167 36.006245 219.01979Q36.006245 218.28542 35.70937 217.89479Q35.412495 217.48854 34.89687 217.34792Q34.568745 217.25417 33.537495 217.26979Q34.349995 217.95729 34.349995 218.98854Q34.349995 220.26979 33.42812 220.97292Q32.49062 221.67604 31.20937 221.67604Q30.318745 221.67604 29.568745 221.36354Q28.80312 221.03542 28.39687 220.42604Q27.99062 219.81667 27.99062 218.98854Q27.99062 217.87917 28.881245 217.16042L28.131245 217.16042L28.131245 216.19167L33.506245 216.19167Q34.95937 216.19167 35.568745 216.48854Q36.17812 216.78542 36.52187 217.42604Q36.881245 218.06667 36.881245 219.00417Q36.881245 220.11354 36.381245 220.80104Q35.881245 221.48854 34.86562 221.47292ZM31.131245 220.59792Q32.349995 220.59792 32.912495 220.11354Q33.474995 219.62917 33.474995 218.89479Q33.474995 218.16042 32.912495 217.67604Q32.349995 217.17604 31.162495 217.17604Q30.02187 217.17604 29.443745 217.69167Q28.86562 218.19167 28.86562 218.91042Q28.86562 219.61354 29.443745 220.11354Q30.006245 220.59792 31.131245 220.59792ZM33.58437 210.20729Q34.08437 210.80104 34.287495 211.34792Q34.49062 211.87917 34.49062 212.50417Q34.49062 213.53542 33.99062 214.08229Q33.49062 214.62917 32.70937 214.62917Q32.256245 214.62917 31.881245 214.42604Q31.49062 214.22292 31.27187 213.87917Q31.037495 213.53542 30.92812 213.11354Q30.83437 212.81667 30.756245 212.17604Q30.61562 210.91042 30.39687 210.30104Q30.17812 210.30104 30.131245 210.30104Q29.474995 210.30104 29.20937 210.59792Q28.86562 211.00417 28.86562 211.80104Q28.86562 212.53542 29.131245 212.89479Q29.381245 213.25417 30.037495 213.42604L29.89687 214.45729Q29.24062 214.31667 28.83437 213.98854Q28.42812 213.66042 28.20937 213.05104Q27.99062 212.44167 27.99062 211.64479Q27.99062 210.84792 28.17812 210.34792Q28.36562 209.84792 28.64687 209.61354Q28.92812 209.37917 29.36562 209.28542Q29.631245 209.23854 30.33437 209.23854L31.74062 209.23854Q33.20937 209.23854 33.599995 209.17604Q33.99062 209.09792 34.349995 208.89479L34.349995 210.00417Q34.02187 210.16042 33.58437 210.20729ZM31.224995 210.30104Q31.45937 210.87917 31.631245 212.01979Q31.724995 212.67604 31.849995 212.94167Q31.95937 213.20729 32.17812 213.36354Q32.39687 213.50417 32.67812 213.50417Q33.099995 213.50417 33.381245 213.19167Q33.662495 212.86354 33.662495 212.25417Q33.662495 211.64479 33.39687 211.17604Q33.131245 210.69167 32.662495 210.47292Q32.30312 210.30104 31.61562 210.30104L31.224995 210.30104ZM34.349995 206.30104L34.349995 207.28542L25.756245 207.28542L25.756245 206.22292L28.818745 206.22292Q27.99062 205.55104 27.99062 204.51979Q27.99062 203.94167 28.224995 203.44167Q28.443745 202.92604 28.86562 202.59792Q29.287495 202.25417 29.881245 202.06667Q30.474995 201.87917 31.14687 201.87917Q32.74062 201.87917 33.61562 202.67604Q34.49062 203.47292 34.49062 204.56667Q34.49062 205.67604 33.568745 206.30104L34.349995 206.30104ZM31.193745 206.31667Q32.30312 206.31667 32.80312 206.00417Q33.61562 205.50417 33.61562 204.66042Q33.61562 203.97292 33.02187 203.47292Q32.42812 202.95729 31.224995 202.95729Q30.006245 202.95729 29.42812 203.44167Q28.849995 203.92604 28.849995 204.61354Q28.849995 205.30104 29.45937 205.81667Q30.05312 206.31667 31.193745 206.31667ZM36.74062 200.31667L35.756245 200.44167Q35.849995 200.09792 35.849995 199.83229Q35.849995 199.48854 35.724995 199.28542Q35.61562 199.06667 35.412495 198.92604Q35.24062 198.83229 34.61562 198.59792Q34.537495 198.58229 34.36562 198.50417L28.131245 200.87917L28.131245 199.73854L31.724995 198.44167Q32.412495 198.19167 33.17812 197.98854Q32.443745 197.80104 31.756245 197.55104L28.131245 196.22292L28.131245 195.17604L34.45937 197.53542Q35.474995 197.92604 35.86562 198.12917Q36.39687 198.41042 36.631245 198.78542Q36.881245 199.14479 36.881245 199.64479Q36.881245 199.94167 36.74062 200.31667ZM33.412495 191.97292L34.33437 191.81667Q34.42812 192.26979 34.42812 192.61354Q34.42812 193.19167 34.256245 193.50417Q34.068745 193.81667 33.77187 193.95729Q33.474995 194.08229 32.52187 194.08229L28.943745 194.08229L28.943745 194.84792L28.131245 194.84792L28.131245 194.08229L26.58437 194.08229L25.95937 193.03542L28.131245 193.03542L28.131245 191.97292L28.943745 191.97292L28.943745 193.03542L32.58437 193.03542Q33.037495 193.03542 33.162495 192.98854Q33.287495 192.92604 33.36562 192.80104Q33.443745 192.67604 33.443745 192.44167Q33.443745 192.25417 33.412495 191.97292ZM32.349995 187.01979L32.474995 185.92604Q33.42812 186.17604 33.95937 186.87917Q34.49062 187.58229 34.49062 188.66042Q34.49062 190.01979 33.64687 190.83229Q32.80312 191.62917 31.287495 191.62917Q29.724995 191.62917 28.86562 190.81667Q27.99062 190.00417 27.99062 188.72292Q27.99062 187.47292 28.83437 186.69167Q29.67812 185.89479 31.224995 185.89479Q31.318745 185.89479 31.506245 185.89479L31.506245 190.53542Q32.537495 190.47292 33.08437 189.95729Q33.61562 189.44167 33.61562 188.66042Q33.61562 188.08229 33.318745 187.67604Q33.006245 187.25417 32.349995 187.01979ZM30.64687 190.47292L30.64687 187.00417Q29.849995 187.06667 29.45937 187.39479Q28.849995 187.91042 28.849995 188.70729Q28.849995 189.44167 29.33437 189.94167Q29.818745 190.42604 30.64687 190.47292ZM32.49062 184.69167L32.33437 183.66042Q32.95937 183.56667 33.287495 183.17604Q33.61562 182.76979 33.61562 182.03542Q33.61562 181.31667 33.33437 180.97292Q33.037495 180.61354 32.631245 180.61354Q32.27187 180.61354 32.068745 180.92604Q31.92812 181.14479 31.70937 182.00417Q31.412495 183.16042 31.20937 183.61354Q30.99062 184.05104 30.61562 184.28542Q30.24062 184.51979 29.77187 184.51979Q29.36562 184.51979 29.006245 184.33229Q28.64687 184.14479 28.412495 183.81667Q28.24062 183.56667 28.11562 183.14479Q27.99062 182.72292 27.99062 182.22292Q27.99062 181.50417 28.20937 180.95729Q28.412495 180.39479 28.77187 180.12917Q29.131245 179.86354 29.724995 179.76979L29.86562 180.80104Q29.39687 180.86354 29.131245 181.20729Q28.849995 181.53542 28.849995 182.16042Q28.849995 182.87917 29.099995 183.19167Q29.33437 183.50417 29.662495 183.50417Q29.86562 183.50417 30.02187 183.37917Q30.193745 183.23854 30.30312 182.97292Q30.36562 182.81667 30.568745 182.03542Q30.881245 180.91042 31.068745 180.47292Q31.256245 180.03542 31.61562 179.78542Q31.974995 179.53542 32.52187 179.53542Q33.05312 179.53542 33.52187 179.84792Q33.974995 180.14479 34.24062 180.72292Q34.49062 181.30104 34.49062 182.03542Q34.49062 183.25417 33.99062 183.89479Q33.474995 184.51979 32.49062 184.69167ZM36.881245 177.58228L36.881245 178.33228Q34.068745 176.58228 31.24062 176.58228Q30.14687 176.58228 29.05312 176.83228Q28.17812 177.0354 27.36562 177.39478Q26.849995 177.62915 25.61562 178.33228L25.61562 177.58228Q27.08437 176.48853 28.568745 175.95728Q29.849995 175.50415 31.24062 175.50415Q32.818745 175.50415 34.30312 176.11353Q35.77187 176.7229 36.881245 177.58228Z" fill-rule="nonzero"/><path fill="#000000" d="M69.85 391.41562Q69.85 389.88437 70.1625 388.9625Q70.475 388.025 71.08437 387.525Q71.70937 387.025 72.64687 387.025Q73.33437 387.025 73.85 387.30624Q74.38125 387.5875 74.725 388.11874Q75.06875 388.63437 75.25625 389.38437Q75.44375 390.13437 75.44375 391.41562Q75.44375 392.93124 75.13125 393.85312Q74.83437 394.775 74.20937 395.29062Q73.6 395.79062 72.64687 395.79062Q71.4125 395.79062 70.69375 394.9Q69.85 393.8375 69.85 391.41562ZM70.92812 391.41562Q70.92812 393.525 71.42812 394.22812Q71.92812 394.93124 72.64687 394.93124Q73.38125 394.93124 73.86562 394.22812Q74.36562 393.525 74.36562 391.41562Q74.36562 389.29062 73.86562 388.60312Q73.38125 387.9 72.63125 387.9Q71.9125 387.9 71.475 388.50937Q70.92812 389.29062 70.92812 391.41562Z" fill-rule="nonzero"/><path fill="#000000" d="M61.396873 297.24548L61.396873 298.2611L55.709373 298.2611Q55.709373 297.8861 55.834373 297.52673Q56.053123 296.9486 56.521873 296.3861Q57.00625 295.8236 57.9125 295.08923Q59.31875 293.93298 59.803123 293.2611Q60.303123 292.58923 60.303123 291.99548Q60.303123 291.37048 59.85 290.9486Q59.396873 290.5111 58.678123 290.5111Q57.9125 290.5111 57.459373 290.96423Q57.00625 291.41736 56.990623 292.22986L55.9125 292.12048Q56.021873 290.90173 56.740623 290.27673Q57.475 289.6361 58.709373 289.6361Q59.94375 289.6361 60.6625 290.3236Q61.38125 291.0111 61.38125 292.02673Q61.38125 292.54236 61.1625 293.04236Q60.959373 293.52673 60.459373 294.08923Q59.975 294.6361 58.85 295.58923Q57.896873 296.3861 57.615623 296.68298Q57.35 296.96423 57.178123 297.24548L61.396873 297.24548ZM62.85 294.02673Q62.85 292.49548 63.1625 291.5736Q63.475 290.6361 64.08437 290.1361Q64.70937 289.6361 65.64687 289.6361Q66.33437 289.6361 66.85 289.91736Q67.38125 290.1986 67.725 290.72986Q68.06875 291.24548 68.25625 291.99548Q68.44375 292.74548 68.44375 294.02673Q68.44375 295.54236 68.13125 296.46423Q67.83437 297.3861 67.20937 297.90173Q66.6 298.40173 65.64687 298.40173Q64.4125 298.40173 63.69375 297.5111Q62.85 296.4486 62.85 294.02673ZM63.928123 294.02673Q63.928123 296.1361 64.42812 296.83923Q64.92812 297.54236 65.64687 297.54236Q66.38125 297.54236 66.86562 296.83923Q67.36562 296.1361 67.36562 294.02673Q67.36562 291.90173 66.86562 291.21423Q66.38125 290.5111 65.63125 290.5111Q64.9125 290.5111 64.475 291.12048Q63.928123 291.90173 63.928123 294.02673ZM69.85 294.02673Q69.85 292.49548 70.1625 291.5736Q70.475 290.6361 71.08437 290.1361Q71.70937 289.6361 72.64687 289.6361Q73.33437 289.6361 73.85 289.91736Q74.38125 290.1986 74.725 290.72986Q75.06875 291.24548 75.25625 291.99548Q75.44375 292.74548 75.44375 294.02673Q75.44375 295.54236 75.13125 296.46423Q74.83437 297.3861 74.20937 297.90173Q73.6 298.40173 72.64687 298.40173Q71.4125 298.40173 70.69375 297.5111Q69.85 296.4486 69.85 294.02673ZM70.92812 294.02673Q70.92812 296.1361 71.42812 296.83923Q71.92812 297.54236 72.64687 297.54236Q73.38125 297.54236 73.86562 296.83923Q74.36562 296.1361 74.36562 294.02673Q74.36562 291.90173 73.86562 291.21423Q73.38125 290.5111 72.63125 290.5111Q71.9125 290.5111 71.475 291.12048Q70.92812 291.90173 70.92812 294.02673Z" fill-rule="nonzero"/><path fill="#000000" d="M59.225 200.87222L59.225 198.80972L55.50625 198.80972L55.50625 197.84097L59.428123 192.27847L60.2875 192.27847L60.2875 197.84097L61.44375 197.84097L61.44375 198.80972L60.2875 198.80972L60.2875 200.87222L59.225 200.87222ZM59.225 197.84097L59.225 193.9816L56.5375 197.84097L59.225 197.84097ZM62.85 196.63785Q62.85 195.1066 63.1625 194.18472Q63.475 193.24722 64.08437 192.74722Q64.70937 192.24722 65.64687 192.24722Q66.33437 192.24722 66.85 192.52847Q67.38125 192.80972 67.725 193.34097Q68.06875 193.8566 68.25625 194.6066Q68.44375 195.3566 68.44375 196.63785Q68.44375 198.15347 68.13125 199.07535Q67.83437 199.99722 67.20937 200.51285Q66.6 201.01285 65.64687 201.01285Q64.4125 201.01285 63.69375 200.12222Q62.85 199.05972 62.85 196.63785ZM63.928123 196.63785Q63.928123 198.74722 64.42812 199.45035Q64.92812 200.15347 65.64687 200.15347Q66.38125 200.15347 66.86562 199.45035Q67.36562 198.74722 67.36562 196.63785Q67.36562 194.51285 66.86562 193.82535Q66.38125 193.12222 65.63125 193.12222Q64.9125 193.12222 64.475 193.7316Q63.928123 194.51285 63.928123 196.63785ZM69.85 196.63785Q69.85 195.1066 70.1625 194.18472Q70.475 193.24722 71.08437 192.74722Q71.70937 192.24722 72.64687 192.24722Q73.33437 192.24722 73.85 192.52847Q74.38125 192.80972 74.725 193.34097Q75.06875 193.8566 75.25625 194.6066Q75.44375 195.3566 75.44375 196.63785Q75.44375 198.15347 75.13125 199.07535Q74.83437 199.99722 74.20937 200.51285Q73.6 201.01285 72.64687 201.01285Q71.4125 201.01285 70.69375 200.12222Q69.85 199.05972 69.85 196.63785ZM70.92812 196.63785Q70.92812 198.74722 71.42812 199.45035Q71.92812 200.15347 72.64687 200.15347Q73.38125 200.15347 73.86562 199.45035Q74.36562 198.74722 74.36562 196.63785Q74.36562 194.51285 73.86562 193.82535Q73.38125 193.12222 72.63125 193.12222Q71.9125 193.12222 71.475 193.7316Q70.92812 194.51285 70.92812 196.63785Z" fill-rule="nonzero"/><path fill="#000000" d="M61.31875 96.998955L60.271873 97.07708Q60.13125 96.45208 59.88125 96.17083Q59.44375 95.717705 58.81875 95.717705Q58.31875 95.717705 57.928123 95.998955Q57.44375 96.373955 57.146873 97.07708Q56.865623 97.76458 56.85 99.04583Q57.225 98.467705 57.771873 98.186455Q58.334373 97.905205 58.94375 97.905205Q59.990623 97.905205 60.725 98.686455Q61.475 99.467705 61.475 100.686455Q61.475 101.498955 61.115623 102.20208Q60.771873 102.88958 60.1625 103.26458Q59.553123 103.623955 58.7875 103.623955Q57.459373 103.623955 56.63125 102.655205Q55.803123 101.686455 55.803123 99.467705Q55.803123 96.967705 56.725 95.842705Q57.521873 94.85833 58.88125 94.85833Q59.896873 94.85833 60.5375 95.436455Q61.19375 95.998955 61.31875 96.998955ZM57.021873 100.70208Q57.021873 101.248955 57.240623 101.748955Q57.475 102.23333 57.88125 102.498955Q58.303123 102.76458 58.771873 102.76458Q59.428123 102.76458 59.9125 102.23333Q60.396873 101.686455 60.396873 100.76458Q60.396873 99.873955 59.9125 99.35833Q59.44375 98.842705 58.725 98.842705Q58.00625 98.842705 57.50625 99.35833Q57.021873 99.873955 57.021873 100.70208ZM62.85 99.248955Q62.85 97.717705 63.1625 96.79583Q63.475 95.85833 64.08437 95.35833Q64.70937 94.85833 65.64687 94.85833Q66.33437 94.85833 66.85 95.13958Q67.38125 95.42083 67.725 95.95208Q68.06875 96.467705 68.25625 97.217705Q68.44375 97.967705 68.44375 99.248955Q68.44375 100.76458 68.13125 101.686455Q67.83437 102.60833 67.20937 103.123955Q66.6 103.623955 65.64687 103.623955Q64.4125 103.623955 63.69375 102.73333Q62.85 101.67083 62.85 99.248955ZM63.928123 99.248955Q63.928123 101.35833 64.42812 102.061455Q64.92812 102.76458 65.64687 102.76458Q66.38125 102.76458 66.86562 102.061455Q67.36562 101.35833 67.36562 99.248955Q67.36562 97.123955 66.86562 96.436455Q66.38125 95.73333 65.63125 95.73333Q64.9125 95.73333 64.475 96.342705Q63.928123 97.123955 63.928123 99.248955ZM69.85 99.248955Q69.85 97.717705 70.1625 96.79583Q70.475 95.85833 71.08437 95.35833Q71.70937 94.85833 72.64687 94.85833Q73.33437 94.85833 73.85 95.13958Q74.38125 95.42083 74.725 95.95208Q75.06875 96.467705 75.25625 97.217705Q75.44375 97.967705 75.44375 99.248955Q75.44375 100.76458 75.13125 101.686455Q74.83437 102.60833 74.20937 103.123955Q73.6 103.623955 72.64687 103.623955Q71.4125 103.623955 70.69375 102.73333Q69.85 101.67083 69.85 99.248955ZM70.92812 99.248955Q70.92812 101.35833 71.42812 102.061455Q71.92812 102.76458 72.64687 102.76458Q73.38125 102.76458 73.86562 102.061455Q74.36562 101.35833 74.36562 99.248955Q74.36562 97.123955 73.86562 96.436455Q73.38125 95.73333 72.63125 95.73333Q71.9125 95.73333 71.475 96.342705Q70.92812 97.123955 70.92812 99.248955Z" fill-rule="nonzero"/><path fill="#000000" d="M120.51428 406.38437L121.57678 406.24374Q121.74866 407.13437 122.18616 407.54062Q122.62366 407.93124 123.24866 407.93124Q123.99866 407.93124 124.51428 407.41562Q125.02991 406.9 125.02991 406.13437Q125.02991 405.41562 124.54553 404.94687Q124.07678 404.4625 123.34241 404.4625Q123.04553 404.4625 122.59241 404.5875L122.71741 403.65Q122.82678 403.66562 122.88928 403.66562Q123.56116 403.66562 124.09241 403.32187Q124.63928 402.9625 124.63928 402.22812Q124.63928 401.65 124.24866 401.275Q123.85803 400.88437 123.23303 400.88437Q122.62366 400.88437 122.20178 401.275Q121.79553 401.66562 121.68616 402.43124L120.62366 402.24374Q120.81116 401.19687 121.49866 400.61874Q122.18616 400.025 123.20178 400.025Q123.90491 400.025 124.49866 400.3375Q125.09241 400.63437 125.40491 401.15Q125.71741 401.66562 125.71741 402.25937Q125.71741 402.80624 125.42053 403.275Q125.12366 403.72812 124.54553 403.99374Q125.29553 404.16562 125.71741 404.72812Q126.13928 405.275 126.13928 406.11874Q126.13928 407.24374 125.31116 408.025Q124.49866 408.80624 123.24866 408.80624Q122.12366 408.80624 121.37366 408.13437Q120.62366 407.44687 120.51428 406.38437ZM133.06116 407.63437L133.06116 408.65L127.37366 408.65Q127.37366 408.275 127.49866 407.91562Q127.71741 407.3375 128.18616 406.775Q128.67053 406.2125 129.57678 405.47812Q130.98303 404.32187 131.4674 403.65Q131.9674 402.97812 131.9674 402.38437Q131.9674 401.75937 131.51428 401.3375Q131.06116 400.9 130.3424 400.9Q129.57678 400.9 129.12366 401.35312Q128.67053 401.80624 128.6549 402.61874L127.57678 402.50937Q127.68616 401.29062 128.4049 400.66562Q129.13928 400.025 130.37366 400.025Q131.60803 400.025 132.32678 400.7125Q133.04553 401.4 133.04553 402.41562Q133.04553 402.93124 132.82678 403.43124Q132.62366 403.91562 132.12366 404.47812Q131.63928 405.025 130.51428 405.97812Q129.56116 406.775 129.2799 407.07187Q129.01428 407.35312 128.8424 407.63437L133.06116 407.63437Z" fill-rule="nonzero"/><path fill="#000000" d="M215.3116 402.16562L214.26472 402.24374Q214.1241 401.61874 213.8741 401.3375Q213.4366 400.88437 212.8116 400.88437Q212.3116 400.88437 211.92097 401.16562Q211.4366 401.54062 211.13972 402.24374Q210.85847 402.93124 210.84285 404.2125Q211.21785 403.63437 211.76472 403.35312Q212.32722 403.07187 212.9366 403.07187Q213.98347 403.07187 214.71785 403.85312Q215.46785 404.63437 215.46785 405.85312Q215.46785 406.66562 215.10847 407.36874Q214.76472 408.05624 214.15535 408.43124Q213.54597 408.79062 212.78035 408.79062Q211.45222 408.79062 210.6241 407.82187Q209.79597 406.85312 209.79597 404.63437Q209.79597 402.13437 210.71785 401.00937Q211.51472 400.025 212.8741 400.025Q213.88972 400.025 214.53035 400.60312Q215.1866 401.16562 215.3116 402.16562ZM211.01472 405.86874Q211.01472 406.41562 211.23347 406.91562Q211.46785 407.4 211.8741 407.66562Q212.29597 407.93124 212.76472 407.93124Q213.42097 407.93124 213.90535 407.4Q214.38972 406.85312 214.38972 405.93124Q214.38972 405.04062 213.90535 404.525Q213.4366 404.00937 212.71785 404.00937Q211.9991 404.00937 211.4991 404.525Q211.01472 405.04062 211.01472 405.86874ZM220.21785 408.65L220.21785 406.5875L216.4991 406.5875L216.4991 405.61874L220.42097 400.05624L221.28035 400.05624L221.28035 405.61874L222.4366 405.61874L222.4366 406.5875L221.28035 406.5875L221.28035 408.65L220.21785 408.65ZM220.21785 405.61874L220.21785 401.75937L217.53035 405.61874L220.21785 405.61874Z" fill-rule="nonzero"/><path fill="#000000" d="M299.64017 408.65L298.5933 408.65L298.5933 401.93124Q298.20267 402.29062 297.57767 402.66562Q296.9683 403.025 296.48392 403.19687L296.48392 402.18124Q297.35892 401.75937 298.01517 401.18124Q298.68704 400.5875 298.9683 400.025L299.64017 400.025L299.64017 408.65ZM308.2183 407.63437L308.2183 408.65L302.5308 408.65Q302.5308 408.275 302.6558 407.91562Q302.87454 407.3375 303.3433 406.775Q303.82767 406.2125 304.73392 405.47812Q306.14017 404.32187 306.62454 403.65Q307.12454 402.97812 307.12454 402.38437Q307.12454 401.75937 306.67142 401.3375Q306.2183 400.9 305.49954 400.9Q304.73392 400.9 304.2808 401.35312Q303.82767 401.80624 303.81204 402.61874L302.73392 402.50937Q302.8433 401.29062 303.56204 400.66562Q304.29642 400.025 305.5308 400.025Q306.76517 400.025 307.48392 400.7125Q308.20267 401.4 308.20267 402.41562Q308.20267 402.93124 307.98392 403.43124Q307.7808 403.91562 307.2808 404.47812Q306.79642 405.025 305.67142 405.97812Q304.7183 406.775 304.43704 407.07187Q304.17142 407.35312 303.99954 407.63437L308.2183 407.63437ZM311.29642 403.99374Q310.64017 403.74374 310.31204 403.30624Q309.99954 402.85312 309.99954 402.24374Q309.99954 401.30624 310.67142 400.66562Q311.35892 400.025 312.4683 400.025Q313.5933 400.025 314.2808 400.68124Q314.9683 401.3375 314.9683 402.275Q314.9683 402.86874 314.6558 403.30624Q314.3433 403.74374 313.70267 403.99374Q314.49954 404.24374 314.9058 404.82187Q315.31204 405.4 315.31204 406.19687Q315.31204 407.29062 314.5308 408.04062Q313.76517 408.79062 312.48392 408.79062Q311.2183 408.79062 310.43704 408.04062Q309.6558 407.29062 309.6558 406.16562Q309.6558 405.32187 310.07767 404.75937Q310.51517 404.19687 311.29642 403.99374ZM311.07767 402.19687Q311.07767 402.80624 311.4683 403.19687Q311.87454 403.5875 312.49954 403.5875Q313.10892 403.5875 313.49954 403.2125Q313.89017 402.82187 313.89017 402.25937Q313.89017 401.68124 313.48392 401.29062Q313.07767 400.88437 312.48392 400.88437Q311.87454 400.88437 311.4683 401.275Q311.07767 401.66562 311.07767 402.19687ZM310.74954 406.16562Q310.74954 406.61874 310.95267 407.04062Q311.17142 407.4625 311.5933 407.69687Q312.01517 407.93124 312.49954 407.93124Q313.24954 407.93124 313.73392 407.44687Q314.23392 406.9625 314.23392 406.2125Q314.23392 405.44687 313.73392 404.94687Q313.23392 404.44687 312.4683 404.44687Q311.7183 404.44687 311.23392 404.94687Q310.74954 405.43124 310.74954 406.16562Z" fill-rule="nonzero"/><path fill="#000000" d="M390.54688 407.63437L390.54688 408.65L384.85938 408.65Q384.85938 408.275 384.98438 407.91562Q385.20312 407.3375 385.67188 406.775Q386.15625 406.2125 387.0625 405.47812Q388.46875 404.32187 388.95312 403.65Q389.45312 402.97812 389.45312 402.38437Q389.45312 401.75937 389.0 401.3375Q388.54688 400.9 387.82812 400.9Q387.0625 400.9 386.60938 401.35312Q386.15625 401.80624 386.14062 402.61874L385.0625 402.50937Q385.17188 401.29062 385.89062 400.66562Q386.625 400.025 387.85938 400.025Q389.09375 400.025 389.8125 400.7125Q390.53125 401.4 390.53125 402.41562Q390.53125 402.93124 390.3125 403.43124Q390.10938 403.91562 389.60938 404.47812Q389.125 405.025 388.0 405.97812Q387.04688 406.775 386.76562 407.07187Q386.5 407.35312 386.32812 407.63437L390.54688 407.63437ZM392.0 406.4L393.10938 406.30624Q393.23438 407.11874 393.67188 407.525Q394.125 407.93124 394.76562 407.93124Q395.51562 407.93124 396.04688 407.35312Q396.57812 406.775 396.57812 405.8375Q396.57812 404.93124 396.0625 404.41562Q395.5625 403.88437 394.73438 403.88437Q394.23438 403.88437 393.8125 404.11874Q393.40625 404.35312 393.17188 404.7125L392.1875 404.5875L393.01562 400.18124L397.29688 400.18124L397.29688 401.18124L393.85938 401.18124L393.40625 403.49374Q394.17188 402.94687 395.01562 402.94687Q396.14062 402.94687 396.90625 403.72812Q397.6875 404.50937 397.6875 405.74374Q397.6875 406.9 397.01562 407.75937Q396.1875 408.79062 394.76562 408.79062Q393.59375 408.79062 392.84375 408.13437Q392.10938 407.47812 392.0 406.4ZM404.46875 402.16562L403.42188 402.24374Q403.28125 401.61874 403.03125 401.3375Q402.59375 400.88437 401.96875 400.88437Q401.46875 400.88437 401.07812 401.16562Q400.59375 401.54062 400.29688 402.24374Q400.01562 402.93124 400.0 404.2125Q400.375 403.63437 400.92188 403.35312Q401.48438 403.07187 402.09375 403.07187Q403.14062 403.07187 403.875 403.85312Q404.625 404.63437 404.625 405.85312Q404.625 406.66562 404.26562 407.36874Q403.92188 408.05624 403.3125 408.43124Q402.70312 408.79062 401.9375 408.79062Q400.60938 408.79062 399.78125 407.82187Q398.95312 406.85312 398.95312 404.63437Q398.95312 402.13437 399.875 401.00937Q400.67188 400.025 402.03125 400.025Q403.04688 400.025 403.6875 400.60312Q404.34375 401.16562 404.46875 402.16562ZM400.17188 405.86874Q400.17188 406.41562 400.39062 406.91562Q400.625 407.4 401.03125 407.66562Q401.45312 407.93124 401.92188 407.93124Q402.57812 407.93124 403.0625 407.4Q403.54688 406.85312 403.54688 405.93124Q403.54688 405.04062 403.0625 404.525Q402.59375 404.00937 401.875 404.00937Q401.15625 404.00937 400.65625 404.525Q400.17188 405.04062 400.17188 405.86874Z" fill-rule="nonzero"/><path fill="#000000" d="M474.32858 406.4L475.43796 406.30624Q475.56296 407.11874 476.00046 407.525Q476.45358 407.93124 477.0942 407.93124Q477.8442 407.93124 478.37546 407.35312Q478.9067 406.775 478.9067 405.8375Q478.9067 404.93124 478.39108 404.41562Q477.89108 403.88437 477.06296 403.88437Q476.56296 403.88437 476.14108 404.11874Q475.73483 404.35312 475.50046 404.7125L474.51608 404.5875L475.3442 400.18124L479.62546 400.18124L479.62546 401.18124L476.18796 401.18124L475.73483 403.49374Q476.50046 402.94687 477.3442 402.94687Q478.4692 402.94687 479.23483 403.72812Q480.01608 404.50937 480.01608 405.74374Q480.01608 406.9 479.3442 407.75937Q478.51608 408.79062 477.0942 408.79062Q475.92233 408.79062 475.17233 408.13437Q474.43796 407.47812 474.32858 406.4ZM485.29733 408.65L484.25046 408.65L484.25046 401.93124Q483.85983 402.29062 483.23483 402.66562Q482.62546 403.025 482.14108 403.19687L482.14108 402.18124Q483.01608 401.75937 483.67233 401.18124Q484.3442 400.5875 484.62546 400.025L485.29733 400.025L485.29733 408.65ZM493.87546 407.63437L493.87546 408.65L488.18796 408.65Q488.18796 408.275 488.31296 407.91562Q488.5317 407.3375 489.00046 406.775Q489.48483 406.2125 490.39108 405.47812Q491.79733 404.32187 492.2817 403.65Q492.7817 402.97812 492.7817 402.38437Q492.7817 401.75937 492.32858 401.3375Q491.87546 400.9 491.1567 400.9Q490.39108 400.9 489.93796 401.35312Q489.48483 401.80624 489.4692 402.61874L488.39108 402.50937Q488.50046 401.29062 489.2192 400.66562Q489.95358 400.025 491.18796 400.025Q492.42233 400.025 493.14108 400.7125Q493.85983 401.4 493.85983 402.41562Q493.85983 402.93124 493.64108 403.43124Q493.43796 403.91562 492.93796 404.47812Q492.45358 405.025 491.32858 405.97812Q490.37546 406.775 490.0942 407.07187Q489.82858 407.35312 489.6567 407.63437L493.87546 407.63437Z" fill-rule="nonzero"/><path fill="#000000" d="M564.1259 408.65L563.07904 408.65L563.07904 401.93124Q562.6884 402.29062 562.0634 402.66562Q561.45404 403.025 560.96967 403.19687L560.96967 402.18124Q561.84467 401.75937 562.5009 401.18124Q563.1728 400.5875 563.45404 400.025L564.1259 400.025L564.1259 408.65ZM567.15717 404.41562Q567.15717 402.88437 567.46967 401.9625Q567.78217 401.025 568.39154 400.525Q569.01654 400.025 569.95404 400.025Q570.64154 400.025 571.15717 400.30624Q571.6884 400.5875 572.03217 401.11874Q572.3759 401.63437 572.5634 402.38437Q572.7509 403.13437 572.7509 404.41562Q572.7509 405.93124 572.4384 406.85312Q572.14154 407.775 571.51654 408.29062Q570.90717 408.79062 569.95404 408.79062Q568.71967 408.79062 568.0009 407.9Q567.15717 406.8375 567.15717 404.41562ZM568.2353 404.41562Q568.2353 406.525 568.7353 407.22812Q569.2353 407.93124 569.95404 407.93124Q570.6884 407.93124 571.1728 407.22812Q571.6728 406.525 571.6728 404.41562Q571.6728 402.29062 571.1728 401.60312Q570.6884 400.9 569.9384 400.9Q569.21967 400.9 568.78217 401.50937Q568.2353 402.29062 568.2353 404.41562ZM579.70404 407.63437L579.70404 408.65L574.01654 408.65Q574.01654 408.275 574.14154 407.91562Q574.3603 407.3375 574.82904 406.775Q575.3134 406.2125 576.21967 405.47812Q577.6259 404.32187 578.1103 403.65Q578.6103 402.97812 578.6103 402.38437Q578.6103 401.75937 578.15717 401.3375Q577.70404 400.9 576.9853 400.9Q576.21967 400.9 575.76654 401.35312Q575.3134 401.80624 575.2978 402.61874L574.21967 402.50937Q574.32904 401.29062 575.0478 400.66562Q575.78217 400.025 577.01654 400.025Q578.2509 400.025 578.96967 400.7125Q579.6884 401.4 579.6884 402.41562Q579.6884 402.93124 579.46967 403.43124Q579.26654 403.91562 578.76654 404.47812Q578.28217 405.025 577.15717 405.97812Q576.20404 406.775 575.9228 407.07187Q575.65717 407.35312 575.4853 407.63437L579.70404 407.63437ZM584.53217 408.65L584.53217 406.5875L580.8134 406.5875L580.8134 405.61874L584.7353 400.05624L585.59467 400.05624L585.59467 405.61874L586.7509 405.61874L586.7509 406.5875L585.59467 406.5875L585.59467 408.65L584.53217 408.65ZM584.53217 405.61874L584.53217 401.75937L581.84467 405.61874L584.53217 405.61874Z" fill-rule="nonzero"/><path fill="#000000" d="M655.0326 407.63437L655.0326 408.65L649.3451 408.65Q649.3451 408.275 649.4701 407.91562Q649.68884 407.3375 650.1576 406.775Q650.64197 406.2125 651.5482 405.47812Q652.95447 404.32187 653.43884 403.65Q653.93884 402.97812 653.93884 402.38437Q653.93884 401.75937 653.4857 401.3375Q653.0326 400.9 652.31384 400.9Q651.5482 400.9 651.0951 401.35312Q650.64197 401.80624 650.62634 402.61874L649.5482 402.50937Q649.6576 401.29062 650.37634 400.66562Q651.1107 400.025 652.3451 400.025Q653.57947 400.025 654.2982 400.7125Q655.01697 401.4 655.01697 402.41562Q655.01697 402.93124 654.7982 403.43124Q654.5951 403.91562 654.0951 404.47812Q653.6107 405.025 652.4857 405.97812Q651.5326 406.775 651.25134 407.07187Q650.9857 407.35312 650.81384 407.63437L655.0326 407.63437ZM656.4857 404.41562Q656.4857 402.88437 656.7982 401.9625Q657.1107 401.025 657.7201 400.525Q658.3451 400.025 659.2826 400.025Q659.9701 400.025 660.4857 400.30624Q661.01697 400.5875 661.3607 401.11874Q661.70447 401.63437 661.89197 402.38437Q662.07947 403.13437 662.07947 404.41562Q662.07947 405.93124 661.76697 406.85312Q661.4701 407.775 660.8451 408.29062Q660.2357 408.79062 659.2826 408.79062Q658.0482 408.79062 657.32947 407.9Q656.4857 406.8375 656.4857 404.41562ZM657.56384 404.41562Q657.56384 406.525 658.06384 407.22812Q658.56384 407.93124 659.2826 407.93124Q660.01697 407.93124 660.50134 407.22812Q661.00134 406.525 661.00134 404.41562Q661.00134 402.29062 660.50134 401.60312Q660.01697 400.9 659.26697 400.9Q658.5482 400.9 658.1107 401.50937Q657.56384 402.29062 657.56384 404.41562ZM666.8607 408.65L666.8607 406.5875L663.14197 406.5875L663.14197 405.61874L667.06384 400.05624L667.9232 400.05624L667.9232 405.61874L669.07947 405.61874L669.07947 406.5875L667.9232 406.5875L667.9232 408.65L666.8607 408.65ZM666.8607 405.61874L666.8607 401.75937L664.1732 405.61874L666.8607 405.61874ZM672.1107 403.99374Q671.45447 403.74374 671.12634 403.30624Q670.81384 402.85312 670.81384 402.24374Q670.81384 401.30624 671.4857 400.66562Q672.1732 400.025 673.2826 400.025Q674.4076 400.025 675.0951 400.68124Q675.7826 401.3375 675.7826 402.275Q675.7826 402.86874 675.4701 403.30624Q675.1576 403.74374 674.51697 403.99374Q675.31384 404.24374 675.7201 404.82187Q676.12634 405.4 676.12634 406.19687Q676.12634 407.29062 675.3451 408.04062Q674.57947 408.79062 673.2982 408.79062Q672.0326 408.79062 671.25134 408.04062Q670.4701 407.29062 670.4701 406.16562Q670.4701 405.32187 670.89197 404.75937Q671.32947 404.19687 672.1107 403.99374ZM671.89197 402.19687Q671.89197 402.80624 672.2826 403.19687Q672.68884 403.5875 673.31384 403.5875Q673.9232 403.5875 674.31384 403.2125Q674.70447 402.82187 674.70447 402.25937Q674.70447 401.68124 674.2982 401.29062Q673.89197 400.88437 673.2982 400.88437Q672.68884 400.88437 672.2826 401.275Q671.89197 401.66562 671.89197 402.19687ZM671.56384 406.16562Q671.56384 406.61874 671.76697 407.04062Q671.9857 407.4625 672.4076 407.69687Q672.82947 407.93124 673.31384 407.93124Q674.06384 407.93124 674.5482 407.44687Q675.0482 406.9625 675.0482 406.2125Q675.0482 405.44687 674.5482 404.94687Q674.0482 404.44687 673.2826 404.44687Q672.5326 404.44687 672.0482 404.94687Q671.56384 405.43124 671.56384 406.16562Z" fill-rule="nonzero"/><path stroke="#4285f4" stroke-width="4.0" stroke-linecap="butt" d="M276.5 69.916664L288.5 69.916664" fill-rule="nonzero"/><path fill="#1a1a1a" d="M297.42188 73.916664L297.42188 65.322914L298.57812 65.322914L303.09375 72.072914L303.09375 65.322914L304.1875 65.322914L304.1875 73.916664L303.01562 73.916664L298.5 67.166664L298.5 73.916664L297.42188 73.916664ZM305.90625 70.80729Q305.90625 69.072914 306.85938 68.24479Q307.65625 67.55729 308.8125 67.55729Q310.09375 67.55729 310.90625 68.40104Q311.73438 69.229164 311.73438 70.71354Q311.73438 71.916664 311.375 72.604164Q311.01562 73.291664 310.3125 73.68229Q309.625 74.05729 308.8125 74.05729Q307.51562 74.05729 306.70312 73.229164Q305.90625 72.385414 305.90625 70.80729ZM306.98438 70.80729Q306.98438 71.99479 307.5 72.58854Q308.03125 73.18229 308.8125 73.18229Q309.60938 73.18229 310.125 72.58854Q310.64062 71.99479 310.64062 70.77604Q310.64062 69.61979 310.10938 69.02604Q309.59375 68.43229 308.8125 68.43229Q308.03125 68.43229 307.5 69.02604Q306.98438 69.604164 306.98438 70.80729ZM313.29688 73.916664L313.29688 67.697914L314.23438 67.697914L314.23438 68.572914Q314.92188 67.55729 316.21875 67.55729Q316.78125 67.55729 317.25 67.760414Q317.73438 67.96354 317.96875 68.291664Q318.20312 68.61979 318.29688 69.05729Q318.34375 69.354164 318.34375 70.08854L318.34375 73.916664L317.29688 73.916664L317.29688 70.135414Q317.29688 69.479164 317.17188 69.166664Q317.04688 68.854164 316.73438 68.666664Q316.42188 68.46354 316.0 68.46354Q315.32812 68.46354 314.82812 68.90104Q314.34375 69.322914 314.34375 70.510414L314.34375 73.916664L313.29688 73.916664ZM322.48438 73.916664L325.78125 65.322914L327.0 65.322914L330.51562 73.916664L329.23438 73.916664L328.21875 71.30729L324.64062 71.30729L323.6875 73.916664L322.48438 73.916664ZM324.96875 70.385414L327.875 70.385414L326.98438 68.010414Q326.5625 66.93229 326.375 66.229164Q326.20312 67.05729 325.90625 67.86979L324.96875 70.385414ZM335.32812 73.916664L335.32812 73.135414Q334.73438 74.05729 333.59375 74.05729Q332.84375 74.05729 332.21875 73.65104Q331.59375 73.229164 331.25 72.49479Q330.90625 71.760414 330.90625 70.80729Q330.90625 69.885414 331.21875 69.11979Q331.53125 68.354164 332.15625 67.96354Q332.78125 67.55729 333.54688 67.55729Q334.10938 67.55729 334.54688 67.791664Q334.98438 68.02604 335.26562 68.40104L335.26562 65.322914L336.3125 65.322914L336.3125 73.916664L335.32812 73.916664ZM332.0 70.80729Q332.0 72.010414 332.5 72.604164Q333.0 73.18229 333.6875 73.18229Q334.375 73.18229 334.85938 72.61979Q335.34375 72.05729 335.34375 70.90104Q335.34375 69.61979 334.84375 69.02604Q334.35938 68.43229 333.64062 68.43229Q332.9375 68.43229 332.46875 69.010414Q332.0 69.572914 332.0 70.80729ZM342.35938 73.15104Q341.76562 73.65104 341.21875 73.854164Q340.6875 74.05729 340.0625 74.05729Q339.03125 74.05729 338.48438 73.55729Q337.9375 73.05729 337.9375 72.27604Q337.9375 71.822914 338.14062 71.447914Q338.34375 71.05729 338.6875 70.83854Q339.03125 70.604164 339.45312 70.49479Q339.75 70.40104 340.39062 70.322914Q341.65625 70.18229 342.26562 69.96354Q342.26562 69.74479 342.26562 69.697914Q342.26562 69.041664 341.96875 68.77604Q341.5625 68.43229 340.76562 68.43229Q340.03125 68.43229 339.67188 68.697914Q339.3125 68.947914 339.14062 69.604164L338.10938 69.46354Q338.25 68.80729 338.57812 68.40104Q338.90625 67.99479 339.51562 67.77604Q340.125 67.55729 340.92188 67.55729Q341.71875 67.55729 342.21875 67.74479Q342.71875 67.93229 342.95312 68.21354Q343.1875 68.49479 343.28125 68.93229Q343.32812 69.197914 343.32812 69.90104L343.32812 71.30729Q343.32812 72.77604 343.39062 73.166664Q343.46875 73.55729 343.67188 73.916664L342.5625 73.916664Q342.40625 73.58854 342.35938 73.15104ZM342.26562 70.791664Q341.6875 71.02604 340.54688 71.197914Q339.89062 71.291664 339.625 71.416664Q339.35938 71.52604 339.20312 71.74479Q339.0625 71.96354 339.0625 72.24479Q339.0625 72.666664 339.375 72.947914Q339.70312 73.229164 340.3125 73.229164Q340.92188 73.229164 341.39062 72.96354Q341.875 72.697914 342.09375 72.229164Q342.26562 71.86979 342.26562 71.18229L342.26562 70.791664ZM345.29688 76.30729L345.29688 67.697914L346.25 67.697914L346.25 68.49479Q346.59375 68.02604 347.01562 67.791664Q347.45312 67.55729 348.0625 67.55729Q348.85938 67.55729 349.46875 67.96354Q350.07812 68.36979 350.375 69.11979Q350.6875 69.86979 350.6875 70.760414Q350.6875 71.71354 350.34375 72.479164Q350.01562 73.24479 349.35938 73.65104Q348.70312 74.05729 347.98438 74.05729Q347.45312 74.05729 347.03125 73.83854Q346.60938 73.604164 346.34375 73.27604L346.34375 76.30729L345.29688 76.30729ZM346.25 70.83854Q346.25 72.041664 346.73438 72.61979Q347.21875 73.18229 347.90625 73.18229Q348.60938 73.18229 349.10938 72.58854Q349.60938 71.99479 349.60938 70.74479Q349.60938 69.55729 349.125 68.979164Q348.64062 68.385414 347.95312 68.385414Q347.28125 68.385414 346.76562 69.010414Q346.25 69.635414 346.25 70.83854ZM354.59375 72.979164L354.75 73.90104Q354.29688 73.99479 353.95312 73.99479Q353.375 73.99479 353.0625 73.822914Q352.75 73.635414 352.60938 73.33854Q352.48438 73.041664 352.48438 72.08854L352.48438 68.510414L351.71875 68.510414L351.71875 67.697914L352.48438 67.697914L352.48438 66.15104L353.53125 65.52604L353.53125 67.697914L354.59375 67.697914L354.59375 68.510414L353.53125 68.510414L353.53125 72.15104Q353.53125 72.604164 353.57812 72.729164Q353.64062 72.854164 353.76562 72.93229Q353.89062 73.010414 354.125 73.010414Q354.3125 73.010414 354.59375 72.979164ZM355.29688 66.541664L355.29688 65.322914L356.35938 65.322914L356.35938 66.541664L355.29688 66.541664ZM355.29688 73.916664L355.29688 67.697914L356.35938 67.697914L356.35938 73.916664L355.29688 73.916664ZM360.01562 73.916664L357.65625 67.697914L358.76562 67.697914L360.10938 71.416664Q360.3125 72.02604 360.5 72.666664Q360.64062 72.18229 360.89062 71.49479L362.28125 67.697914L363.35938 67.697914L361.0 73.916664L360.01562 73.916664ZM368.54688 71.916664L369.64062 72.041664Q369.39062 72.99479 368.6875 73.52604Q367.98438 74.05729 366.90625 74.05729Q365.54688 74.05729 364.73438 73.21354Q363.9375 72.36979 363.9375 70.854164Q363.9375 69.291664 364.75 68.43229Q365.5625 67.55729 366.84375 67.55729Q368.09375 67.55729 368.875 68.40104Q369.67188 69.24479 369.67188 70.791664Q369.67188 70.885414 369.67188 71.072914L365.03125 71.072914Q365.09375 72.104164 365.60938 72.65104Q366.125 73.18229 366.90625 73.18229Q367.48438 73.18229 367.89062 72.885414Q368.3125 72.572914 368.54688 71.916664ZM365.09375 70.21354L368.5625 70.21354Q368.5 69.416664 368.17188 69.02604Q367.65625 68.416664 366.85938 68.416664Q366.125 68.416664 365.625 68.90104Q365.14062 69.385414 365.09375 70.21354Z" fill-rule="nonzero"/><path stroke="#ea4335" stroke-width="4.0" stroke-linecap="butt" d="M386.5 69.916664L398.5 69.916664" fill-rule="nonzero"/><path fill="#1a1a1a" d="M406.48438 73.916664L409.78125 65.322914L411.0 65.322914L414.51562 73.916664L413.23438 73.916664L412.21875 71.30729L408.64062 71.30729L407.6875 73.916664L406.48438 73.916664ZM408.96875 70.385414L411.875 70.385414L410.98438 68.010414Q410.5625 66.93229 410.375 66.229164Q410.20312 67.05729 409.90625 67.86979L408.96875 70.385414ZM419.32812 73.916664L419.32812 73.135414Q418.73438 74.05729 417.59375 74.05729Q416.84375 74.05729 416.21875 73.65104Q415.59375 73.229164 415.25 72.49479Q414.90625 71.760414 414.90625 70.80729Q414.90625 69.885414 415.21875 69.11979Q415.53125 68.354164 416.15625 67.96354Q416.78125 67.55729 417.54688 67.55729Q418.10938 67.55729 418.54688 67.791664Q418.98438 68.02604 419.26562 68.40104L419.26562 65.322914L420.3125 65.322914L420.3125 73.916664L419.32812 73.916664ZM416.0 70.80729Q416.0 72.010414 416.5 72.604164Q417.0 73.18229 417.6875 73.18229Q418.375 73.18229 418.85938 72.61979Q419.34375 72.05729 419.34375 70.90104Q419.34375 69.61979 418.84375 69.02604Q418.35938 68.43229 417.64062 68.43229Q416.9375 68.43229 416.46875 69.010414Q416.0 69.572914 416.0 70.80729ZM426.35938 73.15104Q425.76562 73.65104 425.21875 73.854164Q424.6875 74.05729 424.0625 74.05729Q423.03125 74.05729 422.48438 73.55729Q421.9375 73.05729 421.9375 72.27604Q421.9375 71.822914 422.14062 71.447914Q422.34375 71.05729 422.6875 70.83854Q423.03125 70.604164 423.45312 70.49479Q423.75 70.40104 424.39062 70.322914Q425.65625 70.18229 426.26562 69.96354Q426.26562 69.74479 426.26562 69.697914Q426.26562 69.041664 425.96875 68.77604Q425.5625 68.43229 424.76562 68.43229Q424.03125 68.43229 423.67188 68.697914Q423.3125 68.947914 423.14062 69.604164L422.10938 69.46354Q422.25 68.80729 422.57812 68.40104Q422.90625 67.99479 423.51562 67.77604Q424.125 67.55729 424.92188 67.55729Q425.71875 67.55729 426.21875 67.74479Q426.71875 67.93229 426.95312 68.21354Q427.1875 68.49479 427.28125 68.93229Q427.32812 69.197914 427.32812 69.90104L427.32812 71.30729Q427.32812 72.77604 427.39062 73.166664Q427.46875 73.55729 427.67188 73.916664L426.5625 73.916664Q426.40625 73.58854 426.35938 73.15104ZM426.26562 70.791664Q425.6875 71.02604 424.54688 71.197914Q423.89062 71.291664 423.625 71.416664Q423.35938 71.52604 423.20312 71.74479Q423.0625 71.96354 423.0625 72.24479Q423.0625 72.666664 423.375 72.947914Q423.70312 73.229164 424.3125 73.229164Q424.92188 73.229164 425.39062 72.96354Q425.875 72.697914 426.09375 72.229164Q426.26562 71.86979 426.26562 71.18229L426.26562 70.791664ZM429.29688 76.30729L429.29688 67.697914L430.25 67.697914L430.25 68.49479Q430.59375 68.02604 431.01562 67.791664Q431.45312 67.55729 432.0625 67.55729Q432.85938 67.55729 433.46875 67.96354Q434.07812 68.36979 434.375 69.11979Q434.6875 69.86979 434.6875 70.760414Q434.6875 71.71354 434.34375 72.479164Q434.01562 73.24479 433.35938 73.65104Q432.70312 74.05729 431.98438 74.05729Q431.45312 74.05729 431.03125 73.83854Q430.60938 73.604164 430.34375 73.27604L430.34375 76.30729L429.29688 76.30729ZM430.25 70.83854Q430.25 72.041664 430.73438 72.61979Q431.21875 73.18229 431.90625 73.18229Q432.60938 73.18229 433.10938 72.58854Q433.60938 71.99479 433.60938 70.74479Q433.60938 69.55729 433.125 68.979164Q432.64062 68.385414 431.95312 68.385414Q431.28125 68.385414 430.76562 69.010414Q430.25 69.635414 430.25 70.83854ZM438.59375 72.979164L438.75 73.90104Q438.29688 73.99479 437.95312 73.99479Q437.375 73.99479 437.0625 73.822914Q436.75 73.635414 436.60938 73.33854Q436.48438 73.041664 436.48438 72.08854L436.48438 68.510414L435.71875 68.510414L435.71875 67.697914L436.48438 67.697914L436.48438 66.15104L437.53125 65.52604L437.53125 67.697914L438.59375 67.697914L438.59375 68.510414L437.53125 68.510414L437.53125 72.15104Q437.53125 72.604164 437.57812 72.729164Q437.64062 72.854164 437.76562 72.93229Q437.89062 73.010414 438.125 73.010414Q438.3125 73.010414 438.59375 72.979164ZM439.29688 66.541664L439.29688 65.322914L440.35938 65.322914L440.35938 66.541664L439.29688 66.541664ZM439.29688 73.916664L439.29688 67.697914L440.35938 67.697914L440.35938 73.916664L439.29688 73.916664ZM444.01562 73.916664L441.65625 67.697914L442.76562 67.697914L444.10938 71.416664Q444.3125 72.02604 444.5 72.666664Q444.64062 72.18229 444.89062 71.49479L446.28125 67.697914L447.35938 67.697914L445.0 73.916664L444.01562 73.916664ZM452.54688 71.916664L453.64062 72.041664Q453.39062 72.99479 452.6875 73.52604Q451.98438 74.05729 450.90625 74.05729Q449.54688 74.05729 448.73438 73.21354Q447.9375 72.36979 447.9375 70.854164Q447.9375 69.291664 448.75 68.43229Q449.5625 67.55729 450.84375 67.55729Q452.09375 67.55729 452.875 68.40104Q453.67188 69.24479 453.67188 70.791664Q453.67188 70.885414 453.67188 71.072914L449.03125 71.072914Q449.09375 72.104164 449.60938 72.65104Q450.125 73.18229 450.90625 73.18229Q451.48438 73.18229 451.89062 72.885414Q452.3125 72.572914 452.54688 71.916664ZM449.09375 70.21354L452.5625 70.21354Q452.5 69.416664 452.17188 69.02604Q451.65625 68.416664 450.85938 68.416664Q450.125 68.416664 449.625 68.90104Q449.14062 69.385414 449.09375 70.21354Z" fill-rule="nonzero"/><path fill="#757575" d="M24.834375 42.35L24.834375 28.037498L27.69375 28.037498L31.06875 38.1625Q31.5375 39.584373 31.75625 40.2875Q32.00625 39.50625 32.521873 37.990623L35.94375 28.037498L38.490623 28.037498L38.490623 42.35L36.678123 42.35L36.678123 30.365623L32.50625 42.35L30.803125 42.35L26.6625 30.162498L26.6625 42.35L24.834375 42.35ZM48.771873 39.00625L50.584373 39.240623Q50.1625 40.81875 48.990623 41.709373Q47.834373 42.584373 46.021873 42.584373Q43.75625 42.584373 42.4125 41.19375Q41.084373 39.7875 41.084373 37.25625Q41.084373 34.63125 42.428123 33.19375Q43.771873 31.740623 45.928123 31.740623Q48.00625 31.740623 49.31875 33.1625Q50.646873 34.56875 50.646873 37.146873Q50.646873 37.303123 50.63125 37.615623L42.896873 37.615623Q42.990623 39.31875 43.865623 40.225Q44.740623 41.13125 46.0375 41.13125Q47.00625 41.13125 47.678123 40.63125Q48.365623 40.115623 48.771873 39.00625ZM42.990623 36.1625L48.7875 36.1625Q48.678123 34.865623 48.13125 34.209373Q47.2875 33.19375 45.94375 33.19375Q44.740623 33.19375 43.9125 34.00625Q43.084373 34.803123 42.990623 36.1625ZM52.6625 42.35L52.6625 31.974998L54.240623 31.974998L54.240623 33.428123Q54.725 32.678123 55.5375 32.209373Q56.35 31.740623 57.38125 31.740623Q58.5375 31.740623 59.271873 32.225Q60.00625 32.69375 60.31875 33.553123Q61.553123 31.740623 63.521873 31.740623Q65.06875 31.740623 65.89687 32.6Q66.725 33.459373 66.725 35.225L66.725 42.35L64.975 42.35L64.975 35.81875Q64.975 34.75625 64.80312 34.303123Q64.63125 33.834373 64.17812 33.553123Q63.740623 33.271873 63.13125 33.271873Q62.0375 33.271873 61.303123 34.00625Q60.584373 34.725 60.584373 36.31875L60.584373 42.35L58.834373 42.35L58.834373 35.615623Q58.834373 34.44375 58.396873 33.865623Q57.975 33.271873 56.990623 33.271873Q56.25625 33.271873 55.615623 33.6625Q54.990623 34.053123 54.709373 34.803123Q54.428123 35.553123 54.428123 36.975L54.428123 42.35L52.6625 42.35ZM69.02187 37.1625Q69.02187 34.2875 70.61562 32.896873Q71.95937 31.740623 73.88125 31.740623Q76.02187 31.740623 77.36562 33.146873Q78.725 34.553123 78.725 37.021873Q78.725 39.021873 78.13125 40.178123Q77.5375 41.31875 76.38125 41.959373Q75.24062 42.584373 73.88125 42.584373Q71.69375 42.584373 70.35 41.19375Q69.02187 39.7875 69.02187 37.1625ZM70.81875 37.1625Q70.81875 39.1625 71.67812 40.146873Q72.55312 41.13125 73.88125 41.13125Q75.19375 41.13125 76.05312 40.146873Q76.92812 39.146873 76.92812 37.1Q76.92812 35.178123 76.05312 34.19375Q75.17812 33.19375 73.88125 33.19375Q72.55312 33.19375 71.67812 34.19375Q70.81875 35.178123 70.81875 37.1625ZM80.64687 42.35L80.64687 31.974998L82.225 31.974998L82.225 33.553123Q82.83437 32.44375 83.35 32.1Q83.86562 31.740623 84.475 31.740623Q85.36562 31.740623 86.2875 32.303123L85.67812 33.94375Q85.0375 33.553123 84.39687 33.553123Q83.81875 33.553123 83.35 33.9125Q82.89687 34.25625 82.69375 34.865623Q82.4125 35.803123 82.4125 36.9125L82.4125 42.35L80.64687 42.35ZM87.58437 46.35L87.39687 44.69375Q87.975 44.85 88.39687 44.85Q88.99062 44.85 89.33437 44.646873Q89.69375 44.459373 89.9125 44.115623Q90.08437 43.85 90.45937 42.803123Q90.50625 42.646873 90.61562 42.365623L86.67812 31.974998L88.56875 31.974998L90.725 37.990623Q91.14687 39.13125 91.475 40.38125Q91.7875 39.178123 92.19375 38.021873L94.4125 31.974998L96.17812 31.974998L92.225 42.521873Q91.6 44.240623 91.24062 44.88125Q90.77187 45.75625 90.1625 46.146873Q89.56875 46.553123 88.725 46.553123Q88.20937 46.553123 87.58437 46.35ZM113.2875 28.037498L115.17812 28.037498L115.17812 36.303123Q115.17812 38.459373 114.69375 39.740623Q114.20937 41.00625 112.92812 41.803123Q111.6625 42.6 109.58437 42.6Q107.56875 42.6 106.2875 41.9125Q105.02187 41.209373 104.475 39.896873Q103.92812 38.584373 103.92812 36.303123L103.92812 28.037498L105.81875 28.037498L105.81875 36.2875Q105.81875 38.1625 106.1625 39.053123Q106.50625 39.928123 107.35 40.4125Q108.19375 40.88125 109.42812 40.88125Q111.50625 40.88125 112.39687 39.94375Q113.2875 38.990623 113.2875 36.2875L113.2875 28.037498ZM116.95937 39.25625L118.70937 38.975Q118.85 40.021873 119.52187 40.584373Q120.19375 41.13125 121.39687 41.13125Q122.6 41.13125 123.17812 40.646873Q123.77187 40.146873 123.77187 39.490623Q123.77187 38.896873 123.25625 38.553123Q122.89687 38.31875 121.45937 37.959373Q119.52187 37.459373 118.77187 37.115623Q118.0375 36.75625 117.64687 36.13125Q117.25625 35.490623 117.25625 34.725Q117.25625 34.0375 117.56875 33.44375Q117.89687 32.85 118.44375 32.459373Q118.85 32.1625 119.55312 31.959373Q120.27187 31.740623 121.08437 31.740623Q122.30312 31.740623 123.225 32.1Q124.14687 32.44375 124.58437 33.053123Q125.02187 33.646873 125.19375 34.646873L123.475 34.88125Q123.35 34.084373 122.7875 33.646873Q122.225 33.19375 121.20937 33.19375Q119.99062 33.19375 119.475 33.6Q118.95937 33.990623 118.95937 34.521873Q118.95937 34.865623 119.17812 35.146873Q119.38125 35.428123 119.85 35.615623Q120.11562 35.709373 121.39687 36.053123Q123.27187 36.553123 124.00625 36.88125Q124.74062 37.19375 125.1625 37.803123Q125.58437 38.396873 125.58437 39.303123Q125.58437 40.178123 125.06875 40.959373Q124.55312 41.740623 123.58437 42.1625Q122.61562 42.584373 121.39687 42.584373Q119.38125 42.584373 118.31875 41.740623Q117.25625 40.896873 116.95937 39.25625ZM134.44376 41.06875Q133.45938 41.896873 132.55313 42.240623Q131.64688 42.584373 130.61563 42.584373Q128.9125 42.584373 127.99062 41.75625Q127.06875 40.9125 127.06875 39.615623Q127.06875 38.85 127.4125 38.225Q127.77187 37.6 128.33438 37.225Q128.89688 36.834373 129.6 36.63125Q130.11563 36.50625 131.1625 36.365623Q133.2875 36.115623 134.2875 35.771873Q134.30313 35.4125 134.30313 35.303123Q134.30313 34.240623 133.80313 33.7875Q133.13126 33.19375 131.80313 33.19375Q130.55313 33.19375 129.95938 33.63125Q129.38126 34.06875 129.1 35.178123L127.38125 34.94375Q127.61562 33.834373 128.14688 33.1625Q128.67813 32.475 129.69376 32.115623Q130.70938 31.740623 132.05313 31.740623Q133.38126 31.740623 134.20938 32.053123Q135.0375 32.365623 135.42813 32.85Q135.81876 33.31875 135.975 34.0375Q136.06876 34.490623 136.06876 35.6625L136.06876 38.00625Q136.06876 40.459373 136.17813 41.115623Q136.2875 41.75625 136.63126 42.35L134.7875 42.35Q134.52188 41.803123 134.44376 41.06875ZM134.2875 37.146873Q133.33438 37.5375 131.4125 37.803123Q130.33438 37.959373 129.88126 38.1625Q129.44376 38.35 129.19376 38.725Q128.94376 39.1 128.94376 39.56875Q128.94376 40.271873 129.475 40.740623Q130.00626 41.209373 131.0375 41.209373Q132.05313 41.209373 132.83438 40.771873Q133.63126 40.31875 134.00626 39.553123Q134.2875 38.94375 134.2875 37.7875L134.2875 37.146873ZM138.35 43.209373L140.05313 43.459373Q140.1625 44.25625 140.64688 44.615623Q141.30313 45.1 142.44376 45.1Q143.6625 45.1 144.31876 44.615623Q144.99063 44.13125 145.225 43.25625Q145.36563 42.709373 145.35 40.990623Q144.19376 42.35 142.475 42.35Q140.33438 42.35 139.1625 40.803123Q137.99063 39.25625 137.99063 37.1Q137.99063 35.615623 138.52188 34.365623Q139.06876 33.115623 140.08438 32.428123Q141.11563 31.740623 142.49063 31.740623Q144.31876 31.740623 145.52188 33.225L145.52188 31.974998L147.13126 31.974998L147.13126 40.94375Q147.13126 43.365623 146.63126 44.365623Q146.14688 45.38125 145.06876 45.959373Q144.00626 46.553123 142.44376 46.553123Q140.6 46.553123 139.44376 45.725Q138.30313 44.896873 138.35 43.209373ZM139.80313 36.975Q139.80313 39.021873 140.61563 39.959373Q141.42813 40.896873 142.64688 40.896873Q143.85 40.896873 144.6625 39.959373Q145.49063 39.021873 145.49063 37.0375Q145.49063 35.13125 144.64688 34.1625Q143.80313 33.19375 142.61563 33.19375Q141.44376 33.19375 140.61563 34.146873Q139.80313 35.1 139.80313 36.975ZM156.77188 39.00625L158.58438 39.240623Q158.1625 40.81875 156.99063 41.709373Q155.83438 42.584373 154.02188 42.584373Q151.75626 42.584373 150.4125 41.19375Q149.08438 39.7875 149.08438 37.25625Q149.08438 34.63125 150.42813 33.19375Q151.77188 31.740623 153.92813 31.740623Q156.00626 31.740623 157.31876 33.1625Q158.64688 34.56875 158.64688 37.146873Q158.64688 37.303123 158.63126 37.615623L150.89688 37.615623Q150.99063 39.31875 151.86563 40.225Q152.74063 41.13125 154.0375 41.13125Q155.00626 41.13125 155.67813 40.63125Q156.36563 40.115623 156.77188 39.00625ZM150.99063 36.1625L156.7875 36.1625Q156.67813 34.865623 156.13126 34.209373Q155.2875 33.19375 153.94376 33.19375Q152.74063 33.19375 151.9125 34.00625Q151.08438 34.803123 150.99063 36.1625ZM166.02188 37.1625Q166.02188 34.2875 167.61563 32.896873Q168.95938 31.740623 170.88126 31.740623Q173.02188 31.740623 174.36563 33.146873Q175.725 34.553123 175.725 37.021873Q175.725 39.021873 175.13126 40.178123Q174.5375 41.31875 173.38126 41.959373Q172.24063 42.584373 170.88126 42.584373Q168.69376 42.584373 167.35 41.19375Q166.02188 39.7875 166.02188 37.1625ZM167.81876 37.1625Q167.81876 39.1625 168.67813 40.146873Q169.55313 41.13125 170.88126 41.13125Q172.19376 41.13125 173.05313 40.146873Q173.92813 39.146873 173.92813 37.1Q173.92813 35.178123 173.05313 34.19375Q172.17813 33.19375 170.88126 33.19375Q169.55313 33.19375 168.67813 34.19375Q167.81876 35.178123 167.81876 37.1625ZM178.08438 42.35L178.08438 33.35L176.5375 33.35L176.5375 31.974998L178.08438 31.974998L178.08438 30.881248Q178.08438 29.834373 178.27188 29.318748Q178.52188 28.631248 179.1625 28.209373Q179.80313 27.787498 180.95938 27.787498Q181.70938 27.787498 182.6 27.959373L182.33438 29.490623Q181.7875 29.396873 181.30313 29.396873Q180.50626 29.396873 180.1625 29.740623Q179.83438 30.084373 179.83438 31.021873L179.83438 31.974998L181.86563 31.974998L181.86563 33.35L179.83438 33.35L179.83438 42.35L178.08438 42.35ZM189.99063 42.35L189.99063 28.037498L199.64688 28.037498L199.64688 29.724998L191.88126 29.724998L191.88126 34.1625L198.6 34.1625L198.6 35.85L191.88126 35.85L191.88126 42.35L189.99063 42.35ZM201.67813 30.053123L201.67813 28.037498L203.44376 28.037498L203.44376 30.053123L201.67813 30.053123ZM201.67813 42.35L201.67813 31.974998L203.44376 31.974998L203.44376 42.35L201.67813 42.35ZM205.63126 42.35L205.63126 28.037498L207.38126 28.037498L207.38126 42.35L205.63126 42.35ZM213.50626 40.771873L213.75626 42.334373Q213.02188 42.490623 212.42813 42.490623Q211.475 42.490623 210.94376 42.19375Q210.42813 41.88125 210.20938 41.396873Q209.99063 40.896873 209.99063 39.31875L209.99063 33.35L208.70938 33.35L208.70938 31.974998L209.99063 31.974998L209.99063 29.412498L211.74063 28.349998L211.74063 31.974998L213.50626 31.974998L213.50626 33.35L211.74063 33.35L211.74063 39.4125Q211.74063 40.1625 211.83438 40.38125Q211.92813 40.584373 212.13126 40.725Q212.35 40.85 212.74063 40.85Q213.02188 40.85 213.50626 40.771873ZM222.77188 39.00625L224.58438 39.240623Q224.1625 40.81875 222.99063 41.709373Q221.83438 42.584373 220.02188 42.584373Q217.75626 42.584373 216.4125 41.19375Q215.08438 39.7875 215.08438 37.25625Q215.08438 34.63125 216.42813 33.19375Q217.77188 31.740623 219.92813 31.740623Q222.00626 31.740623 223.31876 33.1625Q224.64688 34.56875 224.64688 37.146873Q224.64688 37.303123 224.63126 37.615623L216.89688 37.615623Q216.99063 39.31875 217.86563 40.225Q218.74063 41.13125 220.0375 41.13125Q221.00626 41.13125 221.67813 40.63125Q222.36563 40.115623 222.77188 39.00625ZM216.99063 36.1625L222.7875 36.1625Q222.67813 34.865623 222.13126 34.209373Q221.2875 33.19375 219.94376 33.19375Q218.74063 33.19375 217.9125 34.00625Q217.08438 34.803123 216.99063 36.1625ZM226.64688 42.35L226.64688 31.974998L228.225 31.974998L228.225 33.553123Q228.83438 32.44375 229.35 32.1Q229.86563 31.740623 230.475 31.740623Q231.36563 31.740623 232.2875 32.303123L231.67813 33.94375Q231.0375 33.553123 230.39688 33.553123Q229.81876 33.553123 229.35 33.9125Q228.89688 34.25625 228.69376 34.865623Q228.4125 35.803123 228.4125 36.9125L228.4125 42.35L226.64688 42.35ZM243.5375 42.35L243.5375 29.724998L238.81876 29.724998L238.81876 28.037498L250.1625 28.037498L250.1625 29.724998L245.42813 29.724998L245.42813 42.35L243.5375 42.35ZM251.58438 46.35L251.39688 44.69375Q251.975 44.85 252.39688 44.85Q252.99063 44.85 253.33438 44.646873Q253.69376 44.459373 253.9125 44.115623Q254.08438 43.85 254.45938 42.803123Q254.50626 42.646873 254.61563 42.365623L250.67813 31.974998L252.56876 31.974998L254.725 37.990623Q255.14688 39.13125 255.475 40.38125Q255.7875 39.178123 256.19376 38.021873L258.4125 31.974998L260.17813 31.974998L256.225 42.521873Q255.6 44.240623 255.24063 44.88125Q254.77188 45.75625 254.1625 46.146873Q253.56876 46.553123 252.725 46.553123Q252.20938 46.553123 251.58438 46.35ZM261.6625 46.31875L261.6625 31.974998L263.27188 31.974998L263.27188 33.31875Q263.83438 32.5375 264.5375 32.146873Q265.25626 31.740623 266.27188 31.740623Q267.6 31.740623 268.61563 32.428123Q269.63126 33.115623 270.14688 34.365623Q270.67813 35.6 270.67813 37.084373Q270.67813 38.678123 270.1 39.959373Q269.5375 41.225 268.44376 41.9125Q267.35 42.584373 266.14688 42.584373Q265.27188 42.584373 264.56876 42.209373Q263.88126 41.834373 263.42813 41.271873L263.42813 46.31875L261.6625 46.31875ZM263.25626 37.225Q263.25626 39.225 264.06876 40.178123Q264.88126 41.13125 266.0375 41.13125Q267.20938 41.13125 268.0375 40.146873Q268.88126 39.1625 268.88126 37.06875Q268.88126 35.1 268.05313 34.115623Q267.24063 33.115623 266.11563 33.115623Q264.99063 33.115623 264.11563 34.178123Q263.25626 35.225 263.25626 37.225ZM279.77188 39.00625L281.58438 39.240623Q281.1625 40.81875 279.99063 41.709373Q278.83438 42.584373 277.02188 42.584373Q274.75626 42.584373 273.4125 41.19375Q272.08438 39.7875 272.08438 37.25625Q272.08438 34.63125 273.42813 33.19375Q274.77188 31.740623 276.92813 31.740623Q279.00626 31.740623 280.31876 33.1625Q281.64688 34.56875 281.64688 37.146873Q281.64688 37.303123 281.63126 37.615623L273.89688 37.615623Q273.99063 39.31875 274.86563 40.225Q275.74063 41.13125 277.0375 41.13125Q278.00626 41.13125 278.67813 40.63125Q279.36563 40.115623 279.77188 39.00625ZM273.99063 36.1625L279.7875 36.1625Q279.67813 34.865623 279.13126 34.209373Q278.2875 33.19375 276.94376 33.19375Q275.74063 33.19375 274.9125 34.00625Q274.08438 34.803123 273.99063 36.1625ZM282.95938 39.25625L284.70938 38.975Q284.85 40.021873 285.52188 40.584373Q286.19376 41.13125 287.39688 41.13125Q288.6 41.13125 289.17813 40.646873Q289.77188 40.146873 289.77188 39.490623Q289.77188 38.896873 289.25626 38.553123Q288.89688 38.31875 287.45938 37.959373Q285.52188 37.459373 284.77188 37.115623Q284.0375 36.75625 283.64688 36.13125Q283.25626 35.490623 283.25626 34.725Q283.25626 34.0375 283.56876 33.44375Q283.89688 32.85 284.44376 32.459373Q284.85 32.1625 285.55313 31.959373Q286.27188 31.740623 287.08438 31.740623Q288.30313 31.740623 289.225 32.1Q290.14688 32.44375 290.58438 33.053123Q291.02188 33.646873 291.19376 34.646873L289.475 34.88125Q289.35 34.084373 288.7875 33.646873Q288.225 33.19375 287.20938 33.19375Q285.99063 33.19375 285.475 33.6Q284.95938 33.990623 284.95938 34.521873Q284.95938 34.865623 285.17813 35.146873Q285.38126 35.428123 285.85 35.615623Q286.11563 35.709373 287.39688 36.053123Q289.27188 36.553123 290.00626 36.88125Q290.74063 37.19375 291.1625 37.803123Q291.58438 38.396873 291.58438 39.303123Q291.58438 40.178123 291.06876 40.959373Q290.55313 41.740623 289.58438 42.1625Q288.61563 42.584373 287.39688 42.584373Q285.38126 42.584373 284.31876 41.740623Q283.25626 40.896873 282.95938 39.25625Z" fill-rule="nonzero"/></svg>