<svg version="1.1" viewBox="0.0 0.0 600.0 371.0" fill="none" stroke="none" stroke-linecap="square" stroke-miterlimit="10" width="600" height="371" xmlns:xlink="http://www.w3.org/1999/xlink" xmlns="http://www.w3.org/2000/svg"><path fill="#ffffff" d="M0 0L600.0 0L600.0 371.0L0 371.0L0 0Z" fill-rule="nonzero"/><path stroke="#cccccc" stroke-width="1.0" stroke-linecap="butt" d="M90.5 88.5L90.5 300.5" fill-rule="nonzero"/><path stroke="#cccccc" stroke-width="1.0" stroke-linecap="butt" d="M201.5 88.5L201.5 300.5" fill-rule="nonzero"/><path stroke="#cccccc" stroke-width="1.0" stroke-linecap="butt" d="M313.5 88.5L313.5 300.5" fill-rule="nonzero"/><path stroke="#cccccc" stroke-width="1.0" stroke-linecap="butt" d="M425.5 88.5L425.5 300.5" fill-rule="nonzero"/><path stroke="#cccccc" stroke-width="1.0" stroke-linecap="butt" d="M536.5 88.5L536.5 300.5" fill-rule="nonzero"/><path stroke="#333333" stroke-width="1.0" stroke-linecap="butt" d="M45.5 300.5L581.5 300.5" fill-rule="nonzero"/><path stroke="#cccccc" stroke-width="1.0" stroke-linecap="butt" d="M45.5 247.5L581.5 247.5" fill-rule="nonzero"/><path stroke="#cccccc" stroke-width="1.0" stroke-linecap="butt" d="M45.5 194.5L581.5 194.5" fill-rule="nonzero"/><path stroke="#cccccc" stroke-width="1.0" stroke-linecap="butt" d="M45.5 141.5L581.5 141.5" fill-rule="nonzero"/><path stroke="#cccccc" stroke-width="1.0" stroke-linecap="butt" d="M45.5 88.5L581.5 88.5" fill-rule="nonzero"/><clipPath id="id_0"><path d="M45.55 88.28333L581.45 88.28333L581.45 300.45L45.55 300.45L45.55 88.28333Z" clip-rule="nonzero"/></clipPath><path stroke="#4285f4" stroke-width="2.0" stroke-linecap="butt" clip-path="url(#id_0)" d="M45.55 267.4199L224.18333 242.5667L581.45 121.221146" fill-rule="nonzero"/><path stroke="#ea4335" stroke-width="2.0" stroke-linecap="butt" clip-path="url(#id_0)" d="M45.55 269.37024L224.18333 246.10934L581.45 133.7655" fill-rule="nonzero"/><path fill="#000000" fill-opacity="0.0" clip-path="url(#id_0)" d="M48.55 267.4199C48.55 269.07675 47.206856 270.4199 45.55 270.4199C43.893147 270.4199 42.55 269.07675 42.55 267.4199C42.55 265.76303 43.893147 264.4199 45.55 264.4199C47.206856 264.4199 48.55 265.76303 48.55 267.4199Z" fill-rule="nonzero"/><path fill="#000000" fill-opacity="0.0" clip-path="url(#id_0)" d="M227.18333 242.5667C227.18333 244.22354 225.8402 245.5667 224.18333 245.5667C222.52647 245.5667 221.18333 244.22354 221.18333 242.5667C221.18333 240.90984 222.52647 239.5667 224.18333 239.5667C225.8402 239.5667 227.18333 240.90984 227.18333 242.5667Z" fill-rule="nonzero"/><path fill="#000000" fill-opacity="0.0" clip-path="url(#id_0)" d="M584.45 121.221146C584.45 122.878 583.1069 124.221146 581.45 124.221146C579.79315 124.221146 578.45 122.878 578.45 121.221146C578.45 119.56429 579.79315 118.221146 581.45 118.221146C583.1069 118.221146 584.45 119.56429 584.45 121.221146Z" fill-rule="nonzero"/><path fill="#000000" fill-opacity="0.0" clip-path="url(#id_0)" d="M48.55 269.37024C48.55 271.0271 47.206856 272.37024 45.55 272.37024C43.893147 272.37024 42.55 271.0271 42.55 269.37024C42.55 267.71338 43.893147 266.37024 45.55 266.37024C47.206856 266.37024 48.55 267.71338 48.55 269.37024Z" fill-rule="nonzero"/><path fill="#000000" fill-opacity="0.0" clip-path="url(#id_0)" d="M227.18333 246.10934C227.18333 247.76619 225.8402 249.10934 224.18333 249.10934C222.52647 249.10934 221.18333 247.76619 221.18333 246.10934C221.18333 244.45248 222.52647 243.10934 224.18333 243.10934C225.8402 243.10934 227.18333 244.45248 227.18333 246.10934Z" fill-rule="nonzero"/><path fill="#000000" fill-opacity="0.0" clip-path="url(#id_0)" d="M584.45 133.7655C584.45 135.42236 583.1069 136.7655 581.45 136.7655C579.79315 136.7655 578.45 135.42236 578.45 133.7655C578.45 132.10864 579.79315 130.7655 581.45 130.7655C583.1069 130.7655 584.45 132.10864 584.45 133.7655Z" fill-rule="nonzero"/><path fill="#000000" d="M284.39062 349.45L284.39062 340.85626L286.10938 340.85626L288.14062 346.9344Q288.42188 347.79376 288.54688 348.21564Q288.6875 347.7469 289.0 346.84064L291.0625 340.85626L292.59375 340.85626L292.59375 349.45L291.5 349.45L291.5 342.2625L289.0 349.45L287.96875 349.45L285.48438 342.1375L285.48438 349.45L284.39062 349.45ZM298.35938 348.6844Q297.76562 349.1844 297.21875 349.3875Q296.6875 349.59064 296.0625 349.59064Q295.03125 349.59064 294.48438 349.09064Q293.9375 348.59064 293.9375 347.8094Q293.9375 347.35626 294.14062 346.98126Q294.34375 346.59064 294.6875 346.3719Q295.03125 346.1375 295.45312 346.02814Q295.75 345.9344 296.39062 345.85626Q297.65625 345.71564 298.26562 345.4969Q298.26562 345.27814 298.26562 345.23126Q298.26562 344.575 297.96875 344.3094Q297.5625 343.96564 296.76562 343.96564Q296.03125 343.96564 295.67188 344.23126Q295.3125 344.48126 295.14062 345.1375L294.10938 344.9969Q294.25 344.34064 294.57812 343.9344Q294.90625 343.52814 295.51562 343.3094Q296.125 343.09064 296.92188 343.09064Q297.71875 343.09064 298.21875 343.27814Q298.71875 343.46564 298.95312 343.7469Q299.1875 344.02814 299.28125 344.46564Q299.32812 344.73126 299.32812 345.4344L299.32812 346.84064Q299.32812 348.3094 299.39062 348.7Q299.46875 349.09064 299.67188 349.45L298.5625 349.45Q298.40625 349.1219 298.35938 348.6844ZM298.26562 346.325Q297.6875 346.5594 296.54688 346.73126Q295.89062 346.825 295.625 346.95Q295.35938 347.0594 295.20312 347.27814Q295.0625 347.4969 295.0625 347.77814Q295.0625 348.2 295.375 348.48126Q295.70312 348.7625 296.3125 348.7625Q296.92188 348.7625 297.39062 348.4969Q297.875 348.23126 298.09375 347.7625Q298.26562 347.40314 298.26562 346.71564L298.26562 346.325ZM303.59375 348.5125L303.75 349.4344Q303.29688 349.52814 302.95312 349.52814Q302.375 349.52814 302.0625 349.35626Q301.75 349.16876 301.60938 348.8719Q301.48438 348.575 301.48438 347.6219L301.48438 344.04376L300.71875 344.04376L300.71875 343.23126L301.48438 343.23126L301.48438 341.6844L302.53125 341.0594L302.53125 343.23126L303.59375 343.23126L303.59375 344.04376L302.53125 344.04376L302.53125 347.6844Q302.53125 348.1375 302.57812 348.2625Q302.64062 348.3875 302.76562 348.46564Q302.89062 348.54376 303.125 348.54376Q303.3125 348.54376 303.59375 348.5125ZM304.28125 349.45L304.28125 343.23126L305.23438 343.23126L305.23438 344.16876Q305.59375 343.5125 305.89062 343.3094Q306.20312 343.09064 306.57812 343.09064Q307.10938 343.09064 307.65625 343.41876L307.29688 344.40314Q306.90625 344.16876 306.53125 344.16876Q306.17188 344.16876 305.89062 344.3875Q305.625 344.59064 305.51562 344.96564Q305.32812 345.52814 305.32812 346.1844L305.32812 349.45L304.28125 349.45ZM308.29688 342.075L308.29688 340.85626L309.35938 340.85626L309.35938 342.075L308.29688 342.075ZM308.29688 349.45L308.29688 343.23126L309.35938 343.23126L309.35938 349.45L308.29688 349.45ZM310.59375 349.45L312.85938 346.21564L310.76562 343.23126L312.07812 343.23126L313.03125 344.6844Q313.29688 345.10626 313.46875 345.3875Q313.71875 344.9969 313.9375 344.7L314.98438 343.23126L316.25 343.23126L314.09375 346.15314L316.40625 349.45L315.125 349.45L313.84375 347.5125L313.5 346.9969L311.85938 349.45L310.59375 349.45ZM320.04688 346.6844L321.10938 346.59064Q321.1875 347.2469 321.46875 347.65314Q321.75 348.0594 322.32812 348.325Q322.92188 348.575 323.65625 348.575Q324.29688 348.575 324.79688 348.3875Q325.29688 348.1844 325.53125 347.85626Q325.78125 347.5125 325.78125 347.1219Q325.78125 346.71564 325.54688 346.41876Q325.3125 346.10626 324.78125 345.90314Q324.42188 345.7625 323.23438 345.48126Q322.0625 345.2 321.59375 344.95Q320.96875 344.6219 320.67188 344.15314Q320.375 343.66876 320.375 343.075Q320.375 342.4344 320.73438 341.8719Q321.10938 341.29376 321.8125 341.0125Q322.53125 340.71564 323.39062 340.71564Q324.34375 340.71564 325.07812 341.02814Q325.8125 341.325 326.20312 341.9344Q326.59375 342.52814 326.625 343.27814L325.53125 343.35626Q325.4375 342.54376 324.92188 342.1375Q324.42188 341.71564 323.4375 341.71564Q322.40625 341.71564 321.9375 342.09064Q321.46875 342.46564 321.46875 342.9969Q321.46875 343.46564 321.79688 343.7625Q322.125 344.0594 323.5 344.3719Q324.89062 344.6844 325.40625 344.91876Q326.15625 345.27814 326.51562 345.8094Q326.875 346.325 326.875 347.02814Q326.875 347.71564 326.48438 348.325Q326.09375 348.91876 325.35938 349.2625Q324.625 349.59064 323.70312 349.59064Q322.53125 349.59064 321.73438 349.2625Q320.95312 348.91876 320.5 348.23126Q320.0625 347.54376 320.04688 346.6844ZM328.29688 342.075L328.29688 340.85626L329.35938 340.85626L329.35938 342.075L328.29688 342.075ZM328.29688 349.45L328.29688 343.23126L329.35938 343.23126L329.35938 349.45L328.29688 349.45ZM330.73438 349.45L330.73438 348.59064L334.70312 344.04376Q334.01562 344.075 333.5 344.075L330.96875 344.075L330.96875 343.23126L336.0625 343.23126L336.0625 343.91876L332.6875 347.8719L332.03125 348.59064Q332.75 348.54376 333.35938 348.54376L336.25 348.54376L336.25 349.45L330.73438 349.45ZM341.54688 347.45L342.64062 347.575Q342.39062 348.52814 341.6875 349.0594Q340.98438 349.59064 339.90625 349.59064Q338.54688 349.59064 337.73438 348.7469Q336.9375 347.90314 336.9375 346.3875Q336.9375 344.825 337.75 343.96564Q338.5625 343.09064 339.84375 343.09064Q341.09375 343.09064 341.875 343.9344Q342.67188 344.77814 342.67188 346.325Q342.67188 346.41876 342.67188 346.60626L338.03125 346.60626Q338.09375 347.6375 338.60938 348.1844Q339.125 348.71564 339.90625 348.71564Q340.48438 348.71564 340.89062 348.41876Q341.3125 348.10626 341.54688 347.45ZM338.09375 345.7469L341.5625 345.7469Q341.5 344.95 341.17188 344.5594Q340.65625 343.95 339.85938 343.95Q339.125 343.95 338.625 344.4344Q338.14062 344.91876 338.09375 345.7469Z" fill-rule="nonzero"/><path fill="#000000" d="M33.05 300.21564Q33.05 298.6844 33.3625 297.7625Q33.675 296.825 34.284374 296.325Q34.909374 295.825 35.846874 295.825Q36.534374 295.825 37.05 296.10626Q37.58125 296.3875 37.925 296.91876Q38.26875 297.4344 38.45625 298.1844Q38.64375 298.9344 38.64375 300.21564Q38.64375 301.73126 38.33125 302.65314Q38.034374 303.575 37.409374 304.09064Q36.8 304.59064 35.846874 304.59064Q34.6125 304.59064 33.89375 303.7Q33.05 302.6375 33.05 300.21564ZM34.128124 300.21564Q34.128124 302.325 34.628124 303.02814Q35.128124 303.73126 35.846874 303.73126Q36.58125 303.73126 37.065624 303.02814Q37.565624 302.325 37.565624 300.21564Q37.565624 298.09064 37.065624 297.40314Q36.58125 296.7 35.83125 296.7Q35.1125 296.7 34.675 297.3094Q34.128124 298.09064 34.128124 300.21564Z" fill-rule="nonzero"/><path fill="#000000" d="M23.01875 251.40834L21.971874 251.40834L21.971874 244.68959Q21.58125 245.04897 20.95625 245.42397Q20.346874 245.78334 19.8625 245.95522L19.8625 244.93959Q20.7375 244.51772 21.39375 243.93959Q22.065624 243.34584 22.346874 242.78334L23.01875 242.78334L23.01875 251.40834ZM26.05 247.17397Q26.05 245.64272 26.3625 244.72084Q26.675 243.78334 27.284374 243.28334Q27.909374 242.78334 28.846874 242.78334Q29.534374 242.78334 30.05 243.06459Q30.58125 243.34584 30.925 243.87709Q31.26875 244.39272 31.45625 245.14272Q31.64375 245.89272 31.64375 247.17397Q31.64375 248.68959 31.33125 249.61147Q31.034374 250.53334 30.409374 251.04897Q29.8 251.54897 28.846874 251.54897Q27.6125 251.54897 26.89375 250.65834Q26.05 249.59584 26.05 247.17397ZM27.128124 247.17397Q27.128124 249.28334 27.628124 249.98647Q28.128124 250.68959 28.846874 250.68959Q29.58125 250.68959 30.065624 249.98647Q30.565624 249.28334 30.565624 247.17397Q30.565624 245.04897 30.065624 244.36147Q29.58125 243.65834 28.83125 243.65834Q28.1125 243.65834 27.675 244.26772Q27.128124 245.04897 27.128124 247.17397ZM33.05 247.17397Q33.05 245.64272 33.3625 244.72084Q33.675 243.78334 34.284374 243.28334Q34.909374 242.78334 35.846874 242.78334Q36.534374 242.78334 37.05 243.06459Q37.58125 243.34584 37.925 243.87709Q38.26875 244.39272 38.45625 245.14272Q38.64375 245.89272 38.64375 247.17397Q38.64375 248.68959 38.33125 249.61147Q38.034374 250.53334 37.409374 251.04897Q36.8 251.54897 35.846874 251.54897Q34.6125 251.54897 33.89375 250.65834Q33.05 249.59584 33.05 247.17397ZM34.128124 247.17397Q34.128124 249.28334 34.628124 249.98647Q35.128124 250.68959 35.846874 250.68959Q36.58125 250.68959 37.065624 249.98647Q37.565624 249.28334 37.565624 247.17397Q37.565624 245.04897 37.065624 244.36147Q36.58125 243.65834 35.83125 243.65834Q35.1125 243.65834 34.675 244.26772Q34.128124 245.04897 34.128124 247.17397Z" fill-rule="nonzero"/><path fill="#000000" d="M24.596874 197.35104L24.596874 198.36667L18.909374 198.36667Q18.909374 197.99167 19.034374 197.6323Q19.253124 197.05417 19.721874 196.49167Q20.20625 195.92917 21.1125 195.1948Q22.51875 194.03854 23.003124 193.36667Q23.503124 192.6948 23.503124 192.10104Q23.503124 191.47604 23.05 191.05417Q22.596874 190.61667 21.878124 190.61667Q21.1125 190.61667 20.659374 191.0698Q20.20625 191.52292 20.190624 192.33542L19.1125 192.22604Q19.221874 191.0073 19.940624 190.3823Q20.675 189.74167 21.909374 189.74167Q23.14375 189.74167 23.8625 190.42917Q24.58125 191.11667 24.58125 192.1323Q24.58125 192.64792 24.3625 193.14792Q24.159374 193.6323 23.659374 194.1948Q23.175 194.74167 22.05 195.6948Q21.096874 196.49167 20.815624 196.78854Q20.55 197.0698 20.378124 197.35104L24.596874 197.35104ZM26.05 194.1323Q26.05 192.60104 26.3625 191.67917Q26.675 190.74167 27.284374 190.24167Q27.909374 189.74167 28.846874 189.74167Q29.534374 189.74167 30.05 190.02292Q30.58125 190.30417 30.925 190.83542Q31.26875 191.35104 31.45625 192.10104Q31.64375 192.85104 31.64375 194.1323Q31.64375 195.64792 31.33125 196.5698Q31.034374 197.49167 30.409374 198.0073Q29.8 198.5073 28.846874 198.5073Q27.6125 198.5073 26.89375 197.61667Q26.05 196.55417 26.05 194.1323ZM27.128124 194.1323Q27.128124 196.24167 27.628124 196.9448Q28.128124 197.64792 28.846874 197.64792Q29.58125 197.64792 30.065624 196.9448Q30.565624 196.24167 30.565624 194.1323Q30.565624 192.0073 30.065624 191.3198Q29.58125 190.61667 28.83125 190.61667Q28.1125 190.61667 27.675 191.22604Q27.128124 192.0073 27.128124 194.1323ZM33.05 194.1323Q33.05 192.60104 33.3625 191.67917Q33.675 190.74167 34.284374 190.24167Q34.909374 189.74167 35.846874 189.74167Q36.534374 189.74167 37.05 190.02292Q37.58125 190.30417 37.925 190.83542Q38.26875 191.35104 38.45625 192.10104Q38.64375 192.85104 38.64375 194.1323Q38.64375 195.64792 38.33125 196.5698Q38.034374 197.49167 37.409374 198.0073Q36.8 198.5073 35.846874 198.5073Q34.6125 198.5073 33.89375 197.61667Q33.05 196.55417 33.05 194.1323ZM34.128124 194.1323Q34.128124 196.24167 34.628124 196.9448Q35.128124 197.64792 35.846874 197.64792Q36.58125 197.64792 37.065624 196.9448Q37.565624 196.24167 37.565624 194.1323Q37.565624 192.0073 37.065624 191.3198Q36.58125 190.61667 35.83125 190.61667Q35.1125 190.61667 34.675 191.22604Q34.128124 192.0073 34.128124 194.1323Z" fill-rule="nonzero"/><path fill="#000000" d="M19.05 143.05937L20.1125 142.91875Q20.284374 143.80937 20.721874 144.21562Q21.159374 144.60625 21.784374 144.60625Q22.534374 144.60625 23.05 144.09062Q23.565624 143.575 23.565624 142.80937Q23.565624 142.09062 23.08125 141.62187Q22.6125 141.1375 21.878124 141.1375Q21.58125 141.1375 21.128124 141.2625L21.253124 140.325Q21.3625 140.34062 21.425 140.34062Q22.096874 140.34062 22.628124 139.99687Q23.175 139.6375 23.175 138.90312Q23.175 138.325 22.784374 137.95Q22.39375 137.55937 21.76875 137.55937Q21.159374 137.55937 20.7375 137.95Q20.33125 138.34062 20.221874 139.10625L19.159374 138.91875Q19.346874 137.87187 20.034374 137.29375Q20.721874 136.7 21.7375 136.7Q22.440624 136.7 23.034374 137.0125Q23.628124 137.30937 23.940624 137.825Q24.253124 138.34062 24.253124 138.93437Q24.253124 139.48125 23.95625 139.95Q23.659374 140.40312 23.08125 140.66875Q23.83125 140.84062 24.253124 141.40312Q24.675 141.95 24.675 142.79375Q24.675 143.91875 23.846874 144.7Q23.034374 145.48125 21.784374 145.48125Q20.659374 145.48125 19.909374 144.80937Q19.159374 144.12187 19.05 143.05937ZM26.05 141.09062Q26.05 139.55937 26.3625 138.6375Q26.675 137.7 27.284374 137.2Q27.909374 136.7 28.846874 136.7Q29.534374 136.7 30.05 136.98125Q30.58125 137.2625 30.925 137.79375Q31.26875 138.30937 31.45625 139.05937Q31.64375 139.80937 31.64375 141.09062Q31.64375 142.60625 31.33125 143.52812Q31.034374 144.45 30.409374 144.96562Q29.8 145.46562 28.846874 145.46562Q27.6125 145.46562 26.89375 144.575Q26.05 143.5125 26.05 141.09062ZM27.128124 141.09062Q27.128124 143.2 27.628124 143.90312Q28.128124 144.60625 28.846874 144.60625Q29.58125 144.60625 30.065624 143.90312Q30.565624 143.2 30.565624 141.09062Q30.565624 138.96562 30.065624 138.27812Q29.58125 137.575 28.83125 137.575Q28.1125 137.575 27.675 138.18437Q27.128124 138.96562 27.128124 141.09062ZM33.05 141.09062Q33.05 139.55937 33.3625 138.6375Q33.675 137.7 34.284374 137.2Q34.909374 136.7 35.846874 136.7Q36.534374 136.7 37.05 136.98125Q37.58125 137.2625 37.925 137.79375Q38.26875 138.30937 38.45625 139.05937Q38.64375 139.80937 38.64375 141.09062Q38.64375 142.60625 38.33125 143.52812Q38.034374 144.45 37.409374 144.96562Q36.8 145.46562 35.846874 145.46562Q34.6125 145.46562 33.89375 144.575Q33.05 143.5125 33.05 141.09062ZM34.128124 141.09062Q34.128124 143.2 34.628124 143.90312Q35.128124 144.60625 35.846874 144.60625Q36.58125 144.60625 37.065624 143.90312Q37.565624 143.2 37.565624 141.09062Q37.565624 138.96562 37.065624 138.27812Q36.58125 137.575 35.83125 137.575Q35.1125 137.575 34.675 138.18437Q34.128124 138.96562 34.128124 141.09062Z" fill-rule="nonzero"/><path fill="#000000" d="M22.425 92.28333L22.425 90.22083L18.70625 90.22083L18.70625 89.25208L22.628124 83.68958L23.4875 83.68958L23.4875 89.25208L24.64375 89.25208L24.64375 90.22083L23.4875 90.22083L23.4875 92.28333L22.425 92.28333ZM22.425 89.25208L22.425 85.39271L19.7375 89.25208L22.425 89.25208ZM26.05 88.04896Q26.05 86.51771 26.3625 85.59583Q26.675 84.65833 27.284374 84.15833Q27.909374 83.65833 28.846874 83.65833Q29.534374 83.65833 30.05 83.93958Q30.58125 84.22083 30.925 84.75208Q31.26875 85.26771 31.45625 86.01771Q31.64375 86.76771 31.64375 88.04896Q31.64375 89.56458 31.33125 90.48646Q31.034374 91.40833 30.409374 91.92396Q29.8 92.42396 28.846874 92.42396Q27.6125 92.42396 26.89375 91.53333Q26.05 90.47083 26.05 88.04896ZM27.128124 88.04896Q27.128124 90.15833 27.628124 90.86146Q28.128124 91.56458 28.846874 91.56458Q29.58125 91.56458 30.065624 90.86146Q30.565624 90.15833 30.565624 88.04896Q30.565624 85.92396 30.065624 85.23646Q29.58125 84.53333 28.83125 84.53333Q28.1125 84.53333 27.675 85.14271Q27.128124 85.92396 27.128124 88.04896ZM33.05 88.04896Q33.05 86.51771 33.3625 85.59583Q33.675 84.65833 34.284374 84.15833Q34.909374 83.65833 35.846874 83.65833Q36.534374 83.65833 37.05 83.93958Q37.58125 84.22083 37.925 84.75208Q38.26875 85.26771 38.45625 86.01771Q38.64375 86.76771 38.64375 88.04896Q38.64375 89.56458 38.33125 90.48646Q38.034374 91.40833 37.409374 91.92396Q36.8 92.42396 35.846874 92.42396Q34.6125 92.42396 33.89375 91.53333Q33.05 90.47083 33.05 88.04896ZM34.128124 88.04896Q34.128124 90.15833 34.628124 90.86146Q35.128124 91.56458 35.846874 91.56458Q36.58125 91.56458 37.065624 90.86146Q37.565624 90.15833 37.565624 88.04896Q37.565624 85.92396 37.065624 85.23646Q36.58125 84.53333 35.83125 84.53333Q35.1125 84.53333 34.675 85.14271Q34.128124 85.92396 34.128124 88.04896Z" fill-rule="nonzero"/><path fill="#000000" d="M87.083336 317.45L87.083336 315.3875L83.364586 315.3875L83.364586 314.41876L87.28646 308.85626L88.145836 308.85626L88.145836 314.41876L89.302086 314.41876L89.302086 315.3875L88.145836 315.3875L88.145836 317.45L87.083336 317.45ZM87.083336 314.41876L87.083336 310.5594L84.395836 314.41876L87.083336 314.41876ZM90.708336 313.21564Q90.708336 311.6844 91.020836 310.7625Q91.333336 309.825 91.94271 309.325Q92.56771 308.825 93.50521 308.825Q94.19271 308.825 94.708336 309.10626Q95.239586 309.3875 95.583336 309.91876Q95.927086 310.4344 96.114586 311.1844Q96.302086 311.9344 96.302086 313.21564Q96.302086 314.73126 95.989586 315.65314Q95.69271 316.575 95.06771 317.09064Q94.458336 317.59064 93.50521 317.59064Q92.270836 317.59064 91.552086 316.7Q90.708336 315.6375 90.708336 313.21564ZM91.78646 313.21564Q91.78646 315.325 92.28646 316.02814Q92.78646 316.73126 93.50521 316.73126Q94.239586 316.73126 94.72396 316.02814Q95.22396 315.325 95.22396 313.21564Q95.22396 311.09064 94.72396 310.40314Q94.239586 309.7 93.489586 309.7Q92.770836 309.7 92.333336 310.3094Q91.78646 311.09064 91.78646 313.21564Z" fill-rule="nonzero"/><path fill="#000000" d="M200.82292 310.96564L199.77605 311.04376Q199.63542 310.41876 199.38542 310.1375Q198.94792 309.6844 198.32292 309.6844Q197.82292 309.6844 197.4323 309.96564Q196.94792 310.34064 196.65105 311.04376Q196.3698 311.73126 196.35417 313.0125Q196.72917 312.4344 197.27605 312.15314Q197.83855 311.8719 198.44792 311.8719Q199.4948 311.8719 200.22917 312.65314Q200.97917 313.4344 200.97917 314.65314Q200.97917 315.46564 200.6198 316.16876Q200.27605 316.85626 199.66667 317.23126Q199.0573 317.59064 198.29167 317.59064Q196.96355 317.59064 196.13542 316.6219Q195.3073 315.65314 195.3073 313.4344Q195.3073 310.9344 196.22917 309.8094Q197.02605 308.825 198.38542 308.825Q199.40105 308.825 200.04167 309.40314Q200.69792 309.96564 200.82292 310.96564ZM196.52605 314.66876Q196.52605 315.21564 196.7448 315.71564Q196.97917 316.2 197.38542 316.46564Q197.8073 316.73126 198.27605 316.73126Q198.9323 316.73126 199.41667 316.2Q199.90105 315.65314 199.90105 314.73126Q199.90105 313.84064 199.41667 313.325Q198.94792 312.8094 198.22917 312.8094Q197.51042 312.8094 197.01042 313.325Q196.52605 313.84064 196.52605 314.66876ZM202.35417 313.21564Q202.35417 311.6844 202.66667 310.7625Q202.97917 309.825 203.58855 309.325Q204.21355 308.825 205.15105 308.825Q205.83855 308.825 206.35417 309.10626Q206.88542 309.3875 207.22917 309.91876Q207.57292 310.4344 207.76042 311.1844Q207.94792 311.9344 207.94792 313.21564Q207.94792 314.73126 207.63542 315.65314Q207.33855 316.575 206.71355 317.09064Q206.10417 317.59064 205.15105 317.59064Q203.91667 317.59064 203.19792 316.7Q202.35417 315.6375 202.35417 313.21564ZM203.4323 313.21564Q203.4323 315.325 203.9323 316.02814Q204.4323 316.73126 205.15105 316.73126Q205.88542 316.73126 206.3698 316.02814Q206.8698 315.325 206.8698 313.21564Q206.8698 311.09064 206.3698 310.40314Q205.88542 309.7 205.13542 309.7Q204.41667 309.7 203.97917 310.3094Q203.4323 311.09064 203.4323 313.21564Z" fill-rule="nonzero"/><path fill="#000000" d="M308.625 312.79376Q307.96875 312.54376 307.64062 312.10626Q307.32812 311.65314 307.32812 311.04376Q307.32812 310.10626 308.0 309.46564Q308.6875 308.825 309.79688 308.825Q310.92188 308.825 311.60938 309.48126Q312.29688 310.1375 312.29688 311.075Q312.29688 311.66876 311.98438 312.10626Q311.67188 312.54376 311.03125 312.79376Q311.82812 313.04376 312.23438 313.6219Q312.64062 314.2 312.64062 314.9969Q312.64062 316.09064 311.85938 316.84064Q311.09375 317.59064 309.8125 317.59064Q308.54688 317.59064 307.76562 316.84064Q306.98438 316.09064 306.98438 314.96564Q306.98438 314.1219 307.40625 313.5594Q307.84375 312.9969 308.625 312.79376ZM308.40625 310.9969Q308.40625 311.60626 308.79688 311.9969Q309.20312 312.3875 309.82812 312.3875Q310.4375 312.3875 310.82812 312.0125Q311.21875 311.6219 311.21875 311.0594Q311.21875 310.48126 310.8125 310.09064Q310.40625 309.6844 309.8125 309.6844Q309.20312 309.6844 308.79688 310.075Q308.40625 310.46564 308.40625 310.9969ZM308.07812 314.96564Q308.07812 315.41876 308.28125 315.84064Q308.5 316.2625 308.92188 316.4969Q309.34375 316.73126 309.82812 316.73126Q310.57812 316.73126 311.0625 316.2469Q311.5625 315.7625 311.5625 315.0125Q311.5625 314.2469 311.0625 313.7469Q310.5625 313.2469 309.79688 313.2469Q309.04688 313.2469 308.5625 313.7469Q308.07812 314.23126 308.07812 314.96564ZM314.0 313.21564Q314.0 311.6844 314.3125 310.7625Q314.625 309.825 315.23438 309.325Q315.85938 308.825 316.79688 308.825Q317.48438 308.825 318.0 309.10626Q318.53125 309.3875 318.875 309.91876Q319.21875 310.4344 319.40625 311.1844Q319.59375 311.9344 319.59375 313.21564Q319.59375 314.73126 319.28125 315.65314Q318.98438 316.575 318.35938 317.09064Q317.75 317.59064 316.79688 317.59064Q315.5625 317.59064 314.84375 316.7Q314.0 315.6375 314.0 313.21564ZM315.07812 313.21564Q315.07812 315.325 315.57812 316.02814Q316.07812 316.73126 316.79688 316.73126Q317.53125 316.73126 318.01562 316.02814Q318.51562 315.325 318.51562 313.21564Q318.51562 311.09064 318.01562 310.40314Q317.53125 309.7 316.78125 309.7Q316.0625 309.7 315.625 310.3094Q315.07812 311.09064 315.07812 313.21564Z" fill-rule="nonzero"/><path fill="#000000" d="M419.1146 317.45L418.06772 317.45L418.06772 310.73126Q417.6771 311.09064 417.0521 311.46564Q416.44272 311.825 415.95834 311.9969L415.95834 310.98126Q416.83334 310.5594 417.4896 309.98126Q418.16147 309.3875 418.44272 308.825L419.1146 308.825L419.1146 317.45ZM422.14584 313.21564Q422.14584 311.6844 422.45834 310.7625Q422.77084 309.825 423.38022 309.325Q424.00522 308.825 424.94272 308.825Q425.63022 308.825 426.14584 309.10626Q426.6771 309.3875 427.02084 309.91876Q427.3646 310.4344 427.5521 311.1844Q427.7396 311.9344 427.7396 313.21564Q427.7396 314.73126 427.4271 315.65314Q427.13022 316.575 426.50522 317.09064Q425.89584 317.59064 424.94272 317.59064Q423.70834 317.59064 422.9896 316.7Q422.14584 315.6375 422.14584 313.21564ZM423.22397 313.21564Q423.22397 315.325 423.72397 316.02814Q424.22397 316.73126 424.94272 316.73126Q425.6771 316.73126 426.16147 316.02814Q426.66147 315.325 426.66147 313.21564Q426.66147 311.09064 426.16147 310.40314Q425.6771 309.7 424.9271 309.7Q424.20834 309.7 423.77084 310.3094Q423.22397 311.09064 423.22397 313.21564ZM429.14584 313.21564Q429.14584 311.6844 429.45834 310.7625Q429.77084 309.825 430.38022 309.325Q431.00522 308.825 431.94272 308.825Q432.63022 308.825 433.14584 309.10626Q433.6771 309.3875 434.02084 309.91876Q434.3646 310.4344 434.5521 311.1844Q434.7396 311.9344 434.7396 313.21564Q434.7396 314.73126 434.4271 315.65314Q434.13022 316.575 433.50522 317.09064Q432.89584 317.59064 431.94272 317.59064Q430.70834 317.59064 429.9896 316.7Q429.14584 315.6375 429.14584 313.21564ZM430.22397 313.21564Q430.22397 315.325 430.72397 316.02814Q431.22397 316.73126 431.94272 316.73126Q432.6771 316.73126 433.16147 316.02814Q433.66147 315.325 433.66147 313.21564Q433.66147 311.09064 433.16147 310.40314Q432.6771 309.7 431.9271 309.7Q431.20834 309.7 430.77084 310.3094Q430.22397 311.09064 430.22397 313.21564Z" fill-rule="nonzero"/><path fill="#000000" d="M530.76044 317.45L529.71356 317.45L529.71356 310.73126Q529.32294 311.09064 528.69794 311.46564Q528.08856 311.825 527.6042 311.9969L527.6042 310.98126Q528.4792 310.5594 529.13544 309.98126Q529.8073 309.3875 530.08856 308.825L530.76044 308.825L530.76044 317.45ZM539.33856 316.4344L539.33856 317.45L533.65106 317.45Q533.65106 317.075 533.77606 316.71564Q533.9948 316.1375 534.46356 315.575Q534.94794 315.0125 535.8542 314.27814Q537.26044 313.1219 537.7448 312.45Q538.2448 311.77814 538.2448 311.1844Q538.2448 310.5594 537.7917 310.1375Q537.33856 309.7 536.6198 309.7Q535.8542 309.7 535.40106 310.15314Q534.94794 310.60626 534.9323 311.41876L533.8542 311.3094Q533.96356 310.09064 534.6823 309.46564Q535.4167 308.825 536.65106 308.825Q537.88544 308.825 538.6042 309.5125Q539.32294 310.2 539.32294 311.21564Q539.32294 311.73126 539.1042 312.23126Q538.90106 312.71564 538.40106 313.27814Q537.9167 313.825 536.7917 314.77814Q535.83856 315.575 535.5573 315.8719Q535.2917 316.15314 535.1198 316.4344L539.33856 316.4344ZM540.7917 313.21564Q540.7917 311.6844 541.1042 310.7625Q541.4167 309.825 542.02606 309.325Q542.65106 308.825 543.58856 308.825Q544.27606 308.825 544.7917 309.10626Q545.32294 309.3875 545.6667 309.91876Q546.01044 310.4344 546.19794 311.1844Q546.38544 311.9344 546.38544 313.21564Q546.38544 314.73126 546.07294 315.65314Q545.77606 316.575 545.15106 317.09064Q544.5417 317.59064 543.58856 317.59064Q542.3542 317.59064 541.63544 316.7Q540.7917 315.6375 540.7917 313.21564ZM541.8698 313.21564Q541.8698 315.325 542.3698 316.02814Q542.8698 316.73126 543.58856 316.73126Q544.32294 316.73126 544.8073 316.02814Q545.3073 315.325 545.3073 313.21564Q545.3073 311.09064 544.8073 310.40314Q544.32294 309.7 543.57294 309.7Q542.8542 309.7 542.4167 310.3094Q541.8698 311.09064 541.8698 313.21564Z" fill-rule="nonzero"/><path stroke="#4285f4" stroke-width="4.0" stroke-linecap="butt" d="M211.0 61.916668L223.0 61.916668" fill-rule="nonzero"/><path fill="#1a1a1a" d="M230.98438 65.916664L234.28125 57.322914L235.5 57.322914L239.01562 65.916664L237.73438 65.916664L236.71875 63.30729L233.14062 63.30729L232.1875 65.916664L230.98438 65.916664ZM233.46875 62.385414L236.375 62.385414L235.48438 60.010414Q235.0625 58.93229 234.875 58.229164Q234.70312 59.05729 234.40625 59.86979L233.46875 62.385414ZM243.82812 65.916664L243.82812 65.135414Q243.23438 66.05729 242.09375 66.05729Q241.34375 66.05729 240.71875 65.65104Q240.09375 65.229164 239.75 64.49479Q239.40625 63.760414 239.40625 62.80729Q239.40625 61.885414 239.71875 61.11979Q240.03125 60.354164 240.65625 59.96354Q241.28125 59.55729 242.04688 59.55729Q242.60938 59.55729 243.04688 59.791664Q243.48438 60.02604 243.76562 60.40104L243.76562 57.322914L244.8125 57.322914L244.8125 65.916664L243.82812 65.916664ZM240.5 62.80729Q240.5 64.010414 241.0 64.604164Q241.5 65.18229 242.1875 65.18229Q242.875 65.18229 243.35938 64.61979Q243.84375 64.05729 243.84375 62.90104Q243.84375 61.61979 243.34375 61.02604Q242.85938 60.43229 242.14062 60.43229Q241.4375 60.43229 240.96875 61.010414Q240.5 61.572914 240.5 62.80729ZM250.85938 65.15104Q250.26562 65.65104 249.71875 65.854164Q249.1875 66.05729 248.5625 66.05729Q247.53125 66.05729 246.98438 65.55729Q246.4375 65.05729 246.4375 64.27604Q246.4375 63.822914 246.64062 63.447914Q246.84375 63.05729 247.1875 62.83854Q247.53125 62.604164 247.95312 62.49479Q248.25 62.40104 248.89062 62.322914Q250.15625 62.18229 250.76562 61.96354Q250.76562 61.74479 250.76562 61.697914Q250.76562 61.041664 250.46875 60.77604Q250.0625 60.43229 249.26562 60.43229Q248.53125 60.43229 248.17188 60.697914Q247.8125 60.947914 247.64062 61.604164L246.60938 61.46354Q246.75 60.80729 247.07812 60.40104Q247.40625 59.99479 248.01562 59.77604Q248.625 59.55729 249.42188 59.55729Q250.21875 59.55729 250.71875 59.74479Q251.21875 59.93229 251.45312 60.21354Q251.6875 60.49479 251.78125 60.93229Q251.82812 61.197914 251.82812 61.90104L251.82812 63.30729Q251.82812 64.77604 251.89062 65.166664Q251.96875 65.55729 252.17188 65.916664L251.0625 65.916664Q250.90625 65.58854 250.85938 65.15104ZM250.76562 62.791664Q250.1875 63.02604 249.04688 63.197914Q248.39062 63.291664 248.125 63.416664Q247.85938 63.52604 247.70312 63.74479Q247.5625 63.96354 247.5625 64.24479Q247.5625 64.666664 247.875 64.947914Q248.20312 65.229164 248.8125 65.229164Q249.42188 65.229164 249.89062 64.96354Q250.375 64.697914 250.59375 64.229164Q250.76562 63.86979 250.76562 63.18229L250.76562 62.791664ZM253.79688 68.30729L253.79688 59.697914L254.75 59.697914L254.75 60.49479Q255.09375 60.02604 255.51562 59.791664Q255.95312 59.55729 256.5625 59.55729Q257.35938 59.55729 257.96875 59.96354Q258.57812 60.36979 258.875 61.11979Q259.1875 61.86979 259.1875 62.760414Q259.1875 63.71354 258.84375 64.479164Q258.51562 65.24479 257.85938 65.65104Q257.20312 66.05729 256.48438 66.05729Q255.95312 66.05729 255.53125 65.83854Q255.10938 65.604164 254.84375 65.27604L254.84375 68.30729L253.79688 68.30729ZM254.75 62.83854Q254.75 64.041664 255.23438 64.61979Q255.71875 65.18229 256.40625 65.18229Q257.10938 65.18229 257.60938 64.58854Q258.10938 63.99479 258.10938 62.74479Q258.10938 61.55729 257.625 60.979164Q257.14062 60.385414 256.45312 60.385414Q255.78125 60.385414 255.26562 61.010414Q254.75 61.635414 254.75 62.83854ZM263.09375 64.979164L263.25 65.90104Q262.79688 65.99479 262.45312 65.99479Q261.875 65.99479 261.5625 65.822914Q261.25 65.635414 261.10938 65.33854Q260.98438 65.041664 260.98438 64.08854L260.98438 60.510414L260.21875 60.510414L260.21875 59.697914L260.98438 59.697914L260.98438 58.15104L262.03125 57.52604L262.03125 59.697914L263.09375 59.697914L263.09375 60.510414L262.03125 60.510414L262.03125 64.15104Q262.03125 64.604164 262.07812 64.729164Q262.14062 64.854164 262.26562 64.93229Q262.39062 65.010414 262.625 65.010414Q262.8125 65.010414 263.09375 64.979164ZM263.79688 58.541664L263.79688 57.322914L264.85938 57.322914L264.85938 58.541664L263.79688 58.541664ZM263.79688 65.916664L263.79688 59.697914L264.85938 59.697914L264.85938 65.916664L263.79688 65.916664ZM268.51562 65.916664L266.15625 59.697914L267.26562 59.697914L268.60938 63.416664Q268.8125 64.02604 269.0 64.666664Q269.14062 64.18229 269.39062 63.49479L270.78125 59.697914L271.85938 59.697914L269.5 65.916664L268.51562 65.916664ZM277.04688 63.916664L278.14062 64.041664Q277.89062 64.99479 277.1875 65.52604Q276.48438 66.05729 275.40625 66.05729Q274.04688 66.05729 273.23438 65.21354Q272.4375 64.36979 272.4375 62.854164Q272.4375 61.291664 273.25 60.43229Q274.0625 59.55729 275.34375 59.55729Q276.59375 59.55729 277.375 60.40104Q278.17188 61.24479 278.17188 62.791664Q278.17188 62.885414 278.17188 63.072914L273.53125 63.072914Q273.59375 64.104164 274.10938 64.65104Q274.625 65.18229 275.40625 65.18229Q275.98438 65.18229 276.39062 64.885414Q276.8125 64.572914 277.04688 63.916664ZM273.59375 62.21354L277.0625 62.21354Q277.0 61.416664 276.67188 61.02604Q276.15625 60.416664 275.35938 60.416664Q274.625 60.416664 274.125 60.90104Q273.64062 61.385414 273.59375 62.21354Z" fill-rule="nonzero"/><path stroke="#ea4335" stroke-width="4.0" stroke-linecap="butt" d="M295.0 61.916668L307.0 61.916668" fill-rule="nonzero"/><path fill="#1a1a1a" d="M315.92188 65.916664L315.92188 57.322914L317.07812 57.322914L321.59375 64.072914L321.59375 57.322914L322.6875 57.322914L322.6875 65.916664L321.51562 65.916664L317.0 59.166664L317.0 65.916664L315.92188 65.916664ZM324.40625 62.80729Q324.40625 61.072914 325.35938 60.24479Q326.15625 59.55729 327.3125 59.55729Q328.59375 59.55729 329.40625 60.40104Q330.23438 61.229164 330.23438 62.71354Q330.23438 63.916664 329.875 64.604164Q329.51562 65.291664 328.8125 65.68229Q328.125 66.05729 327.3125 66.05729Q326.01562 66.05729 325.20312 65.229164Q324.40625 64.385414 324.40625 62.80729ZM325.48438 62.80729Q325.48438 63.99479 326.0 64.58854Q326.53125 65.18229 327.3125 65.18229Q328.10938 65.18229 328.625 64.58854Q329.14062 63.99479 329.14062 62.77604Q329.14062 61.61979 328.60938 61.02604Q328.09375 60.43229 327.3125 60.43229Q326.53125 60.43229 326.0 61.02604Q325.48438 61.604164 325.48438 62.80729ZM331.79688 65.916664L331.79688 59.697914L332.73438 59.697914L332.73438 60.572914Q333.42188 59.55729 334.71875 59.55729Q335.28125 59.55729 335.75 59.760414Q336.23438 59.96354 336.46875 60.291664Q336.70312 60.61979 336.79688 61.05729Q336.84375 61.354164 336.84375 62.08854L336.84375 65.916664L335.79688 65.916664L335.79688 62.135414Q335.79688 61.479164 335.67188 61.166664Q335.54688 60.854164 335.23438 60.666664Q334.92188 60.46354 334.5 60.46354Q333.82812 60.46354 333.32812 60.90104Q332.84375 61.322914 332.84375 62.510414L332.84375 65.916664L331.79688 65.916664ZM340.98438 65.916664L344.28125 57.322914L345.5 57.322914L349.01562 65.916664L347.73438 65.916664L346.71875 63.30729L343.14062 63.30729L342.1875 65.916664L340.98438 65.916664ZM343.46875 62.385414L346.375 62.385414L345.48438 60.010414Q345.0625 58.93229 344.875 58.229164Q344.70312 59.05729 344.40625 59.86979L343.46875 62.385414ZM353.82812 65.916664L353.82812 65.135414Q353.23438 66.05729 352.09375 66.05729Q351.34375 66.05729 350.71875 65.65104Q350.09375 65.229164 349.75 64.49479Q349.40625 63.760414 349.40625 62.80729Q349.40625 61.885414 349.71875 61.11979Q350.03125 60.354164 350.65625 59.96354Q351.28125 59.55729 352.04688 59.55729Q352.60938 59.55729 353.04688 59.791664Q353.48438 60.02604 353.76562 60.40104L353.76562 57.322914L354.8125 57.322914L354.8125 65.916664L353.82812 65.916664ZM350.5 62.80729Q350.5 64.010414 351.0 64.604164Q351.5 65.18229 352.1875 65.18229Q352.875 65.18229 353.35938 64.61979Q353.84375 64.05729 353.84375 62.90104Q353.84375 61.61979 353.34375 61.02604Q352.85938 60.43229 352.14062 60.43229Q351.4375 60.43229 350.96875 61.010414Q350.5 61.572914 350.5 62.80729ZM360.85938 65.15104Q360.26562 65.65104 359.71875 65.854164Q359.1875 66.05729 358.5625 66.05729Q357.53125 66.05729 356.98438 65.55729Q356.4375 65.05729 356.4375 64.27604Q356.4375 63.822914 356.64062 63.447914Q356.84375 63.05729 357.1875 62.83854Q357.53125 62.604164 357.95312 62.49479Q358.25 62.40104 358.89062 62.322914Q360.15625 62.18229 360.76562 61.96354Q360.76562 61.74479 360.76562 61.697914Q360.76562 61.041664 360.46875 60.77604Q360.0625 60.43229 359.26562 60.43229Q358.53125 60.43229 358.17188 60.697914Q357.8125 60.947914 357.64062 61.604164L356.60938 61.46354Q356.75 60.80729 357.07812 60.40104Q357.40625 59.99479 358.01562 59.77604Q358.625 59.55729 359.42188 59.55729Q360.21875 59.55729 360.71875 59.74479Q361.21875 59.93229 361.45312 60.21354Q361.6875 60.49479 361.78125 60.93229Q361.82812 61.197914 361.82812 61.90104L361.82812 63.30729Q361.82812 64.77604 361.89062 65.166664Q361.96875 65.55729 362.17188 65.916664L361.0625 65.916664Q360.90625 65.58854 360.85938 65.15104ZM360.76562 62.791664Q360.1875 63.02604 359.04688 63.197914Q358.39062 63.291664 358.125 63.416664Q357.85938 63.52604 357.70312 63.74479Q357.5625 63.96354 357.5625 64.24479Q357.5625 64.666664 357.875 64.947914Q358.20312 65.229164 358.8125 65.229164Q359.42188 65.229164 359.89062 64.96354Q360.375 64.697914 360.59375 64.229164Q360.76562 63.86979 360.76562 63.18229L360.76562 62.791664ZM363.79688 68.30729L363.79688 59.697914L364.75 59.697914L364.75 60.49479Q365.09375 60.02604 365.51562 59.791664Q365.95312 59.55729 366.5625 59.55729Q367.35938 59.55729 367.96875 59.96354Q368.57812 60.36979 368.875 61.11979Q369.1875 61.86979 369.1875 62.760414Q369.1875 63.71354 368.84375 64.479164Q368.51562 65.24479 367.85938 65.65104Q367.20312 66.05729 366.48438 66.05729Q365.95312 66.05729 365.53125 65.83854Q365.10938 65.604164 364.84375 65.27604L364.84375 68.30729L363.79688 68.30729ZM364.75 62.83854Q364.75 64.041664 365.23438 64.61979Q365.71875 65.18229 366.40625 65.18229Q367.10938 65.18229 367.60938 64.58854Q368.10938 63.99479 368.10938 62.74479Q368.10938 61.55729 367.625 60.979164Q367.14062 60.385414 366.45312 60.385414Q365.78125 60.385414 365.26562 61.010414Q364.75 61.635414 364.75 62.83854ZM373.09375 64.979164L373.25 65.90104Q372.79688 65.99479 372.45312 65.99479Q371.875 65.99479 371.5625 65.822914Q371.25 65.635414 371.10938 65.33854Q370.98438 65.041664 370.98438 64.08854L370.98438 60.510414L370.21875 60.510414L370.21875 59.697914L370.98438 59.697914L370.98438 58.15104L372.03125 57.52604L372.03125 59.697914L373.09375 59.697914L373.09375 60.510414L372.03125 60.510414L372.03125 64.15104Q372.03125 64.604164 372.07812 64.729164Q372.14062 64.854164 372.26562 64.93229Q372.39062 65.010414 372.625 65.010414Q372.8125 65.010414 373.09375 64.979164ZM373.79688 58.541664L373.79688 57.322914L374.85938 57.322914L374.85938 58.541664L373.79688 58.541664ZM373.79688 65.916664L373.79688 59.697914L374.85938 59.697914L374.85938 65.916664L373.79688 65.916664ZM378.51562 65.916664L376.15625 59.697914L377.26562 59.697914L378.60938 63.416664Q378.8125 64.02604 379.0 64.666664Q379.14062 64.18229 379.39062 63.49479L380.78125 59.697914L381.85938 59.697914L379.5 65.916664L378.51562 65.916664ZM387.04688 63.916664L388.14062 64.041664Q387.89062 64.99479 387.1875 65.52604Q386.48438 66.05729 385.40625 66.05729Q384.04688 66.05729 383.23438 65.21354Q382.4375 64.36979 382.4375 62.854164Q382.4375 61.291664 383.25 60.43229Q384.0625 59.55729 385.34375 59.55729Q386.59375 59.55729 387.375 60.40104Q388.17188 61.24479 388.17188 62.791664Q388.17188 62.885414 388.17188 63.072914L383.53125 63.072914Q383.59375 64.104164 384.10938 64.65104Q384.625 65.18229 385.40625 65.18229Q385.98438 65.18229 386.39062 64.885414Q386.8125 64.572914 387.04688 63.916664ZM383.59375 62.21354L387.0625 62.21354Q387.0 61.416664 386.67188 61.02604Q386.15625 60.416664 385.35938 60.416664Q384.625 60.416664 384.125 60.90104Q383.64062 61.385414 383.59375 62.21354Z" fill-rule="nonzero"/><path fill="#757575" d="M20.096874 37.55L20.096874 23.2375L25.4875 23.2375Q26.925 23.2375 27.675 23.3625Q28.721874 23.55 29.440624 24.05Q30.159374 24.534374 30.58125 25.425Q31.01875 26.315624 31.01875 27.378124Q31.01875 29.20625 29.846874 30.471874Q28.690624 31.721874 25.659374 31.721874L21.9875 31.721874L21.9875 37.55L20.096874 37.55ZM21.9875 30.034374L25.690624 30.034374Q27.51875 30.034374 28.284374 29.3625Q29.065624 28.675 29.065624 27.425Q29.065624 26.534374 28.6125 25.89375Q28.159374 25.253124 27.425 25.05Q26.940624 24.925 25.64375 24.925L21.9875 24.925L21.9875 30.034374ZM39.971874 34.20625L41.784374 34.440624Q41.3625 36.01875 40.190624 36.909374Q39.034374 37.784374 37.221874 37.784374Q34.95625 37.784374 33.6125 36.39375Q32.284374 34.9875 32.284374 32.45625Q32.284374 29.83125 33.628124 28.39375Q34.971874 26.940624 37.128124 26.940624Q39.20625 26.940624 40.51875 28.3625Q41.846874 29.76875 41.846874 32.346874Q41.846874 32.503124 41.83125 32.815624L34.096874 32.815624Q34.190624 34.51875 35.065624 35.425Q35.940624 36.33125 37.2375 36.33125Q38.20625 36.33125 38.878124 35.83125Q39.565624 35.315624 39.971874 34.20625ZM34.190624 31.3625L39.9875 31.3625Q39.878124 30.065624 39.33125 29.409374Q38.4875 28.39375 37.14375 28.39375Q35.940624 28.39375 35.1125 29.20625Q34.284374 30.003124 34.190624 31.3625ZM43.846874 37.55L43.846874 27.175L45.425 27.175L45.425 28.753124Q46.034374 27.64375 46.55 27.3Q47.065624 26.940624 47.675 26.940624Q48.565624 26.940624 49.4875 27.503124L48.878124 29.14375Q48.2375 28.753124 47.596874 28.753124Q47.01875 28.753124 46.55 29.1125Q46.096874 29.45625 45.89375 30.065624Q45.6125 31.003124 45.6125 32.1125L45.6125 37.55L43.846874 37.55ZM57.128124 37.55L57.128124 23.2375L63.471874 23.2375Q65.37813 23.2375 66.37813 23.628124Q67.37813 24.003124 67.97188 24.9875Q68.56563 25.95625 68.56563 27.14375Q68.56563 28.659374 67.58125 29.70625Q66.59688 30.753124 64.53438 31.034374Q65.28438 31.39375 65.675 31.753124Q66.50313 32.503124 67.25313 33.659374L69.7375 37.55L67.3625 37.55L65.45625 34.565624Q64.62813 33.284374 64.09688 32.596874Q63.565624 31.909374 63.128124 31.64375Q62.70625 31.3625 62.26875 31.253124Q61.940624 31.190624 61.221874 31.190624L59.01875 31.190624L59.01875 37.55L57.128124 37.55ZM59.01875 29.55L63.096874 29.55Q64.39375 29.55 65.1125 29.284374Q65.84688 29.01875 66.22188 28.425Q66.6125 27.83125 66.6125 27.14375Q66.6125 26.128124 65.87813 25.471874Q65.14375 24.815624 63.55 24.815624L59.01875 24.815624L59.01875 29.55ZM77.65938 37.55L77.65938 36.01875Q76.45625 37.784374 74.37813 37.784374Q73.45625 37.784374 72.65938 37.440624Q71.8625 37.08125 71.47188 36.55Q71.09688 36.01875 70.94063 35.2375Q70.83125 34.721874 70.83125 33.596874L70.83125 27.175L72.58125 27.175L72.58125 32.925Q72.58125 34.3 72.69063 34.784374Q72.8625 35.471874 73.39375 35.878124Q73.94063 36.26875 74.72188 36.26875Q75.51875 36.26875 76.20625 35.8625Q76.90938 35.45625 77.19063 34.76875Q77.4875 34.065624 77.4875 32.7375L77.4875 27.175L79.2375 27.175L79.2375 37.55L77.65938 37.55ZM81.8625 37.55L81.8625 27.175L83.45625 27.175L83.45625 28.659374Q84.59688 26.940624 86.75313 26.940624Q87.69063 26.940624 88.47188 27.284374Q89.26875 27.6125 89.65938 28.159374Q90.05 28.70625 90.20625 29.45625Q90.3 29.95625 90.3 31.175L90.3 37.55L88.53438 37.55L88.53438 31.2375Q88.53438 30.159374 88.33125 29.628124Q88.12813 29.096874 87.59688 28.784374Q87.08125 28.471874 86.37813 28.471874Q85.25313 28.471874 84.44063 29.190624Q83.62813 29.89375 83.62813 31.878124L83.62813 37.55L81.8625 37.55ZM97.51875 37.55L103.01875 23.2375L105.06563 23.2375L110.925 37.55L108.76875 37.55L107.09688 33.20625L101.1125 33.20625L99.53438 37.55L97.51875 37.55ZM101.65938 31.675L106.50313 31.675L105.01875 27.70625Q104.33125 25.89375 104.00313 24.7375Q103.72188 26.1125 103.22188 27.471874L101.65938 31.675ZM118.59688 37.55L118.59688 36.2375Q117.6125 37.784374 115.69063 37.784374Q114.45625 37.784374 113.40938 37.096874Q112.37813 36.409374 111.8 35.190624Q111.2375 33.971874 111.2375 32.378124Q111.2375 30.815624 111.75313 29.55Q112.26875 28.284374 113.3 27.6125Q114.34688 26.940624 115.6125 26.940624Q116.55 26.940624 117.28438 27.346874Q118.01875 27.7375 118.4875 28.3625L118.4875 23.2375L120.22188 23.2375L120.22188 37.55L118.59688 37.55ZM113.03438 32.378124Q113.03438 34.3625 113.87813 35.346874Q114.72188 36.33125 115.8625 36.33125Q117.01875 36.33125 117.81563 35.39375Q118.62813 34.45625 118.62813 32.51875Q118.62813 30.39375 117.8 29.39375Q116.9875 28.39375 115.78438 28.39375Q114.6125 28.39375 113.81563 29.3625Q113.03438 30.315624 113.03438 32.378124ZM129.64375 36.26875Q128.65938 37.096874 127.75313 37.440624Q126.84688 37.784374 125.81563 37.784374Q124.1125 37.784374 123.19063 36.95625Q122.26875 36.1125 122.26875 34.815624Q122.26875 34.05 122.6125 33.425Q122.97188 32.8 123.53438 32.425Q124.09688 32.034374 124.8 31.83125Q125.31563 31.70625 126.3625 31.565624Q128.4875 31.315624 129.4875 30.971874Q129.50313 30.6125 129.50313 30.503124Q129.50313 29.440624 129.00313 28.9875Q128.33125 28.39375 127.00313 28.39375Q125.75313 28.39375 125.15938 28.83125Q124.58125 29.26875 124.3 30.378124L122.58125 30.14375Q122.81563 29.034374 123.34688 28.3625Q123.87813 27.675 124.89375 27.315624Q125.90938 26.940624 127.25313 26.940624Q128.58125 26.940624 129.40938 27.253124Q130.2375 27.565624 130.62813 28.05Q131.01875 28.51875 131.175 29.2375Q131.26875 29.690624 131.26875 30.8625L131.26875 33.20625Q131.26875 35.659374 131.37813 36.315624Q131.4875 36.95625 131.83125 37.55L129.9875 37.55Q129.72188 37.003124 129.64375 36.26875ZM129.4875 32.346874Q128.53438 32.7375 126.6125 33.003124Q125.53438 33.159374 125.08125 33.3625Q124.64375 33.55 124.39375 33.925Q124.14375 34.3 124.14375 34.76875Q124.14375 35.471874 124.675 35.940624Q125.20625 36.409374 126.2375 36.409374Q127.25313 36.409374 128.03438 35.971874Q128.83125 35.51875 129.20625 34.753124Q129.4875 34.14375 129.4875 32.9875L129.4875 32.346874ZM133.8625 41.51875L133.8625 27.175L135.47188 27.175L135.47188 28.51875Q136.03438 27.7375 136.7375 27.346874Q137.45625 26.940624 138.47188 26.940624Q139.8 26.940624 140.81563 27.628124Q141.83125 28.315624 142.34688 29.565624Q142.87813 30.8 142.87813 32.284374Q142.87813 33.878124 142.3 35.159374Q141.7375 36.425 140.64375 37.1125Q139.55 37.784374 138.34688 37.784374Q137.47188 37.784374 136.76875 37.409374Q136.08125 37.034374 135.62813 36.471874L135.62813 41.51875L133.8625 41.51875ZM135.45625 32.425Q135.45625 34.425 136.26875 35.378124Q137.08125 36.33125 138.2375 36.33125Q139.40938 36.33125 140.2375 35.346874Q141.08125 34.3625 141.08125 32.26875Q141.08125 30.3 140.25313 29.315624Q139.44063 28.315624 138.31563 28.315624Q137.19063 28.315624 136.31563 29.378124Q135.45625 30.425 135.45625 32.425ZM148.70625 35.971874L148.95625 37.534374Q148.22188 37.690624 147.62813 37.690624Q146.675 37.690624 146.14375 37.39375Q145.62813 37.08125 145.40938 36.596874Q145.19063 36.096874 145.19063 34.51875L145.19063 28.55L143.90938 28.55L143.90938 27.175L145.19063 27.175L145.19063 24.6125L146.94063 23.55L146.94063 27.175L148.70625 27.175L148.70625 28.55L146.94063 28.55L146.94063 34.6125Q146.94063 35.3625 147.03438 35.58125Q147.12813 35.784374 147.33125 35.925Q147.55 36.05 147.94063 36.05Q148.22188 36.05 148.70625 35.971874ZM150.87813 25.253124L150.87813 23.2375L152.64375 23.2375L152.64375 25.253124L150.87813 25.253124ZM150.87813 37.55L150.87813 27.175L152.64375 27.175L152.64375 37.55L150.87813 37.55ZM157.75313 37.55L153.8 27.175L155.65938 27.175L157.89375 33.39375Q158.25313 34.39375 158.55 35.471874Q158.78438 34.659374 159.20625 33.503124L161.50313 27.175L163.31563 27.175L159.39375 37.55L157.75313 37.55ZM171.97188 34.20625L173.78438 34.440624Q173.3625 36.01875 172.19063 36.909374Q171.03438 37.784374 169.22188 37.784374Q166.95625 37.784374 165.6125 36.39375Q164.28438 34.9875 164.28438 32.45625Q164.28438 29.83125 165.62813 28.39375Q166.97188 26.940624 169.12813 26.940624Q171.20625 26.940624 172.51875 28.3625Q173.84688 29.76875 173.84688 32.346874Q173.84688 32.503124 173.83125 32.815624L166.09688 32.815624Q166.19063 34.51875 167.06563 35.425Q167.94063 36.33125 169.2375 36.33125Q170.20625 36.33125 170.87813 35.83125Q171.56563 35.315624 171.97188 34.20625ZM166.19063 31.3625L171.9875 31.3625Q171.87813 30.065624 171.33125 29.409374Q170.4875 28.39375 169.14375 28.39375Q167.94063 28.39375 167.1125 29.20625Q166.28438 30.003124 166.19063 31.3625ZM188.64375 36.26875Q187.65938 37.096874 186.75313 37.440624Q185.84688 37.784374 184.81563 37.784374Q183.1125 37.784374 182.19063 36.95625Q181.26875 36.1125 181.26875 34.815624Q181.26875 34.05 181.6125 33.425Q181.97188 32.8 182.53438 32.425Q183.09688 32.034374 183.8 31.83125Q184.31563 31.70625 185.3625 31.565624Q187.4875 31.315624 188.4875 30.971874Q188.50313 30.6125 188.50313 30.503124Q188.50313 29.440624 188.00313 28.9875Q187.33125 28.39375 186.00313 28.39375Q184.75313 28.39375 184.15938 28.83125Q183.58125 29.26875 183.3 30.378124L181.58125 30.14375Q181.81563 29.034374 182.34688 28.3625Q182.87813 27.675 183.89375 27.315624Q184.90938 26.940624 186.25313 26.940624Q187.58125 26.940624 188.40938 27.253124Q189.2375 27.565624 189.62813 28.05Q190.01875 28.51875 190.175 29.2375Q190.26875 29.690624 190.26875 30.8625L190.26875 33.20625Q190.26875 35.659374 190.37813 36.315624Q190.4875 36.95625 190.83125 37.55L188.9875 37.55Q188.72188 37.003124 188.64375 36.26875ZM188.4875 32.346874Q187.53438 32.7375 185.6125 33.003124Q184.53438 33.159374 184.08125 33.3625Q183.64375 33.55 183.39375 33.925Q183.14375 34.3 183.14375 34.76875Q183.14375 35.471874 183.675 35.940624Q184.20625 36.409374 185.2375 36.409374Q186.25313 36.409374 187.03438 35.971874Q187.83125 35.51875 188.20625 34.753124Q188.4875 34.14375 188.4875 32.9875L188.4875 32.346874ZM192.8625 37.55L192.8625 27.175L194.45625 27.175L194.45625 28.659374Q195.59688 26.940624 197.75313 26.940624Q198.69063 26.940624 199.47188 27.284374Q200.26875 27.6125 200.65938 28.159374Q201.05 28.70625 201.20625 29.45625Q201.3 29.95625 201.3 31.175L201.3 37.55L199.53438 37.55L199.53438 31.2375Q199.53438 30.159374 199.33125 29.628124Q199.12813 29.096874 198.59688 28.784374Q198.08125 28.471874 197.37813 28.471874Q196.25313 28.471874 195.44063 29.190624Q194.62813 29.89375 194.62813 31.878124L194.62813 37.55L192.8625 37.55ZM210.59688 37.55L210.59688 36.2375Q209.6125 37.784374 207.69063 37.784374Q206.45625 37.784374 205.40938 37.096874Q204.37813 36.409374 203.8 35.190624Q203.2375 33.971874 203.2375 32.378124Q203.2375 30.815624 203.75313 29.55Q204.26875 28.284374 205.3 27.6125Q206.34688 26.940624 207.6125 26.940624Q208.55 26.940624 209.28438 27.346874Q210.01875 27.7375 210.4875 28.3625L210.4875 23.2375L212.22188 23.2375L212.22188 37.55L210.59688 37.55ZM205.03438 32.378124Q205.03438 34.3625 205.87813 35.346874Q206.72188 36.33125 207.8625 36.33125Q209.01875 36.33125 209.81563 35.39375Q210.62813 34.45625 210.62813 32.51875Q210.62813 30.39375 209.8 29.39375Q208.9875 28.39375 207.78438 28.39375Q206.6125 28.39375 205.81563 29.3625Q205.03438 30.315624 205.03438 32.378124ZM221.08125 37.55L221.08125 23.2375L223.01875 23.2375L230.53438 34.471874L230.53438 23.2375L232.34688 23.2375L232.34688 37.55L230.40938 37.55L222.89375 26.3L222.89375 37.55L221.08125 37.55ZM234.22188 32.3625Q234.22188 29.4875 235.81563 28.096874Q237.15938 26.940624 239.08125 26.940624Q241.22188 26.940624 242.56563 28.346874Q243.925 29.753124 243.925 32.221874Q243.925 34.221874 243.33125 35.378124Q242.7375 36.51875 241.58125 37.159374Q240.44063 37.784374 239.08125 37.784374Q236.89375 37.784374 235.55 36.39375Q234.22188 34.9875 234.22188 32.3625ZM236.01875 32.3625Q236.01875 34.3625 236.87813 35.346874Q237.75313 36.33125 239.08125 36.33125Q240.39375 36.33125 241.25313 35.346874Q242.12813 34.346874 242.12813 32.3Q242.12813 30.378124 241.25313 29.39375Q240.37813 28.39375 239.08125 28.39375Q237.75313 28.39375 236.87813 29.39375Q236.01875 30.378124 236.01875 32.3625ZM245.8625 37.55L245.8625 27.175L247.45625 27.175L247.45625 28.659374Q248.59688 26.940624 250.75313 26.940624Q251.69063 26.940624 252.47188 27.284374Q253.26875 27.6125 253.65938 28.159374Q254.05 28.70625 254.20625 29.45625Q254.3 29.95625 254.3 31.175L254.3 37.55L252.53438 37.55L252.53438 31.2375Q252.53438 30.159374 252.33125 29.628124Q252.12813 29.096874 251.59688 28.784374Q251.08125 28.471874 250.37813 28.471874Q249.25313 28.471874 248.44063 29.190624Q247.62813 29.89375 247.62813 31.878124L247.62813 37.55L245.8625 37.55ZM261.51874 37.55L267.01874 23.2375L269.0656 23.2375L274.925 37.55L272.76874 37.55L271.09686 33.20625L265.1125 33.20625L263.53436 37.55L261.51874 37.55ZM265.65936 31.675L270.5031 31.675L269.01874 27.70625Q268.33124 25.89375 268.0031 24.7375Q267.72186 26.1125 267.22186 27.471874L265.65936 31.675ZM282.59686 37.55L282.59686 36.2375Q281.6125 37.784374 279.6906 37.784374Q278.45624 37.784374 277.40936 37.096874Q276.3781 36.409374 275.8 35.190624Q275.2375 33.971874 275.2375 32.378124Q275.2375 30.815624 275.7531 29.55Q276.26874 28.284374 277.3 27.6125Q278.34686 26.940624 279.6125 26.940624Q280.55 26.940624 281.28436 27.346874Q282.01874 27.7375 282.4875 28.3625L282.4875 23.2375L284.22186 23.2375L284.22186 37.55L282.59686 37.55ZM277.03436 32.378124Q277.03436 34.3625 277.8781 35.346874Q278.72186 36.33125 279.8625 36.33125Q281.01874 36.33125 281.8156 35.39375Q282.6281 34.45625 282.6281 32.51875Q282.6281 30.39375 281.8 29.39375Q280.9875 28.39375 279.78436 28.39375Q278.6125 28.39375 277.8156 29.3625Q277.03436 30.315624 277.03436 32.378124ZM293.64374 36.26875Q292.65936 37.096874 291.7531 37.440624Q290.84686 37.784374 289.8156 37.784374Q288.1125 37.784374 287.1906 36.95625Q286.26874 36.1125 286.26874 34.815624Q286.26874 34.05 286.6125 33.425Q286.97186 32.8 287.53436 32.425Q288.09686 32.034374 288.8 31.83125Q289.3156 31.70625 290.3625 31.565624Q292.4875 31.315624 293.4875 30.971874Q293.5031 30.6125 293.5031 30.503124Q293.5031 29.440624 293.0031 28.9875Q292.33124 28.39375 291.0031 28.39375Q289.7531 28.39375 289.15936 28.83125Q288.58124 29.26875 288.3 30.378124L286.58124 30.14375Q286.8156 29.034374 287.34686 28.3625Q287.8781 27.675 288.89374 27.315624Q289.90936 26.940624 291.2531 26.940624Q292.58124 26.940624 293.40936 27.253124Q294.2375 27.565624 294.6281 28.05Q295.01874 28.51875 295.175 29.2375Q295.26874 29.690624 295.26874 30.8625L295.26874 33.20625Q295.26874 35.659374 295.3781 36.315624Q295.4875 36.95625 295.83124 37.55L293.9875 37.55Q293.72186 37.003124 293.64374 36.26875ZM293.4875 32.346874Q292.53436 32.7375 290.6125 33.003124Q289.53436 33.159374 289.08124 33.3625Q288.64374 33.55 288.39374 33.925Q288.14374 34.3 288.14374 34.76875Q288.14374 35.471874 288.675 35.940624Q289.20624 36.409374 290.2375 36.409374Q291.2531 36.409374 292.03436 35.971874Q292.83124 35.51875 293.20624 34.753124Q293.4875 34.14375 293.4875 32.9875L293.4875 32.346874ZM297.8625 41.51875L297.8625 27.175L299.47186 27.175L299.47186 28.51875Q300.03436 27.7375 300.7375 27.346874Q301.45624 26.940624 302.47186 26.940624Q303.8 26.940624 304.8156 27.628124Q305.83124 28.315624 306.34686 29.565624Q306.8781 30.8 306.8781 32.284374Q306.8781 33.878124 306.3 35.159374Q305.7375 36.425 304.64374 37.1125Q303.55 37.784374 302.34686 37.784374Q301.47186 37.784374 300.76874 37.409374Q300.08124 37.034374 299.6281 36.471874L299.6281 41.51875L297.8625 41.51875ZM299.45624 32.425Q299.45624 34.425 300.26874 35.378124Q301.08124 36.33125 302.2375 36.33125Q303.40936 36.33125 304.2375 35.346874Q305.08124 34.3625 305.08124 32.26875Q305.08124 30.3 304.2531 29.315624Q303.4406 28.315624 302.3156 28.315624Q301.1906 28.315624 300.3156 29.378124Q299.45624 30.425 299.45624 32.425ZM312.70624 35.971874L312.95624 37.534374Q312.22186 37.690624 311.6281 37.690624Q310.675 37.690624 310.14374 37.39375Q309.6281 37.08125 309.40936 36.596874Q309.1906 36.096874 309.1906 34.51875L309.1906 28.55L307.90936 28.55L307.90936 27.175L309.1906 27.175L309.1906 24.6125L310.9406 23.55L310.9406 27.175L312.70624 27.175L312.70624 28.55L310.9406 28.55L310.9406 34.6125Q310.9406 35.3625 311.03436 35.58125Q311.1281 35.784374 311.33124 35.925Q311.55 36.05 311.9406 36.05Q312.22186 36.05 312.70624 35.971874ZM314.8781 25.253124L314.8781 23.2375L316.64374 23.2375L316.64374 25.253124L314.8781 25.253124ZM314.8781 37.55L314.8781 27.175L316.64374 27.175L316.64374 37.55L314.8781 37.55ZM321.7531 37.55L317.8 27.175L319.65936 27.175L321.89374 33.39375Q322.2531 34.39375 322.55 35.471874Q322.78436 34.659374 323.20624 33.503124L325.5031 27.175L327.3156 27.175L323.39374 37.55L321.7531 37.55ZM335.97186 34.20625L337.78436 34.440624Q337.3625 36.01875 336.1906 36.909374Q335.03436 37.784374 333.22186 37.784374Q330.95624 37.784374 329.6125 36.39375Q328.28436 34.9875 328.28436 32.45625Q328.28436 29.83125 329.6281 28.39375Q330.97186 26.940624 333.1281 26.940624Q335.20624 26.940624 336.51874 28.3625Q337.84686 29.76875 337.84686 32.346874Q337.84686 32.503124 337.83124 32.815624L330.09686 32.815624Q330.1906 34.51875 331.0656 35.425Q331.9406 36.33125 333.2375 36.33125Q334.20624 36.33125 334.8781 35.83125Q335.5656 35.315624 335.97186 34.20625ZM330.1906 31.3625L335.9875 31.3625Q335.8781 30.065624 335.33124 29.409374Q334.4875 28.39375 333.14374 28.39375Q331.9406 28.39375 331.1125 29.20625Q330.28436 30.003124 330.1906 31.3625Z" fill-rule="nonzero"/></svg>