<svg version="1.1" viewBox="0.0 0.0 600.0 371.0" fill="none" stroke="none" stroke-linecap="square" stroke-miterlimit="10" width="600" height="371" xmlns:xlink="http://www.w3.org/1999/xlink" xmlns="http://www.w3.org/2000/svg"><path fill="#ffffff" d="M0 0L600.0 0L600.0 371.0L0 371.0L0 0Z" fill-rule="nonzero"/><path stroke="#cccccc" stroke-width="1.0" stroke-linecap="butt" d="M133.5 88.5L133.5 300.5" fill-rule="nonzero"/><path stroke="#cccccc" stroke-width="1.0" stroke-linecap="butt" d="M242.5 88.5L242.5 300.5" fill-rule="nonzero"/><path stroke="#cccccc" stroke-width="1.0" stroke-linecap="butt" d="M350.5 88.5L350.5 300.5" fill-rule="nonzero"/><path stroke="#cccccc" stroke-width="1.0" stroke-linecap="butt" d="M459.5 88.5L459.5 300.5" fill-rule="nonzero"/><path stroke="#cccccc" stroke-width="1.0" stroke-linecap="butt" d="M568.5 88.5L568.5 300.5" fill-rule="nonzero"/><path stroke="#333333" stroke-width="1.0" stroke-linecap="butt" d="M59.5 300.5L581.5 300.5" fill-rule="nonzero"/><path stroke="#cccccc" stroke-width="1.0" stroke-linecap="butt" d="M59.5 247.5L581.5 247.5" fill-rule="nonzero"/><path stroke="#cccccc" stroke-width="1.0" stroke-linecap="butt" d="M59.5 194.5L581.5 194.5" fill-rule="nonzero"/><path stroke="#cccccc" stroke-width="1.0" stroke-linecap="butt" d="M59.5 141.5L581.5 141.5" fill-rule="nonzero"/><path stroke="#cccccc" stroke-width="1.0" stroke-linecap="butt" d="M59.5 88.5L581.5 88.5" fill-rule="nonzero"/><clipPath id="id_0"><path d="M59.55 88.28333L581.45 88.28333L581.45 300.45L59.55 300.45L59.55 88.28333Z" clip-rule="nonzero"/></clipPath><path stroke="#4285f4" stroke-width="2.0" stroke-linecap="butt" clip-path="url(#id_0)" d="M59.55 299.12878L94.34333 298.13467L163.93 293.28085L303.10333 272.0254L581.45 117.1764" fill-rule="nonzero"/><path stroke="#ea4335" stroke-width="2.0" stroke-linecap="butt" clip-path="url(#id_0)" d="M59.55 299.20682L94.34333 298.27637L163.93 293.78262L303.10333 272.56918L581.45 117.96099" fill-rule="nonzero"/><path fill="#000000" fill-opacity="0.0" clip-path="url(#id_0)" d="M62.55 299.12878C62.55 300.78564 61.206856 302.12878 59.55 302.12878C57.893147 302.12878 56.55 300.78564 56.55 299.12878C56.55 297.47195 57.893147 296.12878 59.55 296.12878C61.206856 296.12878 62.55 297.47195 62.55 299.12878Z" fill-rule="nonzero"/><path fill="#000000" fill-opacity="0.0" clip-path="url(#id_0)" d="M97.34333 298.13467C97.34333 299.79153 96.00019 301.13467 94.34333 301.13467C92.68648 301.13467 91.34333 299.79153 91.34333 298.13467C91.34333 296.4778 92.68648 295.13467 94.34333 295.13467C96.00019 295.13467 97.34333 296.4778 97.34333 298.13467Z" fill-rule="nonzero"/><path fill="#000000" fill-opacity="0.0" clip-path="url(#id_0)" d="M166.93 293.28085C166.93 294.9377 165.58685 296.28085 163.93 296.28085C162.27315 296.28085 160.93 294.9377 160.93 293.28085C160.93 291.624 162.27315 290.28085 163.93 290.28085C165.58685 290.28085 166.93 291.624 166.93 293.28085Z" fill-rule="nonzero"/><path fill="#000000" fill-opacity="0.0" clip-path="url(#id_0)" d="M306.10333 272.0254C306.10333 273.68225 304.7602 275.0254 303.10333 275.0254C301.44647 275.0254 300.10333 273.68225 300.10333 272.0254C300.10333 270.36853 301.44647 269.0254 303.10333 269.0254C304.7602 269.0254 306.10333 270.36853 306.10333 272.0254Z" fill-rule="nonzero"/><path fill="#000000" fill-opacity="0.0" clip-path="url(#id_0)" d="M584.45 117.1764C584.45 118.83326 583.1069 120.1764 581.45 120.1764C579.79315 120.1764 578.45 118.83326 578.45 117.1764C578.45 115.51955 579.79315 114.1764 581.45 114.1764C583.1069 114.1764 584.45 115.51955 584.45 117.1764Z" fill-rule="nonzero"/><path fill="#000000" fill-opacity="0.0" clip-path="url(#id_0)" d="M62.55 299.20682C62.55 300.86368 61.206856 302.20682 59.55 302.20682C57.893147 302.20682 56.55 300.86368 56.55 299.20682C56.55 297.54996 57.893147 296.20682 59.55 296.20682C61.206856 296.20682 62.55 297.54996 62.55 299.20682Z" fill-rule="nonzero"/><path fill="#000000" fill-opacity="0.0" clip-path="url(#id_0)" d="M97.34333 298.27637C97.34333 299.93323 96.00019 301.27637 94.34333 301.27637C92.68648 301.27637 91.34333 299.93323 91.34333 298.27637C91.34333 296.6195 92.68648 295.27637 94.34333 295.27637C96.00019 295.27637 97.34333 296.6195 97.34333 298.27637Z" fill-rule="nonzero"/><path fill="#000000" fill-opacity="0.0" clip-path="url(#id_0)" d="M166.93 293.78262C166.93 295.43948 165.58685 296.78262 163.93 296.78262C162.27315 296.78262 160.93 295.43948 160.93 293.78262C160.93 292.12576 162.27315 290.78262 163.93 290.78262C165.58685 290.78262 166.93 292.12576 166.93 293.78262Z" fill-rule="nonzero"/><path fill="#000000" fill-opacity="0.0" clip-path="url(#id_0)" d="M306.10333 272.56918C306.10333 274.22604 304.7602 275.56918 303.10333 275.56918C301.44647 275.56918 300.10333 274.22604 300.10333 272.56918C300.10333 270.91232 301.44647 269.56918 303.10333 269.56918C304.7602 269.56918 306.10333 270.91232 306.10333 272.56918Z" fill-rule="nonzero"/><path fill="#000000" fill-opacity="0.0" clip-path="url(#id_0)" d="M584.45 117.96099C584.45 119.61785 583.1069 120.96099 581.45 120.96099C579.79315 120.96099 578.45 119.61785 578.45 117.96099C578.45 116.30414 579.79315 114.96099 581.45 114.96099C583.1069 114.96099 584.45 116.30414 584.45 117.96099Z" fill-rule="nonzero"/><path fill="#000000" d="M291.39062 349.45L291.39062 340.85626L293.10938 340.85626L295.14062 346.9344Q295.42188 347.79376 295.54688 348.21564Q295.6875 347.7469 296.0 346.84064L298.0625 340.85626L299.59375 340.85626L299.59375 349.45L298.5 349.45L298.5 342.2625L296.0 349.45L294.96875 349.45L292.48438 342.1375L292.48438 349.45L291.39062 349.45ZM305.35938 348.6844Q304.76562 349.1844 304.21875 349.3875Q303.6875 349.59064 303.0625 349.59064Q302.03125 349.59064 301.48438 349.09064Q300.9375 348.59064 300.9375 347.8094Q300.9375 347.35626 301.14062 346.98126Q301.34375 346.59064 301.6875 346.3719Q302.03125 346.1375 302.45312 346.02814Q302.75 345.9344 303.39062 345.85626Q304.65625 345.71564 305.26562 345.4969Q305.26562 345.27814 305.26562 345.23126Q305.26562 344.575 304.96875 344.3094Q304.5625 343.96564 303.76562 343.96564Q303.03125 343.96564 302.67188 344.23126Q302.3125 344.48126 302.14062 345.1375L301.10938 344.9969Q301.25 344.34064 301.57812 343.9344Q301.90625 343.52814 302.51562 343.3094Q303.125 343.09064 303.92188 343.09064Q304.71875 343.09064 305.21875 343.27814Q305.71875 343.46564 305.95312 343.7469Q306.1875 344.02814 306.28125 344.46564Q306.32812 344.73126 306.32812 345.4344L306.32812 346.84064Q306.32812 348.3094 306.39062 348.7Q306.46875 349.09064 306.67188 349.45L305.5625 349.45Q305.40625 349.1219 305.35938 348.6844ZM305.26562 346.325Q304.6875 346.5594 303.54688 346.73126Q302.89062 346.825 302.625 346.95Q302.35938 347.0594 302.20312 347.27814Q302.0625 347.4969 302.0625 347.77814Q302.0625 348.2 302.375 348.48126Q302.70312 348.7625 303.3125 348.7625Q303.92188 348.7625 304.39062 348.4969Q304.875 348.23126 305.09375 347.7625Q305.26562 347.40314 305.26562 346.71564L305.26562 346.325ZM310.59375 348.5125L310.75 349.4344Q310.29688 349.52814 309.95312 349.52814Q309.375 349.52814 309.0625 349.35626Q308.75 349.16876 308.60938 348.8719Q308.48438 348.575 308.48438 347.6219L308.48438 344.04376L307.71875 344.04376L307.71875 343.23126L308.48438 343.23126L308.48438 341.6844L309.53125 341.0594L309.53125 343.23126L310.59375 343.23126L310.59375 344.04376L309.53125 344.04376L309.53125 347.6844Q309.53125 348.1375 309.57812 348.2625Q309.64062 348.3875 309.76562 348.46564Q309.89062 348.54376 310.125 348.54376Q310.3125 348.54376 310.59375 348.5125ZM311.28125 349.45L311.28125 343.23126L312.23438 343.23126L312.23438 344.16876Q312.59375 343.5125 312.89062 343.3094Q313.20312 343.09064 313.57812 343.09064Q314.10938 343.09064 314.65625 343.41876L314.29688 344.40314Q313.90625 344.16876 313.53125 344.16876Q313.17188 344.16876 312.89062 344.3875Q312.625 344.59064 312.51562 344.96564Q312.32812 345.52814 312.32812 346.1844L312.32812 349.45L311.28125 349.45ZM315.29688 342.075L315.29688 340.85626L316.35938 340.85626L316.35938 342.075L315.29688 342.075ZM315.29688 349.45L315.29688 343.23126L316.35938 343.23126L316.35938 349.45L315.29688 349.45ZM317.59375 349.45L319.85938 346.21564L317.76562 343.23126L319.07812 343.23126L320.03125 344.6844Q320.29688 345.10626 320.46875 345.3875Q320.71875 344.9969 320.9375 344.7L321.98438 343.23126L323.25 343.23126L321.09375 346.15314L323.40625 349.45L322.125 349.45L320.84375 347.5125L320.5 346.9969L318.85938 349.45L317.59375 349.45ZM327.04688 346.6844L328.10938 346.59064Q328.1875 347.2469 328.46875 347.65314Q328.75 348.0594 329.32812 348.325Q329.92188 348.575 330.65625 348.575Q331.29688 348.575 331.79688 348.3875Q332.29688 348.1844 332.53125 347.85626Q332.78125 347.5125 332.78125 347.1219Q332.78125 346.71564 332.54688 346.41876Q332.3125 346.10626 331.78125 345.90314Q331.42188 345.7625 330.23438 345.48126Q329.0625 345.2 328.59375 344.95Q327.96875 344.6219 327.67188 344.15314Q327.375 343.66876 327.375 343.075Q327.375 342.4344 327.73438 341.8719Q328.10938 341.29376 328.8125 341.0125Q329.53125 340.71564 330.39062 340.71564Q331.34375 340.71564 332.07812 341.02814Q332.8125 341.325 333.20312 341.9344Q333.59375 342.52814 333.625 343.27814L332.53125 343.35626Q332.4375 342.54376 331.92188 342.1375Q331.42188 341.71564 330.4375 341.71564Q329.40625 341.71564 328.9375 342.09064Q328.46875 342.46564 328.46875 342.9969Q328.46875 343.46564 328.79688 343.7625Q329.125 344.0594 330.5 344.3719Q331.89062 344.6844 332.40625 344.91876Q333.15625 345.27814 333.51562 345.8094Q333.875 346.325 333.875 347.02814Q333.875 347.71564 333.48438 348.325Q333.09375 348.91876 332.35938 349.2625Q331.625 349.59064 330.70312 349.59064Q329.53125 349.59064 328.73438 349.2625Q327.95312 348.91876 327.5 348.23126Q327.0625 347.54376 327.04688 346.6844ZM335.29688 342.075L335.29688 340.85626L336.35938 340.85626L336.35938 342.075L335.29688 342.075ZM335.29688 349.45L335.29688 343.23126L336.35938 343.23126L336.35938 349.45L335.29688 349.45ZM337.73438 349.45L337.73438 348.59064L341.70312 344.04376Q341.01562 344.075 340.5 344.075L337.96875 344.075L337.96875 343.23126L343.0625 343.23126L343.0625 343.91876L339.6875 347.8719L339.03125 348.59064Q339.75 348.54376 340.35938 348.54376L343.25 348.54376L343.25 349.45L337.73438 349.45ZM348.54688 347.45L349.64062 347.575Q349.39062 348.52814 348.6875 349.0594Q347.98438 349.59064 346.90625 349.59064Q345.54688 349.59064 344.73438 348.7469Q343.9375 347.90314 343.9375 346.3875Q343.9375 344.825 344.75 343.96564Q345.5625 343.09064 346.84375 343.09064Q348.09375 343.09064 348.875 343.9344Q349.67188 344.77814 349.67188 346.325Q349.67188 346.41876 349.67188 346.60626L345.03125 346.60626Q345.09375 347.6375 345.60938 348.1844Q346.125 348.71564 346.90625 348.71564Q347.48438 348.71564 347.89062 348.41876Q348.3125 348.10626 348.54688 347.45ZM345.09375 345.7469L348.5625 345.7469Q348.5 344.95 348.17188 344.5594Q347.65625 343.95 346.85938 343.95Q346.125 343.95 345.625 344.4344Q345.14062 344.91876 345.09375 345.7469Z" fill-rule="nonzero"/><path fill="#000000" d="M47.05 300.21564Q47.05 298.6844 47.3625 297.7625Q47.675 296.825 48.284374 296.325Q48.909374 295.825 49.846874 295.825Q50.534374 295.825 51.05 296.10626Q51.58125 296.3875 51.925 296.91876Q52.26875 297.4344 52.45625 298.1844Q52.64375 298.9344 52.64375 300.21564Q52.64375 301.73126 52.33125 302.65314Q52.034374 303.575 51.409374 304.09064Q50.8 304.59064 49.846874 304.59064Q48.6125 304.59064 47.89375 303.7Q47.05 302.6375 47.05 300.21564ZM48.128124 300.21564Q48.128124 302.325 48.628124 303.02814Q49.128124 303.73126 49.846874 303.73126Q50.58125 303.73126 51.065624 303.02814Q51.565624 302.325 51.565624 300.21564Q51.565624 298.09064 51.065624 297.40314Q50.58125 296.7 49.83125 296.7Q49.1125 296.7 48.675 297.3094Q48.128124 298.09064 48.128124 300.21564Z" fill-rule="nonzero"/><path fill="#000000" d="M31.596874 250.39272L31.596874 251.40834L25.909374 251.40834Q25.909374 251.03334 26.034374 250.67397Q26.253124 250.09584 26.721874 249.53334Q27.20625 248.97084 28.1125 248.23647Q29.51875 247.08022 30.003124 246.40834Q30.503124 245.73647 30.503124 245.14272Q30.503124 244.51772 30.05 244.09584Q29.596874 243.65834 28.878124 243.65834Q28.1125 243.65834 27.659374 244.11147Q27.20625 244.56459 27.190624 245.37709L26.1125 245.26772Q26.221874 244.04897 26.940624 243.42397Q27.675 242.78334 28.909374 242.78334Q30.14375 242.78334 30.8625 243.47084Q31.58125 244.15834 31.58125 245.17397Q31.58125 245.68959 31.3625 246.18959Q31.159374 246.67397 30.659374 247.23647Q30.175 247.78334 29.05 248.73647Q28.096874 249.53334 27.815624 249.83022Q27.55 250.11147 27.378124 250.39272L31.596874 250.39272ZM33.05 249.15834L34.159374 249.06459Q34.284374 249.87709 34.721874 250.28334Q35.175 250.68959 35.815624 250.68959Q36.565624 250.68959 37.096874 250.11147Q37.628124 249.53334 37.628124 248.59584Q37.628124 247.68959 37.1125 247.17397Q36.6125 246.64272 35.784374 246.64272Q35.284374 246.64272 34.8625 246.87709Q34.45625 247.11147 34.221874 247.47084L33.2375 247.34584L34.065624 242.93959L38.346874 242.93959L38.346874 243.93959L34.909374 243.93959L34.45625 246.25209Q35.221874 245.70522 36.065624 245.70522Q37.190624 245.70522 37.95625 246.48647Q38.7375 247.26772 38.7375 248.50209Q38.7375 249.65834 38.065624 250.51772Q37.2375 251.54897 35.815624 251.54897Q34.64375 251.54897 33.89375 250.89272Q33.159374 250.23647 33.05 249.15834ZM40.05 247.17397Q40.05 245.64272 40.3625 244.72084Q40.675 243.78334 41.284374 243.28334Q41.909374 242.78334 42.846874 242.78334Q43.534374 242.78334 44.05 243.06459Q44.58125 243.34584 44.925 243.87709Q45.26875 244.39272 45.45625 245.14272Q45.64375 245.89272 45.64375 247.17397Q45.64375 248.68959 45.33125 249.61147Q45.034374 250.53334 44.409374 251.04897Q43.8 251.54897 42.846874 251.54897Q41.6125 251.54897 40.89375 250.65834Q40.05 249.59584 40.05 247.17397ZM41.128124 247.17397Q41.128124 249.28334 41.628124 249.98647Q42.128124 250.68959 42.846874 250.68959Q43.58125 250.68959 44.065624 249.98647Q44.565624 249.28334 44.565624 247.17397Q44.565624 245.04897 44.065624 244.36147Q43.58125 243.65834 42.83125 243.65834Q42.1125 243.65834 41.675 244.26772Q41.128124 245.04897 41.128124 247.17397ZM47.05 247.17397Q47.05 245.64272 47.3625 244.72084Q47.675 243.78334 48.284374 243.28334Q48.909374 242.78334 49.846874 242.78334Q50.534374 242.78334 51.05 243.06459Q51.58125 243.34584 51.925 243.87709Q52.26875 244.39272 52.45625 245.14272Q52.64375 245.89272 52.64375 247.17397Q52.64375 248.68959 52.33125 249.61147Q52.034374 250.53334 51.409374 251.04897Q50.8 251.54897 49.846874 251.54897Q48.6125 251.54897 47.89375 250.65834Q47.05 249.59584 47.05 247.17397ZM48.128124 247.17397Q48.128124 249.28334 48.628124 249.98647Q49.128124 250.68959 49.846874 250.68959Q50.58125 250.68959 51.065624 249.98647Q51.565624 249.28334 51.565624 247.17397Q51.565624 245.04897 51.065624 244.36147Q50.58125 243.65834 49.83125 243.65834Q49.1125 243.65834 48.675 244.26772Q48.128124 245.04897 48.128124 247.17397Z" fill-rule="nonzero"/><path fill="#000000" d="M26.05 196.11667L27.159374 196.02292Q27.284374 196.83542 27.721874 197.24167Q28.175 197.64792 28.815624 197.64792Q29.565624 197.64792 30.096874 197.0698Q30.628124 196.49167 30.628124 195.55417Q30.628124 194.64792 30.1125 194.1323Q29.6125 193.60104 28.784374 193.60104Q28.284374 193.60104 27.8625 193.83542Q27.45625 194.0698 27.221874 194.42917L26.2375 194.30417L27.065624 189.89792L31.346874 189.89792L31.346874 190.89792L27.909374 190.89792L27.45625 193.21042Q28.221874 192.66354 29.065624 192.66354Q30.190624 192.66354 30.95625 193.4448Q31.7375 194.22604 31.7375 195.46042Q31.7375 196.61667 31.065624 197.47604Q30.2375 198.5073 28.815624 198.5073Q27.64375 198.5073 26.89375 197.85104Q26.159374 197.1948 26.05 196.11667ZM33.05 194.1323Q33.05 192.60104 33.3625 191.67917Q33.675 190.74167 34.284374 190.24167Q34.909374 189.74167 35.846874 189.74167Q36.534374 189.74167 37.05 190.02292Q37.58125 190.30417 37.925 190.83542Q38.26875 191.35104 38.45625 192.10104Q38.64375 192.85104 38.64375 194.1323Q38.64375 195.64792 38.33125 196.5698Q38.034374 197.49167 37.409374 198.0073Q36.8 198.5073 35.846874 198.5073Q34.6125 198.5073 33.89375 197.61667Q33.05 196.55417 33.05 194.1323ZM34.128124 194.1323Q34.128124 196.24167 34.628124 196.9448Q35.128124 197.64792 35.846874 197.64792Q36.58125 197.64792 37.065624 196.9448Q37.565624 196.24167 37.565624 194.1323Q37.565624 192.0073 37.065624 191.3198Q36.58125 190.61667 35.83125 190.61667Q35.1125 190.61667 34.675 191.22604Q34.128124 192.0073 34.128124 194.1323ZM40.05 194.1323Q40.05 192.60104 40.3625 191.67917Q40.675 190.74167 41.284374 190.24167Q41.909374 189.74167 42.846874 189.74167Q43.534374 189.74167 44.05 190.02292Q44.58125 190.30417 44.925 190.83542Q45.26875 191.35104 45.45625 192.10104Q45.64375 192.85104 45.64375 194.1323Q45.64375 195.64792 45.33125 196.5698Q45.034374 197.49167 44.409374 198.0073Q43.8 198.5073 42.846874 198.5073Q41.6125 198.5073 40.89375 197.61667Q40.05 196.55417 40.05 194.1323ZM41.128124 194.1323Q41.128124 196.24167 41.628124 196.9448Q42.128124 197.64792 42.846874 197.64792Q43.58125 197.64792 44.065624 196.9448Q44.565624 196.24167 44.565624 194.1323Q44.565624 192.0073 44.065624 191.3198Q43.58125 190.61667 42.83125 190.61667Q42.1125 190.61667 41.675 191.22604Q41.128124 192.0073 41.128124 194.1323ZM47.05 194.1323Q47.05 192.60104 47.3625 191.67917Q47.675 190.74167 48.284374 190.24167Q48.909374 189.74167 49.846874 189.74167Q50.534374 189.74167 51.05 190.02292Q51.58125 190.30417 51.925 190.83542Q52.26875 191.35104 52.45625 192.10104Q52.64375 192.85104 52.64375 194.1323Q52.64375 195.64792 52.33125 196.5698Q52.034374 197.49167 51.409374 198.0073Q50.8 198.5073 49.846874 198.5073Q48.6125 198.5073 47.89375 197.61667Q47.05 196.55417 47.05 194.1323ZM48.128124 194.1323Q48.128124 196.24167 48.628124 196.9448Q49.128124 197.64792 49.846874 197.64792Q50.58125 197.64792 51.065624 196.9448Q51.565624 196.24167 51.565624 194.1323Q51.565624 192.0073 51.065624 191.3198Q50.58125 190.61667 49.83125 190.61667Q49.1125 190.61667 48.675 191.22604Q48.128124 192.0073 48.128124 194.1323Z" fill-rule="nonzero"/><path fill="#000000" d="M26.1125 137.85625L26.1125 136.84062L31.675 136.84062L31.675 137.66875Q30.8625 138.54375 30.05 139.99687Q29.253124 141.43437 28.815624 142.96562Q28.4875 144.04375 28.409374 145.325L27.315624 145.325Q27.33125 144.30937 27.70625 142.87187Q28.096874 141.43437 28.8 140.10625Q29.51875 138.77812 30.33125 137.85625L26.1125 137.85625ZM33.05 143.075L34.159374 142.98125Q34.284374 143.79375 34.721874 144.2Q35.175 144.60625 35.815624 144.60625Q36.565624 144.60625 37.096874 144.02812Q37.628124 143.45 37.628124 142.5125Q37.628124 141.60625 37.1125 141.09062Q36.6125 140.55937 35.784374 140.55937Q35.284374 140.55937 34.8625 140.79375Q34.45625 141.02812 34.221874 141.3875L33.2375 141.2625L34.065624 136.85625L38.346874 136.85625L38.346874 137.85625L34.909374 137.85625L34.45625 140.16875Q35.221874 139.62187 36.065624 139.62187Q37.190624 139.62187 37.95625 140.40312Q38.7375 141.18437 38.7375 142.41875Q38.7375 143.575 38.065624 144.43437Q37.2375 145.46562 35.815624 145.46562Q34.64375 145.46562 33.89375 144.80937Q33.159374 144.15312 33.05 143.075ZM40.05 141.09062Q40.05 139.55937 40.3625 138.6375Q40.675 137.7 41.284374 137.2Q41.909374 136.7 42.846874 136.7Q43.534374 136.7 44.05 136.98125Q44.58125 137.2625 44.925 137.79375Q45.26875 138.30937 45.45625 139.05937Q45.64375 139.80937 45.64375 141.09062Q45.64375 142.60625 45.33125 143.52812Q45.034374 144.45 44.409374 144.96562Q43.8 145.46562 42.846874 145.46562Q41.6125 145.46562 40.89375 144.575Q40.05 143.5125 40.05 141.09062ZM41.128124 141.09062Q41.128124 143.2 41.628124 143.90312Q42.128124 144.60625 42.846874 144.60625Q43.58125 144.60625 44.065624 143.90312Q44.565624 143.2 44.565624 141.09062Q44.565624 138.96562 44.065624 138.27812Q43.58125 137.575 42.83125 137.575Q42.1125 137.575 41.675 138.18437Q41.128124 138.96562 41.128124 141.09062ZM47.05 141.09062Q47.05 139.55937 47.3625 138.6375Q47.675 137.7 48.284374 137.2Q48.909374 136.7 49.846874 136.7Q50.534374 136.7 51.05 136.98125Q51.58125 137.2625 51.925 137.79375Q52.26875 138.30937 52.45625 139.05937Q52.64375 139.80937 52.64375 141.09062Q52.64375 142.60625 52.33125 143.52812Q52.034374 144.45 51.409374 144.96562Q50.8 145.46562 49.846874 145.46562Q48.6125 145.46562 47.89375 144.575Q47.05 143.5125 47.05 141.09062ZM48.128124 141.09062Q48.128124 143.2 48.628124 143.90312Q49.128124 144.60625 49.846874 144.60625Q50.58125 144.60625 51.065624 143.90312Q51.565624 143.2 51.565624 141.09062Q51.565624 138.96562 51.065624 138.27812Q50.58125 137.575 49.83125 137.575Q49.1125 137.575 48.675 138.18437Q48.128124 138.96562 48.128124 141.09062Z" fill-rule="nonzero"/><path fill="#000000" d="M23.01875 92.28333L21.971874 92.28333L21.971874 85.56458Q21.58125 85.92396 20.95625 86.29896Q20.346874 86.65833 19.8625 86.83021L19.8625 85.81458Q20.7375 85.39271 21.39375 84.81458Q22.065624 84.22083 22.346874 83.65833L23.01875 83.65833L23.01875 92.28333ZM26.05 88.04896Q26.05 86.51771 26.3625 85.59583Q26.675 84.65833 27.284374 84.15833Q27.909374 83.65833 28.846874 83.65833Q29.534374 83.65833 30.05 83.93958Q30.58125 84.22083 30.925 84.75208Q31.26875 85.26771 31.45625 86.01771Q31.64375 86.76771 31.64375 88.04896Q31.64375 89.56458 31.33125 90.48646Q31.034374 91.40833 30.409374 91.92396Q29.8 92.42396 28.846874 92.42396Q27.6125 92.42396 26.89375 91.53333Q26.05 90.47083 26.05 88.04896ZM27.128124 88.04896Q27.128124 90.15833 27.628124 90.86146Q28.128124 91.56458 28.846874 91.56458Q29.58125 91.56458 30.065624 90.86146Q30.565624 90.15833 30.565624 88.04896Q30.565624 85.92396 30.065624 85.23646Q29.58125 84.53333 28.83125 84.53333Q28.1125 84.53333 27.675 85.14271Q27.128124 85.92396 27.128124 88.04896ZM33.05 88.04896Q33.05 86.51771 33.3625 85.59583Q33.675 84.65833 34.284374 84.15833Q34.909374 83.65833 35.846874 83.65833Q36.534374 83.65833 37.05 83.93958Q37.58125 84.22083 37.925 84.75208Q38.26875 85.26771 38.45625 86.01771Q38.64375 86.76771 38.64375 88.04896Q38.64375 89.56458 38.33125 90.48646Q38.034374 91.40833 37.409374 91.92396Q36.8 92.42396 35.846874 92.42396Q34.6125 92.42396 33.89375 91.53333Q33.05 90.47083 33.05 88.04896ZM34.128124 88.04896Q34.128124 90.15833 34.628124 90.86146Q35.128124 91.56458 35.846874 91.56458Q36.58125 91.56458 37.065624 90.86146Q37.565624 90.15833 37.565624 88.04896Q37.565624 85.92396 37.065624 85.23646Q36.58125 84.53333 35.83125 84.53333Q35.1125 84.53333 34.675 85.14271Q34.128124 85.92396 34.128124 88.04896ZM40.05 88.04896Q40.05 86.51771 40.3625 85.59583Q40.675 84.65833 41.284374 84.15833Q41.909374 83.65833 42.846874 83.65833Q43.534374 83.65833 44.05 83.93958Q44.58125 84.22083 44.925 84.75208Q45.26875 85.26771 45.45625 86.01771Q45.64375 86.76771 45.64375 88.04896Q45.64375 89.56458 45.33125 90.48646Q45.034374 91.40833 44.409374 91.92396Q43.8 92.42396 42.846874 92.42396Q41.6125 92.42396 40.89375 91.53333Q40.05 90.47083 40.05 88.04896ZM41.128124 88.04896Q41.128124 90.15833 41.628124 90.86146Q42.128124 91.56458 42.846874 91.56458Q43.58125 91.56458 44.065624 90.86146Q44.565624 90.15833 44.565624 88.04896Q44.565624 85.92396 44.065624 85.23646Q43.58125 84.53333 42.83125 84.53333Q42.1125 84.53333 41.675 85.14271Q41.128124 85.92396 41.128124 88.04896ZM47.05 88.04896Q47.05 86.51771 47.3625 85.59583Q47.675 84.65833 48.284374 84.15833Q48.909374 83.65833 49.846874 83.65833Q50.534374 83.65833 51.05 83.93958Q51.58125 84.22083 51.925 84.75208Q52.26875 85.26771 52.45625 86.01771Q52.64375 86.76771 52.64375 88.04896Q52.64375 89.56458 52.33125 90.48646Q52.034374 91.40833 51.409374 91.92396Q50.8 92.42396 49.846874 92.42396Q48.6125 92.42396 47.89375 91.53333Q47.05 90.47083 47.05 88.04896ZM48.128124 88.04896Q48.128124 90.15833 48.628124 90.86146Q49.128124 91.56458 49.846874 91.56458Q50.58125 91.56458 51.065624 90.86146Q51.565624 90.15833 51.565624 88.04896Q51.565624 85.92396 51.065624 85.23646Q50.58125 84.53333 49.83125 84.53333Q49.1125 84.53333 48.675 85.14271Q48.128124 85.92396 48.128124 88.04896Z" fill-rule="nonzero"/><path fill="#000000" d="M127.45458 317.45L126.40771 317.45L126.40771 310.73126Q126.01708 311.09064 125.39208 311.46564Q124.78271 311.825 124.29833 311.9969L124.29833 310.98126Q125.17333 310.5594 125.82958 309.98126Q126.50146 309.3875 126.78271 308.825L127.45458 308.825L127.45458 317.45ZM130.48584 313.21564Q130.48584 311.6844 130.79834 310.7625Q131.11084 309.825 131.72021 309.325Q132.34521 308.825 133.28271 308.825Q133.97021 308.825 134.48584 309.10626Q135.01709 309.3875 135.36084 309.91876Q135.70459 310.4344 135.89209 311.1844Q136.07959 311.9344 136.07959 313.21564Q136.07959 314.73126 135.76709 315.65314Q135.47021 316.575 134.84521 317.09064Q134.23584 317.59064 133.28271 317.59064Q132.04834 317.59064 131.32959 316.7Q130.48584 315.6375 130.48584 313.21564ZM131.56396 313.21564Q131.56396 315.325 132.06396 316.02814Q132.56396 316.73126 133.28271 316.73126Q134.01709 316.73126 134.50146 316.02814Q135.00146 315.325 135.00146 313.21564Q135.00146 311.09064 134.50146 310.40314Q134.01709 309.7 133.26709 309.7Q132.54834 309.7 132.11084 310.3094Q131.56396 311.09064 131.56396 313.21564ZM137.48584 313.21564Q137.48584 311.6844 137.79834 310.7625Q138.11084 309.825 138.72021 309.325Q139.34521 308.825 140.28271 308.825Q140.97021 308.825 141.48584 309.10626Q142.01709 309.3875 142.36084 309.91876Q142.70459 310.4344 142.89209 311.1844Q143.07959 311.9344 143.07959 313.21564Q143.07959 314.73126 142.76709 315.65314Q142.47021 316.575 141.84521 317.09064Q141.23584 317.59064 140.28271 317.59064Q139.04834 317.59064 138.32959 316.7Q137.48584 315.6375 137.48584 313.21564ZM138.56396 313.21564Q138.56396 315.325 139.06396 316.02814Q139.56396 316.73126 140.28271 316.73126Q141.01709 316.73126 141.50146 316.02814Q142.00146 315.325 142.00146 313.21564Q142.00146 311.09064 141.50146 310.40314Q141.01709 309.7 140.26709 309.7Q139.54834 309.7 139.11084 310.3094Q138.56396 311.09064 138.56396 313.21564Z" fill-rule="nonzero"/><path fill="#000000" d="M237.76187 316.4344L237.76187 317.45L232.07437 317.45Q232.07437 317.075 232.19937 316.71564Q232.41812 316.1375 232.88687 315.575Q233.37125 315.0125 234.2775 314.27814Q235.68375 313.1219 236.16812 312.45Q236.66812 311.77814 236.66812 311.1844Q236.66812 310.5594 236.215 310.1375Q235.76187 309.7 235.04312 309.7Q234.2775 309.7 233.82437 310.15314Q233.37125 310.60626 233.35562 311.41876L232.2775 311.3094Q232.38687 310.09064 233.10562 309.46564Q233.84 308.825 235.07437 308.825Q236.30875 308.825 237.0275 309.5125Q237.74625 310.2 237.74625 311.21564Q237.74625 311.73126 237.5275 312.23126Q237.32437 312.71564 236.82437 313.27814Q236.34 313.825 235.215 314.77814Q234.26187 315.575 233.98062 315.8719Q233.715 316.15314 233.54312 316.4344L237.76187 316.4344ZM239.215 313.21564Q239.215 311.6844 239.5275 310.7625Q239.84 309.825 240.44937 309.325Q241.07437 308.825 242.01187 308.825Q242.69937 308.825 243.215 309.10626Q243.74625 309.3875 244.09 309.91876Q244.43375 310.4344 244.62125 311.1844Q244.80875 311.9344 244.80875 313.21564Q244.80875 314.73126 244.49625 315.65314Q244.19937 316.575 243.57437 317.09064Q242.965 317.59064 242.01187 317.59064Q240.7775 317.59064 240.05875 316.7Q239.215 315.6375 239.215 313.21564ZM240.29312 313.21564Q240.29312 315.325 240.79312 316.02814Q241.29312 316.73126 242.01187 316.73126Q242.74625 316.73126 243.23062 316.02814Q243.73062 315.325 243.73062 313.21564Q243.73062 311.09064 243.23062 310.40314Q242.74625 309.7 241.99625 309.7Q241.2775 309.7 240.84 310.3094Q240.29312 311.09064 240.29312 313.21564ZM246.215 313.21564Q246.215 311.6844 246.5275 310.7625Q246.84 309.825 247.44937 309.325Q248.07437 308.825 249.01187 308.825Q249.69937 308.825 250.215 309.10626Q250.74625 309.3875 251.09 309.91876Q251.43375 310.4344 251.62125 311.1844Q251.80875 311.9344 251.80875 313.21564Q251.80875 314.73126 251.49625 315.65314Q251.19937 316.575 250.57437 317.09064Q249.965 317.59064 249.01187 317.59064Q247.7775 317.59064 247.05875 316.7Q246.215 315.6375 246.215 313.21564ZM247.29312 313.21564Q247.29312 315.325 247.79312 316.02814Q248.29312 316.73126 249.01187 316.73126Q249.74625 316.73126 250.23062 316.02814Q250.73062 315.325 250.73062 313.21564Q250.73062 311.09064 250.23062 310.40314Q249.74625 309.7 248.99625 309.7Q248.2775 309.7 247.84 310.3094Q247.29312 311.09064 247.29312 313.21564Z" fill-rule="nonzero"/><path fill="#000000" d="M340.94415 315.1844L342.00665 315.04376Q342.17853 315.9344 342.61603 316.34064Q343.05353 316.73126 343.67853 316.73126Q344.42853 316.73126 344.94415 316.21564Q345.45978 315.7 345.45978 314.9344Q345.45978 314.21564 344.9754 313.7469Q344.50665 313.2625 343.77228 313.2625Q343.4754 313.2625 343.02228 313.3875L343.14728 312.45Q343.25665 312.46564 343.31915 312.46564Q343.99103 312.46564 344.52228 312.1219Q345.06915 311.7625 345.06915 311.02814Q345.06915 310.45 344.67853 310.075Q344.2879 309.6844 343.6629 309.6844Q343.05353 309.6844 342.63165 310.075Q342.2254 310.46564 342.11603 311.23126L341.05353 311.04376Q341.24103 309.9969 341.92853 309.41876Q342.61603 308.825 343.63165 308.825Q344.33478 308.825 344.92853 309.1375Q345.52228 309.4344 345.83478 309.95Q346.14728 310.46564 346.14728 311.0594Q346.14728 311.60626 345.8504 312.075Q345.55353 312.52814 344.9754 312.79376Q345.7254 312.96564 346.14728 313.52814Q346.56915 314.075 346.56915 314.91876Q346.56915 316.04376 345.74103 316.825Q344.92853 317.60626 343.67853 317.60626Q342.55353 317.60626 341.80353 316.9344Q341.05353 316.2469 340.94415 315.1844ZM347.94415 313.21564Q347.94415 311.6844 348.25665 310.7625Q348.56915 309.825 349.17853 309.325Q349.80353 308.825 350.74103 308.825Q351.42853 308.825 351.94415 309.10626Q352.4754 309.3875 352.81915 309.91876Q353.1629 310.4344 353.3504 311.1844Q353.5379 311.9344 353.5379 313.21564Q353.5379 314.73126 353.2254 315.65314Q352.92853 316.575 352.30353 317.09064Q351.69415 317.59064 350.74103 317.59064Q349.50665 317.59064 348.7879 316.7Q347.94415 315.6375 347.94415 313.21564ZM349.02228 313.21564Q349.02228 315.325 349.52228 316.02814Q350.02228 316.73126 350.74103 316.73126Q351.4754 316.73126 351.95978 316.02814Q352.45978 315.325 352.45978 313.21564Q352.45978 311.09064 351.95978 310.40314Q351.4754 309.7 350.7254 309.7Q350.00665 309.7 349.56915 310.3094Q349.02228 311.09064 349.02228 313.21564ZM354.94415 313.21564Q354.94415 311.6844 355.25665 310.7625Q355.56915 309.825 356.17853 309.325Q356.80353 308.825 357.74103 308.825Q358.42853 308.825 358.94415 309.10626Q359.4754 309.3875 359.81915 309.91876Q360.1629 310.4344 360.3504 311.1844Q360.5379 311.9344 360.5379 313.21564Q360.5379 314.73126 360.2254 315.65314Q359.92853 316.575 359.30353 317.09064Q358.69415 317.59064 357.74103 317.59064Q356.50665 317.59064 355.7879 316.7Q354.94415 315.6375 354.94415 313.21564ZM356.02228 313.21564Q356.02228 315.325 356.52228 316.02814Q357.02228 316.73126 357.74103 316.73126Q358.4754 316.73126 358.95978 316.02814Q359.45978 315.325 359.45978 313.21564Q359.45978 311.09064 358.95978 310.40314Q358.4754 309.7 357.7254 309.7Q357.00665 309.7 356.56915 310.3094Q356.02228 311.09064 356.02228 313.21564Z" fill-rule="nonzero"/><path fill="#000000" d="M453.04834 317.45L453.04834 315.3875L449.3296 315.3875L449.3296 314.41876L453.25146 308.85626L454.11084 308.85626L454.11084 314.41876L455.2671 314.41876L455.2671 315.3875L454.11084 315.3875L454.11084 317.45L453.04834 317.45ZM453.04834 314.41876L453.04834 310.5594L450.36084 314.41876L453.04834 314.41876ZM456.67334 313.21564Q456.67334 311.6844 456.98584 310.7625Q457.29834 309.825 457.9077 309.325Q458.5327 308.825 459.4702 308.825Q460.1577 308.825 460.67334 309.10626Q461.2046 309.3875 461.54834 309.91876Q461.8921 310.4344 462.0796 311.1844Q462.2671 311.9344 462.2671 313.21564Q462.2671 314.73126 461.9546 315.65314Q461.6577 316.575 461.0327 317.09064Q460.42334 317.59064 459.4702 317.59064Q458.23584 317.59064 457.5171 316.7Q456.67334 315.6375 456.67334 313.21564ZM457.75146 313.21564Q457.75146 315.325 458.25146 316.02814Q458.75146 316.73126 459.4702 316.73126Q460.2046 316.73126 460.68896 316.02814Q461.18896 315.325 461.18896 313.21564Q461.18896 311.09064 460.68896 310.40314Q460.2046 309.7 459.4546 309.7Q458.73584 309.7 458.29834 310.3094Q457.75146 311.09064 457.75146 313.21564ZM463.67334 313.21564Q463.67334 311.6844 463.98584 310.7625Q464.29834 309.825 464.9077 309.325Q465.5327 308.825 466.4702 308.825Q467.1577 308.825 467.67334 309.10626Q468.2046 309.3875 468.54834 309.91876Q468.8921 310.4344 469.0796 311.1844Q469.2671 311.9344 469.2671 313.21564Q469.2671 314.73126 468.9546 315.65314Q468.6577 316.575 468.0327 317.09064Q467.42334 317.59064 466.4702 317.59064Q465.23584 317.59064 464.5171 316.7Q463.67334 315.6375 463.67334 313.21564ZM464.75146 313.21564Q464.75146 315.325 465.25146 316.02814Q465.75146 316.73126 466.4702 316.73126Q467.2046 316.73126 467.68896 316.02814Q468.18896 315.325 468.18896 313.21564Q468.18896 311.09064 467.68896 310.40314Q467.2046 309.7 466.4546 309.7Q465.73584 309.7 465.29834 310.3094Q464.75146 311.09064 464.75146 313.21564Z" fill-rule="nonzero"/><path fill="#000000" d="M558.4025 315.2L559.5119 315.10626Q559.6369 315.91876 560.0744 316.325Q560.5275 316.73126 561.16815 316.73126Q561.91815 316.73126 562.4494 316.15314Q562.98065 315.575 562.98065 314.6375Q562.98065 313.73126 562.465 313.21564Q561.965 312.6844 561.1369 312.6844Q560.6369 312.6844 560.215 312.91876Q559.8088 313.15314 559.5744 313.5125L558.59 313.3875L559.41815 308.98126L563.6994 308.98126L563.6994 309.98126L560.2619 309.98126L559.8088 312.29376Q560.5744 311.7469 561.41815 311.7469Q562.54315 311.7469 563.3088 312.52814Q564.09 313.3094 564.09 314.54376Q564.09 315.7 563.41815 316.5594Q562.59 317.59064 561.16815 317.59064Q559.9963 317.59064 559.2463 316.9344Q558.5119 316.27814 558.4025 315.2ZM565.4025 313.21564Q565.4025 311.6844 565.715 310.7625Q566.0275 309.825 566.6369 309.325Q567.2619 308.825 568.1994 308.825Q568.8869 308.825 569.4025 309.10626Q569.9338 309.3875 570.2775 309.91876Q570.6213 310.4344 570.8088 311.1844Q570.9963 311.9344 570.9963 313.21564Q570.9963 314.73126 570.6838 315.65314Q570.3869 316.575 569.7619 317.09064Q569.1525 317.59064 568.1994 317.59064Q566.965 317.59064 566.2463 316.7Q565.4025 315.6375 565.4025 313.21564ZM566.48065 313.21564Q566.48065 315.325 566.98065 316.02814Q567.48065 316.73126 568.1994 316.73126Q568.9338 316.73126 569.41815 316.02814Q569.91815 315.325 569.91815 313.21564Q569.91815 311.09064 569.41815 310.40314Q568.9338 309.7 568.1838 309.7Q567.465 309.7 567.0275 310.3094Q566.48065 311.09064 566.48065 313.21564ZM572.4025 313.21564Q572.4025 311.6844 572.715 310.7625Q573.0275 309.825 573.6369 309.325Q574.2619 308.825 575.1994 308.825Q575.8869 308.825 576.4025 309.10626Q576.9338 309.3875 577.2775 309.91876Q577.6213 310.4344 577.8088 311.1844Q577.9963 311.9344 577.9963 313.21564Q577.9963 314.73126 577.6838 315.65314Q577.3869 316.575 576.7619 317.09064Q576.1525 317.59064 575.1994 317.59064Q573.965 317.59064 573.2463 316.7Q572.4025 315.6375 572.4025 313.21564ZM573.48065 313.21564Q573.48065 315.325 573.98065 316.02814Q574.48065 316.73126 575.1994 316.73126Q575.9338 316.73126 576.41815 316.02814Q576.91815 315.325 576.91815 313.21564Q576.91815 311.09064 576.41815 310.40314Q575.9338 309.7 575.1838 309.7Q574.465 309.7 574.0275 310.3094Q573.48065 311.09064 573.48065 313.21564Z" fill-rule="nonzero"/><path stroke="#4285f4" stroke-width="4.0" stroke-linecap="butt" d="M211.0 61.916668L223.0 61.916668" fill-rule="nonzero"/><path fill="#1a1a1a" d="M230.98438 65.916664L234.28125 57.322914L235.5 57.322914L239.01562 65.916664L237.73438 65.916664L236.71875 63.30729L233.14062 63.30729L232.1875 65.916664L230.98438 65.916664ZM233.46875 62.385414L236.375 62.385414L235.48438 60.010414Q235.0625 58.93229 234.875 58.229164Q234.70312 59.05729 234.40625 59.86979L233.46875 62.385414ZM243.82812 65.916664L243.82812 65.135414Q243.23438 66.05729 242.09375 66.05729Q241.34375 66.05729 240.71875 65.65104Q240.09375 65.229164 239.75 64.49479Q239.40625 63.760414 239.40625 62.80729Q239.40625 61.885414 239.71875 61.11979Q240.03125 60.354164 240.65625 59.96354Q241.28125 59.55729 242.04688 59.55729Q242.60938 59.55729 243.04688 59.791664Q243.48438 60.02604 243.76562 60.40104L243.76562 57.322914L244.8125 57.322914L244.8125 65.916664L243.82812 65.916664ZM240.5 62.80729Q240.5 64.010414 241.0 64.604164Q241.5 65.18229 242.1875 65.18229Q242.875 65.18229 243.35938 64.61979Q243.84375 64.05729 243.84375 62.90104Q243.84375 61.61979 243.34375 61.02604Q242.85938 60.43229 242.14062 60.43229Q241.4375 60.43229 240.96875 61.010414Q240.5 61.572914 240.5 62.80729ZM250.85938 65.15104Q250.26562 65.65104 249.71875 65.854164Q249.1875 66.05729 248.5625 66.05729Q247.53125 66.05729 246.98438 65.55729Q246.4375 65.05729 246.4375 64.27604Q246.4375 63.822914 246.64062 63.447914Q246.84375 63.05729 247.1875 62.83854Q247.53125 62.604164 247.95312 62.49479Q248.25 62.40104 248.89062 62.322914Q250.15625 62.18229 250.76562 61.96354Q250.76562 61.74479 250.76562 61.697914Q250.76562 61.041664 250.46875 60.77604Q250.0625 60.43229 249.26562 60.43229Q248.53125 60.43229 248.17188 60.697914Q247.8125 60.947914 247.64062 61.604164L246.60938 61.46354Q246.75 60.80729 247.07812 60.40104Q247.40625 59.99479 248.01562 59.77604Q248.625 59.55729 249.42188 59.55729Q250.21875 59.55729 250.71875 59.74479Q251.21875 59.93229 251.45312 60.21354Q251.6875 60.49479 251.78125 60.93229Q251.82812 61.197914 251.82812 61.90104L251.82812 63.30729Q251.82812 64.77604 251.89062 65.166664Q251.96875 65.55729 252.17188 65.916664L251.0625 65.916664Q250.90625 65.58854 250.85938 65.15104ZM250.76562 62.791664Q250.1875 63.02604 249.04688 63.197914Q248.39062 63.291664 248.125 63.416664Q247.85938 63.52604 247.70312 63.74479Q247.5625 63.96354 247.5625 64.24479Q247.5625 64.666664 247.875 64.947914Q248.20312 65.229164 248.8125 65.229164Q249.42188 65.229164 249.89062 64.96354Q250.375 64.697914 250.59375 64.229164Q250.76562 63.86979 250.76562 63.18229L250.76562 62.791664ZM253.79688 68.30729L253.79688 59.697914L254.75 59.697914L254.75 60.49479Q255.09375 60.02604 255.51562 59.791664Q255.95312 59.55729 256.5625 59.55729Q257.35938 59.55729 257.96875 59.96354Q258.57812 60.36979 258.875 61.11979Q259.1875 61.86979 259.1875 62.760414Q259.1875 63.71354 258.84375 64.479164Q258.51562 65.24479 257.85938 65.65104Q257.20312 66.05729 256.48438 66.05729Q255.95312 66.05729 255.53125 65.83854Q255.10938 65.604164 254.84375 65.27604L254.84375 68.30729L253.79688 68.30729ZM254.75 62.83854Q254.75 64.041664 255.23438 64.61979Q255.71875 65.18229 256.40625 65.18229Q257.10938 65.18229 257.60938 64.58854Q258.10938 63.99479 258.10938 62.74479Q258.10938 61.55729 257.625 60.979164Q257.14062 60.385414 256.45312 60.385414Q255.78125 60.385414 255.26562 61.010414Q254.75 61.635414 254.75 62.83854ZM263.09375 64.979164L263.25 65.90104Q262.79688 65.99479 262.45312 65.99479Q261.875 65.99479 261.5625 65.822914Q261.25 65.635414 261.10938 65.33854Q260.98438 65.041664 260.98438 64.08854L260.98438 60.510414L260.21875 60.510414L260.21875 59.697914L260.98438 59.697914L260.98438 58.15104L262.03125 57.52604L262.03125 59.697914L263.09375 59.697914L263.09375 60.510414L262.03125 60.510414L262.03125 64.15104Q262.03125 64.604164 262.07812 64.729164Q262.14062 64.854164 262.26562 64.93229Q262.39062 65.010414 262.625 65.010414Q262.8125 65.010414 263.09375 64.979164ZM263.79688 58.541664L263.79688 57.322914L264.85938 57.322914L264.85938 58.541664L263.79688 58.541664ZM263.79688 65.916664L263.79688 59.697914L264.85938 59.697914L264.85938 65.916664L263.79688 65.916664ZM268.51562 65.916664L266.15625 59.697914L267.26562 59.697914L268.60938 63.416664Q268.8125 64.02604 269.0 64.666664Q269.14062 64.18229 269.39062 63.49479L270.78125 59.697914L271.85938 59.697914L269.5 65.916664L268.51562 65.916664ZM277.04688 63.916664L278.14062 64.041664Q277.89062 64.99479 277.1875 65.52604Q276.48438 66.05729 275.40625 66.05729Q274.04688 66.05729 273.23438 65.21354Q272.4375 64.36979 272.4375 62.854164Q272.4375 61.291664 273.25 60.43229Q274.0625 59.55729 275.34375 59.55729Q276.59375 59.55729 277.375 60.40104Q278.17188 61.24479 278.17188 62.791664Q278.17188 62.885414 278.17188 63.072914L273.53125 63.072914Q273.59375 64.104164 274.10938 64.65104Q274.625 65.18229 275.40625 65.18229Q275.98438 65.18229 276.39062 64.885414Q276.8125 64.572914 277.04688 63.916664ZM273.59375 62.21354L277.0625 62.21354Q277.0 61.416664 276.67188 61.02604Q276.15625 60.416664 275.35938 60.416664Q274.625 60.416664 274.125 60.90104Q273.64062 61.385414 273.59375 62.21354Z" fill-rule="nonzero"/><path stroke="#ea4335" stroke-width="4.0" stroke-linecap="butt" d="M295.0 61.916668L307.0 61.916668" fill-rule="nonzero"/><path fill="#1a1a1a" d="M315.92188 65.916664L315.92188 57.322914L317.07812 57.322914L321.59375 64.072914L321.59375 57.322914L322.6875 57.322914L322.6875 65.916664L321.51562 65.916664L317.0 59.166664L317.0 65.916664L315.92188 65.916664ZM324.40625 62.80729Q324.40625 61.072914 325.35938 60.24479Q326.15625 59.55729 327.3125 59.55729Q328.59375 59.55729 329.40625 60.40104Q330.23438 61.229164 330.23438 62.71354Q330.23438 63.916664 329.875 64.604164Q329.51562 65.291664 328.8125 65.68229Q328.125 66.05729 327.3125 66.05729Q326.01562 66.05729 325.20312 65.229164Q324.40625 64.385414 324.40625 62.80729ZM325.48438 62.80729Q325.48438 63.99479 326.0 64.58854Q326.53125 65.18229 327.3125 65.18229Q328.10938 65.18229 328.625 64.58854Q329.14062 63.99479 329.14062 62.77604Q329.14062 61.61979 328.60938 61.02604Q328.09375 60.43229 327.3125 60.43229Q326.53125 60.43229 326.0 61.02604Q325.48438 61.604164 325.48438 62.80729ZM331.79688 65.916664L331.79688 59.697914L332.73438 59.697914L332.73438 60.572914Q333.42188 59.55729 334.71875 59.55729Q335.28125 59.55729 335.75 59.760414Q336.23438 59.96354 336.46875 60.291664Q336.70312 60.61979 336.79688 61.05729Q336.84375 61.354164 336.84375 62.08854L336.84375 65.916664L335.79688 65.916664L335.79688 62.135414Q335.79688 61.479164 335.67188 61.166664Q335.54688 60.854164 335.23438 60.666664Q334.92188 60.46354 334.5 60.46354Q333.82812 60.46354 333.32812 60.90104Q332.84375 61.322914 332.84375 62.510414L332.84375 65.916664L331.79688 65.916664ZM340.98438 65.916664L344.28125 57.322914L345.5 57.322914L349.01562 65.916664L347.73438 65.916664L346.71875 63.30729L343.14062 63.30729L342.1875 65.916664L340.98438 65.916664ZM343.46875 62.385414L346.375 62.385414L345.48438 60.010414Q345.0625 58.93229 344.875 58.229164Q344.70312 59.05729 344.40625 59.86979L343.46875 62.385414ZM353.82812 65.916664L353.82812 65.135414Q353.23438 66.05729 352.09375 66.05729Q351.34375 66.05729 350.71875 65.65104Q350.09375 65.229164 349.75 64.49479Q349.40625 63.760414 349.40625 62.80729Q349.40625 61.885414 349.71875 61.11979Q350.03125 60.354164 350.65625 59.96354Q351.28125 59.55729 352.04688 59.55729Q352.60938 59.55729 353.04688 59.791664Q353.48438 60.02604 353.76562 60.40104L353.76562 57.322914L354.8125 57.322914L354.8125 65.916664L353.82812 65.916664ZM350.5 62.80729Q350.5 64.010414 351.0 64.604164Q351.5 65.18229 352.1875 65.18229Q352.875 65.18229 353.35938 64.61979Q353.84375 64.05729 353.84375 62.90104Q353.84375 61.61979 353.34375 61.02604Q352.85938 60.43229 352.14062 60.43229Q351.4375 60.43229 350.96875 61.010414Q350.5 61.572914 350.5 62.80729ZM360.85938 65.15104Q360.26562 65.65104 359.71875 65.854164Q359.1875 66.05729 358.5625 66.05729Q357.53125 66.05729 356.98438 65.55729Q356.4375 65.05729 356.4375 64.27604Q356.4375 63.822914 356.64062 63.447914Q356.84375 63.05729 357.1875 62.83854Q357.53125 62.604164 357.95312 62.49479Q358.25 62.40104 358.89062 62.322914Q360.15625 62.18229 360.76562 61.96354Q360.76562 61.74479 360.76562 61.697914Q360.76562 61.041664 360.46875 60.77604Q360.0625 60.43229 359.26562 60.43229Q358.53125 60.43229 358.17188 60.697914Q357.8125 60.947914 357.64062 61.604164L356.60938 61.46354Q356.75 60.80729 357.07812 60.40104Q357.40625 59.99479 358.01562 59.77604Q358.625 59.55729 359.42188 59.55729Q360.21875 59.55729 360.71875 59.74479Q361.21875 59.93229 361.45312 60.21354Q361.6875 60.49479 361.78125 60.93229Q361.82812 61.197914 361.82812 61.90104L361.82812 63.30729Q361.82812 64.77604 361.89062 65.166664Q361.96875 65.55729 362.17188 65.916664L361.0625 65.916664Q360.90625 65.58854 360.85938 65.15104ZM360.76562 62.791664Q360.1875 63.02604 359.04688 63.197914Q358.39062 63.291664 358.125 63.416664Q357.85938 63.52604 357.70312 63.74479Q357.5625 63.96354 357.5625 64.24479Q357.5625 64.666664 357.875 64.947914Q358.20312 65.229164 358.8125 65.229164Q359.42188 65.229164 359.89062 64.96354Q360.375 64.697914 360.59375 64.229164Q360.76562 63.86979 360.76562 63.18229L360.76562 62.791664ZM363.79688 68.30729L363.79688 59.697914L364.75 59.697914L364.75 60.49479Q365.09375 60.02604 365.51562 59.791664Q365.95312 59.55729 366.5625 59.55729Q367.35938 59.55729 367.96875 59.96354Q368.57812 60.36979 368.875 61.11979Q369.1875 61.86979 369.1875 62.760414Q369.1875 63.71354 368.84375 64.479164Q368.51562 65.24479 367.85938 65.65104Q367.20312 66.05729 366.48438 66.05729Q365.95312 66.05729 365.53125 65.83854Q365.10938 65.604164 364.84375 65.27604L364.84375 68.30729L363.79688 68.30729ZM364.75 62.83854Q364.75 64.041664 365.23438 64.61979Q365.71875 65.18229 366.40625 65.18229Q367.10938 65.18229 367.60938 64.58854Q368.10938 63.99479 368.10938 62.74479Q368.10938 61.55729 367.625 60.979164Q367.14062 60.385414 366.45312 60.385414Q365.78125 60.385414 365.26562 61.010414Q364.75 61.635414 364.75 62.83854ZM373.09375 64.979164L373.25 65.90104Q372.79688 65.99479 372.45312 65.99479Q371.875 65.99479 371.5625 65.822914Q371.25 65.635414 371.10938 65.33854Q370.98438 65.041664 370.98438 64.08854L370.98438 60.510414L370.21875 60.510414L370.21875 59.697914L370.98438 59.697914L370.98438 58.15104L372.03125 57.52604L372.03125 59.697914L373.09375 59.697914L373.09375 60.510414L372.03125 60.510414L372.03125 64.15104Q372.03125 64.604164 372.07812 64.729164Q372.14062 64.854164 372.26562 64.93229Q372.39062 65.010414 372.625 65.010414Q372.8125 65.010414 373.09375 64.979164ZM373.79688 58.541664L373.79688 57.322914L374.85938 57.322914L374.85938 58.541664L373.79688 58.541664ZM373.79688 65.916664L373.79688 59.697914L374.85938 59.697914L374.85938 65.916664L373.79688 65.916664ZM378.51562 65.916664L376.15625 59.697914L377.26562 59.697914L378.60938 63.416664Q378.8125 64.02604 379.0 64.666664Q379.14062 64.18229 379.39062 63.49479L380.78125 59.697914L381.85938 59.697914L379.5 65.916664L378.51562 65.916664ZM387.04688 63.916664L388.14062 64.041664Q387.89062 64.99479 387.1875 65.52604Q386.48438 66.05729 385.40625 66.05729Q384.04688 66.05729 383.23438 65.21354Q382.4375 64.36979 382.4375 62.854164Q382.4375 61.291664 383.25 60.43229Q384.0625 59.55729 385.34375 59.55729Q386.59375 59.55729 387.375 60.40104Q388.17188 61.24479 388.17188 62.791664Q388.17188 62.885414 388.17188 63.072914L383.53125 63.072914Q383.59375 64.104164 384.10938 64.65104Q384.625 65.18229 385.40625 65.18229Q385.98438 65.18229 386.39062 64.885414Q386.8125 64.572914 387.04688 63.916664ZM383.59375 62.21354L387.0625 62.21354Q387.0 61.416664 386.67188 61.02604Q386.15625 60.416664 385.35938 60.416664Q384.625 60.416664 384.125 60.90104Q383.64062 61.385414 383.59375 62.21354Z" fill-rule="nonzero"/><path fill="#757575" d="M20.096874 37.55L20.096874 23.2375L25.4875 23.2375Q26.925 23.2375 27.675 23.3625Q28.721874 23.55 29.440624 24.05Q30.159374 24.534374 30.58125 25.425Q31.01875 26.315624 31.01875 27.378124Q31.01875 29.20625 29.846874 30.471874Q28.690624 31.721874 25.659374 31.721874L21.9875 31.721874L21.9875 37.55L20.096874 37.55ZM21.9875 30.034374L25.690624 30.034374Q27.51875 30.034374 28.284374 29.3625Q29.065624 28.675 29.065624 27.425Q29.065624 26.534374 28.6125 25.89375Q28.159374 25.253124 27.425 25.05Q26.940624 24.925 25.64375 24.925L21.9875 24.925L21.9875 30.034374ZM39.971874 34.20625L41.784374 34.440624Q41.3625 36.01875 40.190624 36.909374Q39.034374 37.784374 37.221874 37.784374Q34.95625 37.784374 33.6125 36.39375Q32.284374 34.9875 32.284374 32.45625Q32.284374 29.83125 33.628124 28.39375Q34.971874 26.940624 37.128124 26.940624Q39.20625 26.940624 40.51875 28.3625Q41.846874 29.76875 41.846874 32.346874Q41.846874 32.503124 41.83125 32.815624L34.096874 32.815624Q34.190624 34.51875 35.065624 35.425Q35.940624 36.33125 37.2375 36.33125Q38.20625 36.33125 38.878124 35.83125Q39.565624 35.315624 39.971874 34.20625ZM34.190624 31.3625L39.9875 31.3625Q39.878124 30.065624 39.33125 29.409374Q38.4875 28.39375 37.14375 28.39375Q35.940624 28.39375 35.1125 29.20625Q34.284374 30.003124 34.190624 31.3625ZM43.846874 37.55L43.846874 27.175L45.425 27.175L45.425 28.753124Q46.034374 27.64375 46.55 27.3Q47.065624 26.940624 47.675 26.940624Q48.565624 26.940624 49.4875 27.503124L48.878124 29.14375Q48.2375 28.753124 47.596874 28.753124Q47.01875 28.753124 46.55 29.1125Q46.096874 29.45625 45.89375 30.065624Q45.6125 31.003124 45.6125 32.1125L45.6125 37.55L43.846874 37.55ZM57.128124 37.55L57.128124 23.2375L63.471874 23.2375Q65.37813 23.2375 66.37813 23.628124Q67.37813 24.003124 67.97188 24.9875Q68.56563 25.95625 68.56563 27.14375Q68.56563 28.659374 67.58125 29.70625Q66.59688 30.753124 64.53438 31.034374Q65.28438 31.39375 65.675 31.753124Q66.50313 32.503124 67.25313 33.659374L69.7375 37.55L67.3625 37.55L65.45625 34.565624Q64.62813 33.284374 64.09688 32.596874Q63.565624 31.909374 63.128124 31.64375Q62.70625 31.3625 62.26875 31.253124Q61.940624 31.190624 61.221874 31.190624L59.01875 31.190624L59.01875 37.55L57.128124 37.55ZM59.01875 29.55L63.096874 29.55Q64.39375 29.55 65.1125 29.284374Q65.84688 29.01875 66.22188 28.425Q66.6125 27.83125 66.6125 27.14375Q66.6125 26.128124 65.87813 25.471874Q65.14375 24.815624 63.55 24.815624L59.01875 24.815624L59.01875 29.55ZM77.65938 37.55L77.65938 36.01875Q76.45625 37.784374 74.37813 37.784374Q73.45625 37.784374 72.65938 37.440624Q71.8625 37.08125 71.47188 36.55Q71.09688 36.01875 70.94063 35.2375Q70.83125 34.721874 70.83125 33.596874L70.83125 27.175L72.58125 27.175L72.58125 32.925Q72.58125 34.3 72.69063 34.784374Q72.8625 35.471874 73.39375 35.878124Q73.94063 36.26875 74.72188 36.26875Q75.51875 36.26875 76.20625 35.8625Q76.90938 35.45625 77.19063 34.76875Q77.4875 34.065624 77.4875 32.7375L77.4875 27.175L79.2375 27.175L79.2375 37.55L77.65938 37.55ZM81.8625 37.55L81.8625 27.175L83.45625 27.175L83.45625 28.659374Q84.59688 26.940624 86.75313 26.940624Q87.69063 26.940624 88.47188 27.284374Q89.26875 27.6125 89.65938 28.159374Q90.05 28.70625 90.20625 29.45625Q90.3 29.95625 90.3 31.175L90.3 37.55L88.53438 37.55L88.53438 31.2375Q88.53438 30.159374 88.33125 29.628124Q88.12813 29.096874 87.59688 28.784374Q87.08125 28.471874 86.37813 28.471874Q85.25313 28.471874 84.44063 29.190624Q83.62813 29.89375 83.62813 31.878124L83.62813 37.55L81.8625 37.55ZM97.51875 37.55L103.01875 23.2375L105.06563 23.2375L110.925 37.55L108.76875 37.55L107.09688 33.20625L101.1125 33.20625L99.53438 37.55L97.51875 37.55ZM101.65938 31.675L106.50313 31.675L105.01875 27.70625Q104.33125 25.89375 104.00313 24.7375Q103.72188 26.1125 103.22188 27.471874L101.65938 31.675ZM118.59688 37.55L118.59688 36.2375Q117.6125 37.784374 115.69063 37.784374Q114.45625 37.784374 113.40938 37.096874Q112.37813 36.409374 111.8 35.190624Q111.2375 33.971874 111.2375 32.378124Q111.2375 30.815624 111.75313 29.55Q112.26875 28.284374 113.3 27.6125Q114.34688 26.940624 115.6125 26.940624Q116.55 26.940624 117.28438 27.346874Q118.01875 27.7375 118.4875 28.3625L118.4875 23.2375L120.22188 23.2375L120.22188 37.55L118.59688 37.55ZM113.03438 32.378124Q113.03438 34.3625 113.87813 35.346874Q114.72188 36.33125 115.8625 36.33125Q117.01875 36.33125 117.81563 35.39375Q118.62813 34.45625 118.62813 32.51875Q118.62813 30.39375 117.8 29.39375Q116.9875 28.39375 115.78438 28.39375Q114.6125 28.39375 113.81563 29.3625Q113.03438 30.315624 113.03438 32.378124ZM129.64375 36.26875Q128.65938 37.096874 127.75313 37.440624Q126.84688 37.784374 125.81563 37.784374Q124.1125 37.784374 123.19063 36.95625Q122.26875 36.1125 122.26875 34.815624Q122.26875 34.05 122.6125 33.425Q122.97188 32.8 123.53438 32.425Q124.09688 32.034374 124.8 31.83125Q125.31563 31.70625 126.3625 31.565624Q128.4875 31.315624 129.4875 30.971874Q129.50313 30.6125 129.50313 30.503124Q129.50313 29.440624 129.00313 28.9875Q128.33125 28.39375 127.00313 28.39375Q125.75313 28.39375 125.15938 28.83125Q124.58125 29.26875 124.3 30.378124L122.58125 30.14375Q122.81563 29.034374 123.34688 28.3625Q123.87813 27.675 124.89375 27.315624Q125.90938 26.940624 127.25313 26.940624Q128.58125 26.940624 129.40938 27.253124Q130.2375 27.565624 130.62813 28.05Q131.01875 28.51875 131.175 29.2375Q131.26875 29.690624 131.26875 30.8625L131.26875 33.20625Q131.26875 35.659374 131.37813 36.315624Q131.4875 36.95625 131.83125 37.55L129.9875 37.55Q129.72188 37.003124 129.64375 36.26875ZM129.4875 32.346874Q128.53438 32.7375 126.6125 33.003124Q125.53438 33.159374 125.08125 33.3625Q124.64375 33.55 124.39375 33.925Q124.14375 34.3 124.14375 34.76875Q124.14375 35.471874 124.675 35.940624Q125.20625 36.409374 126.2375 36.409374Q127.25313 36.409374 128.03438 35.971874Q128.83125 35.51875 129.20625 34.753124Q129.4875 34.14375 129.4875 32.9875L129.4875 32.346874ZM133.8625 41.51875L133.8625 27.175L135.47188 27.175L135.47188 28.51875Q136.03438 27.7375 136.7375 27.346874Q137.45625 26.940624 138.47188 26.940624Q139.8 26.940624 140.81563 27.628124Q141.83125 28.315624 142.34688 29.565624Q142.87813 30.8 142.87813 32.284374Q142.87813 33.878124 142.3 35.159374Q141.7375 36.425 140.64375 37.1125Q139.55 37.784374 138.34688 37.784374Q137.47188 37.784374 136.76875 37.409374Q136.08125 37.034374 135.62813 36.471874L135.62813 41.51875L133.8625 41.51875ZM135.45625 32.425Q135.45625 34.425 136.26875 35.378124Q137.08125 36.33125 138.2375 36.33125Q139.40938 36.33125 140.2375 35.346874Q141.08125 34.3625 141.08125 32.26875Q141.08125 30.3 140.25313 29.315624Q139.44063 28.315624 138.31563 28.315624Q137.19063 28.315624 136.31563 29.378124Q135.45625 30.425 135.45625 32.425ZM148.70625 35.971874L148.95625 37.534374Q148.22188 37.690624 147.62813 37.690624Q146.675 37.690624 146.14375 37.39375Q145.62813 37.08125 145.40938 36.596874Q145.19063 36.096874 145.19063 34.51875L145.19063 28.55L143.90938 28.55L143.90938 27.175L145.19063 27.175L145.19063 24.6125L146.94063 23.55L146.94063 27.175L148.70625 27.175L148.70625 28.55L146.94063 28.55L146.94063 34.6125Q146.94063 35.3625 147.03438 35.58125Q147.12813 35.784374 147.33125 35.925Q147.55 36.05 147.94063 36.05Q148.22188 36.05 148.70625 35.971874ZM150.87813 25.253124L150.87813 23.2375L152.64375 23.2375L152.64375 25.253124L150.87813 25.253124ZM150.87813 37.55L150.87813 27.175L152.64375 27.175L152.64375 37.55L150.87813 37.55ZM157.75313 37.55L153.8 27.175L155.65938 27.175L157.89375 33.39375Q158.25313 34.39375 158.55 35.471874Q158.78438 34.659374 159.20625 33.503124L161.50313 27.175L163.31563 27.175L159.39375 37.55L157.75313 37.55ZM171.97188 34.20625L173.78438 34.440624Q173.3625 36.01875 172.19063 36.909374Q171.03438 37.784374 169.22188 37.784374Q166.95625 37.784374 165.6125 36.39375Q164.28438 34.9875 164.28438 32.45625Q164.28438 29.83125 165.62813 28.39375Q166.97188 26.940624 169.12813 26.940624Q171.20625 26.940624 172.51875 28.3625Q173.84688 29.76875 173.84688 32.346874Q173.84688 32.503124 173.83125 32.815624L166.09688 32.815624Q166.19063 34.51875 167.06563 35.425Q167.94063 36.33125 169.2375 36.33125Q170.20625 36.33125 170.87813 35.83125Q171.56563 35.315624 171.97188 34.20625ZM166.19063 31.3625L171.9875 31.3625Q171.87813 30.065624 171.33125 29.409374Q170.4875 28.39375 169.14375 28.39375Q167.94063 28.39375 167.1125 29.20625Q166.28438 30.003124 166.19063 31.3625ZM188.64375 36.26875Q187.65938 37.096874 186.75313 37.440624Q185.84688 37.784374 184.81563 37.784374Q183.1125 37.784374 182.19063 36.95625Q181.26875 36.1125 181.26875 34.815624Q181.26875 34.05 181.6125 33.425Q181.97188 32.8 182.53438 32.425Q183.09688 32.034374 183.8 31.83125Q184.31563 31.70625 185.3625 31.565624Q187.4875 31.315624 188.4875 30.971874Q188.50313 30.6125 188.50313 30.503124Q188.50313 29.440624 188.00313 28.9875Q187.33125 28.39375 186.00313 28.39375Q184.75313 28.39375 184.15938 28.83125Q183.58125 29.26875 183.3 30.378124L181.58125 30.14375Q181.81563 29.034374 182.34688 28.3625Q182.87813 27.675 183.89375 27.315624Q184.90938 26.940624 186.25313 26.940624Q187.58125 26.940624 188.40938 27.253124Q189.2375 27.565624 189.62813 28.05Q190.01875 28.51875 190.175 29.2375Q190.26875 29.690624 190.26875 30.8625L190.26875 33.20625Q190.26875 35.659374 190.37813 36.315624Q190.4875 36.95625 190.83125 37.55L188.9875 37.55Q188.72188 37.003124 188.64375 36.26875ZM188.4875 32.346874Q187.53438 32.7375 185.6125 33.003124Q184.53438 33.159374 184.08125 33.3625Q183.64375 33.55 183.39375 33.925Q183.14375 34.3 183.14375 34.76875Q183.14375 35.471874 183.675 35.940624Q184.20625 36.409374 185.2375 36.409374Q186.25313 36.409374 187.03438 35.971874Q187.83125 35.51875 188.20625 34.753124Q188.4875 34.14375 188.4875 32.9875L188.4875 32.346874ZM192.8625 37.55L192.8625 27.175L194.45625 27.175L194.45625 28.659374Q195.59688 26.940624 197.75313 26.940624Q198.69063 26.940624 199.47188 27.284374Q200.26875 27.6125 200.65938 28.159374Q201.05 28.70625 201.20625 29.45625Q201.3 29.95625 201.3 31.175L201.3 37.55L199.53438 37.55L199.53438 31.2375Q199.53438 30.159374 199.33125 29.628124Q199.12813 29.096874 198.59688 28.784374Q198.08125 28.471874 197.37813 28.471874Q196.25313 28.471874 195.44063 29.190624Q194.62813 29.89375 194.62813 31.878124L194.62813 37.55L192.8625 37.55ZM210.59688 37.55L210.59688 36.2375Q209.6125 37.784374 207.69063 37.784374Q206.45625 37.784374 205.40938 37.096874Q204.37813 36.409374 203.8 35.190624Q203.2375 33.971874 203.2375 32.378124Q203.2375 30.815624 203.75313 29.55Q204.26875 28.284374 205.3 27.6125Q206.34688 26.940624 207.6125 26.940624Q208.55 26.940624 209.28438 27.346874Q210.01875 27.7375 210.4875 28.3625L210.4875 23.2375L212.22188 23.2375L212.22188 37.55L210.59688 37.55ZM205.03438 32.378124Q205.03438 34.3625 205.87813 35.346874Q206.72188 36.33125 207.8625 36.33125Q209.01875 36.33125 209.81563 35.39375Q210.62813 34.45625 210.62813 32.51875Q210.62813 30.39375 209.8 29.39375Q208.9875 28.39375 207.78438 28.39375Q206.6125 28.39375 205.81563 29.3625Q205.03438 30.315624 205.03438 32.378124ZM221.08125 37.55L221.08125 23.2375L223.01875 23.2375L230.53438 34.471874L230.53438 23.2375L232.34688 23.2375L232.34688 37.55L230.40938 37.55L222.89375 26.3L222.89375 37.55L221.08125 37.55ZM234.22188 32.3625Q234.22188 29.4875 235.81563 28.096874Q237.15938 26.940624 239.08125 26.940624Q241.22188 26.940624 242.56563 28.346874Q243.925 29.753124 243.925 32.221874Q243.925 34.221874 243.33125 35.378124Q242.7375 36.51875 241.58125 37.159374Q240.44063 37.784374 239.08125 37.784374Q236.89375 37.784374 235.55 36.39375Q234.22188 34.9875 234.22188 32.3625ZM236.01875 32.3625Q236.01875 34.3625 236.87813 35.346874Q237.75313 36.33125 239.08125 36.33125Q240.39375 36.33125 241.25313 35.346874Q242.12813 34.346874 242.12813 32.3Q242.12813 30.378124 241.25313 29.39375Q240.37813 28.39375 239.08125 28.39375Q237.75313 28.39375 236.87813 29.39375Q236.01875 30.378124 236.01875 32.3625ZM245.8625 37.55L245.8625 27.175L247.45625 27.175L247.45625 28.659374Q248.59688 26.940624 250.75313 26.940624Q251.69063 26.940624 252.47188 27.284374Q253.26875 27.6125 253.65938 28.159374Q254.05 28.70625 254.20625 29.45625Q254.3 29.95625 254.3 31.175L254.3 37.55L252.53438 37.55L252.53438 31.2375Q252.53438 30.159374 252.33125 29.628124Q252.12813 29.096874 251.59688 28.784374Q251.08125 28.471874 250.37813 28.471874Q249.25313 28.471874 248.44063 29.190624Q247.62813 29.89375 247.62813 31.878124L247.62813 37.55L245.8625 37.55ZM261.51874 37.55L267.01874 23.2375L269.0656 23.2375L274.925 37.55L272.76874 37.55L271.09686 33.20625L265.1125 33.20625L263.53436 37.55L261.51874 37.55ZM265.65936 31.675L270.5031 31.675L269.01874 27.70625Q268.33124 25.89375 268.0031 24.7375Q267.72186 26.1125 267.22186 27.471874L265.65936 31.675ZM282.59686 37.55L282.59686 36.2375Q281.6125 37.784374 279.6906 37.784374Q278.45624 37.784374 277.40936 37.096874Q276.3781 36.409374 275.8 35.190624Q275.2375 33.971874 275.2375 32.378124Q275.2375 30.815624 275.7531 29.55Q276.26874 28.284374 277.3 27.6125Q278.34686 26.940624 279.6125 26.940624Q280.55 26.940624 281.28436 27.346874Q282.01874 27.7375 282.4875 28.3625L282.4875 23.2375L284.22186 23.2375L284.22186 37.55L282.59686 37.55ZM277.03436 32.378124Q277.03436 34.3625 277.8781 35.346874Q278.72186 36.33125 279.8625 36.33125Q281.01874 36.33125 281.8156 35.39375Q282.6281 34.45625 282.6281 32.51875Q282.6281 30.39375 281.8 29.39375Q280.9875 28.39375 279.78436 28.39375Q278.6125 28.39375 277.8156 29.3625Q277.03436 30.315624 277.03436 32.378124ZM293.64374 36.26875Q292.65936 37.096874 291.7531 37.440624Q290.84686 37.784374 289.8156 37.784374Q288.1125 37.784374 287.1906 36.95625Q286.26874 36.1125 286.26874 34.815624Q286.26874 34.05 286.6125 33.425Q286.97186 32.8 287.53436 32.425Q288.09686 32.034374 288.8 31.83125Q289.3156 31.70625 290.3625 31.565624Q292.4875 31.315624 293.4875 30.971874Q293.5031 30.6125 293.5031 30.503124Q293.5031 29.440624 293.0031 28.9875Q292.33124 28.39375 291.0031 28.39375Q289.7531 28.39375 289.15936 28.83125Q288.58124 29.26875 288.3 30.378124L286.58124 30.14375Q286.8156 29.034374 287.34686 28.3625Q287.8781 27.675 288.89374 27.315624Q289.90936 26.940624 291.2531 26.940624Q292.58124 26.940624 293.40936 27.253124Q294.2375 27.565624 294.6281 28.05Q295.01874 28.51875 295.175 29.2375Q295.26874 29.690624 295.26874 30.8625L295.26874 33.20625Q295.26874 35.659374 295.3781 36.315624Q295.4875 36.95625 295.83124 37.55L293.9875 37.55Q293.72186 37.003124 293.64374 36.26875ZM293.4875 32.346874Q292.53436 32.7375 290.6125 33.003124Q289.53436 33.159374 289.08124 33.3625Q288.64374 33.55 288.39374 33.925Q288.14374 34.3 288.14374 34.76875Q288.14374 35.471874 288.675 35.940624Q289.20624 36.409374 290.2375 36.409374Q291.2531 36.409374 292.03436 35.971874Q292.83124 35.51875 293.20624 34.753124Q293.4875 34.14375 293.4875 32.9875L293.4875 32.346874ZM297.8625 41.51875L297.8625 27.175L299.47186 27.175L299.47186 28.51875Q300.03436 27.7375 300.7375 27.346874Q301.45624 26.940624 302.47186 26.940624Q303.8 26.940624 304.8156 27.628124Q305.83124 28.315624 306.34686 29.565624Q306.8781 30.8 306.8781 32.284374Q306.8781 33.878124 306.3 35.159374Q305.7375 36.425 304.64374 37.1125Q303.55 37.784374 302.34686 37.784374Q301.47186 37.784374 300.76874 37.409374Q300.08124 37.034374 299.6281 36.471874L299.6281 41.51875L297.8625 41.51875ZM299.45624 32.425Q299.45624 34.425 300.26874 35.378124Q301.08124 36.33125 302.2375 36.33125Q303.40936 36.33125 304.2375 35.346874Q305.08124 34.3625 305.08124 32.26875Q305.08124 30.3 304.2531 29.315624Q303.4406 28.315624 302.3156 28.315624Q301.1906 28.315624 300.3156 29.378124Q299.45624 30.425 299.45624 32.425ZM312.70624 35.971874L312.95624 37.534374Q312.22186 37.690624 311.6281 37.690624Q310.675 37.690624 310.14374 37.39375Q309.6281 37.08125 309.40936 36.596874Q309.1906 36.096874 309.1906 34.51875L309.1906 28.55L307.90936 28.55L307.90936 27.175L309.1906 27.175L309.1906 24.6125L310.9406 23.55L310.9406 27.175L312.70624 27.175L312.70624 28.55L310.9406 28.55L310.9406 34.6125Q310.9406 35.3625 311.03436 35.58125Q311.1281 35.784374 311.33124 35.925Q311.55 36.05 311.9406 36.05Q312.22186 36.05 312.70624 35.971874ZM314.8781 25.253124L314.8781 23.2375L316.64374 23.2375L316.64374 25.253124L314.8781 25.253124ZM314.8781 37.55L314.8781 27.175L316.64374 27.175L316.64374 37.55L314.8781 37.55ZM321.7531 37.55L317.8 27.175L319.65936 27.175L321.89374 33.39375Q322.2531 34.39375 322.55 35.471874Q322.78436 34.659374 323.20624 33.503124L325.5031 27.175L327.3156 27.175L323.39374 37.55L321.7531 37.55ZM335.97186 34.20625L337.78436 34.440624Q337.3625 36.01875 336.1906 36.909374Q335.03436 37.784374 333.22186 37.784374Q330.95624 37.784374 329.6125 36.39375Q328.28436 34.9875 328.28436 32.45625Q328.28436 29.83125 329.6281 28.39375Q330.97186 26.940624 333.1281 26.940624Q335.20624 26.940624 336.51874 28.3625Q337.84686 29.76875 337.84686 32.346874Q337.84686 32.503124 337.83124 32.815624L330.09686 32.815624Q330.1906 34.51875 331.0656 35.425Q331.9406 36.33125 333.2375 36.33125Q334.20624 36.33125 334.8781 35.83125Q335.5656 35.315624 335.97186 34.20625ZM330.1906 31.3625L335.9875 31.3625Q335.8781 30.065624 335.33124 29.409374Q334.4875 28.39375 333.14374 28.39375Q331.9406 28.39375 331.1125 29.20625Q330.28436 30.003124 330.1906 31.3625Z" fill-rule="nonzero"/></svg>