<svg version="1.1" viewBox="0.0 0.0 600.0 371.0" fill="none" stroke="none" stroke-linecap="square" stroke-miterlimit="10" width="600" height="371" xmlns:xlink="http://www.w3.org/1999/xlink" xmlns="http://www.w3.org/2000/svg"><path fill="#ffffff" d="M0 0L600.0 0L600.0 371.0L0 371.0L0 0Z" fill-rule="nonzero"/><path stroke="#cccccc" stroke-width="1.0" stroke-linecap="butt" d="M172.5 61.5L172.5 300.5" fill-rule="nonzero"/><path stroke="#cccccc" stroke-width="1.0" stroke-linecap="butt" d="M271.5 61.5L271.5 300.5" fill-rule="nonzero"/><path stroke="#cccccc" stroke-width="1.0" stroke-linecap="butt" d="M371.5 61.5L371.5 300.5" fill-rule="nonzero"/><path stroke="#cccccc" stroke-width="1.0" stroke-linecap="butt" d="M470.5 61.5L470.5 300.5" fill-rule="nonzero"/><path stroke="#cccccc" stroke-width="1.0" stroke-linecap="butt" d="M569.5 61.5L569.5 300.5" fill-rule="nonzero"/><path stroke="#333333" stroke-width="1.0" stroke-linecap="butt" d="M77.5 300.5L581.5 300.5" fill-rule="nonzero"/><path stroke="#cccccc" stroke-width="1.0" stroke-linecap="butt" d="M77.5 252.5L581.5 252.5" fill-rule="nonzero"/><path stroke="#cccccc" stroke-width="1.0" stroke-linecap="butt" d="M77.5 205.5L581.5 205.5" fill-rule="nonzero"/><path stroke="#cccccc" stroke-width="1.0" stroke-linecap="butt" d="M77.5 157.5L581.5 157.5" fill-rule="nonzero"/><path stroke="#cccccc" stroke-width="1.0" stroke-linecap="butt" d="M77.5 109.5L581.5 109.5" fill-rule="nonzero"/><path stroke="#cccccc" stroke-width="1.0" stroke-linecap="butt" d="M77.5 61.5L581.5 61.5" fill-rule="nonzero"/><clipPath id="id_0"><path d="M77.55 61.916668L581.45 61.916668L581.45 300.45L77.55 300.45L77.55 61.916668Z" clip-rule="nonzero"/></clipPath><path stroke="#4285f4" stroke-width="2.0" stroke-linecap="butt" clip-path="url(#id_0)" d="M77.55 204.10925L81.517715 201.62373L89.45315 200.93771L105.32401 197.51619L137.06575 190.04247L200.54921 174.1447L327.51614 143.97214L581.45 85.77" fill-rule="nonzero"/><path fill="#000000" fill-opacity="0.0" clip-path="url(#id_0)" d="M80.55 204.10925C80.55 205.7661 79.206856 207.10925 77.55 207.10925C75.89314 207.10925 74.55 205.7661 74.55 204.10925C74.55 202.4524 75.89314 201.10925 77.55 201.10925C79.206856 201.10925 80.55 202.4524 80.55 204.10925Z" fill-rule="nonzero"/><path fill="#000000" fill-opacity="0.0" clip-path="url(#id_0)" d="M84.517715 201.62373C84.517715 203.28058 83.17457 204.62373 81.517715 204.62373C79.86086 204.62373 78.517715 203.28058 78.517715 201.62373C78.517715 199.96687 79.86086 198.62373 81.517715 198.62373C83.17457 198.62373 84.517715 199.96687 84.517715 201.62373Z" fill-rule="nonzero"/><path fill="#000000" fill-opacity="0.0" clip-path="url(#id_0)" d="M92.45315 200.93771C92.45315 202.59456 91.11 203.93771 89.45315 203.93771C87.796295 203.93771 86.45315 202.59456 86.45315 200.93771C86.45315 199.28085 87.796295 197.93771 89.45315 197.93771C91.11 197.93771 92.45315 199.28085 92.45315 200.93771Z" fill-rule="nonzero"/><path fill="#000000" fill-opacity="0.0" clip-path="url(#id_0)" d="M108.32401 197.51619C108.32401 199.17303 106.98087 200.51619 105.32401 200.51619C103.66716 200.51619 102.32401 199.17303 102.32401 197.51619C102.32401 195.85933 103.66716 194.51619 105.32401 194.51619C106.98087 194.51619 108.32401 195.85933 108.32401 197.51619Z" fill-rule="nonzero"/><path fill="#000000" fill-opacity="0.0" clip-path="url(#id_0)" d="M140.06575 190.04247C140.06575 191.69931 138.7226 193.04247 137.06575 193.04247C135.40889 193.04247 134.06575 191.69931 134.06575 190.04247C134.06575 188.3856 135.40889 187.04247 137.06575 187.04247C138.7226 187.04247 140.06575 188.3856 140.06575 190.04247Z" fill-rule="nonzero"/><path fill="#000000" fill-opacity="0.0" clip-path="url(#id_0)" d="M203.54921 174.1447C203.54921 175.80154 202.20607 177.1447 200.54921 177.1447C198.89236 177.1447 197.54921 175.80154 197.54921 174.1447C197.54921 172.48784 198.89236 171.1447 200.54921 171.1447C202.20607 171.1447 203.54921 172.48784 203.54921 174.1447Z" fill-rule="nonzero"/><path fill="#000000" fill-opacity="0.0" clip-path="url(#id_0)" d="M330.51614 143.97214C330.51614 145.62898 329.173 146.97214 327.51614 146.97214C325.85928 146.97214 324.51614 145.62898 324.51614 143.97214C324.51614 142.31528 325.85928 140.97214 327.51614 140.97214C329.173 140.97214 330.51614 142.31528 330.51614 143.97214Z" fill-rule="nonzero"/><path fill="#000000" fill-opacity="0.0" clip-path="url(#id_0)" d="M584.45 85.77C584.45 87.42686 583.1069 88.77 581.45 88.77C579.79315 88.77 578.45 87.42686 578.45 85.77C578.45 84.113144 579.79315 82.77 581.45 82.77C583.1069 82.77 584.45 84.113144 584.45 85.77Z" fill-rule="nonzero"/><path fill="#000000" d="M296.42188 349.45L294.14062 340.85626L295.3125 340.85626L296.625 346.4969Q296.82812 347.3719 296.98438 348.2469Q297.3125 346.8719 297.375 346.65314L299.0 340.85626L300.375 340.85626L301.60938 345.2Q302.0625 346.825 302.28125 348.2469Q302.4375 347.4344 302.70312 346.3719L304.04688 340.85626L305.1875 340.85626L302.84375 349.45L301.73438 349.45L299.9375 342.90314Q299.70312 342.09064 299.65625 341.90314Q299.53125 342.48126 299.40625 342.90314L297.59375 349.45L296.42188 349.45ZM305.79688 342.075L305.79688 340.85626L306.85938 340.85626L306.85938 342.075L305.79688 342.075ZM305.79688 349.45L305.79688 343.23126L306.85938 343.23126L306.85938 349.45L305.79688 349.45ZM308.79688 349.45L308.79688 343.23126L309.73438 343.23126L309.73438 344.10626Q310.42188 343.09064 311.71875 343.09064Q312.28125 343.09064 312.75 343.29376Q313.23438 343.4969 313.46875 343.825Q313.70312 344.15314 313.79688 344.59064Q313.84375 344.8875 313.84375 345.6219L313.84375 349.45L312.79688 349.45L312.79688 345.66876Q312.79688 345.0125 312.67188 344.7Q312.54688 344.3875 312.23438 344.2Q311.92188 343.9969 311.5 343.9969Q310.82812 343.9969 310.32812 344.4344Q309.84375 344.85626 309.84375 346.04376L309.84375 349.45L308.79688 349.45ZM319.82812 349.45L319.82812 348.66876Q319.23438 349.59064 318.09375 349.59064Q317.34375 349.59064 316.71875 349.1844Q316.09375 348.7625 315.75 348.02814Q315.40625 347.29376 315.40625 346.34064Q315.40625 345.41876 315.71875 344.65314Q316.03125 343.8875 316.65625 343.4969Q317.28125 343.09064 318.04688 343.09064Q318.60938 343.09064 319.04688 343.325Q319.48438 343.5594 319.76562 343.9344L319.76562 340.85626L320.8125 340.85626L320.8125 349.45L319.82812 349.45ZM316.5 346.34064Q316.5 347.54376 317.0 348.1375Q317.5 348.71564 318.1875 348.71564Q318.875 348.71564 319.35938 348.15314Q319.84375 347.59064 319.84375 346.4344Q319.84375 345.15314 319.34375 344.5594Q318.85938 343.96564 318.14062 343.96564Q317.4375 343.96564 316.96875 344.54376Q316.5 345.10626 316.5 346.34064ZM322.40625 346.34064Q322.40625 344.60626 323.35938 343.77814Q324.15625 343.09064 325.3125 343.09064Q326.59375 343.09064 327.40625 343.9344Q328.23438 344.7625 328.23438 346.2469Q328.23438 347.45 327.875 348.1375Q327.51562 348.825 326.8125 349.21564Q326.125 349.59064 325.3125 349.59064Q324.01562 349.59064 323.20312 348.7625Q322.40625 347.91876 322.40625 346.34064ZM323.48438 346.34064Q323.48438 347.52814 324.0 348.1219Q324.53125 348.71564 325.3125 348.71564Q326.10938 348.71564 326.625 348.1219Q327.14062 347.52814 327.14062 346.3094Q327.14062 345.15314 326.60938 344.5594Q326.09375 343.96564 325.3125 343.96564Q324.53125 343.96564 324.0 344.5594Q323.48438 345.1375 323.48438 346.34064ZM330.9375 349.45L329.03125 343.23126L330.125 343.23126L331.10938 346.825L331.48438 348.15314Q331.51562 348.0594 331.8125 346.8719L332.79688 343.23126L333.875 343.23126L334.8125 346.84064L335.125 348.02814L335.48438 346.825L336.54688 343.23126L337.57812 343.23126L335.625 349.45L334.53125 349.45L333.54688 345.71564L333.29688 344.66876L332.04688 349.45L330.9375 349.45ZM341.54688 346.6844L342.60938 346.59064Q342.6875 347.2469 342.96875 347.65314Q343.25 348.0594 343.82812 348.325Q344.42188 348.575 345.15625 348.575Q345.79688 348.575 346.29688 348.3875Q346.79688 348.1844 347.03125 347.85626Q347.28125 347.5125 347.28125 347.1219Q347.28125 346.71564 347.04688 346.41876Q346.8125 346.10626 346.28125 345.90314Q345.92188 345.7625 344.73438 345.48126Q343.5625 345.2 343.09375 344.95Q342.46875 344.6219 342.17188 344.15314Q341.875 343.66876 341.875 343.075Q341.875 342.4344 342.23438 341.8719Q342.60938 341.29376 343.3125 341.0125Q344.03125 340.71564 344.89062 340.71564Q345.84375 340.71564 346.57812 341.02814Q347.3125 341.325 347.70312 341.9344Q348.09375 342.52814 348.125 343.27814L347.03125 343.35626Q346.9375 342.54376 346.42188 342.1375Q345.92188 341.71564 344.9375 341.71564Q343.90625 341.71564 343.4375 342.09064Q342.96875 342.46564 342.96875 342.9969Q342.96875 343.46564 343.29688 343.7625Q343.625 344.0594 345.0 344.3719Q346.39062 344.6844 346.90625 344.91876Q347.65625 345.27814 348.01562 345.8094Q348.375 346.325 348.375 347.02814Q348.375 347.71564 347.98438 348.325Q347.59375 348.91876 346.85938 349.2625Q346.125 349.59064 345.20312 349.59064Q344.03125 349.59064 343.23438 349.2625Q342.45312 348.91876 342.0 348.23126Q341.5625 347.54376 341.54688 346.6844ZM349.79688 342.075L349.79688 340.85626L350.85938 340.85626L350.85938 342.075L349.79688 342.075ZM349.79688 349.45L349.79688 343.23126L350.85938 343.23126L350.85938 349.45L349.79688 349.45ZM352.23438 349.45L352.23438 348.59064L356.20312 344.04376Q355.51562 344.075 355.0 344.075L352.46875 344.075L352.46875 343.23126L357.5625 343.23126L357.5625 343.91876L354.1875 347.8719L353.53125 348.59064Q354.25 348.54376 354.85938 348.54376L357.75 348.54376L357.75 349.45L352.23438 349.45ZM363.04688 347.45L364.14062 347.575Q363.89062 348.52814 363.1875 349.0594Q362.48438 349.59064 361.40625 349.59064Q360.04688 349.59064 359.23438 348.7469Q358.4375 347.90314 358.4375 346.3875Q358.4375 344.825 359.25 343.96564Q360.0625 343.09064 361.34375 343.09064Q362.59375 343.09064 363.375 343.9344Q364.17188 344.77814 364.17188 346.325Q364.17188 346.41876 364.17188 346.60626L359.53125 346.60626Q359.59375 347.6375 360.10938 348.1844Q360.625 348.71564 361.40625 348.71564Q361.98438 348.71564 362.39062 348.41876Q362.8125 348.10626 363.04688 347.45ZM359.59375 345.7469L363.0625 345.7469Q363.0 344.95 362.67188 344.5594Q362.15625 343.95 361.35938 343.95Q360.625 343.95 360.125 344.4344Q359.64062 344.91876 359.59375 345.7469Z" fill-rule="nonzero"/><path fill="#000000" d="M29.550013 261.76147L20.956263 261.76147L20.956263 258.51147Q20.956263 257.66772 21.034388 257.2146Q21.143763 256.57397 21.440638 256.1521Q21.737513 255.71458 22.268763 255.46458Q22.800013 255.19896 23.440638 255.19896Q24.534388 255.19896 25.300013 255.90208Q26.050013 256.5896 26.050013 258.41772L26.050013 260.62085L29.550013 260.62085L29.550013 261.76147ZM25.050013 260.62085L25.050013 258.4021Q25.050013 257.29272 24.643763 256.8396Q24.221888 256.37085 23.471888 256.37085Q22.940638 256.37085 22.565638 256.6521Q22.175013 256.91772 22.050013 257.35522Q21.971888 257.6521 21.971888 258.41772L21.971888 260.62085L25.050013 260.62085ZM27.550013 249.63646L27.675013 248.54271Q28.628138 248.79271 29.159388 249.49583Q29.690638 250.19896 29.690638 251.27708Q29.690638 252.63646 28.846888 253.44896Q28.003138 254.24583 26.487513 254.24583Q24.925013 254.24583 24.065638 253.43333Q23.190638 252.62083 23.190638 251.33958Q23.190638 250.08958 24.034388 249.30833Q24.878138 248.51146 26.425013 248.51146Q26.518763 248.51146 26.706263 248.51146L26.706263 253.15208Q27.737513 253.08958 28.284388 252.57396Q28.815638 252.05833 28.815638 251.27708Q28.815638 250.69896 28.518763 250.29271Q28.206263 249.87083 27.550013 249.63646ZM25.846888 253.08958L25.846888 249.62083Q25.050013 249.68333 24.659388 250.01146Q24.050013 250.52708 24.050013 251.32396Q24.050013 252.05833 24.534388 252.55833Q25.018763 253.04271 25.846888 253.08958ZM29.550013 246.90208L23.331263 246.90208L23.331263 245.94896L24.268763 245.94896Q23.612513 245.58958 23.409388 245.29271Q23.190638 244.98021 23.190638 244.60521Q23.190638 244.07396 23.518763 243.52708L24.503138 243.88646Q24.268763 244.27708 24.268763 244.65208Q24.268763 245.01146 24.487513 245.29271Q24.690638 245.55833 25.065638 245.66771Q25.628138 245.85521 26.284388 245.85521L29.550013 245.85521L29.550013 246.90208ZM29.550013 239.88646L23.331263 239.88646L23.331263 238.94896L24.206263 238.94896Q23.737513 238.65208 23.471888 238.16771Q23.190638 237.68333 23.190638 237.05833Q23.190638 236.37083 23.471888 235.93333Q23.753138 235.48021 24.268763 235.30833Q23.190638 234.55833 23.190638 233.38646Q23.190638 232.44896 23.706263 231.96458Q24.206263 231.46458 25.284388 231.46458L29.550013 231.46458L29.550013 232.51146L25.628138 232.51146Q25.003138 232.51146 24.721888 232.62083Q24.440638 232.71458 24.268763 232.98021Q24.096888 233.24583 24.096888 233.62083Q24.096888 234.27708 24.534388 234.71458Q24.971888 235.13646 25.940638 235.13646L29.550013 235.13646L29.550013 236.19896L25.503138 236.19896Q24.800013 236.19896 24.456263 236.46458Q24.096888 236.71458 24.096888 237.29271Q24.096888 237.74583 24.331263 238.12083Q24.565638 238.49583 25.018763 238.66771Q25.471888 238.83958 26.315638 238.83958L29.550013 238.83958L29.550013 239.88646ZM27.550013 225.63646L27.675013 224.54271Q28.628138 224.79271 29.159388 225.49583Q29.690638 226.19896 29.690638 227.27708Q29.690638 228.63646 28.846888 229.44896Q28.003138 230.24583 26.487513 230.24583Q24.925013 230.24583 24.065638 229.43333Q23.190638 228.62083 23.190638 227.33958Q23.190638 226.08958 24.034388 225.30833Q24.878138 224.51146 26.425013 224.51146Q26.518763 224.51146 26.706263 224.51146L26.706263 229.15208Q27.737513 229.08958 28.284388 228.57396Q28.815638 228.05833 28.815638 227.27708Q28.815638 226.69896 28.518763 226.29271Q28.206263 225.87083 27.550013 225.63646ZM25.846888 229.08958L25.846888 225.62083Q25.050013 225.68333 24.659388 226.01146Q24.050013 226.52708 24.050013 227.32396Q24.050013 228.05833 24.534388 228.55833Q25.018763 229.04271 25.846888 229.08958ZM28.784388 218.82396Q29.284388 219.41771 29.487513 219.96458Q29.690638 220.49583 29.690638 221.12083Q29.690638 222.15208 29.190638 222.69896Q28.690638 223.24583 27.909388 223.24583Q27.456263 223.24583 27.081263 223.04271Q26.690638 222.83958 26.471888 222.49583Q26.237513 222.15208 26.128138 221.73021Q26.034388 221.43333 25.956263 220.79271Q25.815638 219.52708 25.596888 218.91771Q25.378138 218.91771 25.331263 218.91771Q24.675013 218.91771 24.409388 219.21458Q24.065638 219.62083 24.065638 220.41771Q24.065638 221.15208 24.331263 221.51146Q24.581263 221.87083 25.237513 222.04271L25.096888 223.07396Q24.440638 222.93333 24.034388 222.60521Q23.628138 222.27708 23.409388 221.66771Q23.190638 221.05833 23.190638 220.26146Q23.190638 219.46458 23.378138 218.96458Q23.565638 218.46458 23.846888 218.23021Q24.128138 217.99583 24.565638 217.90208Q24.831263 217.85521 25.534388 217.85521L26.940638 217.85521Q28.409388 217.85521 28.800013 217.79271Q29.190638 217.71458 29.550013 217.51146L29.550013 218.62083Q29.221888 218.77708 28.784388 218.82396ZM26.425013 218.91771Q26.659388 219.49583 26.831263 220.63646Q26.925013 221.29271 27.050013 221.55833Q27.159388 221.82396 27.378138 221.98021Q27.596888 222.12083 27.878138 222.12083Q28.300013 222.12083 28.581263 221.80833Q28.862513 221.48021 28.862513 220.87083Q28.862513 220.26146 28.596888 219.79271Q28.331263 219.30833 27.862513 219.08958Q27.503138 218.91771 26.815638 218.91771L26.425013 218.91771ZM27.690638 216.30833L27.534388 215.27708Q28.159388 215.18333 28.487513 214.79271Q28.815638 214.38646 28.815638 213.65208Q28.815638 212.93333 28.534388 212.58958Q28.237513 212.23021 27.831263 212.23021Q27.471888 212.23021 27.268763 212.54271Q27.128138 212.76146 26.909388 213.62083Q26.612513 214.77708 26.409388 215.23021Q26.190638 215.66771 25.815638 215.90208Q25.440638 216.13646 24.971888 216.13646Q24.565638 216.13646 24.206263 215.94896Q23.846888 215.76146 23.612513 215.43333Q23.440638 215.18333 23.315638 214.76146Q23.190638 214.33958 23.190638 213.83958Q23.190638 213.12083 23.409388 212.57396Q23.612513 212.01146 23.971888 211.74583Q24.331263 211.48021 24.925013 211.38646L25.065638 212.41771Q24.596888 212.48021 24.331263 212.82396Q24.050013 213.15208 24.050013 213.77708Q24.050013 214.49583 24.300013 214.80833Q24.534388 215.12083 24.862513 215.12083Q25.065638 215.12083 25.221888 214.99583Q25.393763 214.85521 25.503138 214.58958Q25.565638 214.43333 25.768763 213.65208Q26.081263 212.52708 26.268763 212.08958Q26.456263 211.65208 26.815638 211.40208Q27.175013 211.15208 27.721888 211.15208Q28.253138 211.15208 28.721888 211.46458Q29.175013 211.76146 29.440638 212.33958Q29.690638 212.91771 29.690638 213.65208Q29.690638 214.87083 29.190638 215.51146Q28.675013 216.13646 27.690638 216.30833ZM29.550013 205.80833L28.628138 205.80833Q29.690638 206.54271 29.690638 207.79271Q29.690638 208.33958 29.487513 208.82396Q29.268763 209.29271 28.956263 209.52708Q28.628138 209.76146 28.159388 209.85521Q27.862513 209.91771 27.175013 209.91771L23.331263 209.91771L23.331263 208.85521L26.784388 208.85521Q27.596888 208.85521 27.893763 208.79271Q28.300013 208.69896 28.550013 208.38646Q28.784388 208.05833 28.784388 207.57396Q28.784388 207.10521 28.550013 206.69896Q28.300013 206.27708 27.878138 206.10521Q27.456263 205.91771 26.659388 205.91771L23.331263 205.91771L23.331263 204.87083L29.550013 204.87083L29.550013 205.80833ZM29.550013 202.90208L23.331263 202.90208L23.331263 201.94896L24.268763 201.94896Q23.612513 201.58958 23.409388 201.29271Q23.190638 200.98021 23.190638 200.60521Q23.190638 200.07396 23.518763 199.52708L24.503138 199.88646Q24.268763 200.27708 24.268763 200.65208Q24.268763 201.01146 24.487513 201.29271Q24.690638 201.55833 25.065638 201.66771Q25.628138 201.85521 26.284388 201.85521L29.550013 201.85521L29.550013 202.90208ZM27.550013 194.63646L27.675013 193.54271Q28.628138 193.79271 29.159388 194.49583Q29.690638 195.19896 29.690638 196.27708Q29.690638 197.63646 28.846888 198.44896Q28.003138 199.24583 26.487513 199.24583Q24.925013 199.24583 24.065638 198.43333Q23.190638 197.62083 23.190638 196.33958Q23.190638 195.08958 24.034388 194.30833Q24.878138 193.51146 26.425013 193.51146Q26.518763 193.51146 26.706263 193.51146L26.706263 198.15208Q27.737513 198.08958 28.284388 197.57396Q28.815638 197.05833 28.815638 196.27708Q28.815638 195.69896 28.518763 195.29271Q28.206263 194.87083 27.550013 194.63646ZM25.846888 198.08958L25.846888 194.62083Q25.050013 194.68333 24.659388 195.01146Q24.050013 195.52708 24.050013 196.32396Q24.050013 197.05833 24.534388 197.55833Q25.018763 198.04271 25.846888 198.08958ZM29.550013 191.88646L23.331263 191.88646L23.331263 190.94896L24.206263 190.94896Q23.737513 190.65208 23.471888 190.16771Q23.190638 189.68333 23.190638 189.05833Q23.190638 188.37083 23.471888 187.93333Q23.753138 187.48021 24.268763 187.30833Q23.190638 186.55833 23.190638 185.38646Q23.190638 184.44896 23.706263 183.96458Q24.206263 183.46458 25.284388 183.46458L29.550013 183.46458L29.550013 184.51146L25.628138 184.51146Q25.003138 184.51146 24.721888 184.62083Q24.440638 184.71458 24.268763 184.98021Q24.096888 185.24583 24.096888 185.62083Q24.096888 186.27708 24.534388 186.71458Q24.971888 187.13646 25.940638 187.13646L29.550013 187.13646L29.550013 188.19896L25.503138 188.19896Q24.800013 188.19896 24.456263 188.46458Q24.096888 188.71458 24.096888 189.29271Q24.096888 189.74583 24.331263 190.12083Q24.565638 190.49583 25.018763 190.66771Q25.471888 190.83958 26.315638 190.83958L29.550013 190.83958L29.550013 191.88646ZM27.550013 177.63646L27.675013 176.54271Q28.628138 176.79271 29.159388 177.49583Q29.690638 178.19896 29.690638 179.27708Q29.690638 180.63646 28.846888 181.44896Q28.003138 182.24583 26.487513 182.24583Q24.925013 182.24583 24.065638 181.43333Q23.190638 180.62083 23.190638 179.33958Q23.190638 178.08958 24.034388 177.30833Q24.878138 176.51146 26.425013 176.51146Q26.518763 176.51146 26.706263 176.51146L26.706263 181.15208Q27.737513 181.08958 28.284388 180.57396Q28.815638 180.05833 28.815638 179.27708Q28.815638 178.69896 28.518763 178.29271Q28.206263 177.87083 27.550013 177.63646ZM25.846888 181.08958L25.846888 177.62083Q25.050013 177.68333 24.659388 178.01146Q24.050013 178.52708 24.050013 179.32396Q24.050013 180.05833 24.534388 180.55833Q25.018763 181.04271 25.846888 181.08958ZM29.550013 174.88646L23.331263 174.88646L23.331263 173.94896L24.206263 173.94896Q23.190638 173.26146 23.190638 171.96458Q23.190638 171.40208 23.393763 170.93333Q23.596888 170.44896 23.925013 170.21458Q24.253138 169.98021 24.690638 169.88646Q24.987513 169.83958 25.721888 169.83958L29.550013 169.83958L29.550013 170.88646L25.768763 170.88646Q25.112513 170.88646 24.800013 171.01146Q24.487513 171.13646 24.300013 171.44896Q24.096888 171.76146 24.096888 172.18333Q24.096888 172.85521 24.534388 173.35521Q24.956263 173.83958 26.143763 173.83958L29.550013 173.83958L29.550013 174.88646ZM28.612513 165.58958L29.534388 165.43333Q29.628138 165.88646 29.628138 166.23021Q29.628138 166.80833 29.456263 167.12083Q29.268763 167.43333 28.971888 167.57396Q28.675013 167.69896 27.721888 167.69896L24.143763 167.69896L24.143763 168.46458L23.331263 168.46458L23.331263 167.69896L21.784388 167.69896L21.159388 166.65208L23.331263 166.65208L23.331263 165.58958L24.143763 165.58958L24.143763 166.65208L27.784388 166.65208Q28.237513 166.65208 28.362513 166.60521Q28.487513 166.54271 28.565638 166.41771Q28.643763 166.29271 28.643763 166.05833Q28.643763 165.87083 28.612513 165.58958ZM28.612513 159.58958L29.534388 159.43333Q29.628138 159.88646 29.628138 160.23021Q29.628138 160.80833 29.456263 161.12083Q29.268763 161.43333 28.971888 161.57396Q28.675013 161.69896 27.721888 161.69896L24.143763 161.69896L24.143763 162.46458L23.331263 162.46458L23.331263 161.69896L21.784388 161.69896L21.159388 160.65208L23.331263 160.65208L23.331263 159.58958L24.143763 159.58958L24.143763 160.65208L27.784388 160.65208Q28.237513 160.65208 28.362513 160.60521Q28.487513 160.54271 28.565638 160.41771Q28.643763 160.29271 28.643763 160.05833Q28.643763 159.87083 28.612513 159.58958ZM22.175013 158.88646L20.956263 158.88646L20.956263 157.82396L22.175013 157.82396L22.175013 158.88646ZM29.550013 158.88646L23.331263 158.88646L23.331263 157.82396L29.550013 157.82396L29.550013 158.88646ZM29.550013 155.88646L23.331263 155.88646L23.331263 154.94896L24.206263 154.94896Q23.737513 154.65208 23.471888 154.16771Q23.190638 153.68333 23.190638 153.05833Q23.190638 152.37083 23.471888 151.93333Q23.753138 151.48021 24.268763 151.30833Q23.190638 150.55833 23.190638 149.38646Q23.190638 148.44896 23.706263 147.96458Q24.206263 147.46458 25.284388 147.46458L29.550013 147.46458L29.550013 148.51146L25.628138 148.51146Q25.003138 148.51146 24.721888 148.62083Q24.440638 148.71458 24.268763 148.98021Q24.096888 149.24583 24.096888 149.62083Q24.096888 150.27708 24.534388 150.71458Q24.971888 151.13646 25.940638 151.13646L29.550013 151.13646L29.550013 152.19896L25.503138 152.19896Q24.800013 152.19896 24.456263 152.46458Q24.096888 152.71458 24.096888 153.29271Q24.096888 153.74583 24.331263 154.12083Q24.565638 154.49583 25.018763 154.66771Q25.471888 154.83958 26.315638 154.83958L29.550013 154.83958L29.550013 155.88646ZM27.550013 141.63646L27.675013 140.54271Q28.628138 140.79271 29.159388 141.49583Q29.690638 142.19896 29.690638 143.27708Q29.690638 144.63646 28.846888 145.44896Q28.003138 146.24583 26.487513 146.24583Q24.925013 146.24583 24.065638 145.43333Q23.190638 144.62083 23.190638 143.33958Q23.190638 142.08958 24.034388 141.30833Q24.878138 140.51146 26.425013 140.51146Q26.518763 140.51146 26.706263 140.51146L26.706263 145.15208Q27.737513 145.08958 28.284388 144.57396Q28.815638 144.05833 28.815638 143.27708Q28.815638 142.69896 28.518763 142.29271Q28.206263 141.87083 27.550013 141.63646ZM25.846888 145.08958L25.846888 141.62083Q25.050013 141.68333 24.659388 142.01146Q24.050013 142.52708 24.050013 143.32396Q24.050013 144.05833 24.534388 144.55833Q25.018763 145.04271 25.846888 145.08958ZM32.08126 133.87083Q30.971888 134.74583 29.503138 135.35521Q28.018763 135.94896 26.440638 135.94896Q25.050013 135.94896 23.768763 135.51146Q22.284388 134.98021 20.815638 133.87083L20.815638 133.12083Q22.034388 133.82396 22.550013 134.05833Q23.362513 134.41771 24.237513 134.62083Q25.331263 134.87083 26.440638 134.87083Q29.268763 134.87083 32.08126 133.12083L32.08126 133.87083ZM29.550013 131.88646L23.331263 131.88646L23.331263 130.94896L24.206263 130.94896Q23.737513 130.65208 23.471888 130.16771Q23.190638 129.68333 23.190638 129.05833Q23.190638 128.37083 23.471888 127.933334Q23.753138 127.48021 24.268763 127.308334Q23.190638 126.558334 23.190638 125.38646Q23.190638 124.44896 23.706263 123.964584Q24.206263 123.464584 25.284388 123.464584L29.550013 123.464584L29.550013 124.51146L25.628138 124.51146Q25.003138 124.51146 24.721888 124.620834Q24.440638 124.714584 24.268763 124.98021Q24.096888 125.245834 24.096888 125.620834Q24.096888 126.277084 24.534388 126.714584Q24.971888 127.13646 25.940638 127.13646L29.550013 127.13646L29.550013 128.19896L25.503138 128.19896Q24.800013 128.19896 24.456263 128.46458Q24.096888 128.71458 24.096888 129.29271Q24.096888 129.74583 24.331263 130.12083Q24.565638 130.49583 25.018763 130.66771Q25.471888 130.83958 26.315638 130.83958L29.550013 130.83958L29.550013 131.88646ZM27.690638 122.308334L27.534388 121.277084Q28.159388 121.183334 28.487513 120.79271Q28.815638 120.38646 28.815638 119.652084Q28.815638 118.933334 28.534388 118.589584Q28.237513 118.23021 27.831263 118.23021Q27.471888 118.23021 27.268763 118.54271Q27.128138 118.76146 26.909388 119.620834Q26.612513 120.777084 26.409388 121.23021Q26.190638 121.66771 25.815638 121.902084Q25.440638 122.13646 24.971888 122.13646Q24.565638 122.13646 24.206263 121.94896Q23.846888 121.76146 23.612513 121.433334Q23.440638 121.183334 23.315638 120.76146Q23.190638 120.339584 23.190638 119.839584Q23.190638 119.120834 23.409388 118.57396Q23.612513 118.01146 23.971888 117.745834Q24.331263 117.48021 24.925013 117.38646L25.065638 118.41771Q24.596888 118.48021 24.331263 118.82396Q24.050013 119.152084 24.050013 119.777084Q24.050013 120.495834 24.300013 120.808334Q24.534388 121.120834 24.862513 121.120834Q25.065638 121.120834 25.221888 120.995834Q25.393763 120.85521 25.503138 120.589584Q25.565638 120.433334 25.768763 119.652084Q26.081263 118.527084 26.268763 118.089584Q26.456263 117.652084 26.815638 117.402084Q27.175013 117.152084 27.721888 117.152084Q28.253138 117.152084 28.721888 117.464584Q29.175013 117.76146 29.440638 118.339584Q29.690638 118.91771 29.690638 119.652084Q29.690638 120.870834 29.190638 121.51146Q28.675013 122.13646 27.690638 122.308334ZM32.08126 115.19896L32.08126 115.94896Q29.268763 114.19896 26.440638 114.19896Q25.346888 114.19896 24.253138 114.44896Q23.378138 114.652084 22.565638 115.01146Q22.050013 115.245834 20.815638 115.94896L20.815638 115.19896Q22.284388 114.10521 23.768763 113.57396Q25.050013 113.120834 26.440638 113.120834Q28.018763 113.120834 29.503138 113.73021Q30.971888 114.339584 32.08126 115.19896Z" fill-rule="nonzero"/><path fill="#000000" d="M55.05 300.21564Q55.05 298.6844 55.3625 297.7625Q55.675 296.825 56.284374 296.325Q56.909374 295.825 57.846874 295.825Q58.534374 295.825 59.05 296.10626Q59.58125 296.3875 59.925 296.91876Q60.26875 297.4344 60.45625 298.1844Q60.64375 298.9344 60.64375 300.21564Q60.64375 301.73126 60.33125 302.65314Q60.034374 303.575 59.409374 304.09064Q58.8 304.59064 57.846874 304.59064Q56.6125 304.59064 55.89375 303.7Q55.05 302.6375 55.05 300.21564ZM56.128124 300.21564Q56.128124 302.325 56.628124 303.02814Q57.128124 303.73126 57.846874 303.73126Q58.58125 303.73126 59.065624 303.02814Q59.565624 302.325 59.565624 300.21564Q59.565624 298.09064 59.065624 297.40314Q58.58125 296.7 57.83125 296.7Q57.1125 296.7 56.675 297.3094Q56.128124 298.09064 56.128124 300.21564ZM62.64375 304.45L62.64375 303.2469L63.846874 303.2469L63.846874 304.45L62.64375 304.45ZM65.05 300.21564Q65.05 298.6844 65.3625 297.7625Q65.675 296.825 66.28438 296.325Q66.90938 295.825 67.84688 295.825Q68.53438 295.825 69.05 296.10626Q69.58125 296.3875 69.925 296.91876Q70.26875 297.4344 70.45625 298.1844Q70.64375 298.9344 70.64375 300.21564Q70.64375 301.73126 70.33125 302.65314Q70.03438 303.575 69.40938 304.09064Q68.8 304.59064 67.84688 304.59064Q66.6125 304.59064 65.89375 303.7Q65.05 302.6375 65.05 300.21564ZM66.12813 300.21564Q66.12813 302.325 66.62813 303.02814Q67.12813 303.73126 67.84688 303.73126Q68.58125 303.73126 69.06563 303.02814Q69.56563 302.325 69.56563 300.21564Q69.56563 298.09064 69.06563 297.40314Q68.58125 296.7 67.83125 296.7Q67.1125 296.7 66.675 297.3094Q66.12813 298.09064 66.12813 300.21564Z" fill-rule="nonzero"/><path fill="#000000" d="M55.05 252.50897Q55.05 250.97772 55.3625 250.05585Q55.675 249.11835 56.284374 248.61835Q56.909374 248.11835 57.846874 248.11835Q58.534374 248.11835 59.05 248.3996Q59.58125 248.68085 59.925 249.2121Q60.26875 249.72772 60.45625 250.47772Q60.64375 251.22772 60.64375 252.50897Q60.64375 254.0246 60.33125 254.94647Q60.034374 255.86835 59.409374 256.38397Q58.8 256.88397 57.846874 256.88397Q56.6125 256.88397 55.89375 255.99335Q55.05 254.93085 55.05 252.50897ZM56.128124 252.50897Q56.128124 254.61835 56.628124 255.32147Q57.128124 256.0246 57.846874 256.0246Q58.58125 256.0246 59.065624 255.32147Q59.565624 254.61835 59.565624 252.50897Q59.565624 250.38397 59.065624 249.69647Q58.58125 248.99335 57.83125 248.99335Q57.1125 248.99335 56.675 249.60272Q56.128124 250.38397 56.128124 252.50897ZM62.64375 256.74335L62.64375 255.54022L63.846874 255.54022L63.846874 256.74335L62.64375 256.74335ZM65.05 254.49335L66.15938 254.3996Q66.28438 255.2121 66.72188 255.61835Q67.175 256.0246 67.81563 256.0246Q68.56563 256.0246 69.09688 255.44647Q69.62813 254.86835 69.62813 253.93085Q69.62813 253.0246 69.1125 252.50897Q68.6125 251.97772 67.78438 251.97772Q67.28438 251.97772 66.8625 252.2121Q66.45625 252.44647 66.22188 252.80585L65.2375 252.68085L66.06563 248.2746L70.34688 248.2746L70.34688 249.2746L66.90938 249.2746L66.45625 251.5871Q67.22188 251.04022 68.06563 251.04022Q69.19063 251.04022 69.95625 251.82147Q70.7375 252.60272 70.7375 253.8371Q70.7375 254.99335 70.06563 255.85272Q69.2375 256.88397 67.81563 256.88397Q66.64375 256.88397 65.89375 256.22772Q65.15938 255.57147 65.05 254.49335Z" fill-rule="nonzero"/><path fill="#000000" d="M59.01875 209.03667L57.971874 209.03667L57.971874 202.31792Q57.58125 202.67729 56.95625 203.05229Q56.346874 203.41167 55.8625 203.58354L55.8625 202.56792Q56.7375 202.14604 57.39375 201.56792Q58.065624 200.97417 58.346874 200.41167L59.01875 200.41167L59.01875 209.03667ZM62.64375 209.03667L62.64375 207.83354L63.846874 207.83354L63.846874 209.03667L62.64375 209.03667ZM65.05 204.80229Q65.05 203.27104 65.3625 202.34917Q65.675 201.41167 66.28438 200.91167Q66.90938 200.41167 67.84688 200.41167Q68.53438 200.41167 69.05 200.69292Q69.58125 200.97417 69.925 201.50542Q70.26875 202.02104 70.45625 202.77104Q70.64375 203.52104 70.64375 204.80229Q70.64375 206.31792 70.33125 207.23979Q70.03438 208.16167 69.40938 208.67729Q68.8 209.17729 67.84688 209.17729Q66.6125 209.17729 65.89375 208.28667Q65.05 207.22417 65.05 204.80229ZM66.12813 204.80229Q66.12813 206.91167 66.62813 207.61479Q67.12813 208.31792 67.84688 208.31792Q68.58125 208.31792 69.06563 207.61479Q69.56563 206.91167 69.56563 204.80229Q69.56563 202.67729 69.06563 201.98979Q68.58125 201.28667 67.83125 201.28667Q67.1125 201.28667 66.675 201.89604Q66.12813 202.67729 66.12813 204.80229Z" fill-rule="nonzero"/><path fill="#000000" d="M59.01875 161.33L57.971874 161.33L57.971874 154.61125Q57.58125 154.97063 56.95625 155.34563Q56.346874 155.705 55.8625 155.87688L55.8625 154.86125Q56.7375 154.43938 57.39375 153.86125Q58.065624 153.2675 58.346874 152.705L59.01875 152.705L59.01875 161.33ZM62.64375 161.33L62.64375 160.12688L63.846874 160.12688L63.846874 161.33L62.64375 161.33ZM65.05 159.08L66.15938 158.98625Q66.28438 159.79875 66.72188 160.205Q67.175 160.61125 67.81563 160.61125Q68.56563 160.61125 69.09688 160.03313Q69.62813 159.455 69.62813 158.5175Q69.62813 157.61125 69.1125 157.09563Q68.6125 156.56438 67.78438 156.56438Q67.28438 156.56438 66.8625 156.79875Q66.45625 157.03313 66.22188 157.3925L65.2375 157.2675L66.06563 152.86125L70.34688 152.86125L70.34688 153.86125L66.90938 153.86125L66.45625 156.17375Q67.22188 155.62688 68.06563 155.62688Q69.19063 155.62688 69.95625 156.40813Q70.7375 157.18938 70.7375 158.42375Q70.7375 159.58 70.06563 160.43938Q69.2375 161.47063 67.81563 161.47063Q66.64375 161.47063 65.89375 160.81438Q65.15938 160.15813 65.05 159.08Z" fill-rule="nonzero"/><path fill="#000000" d="M60.596874 112.60771L60.596874 113.62334L54.909374 113.62334Q54.909374 113.24834 55.034374 112.88896Q55.253124 112.31084 55.721874 111.74834Q56.20625 111.18584 57.1125 110.45146Q58.51875 109.29521 59.003124 108.62334Q59.503124 107.95146 59.503124 107.35771Q59.503124 106.73271 59.05 106.31084Q58.596874 105.87334 57.878124 105.87334Q57.1125 105.87334 56.659374 106.32646Q56.20625 106.77959 56.190624 107.59209L55.1125 107.48271Q55.221874 106.26396 55.940624 105.63896Q56.675 104.99834 57.909374 104.99834Q59.14375 104.99834 59.8625 105.68584Q60.58125 106.37334 60.58125 107.38896Q60.58125 107.90459 60.3625 108.40459Q60.159374 108.88896 59.659374 109.45146Q59.175 109.99834 58.05 110.95146Q57.096874 111.74834 56.815624 112.04521Q56.55 112.32646 56.378124 112.60771L60.596874 112.60771ZM62.64375 113.62334L62.64375 112.42021L63.846874 112.42021L63.846874 113.62334L62.64375 113.62334ZM65.05 109.38896Q65.05 107.85771 65.3625 106.93584Q65.675 105.99834 66.28438 105.49834Q66.90938 104.99834 67.84688 104.99834Q68.53438 104.99834 69.05 105.27959Q69.58125 105.56084 69.925 106.09209Q70.26875 106.60771 70.45625 107.35771Q70.64375 108.10771 70.64375 109.38896Q70.64375 110.90459 70.33125 111.82646Q70.03438 112.74834 69.40938 113.26396Q68.8 113.76396 67.84688 113.76396Q66.6125 113.76396 65.89375 112.87334Q65.05 111.81084 65.05 109.38896ZM66.12813 109.38896Q66.12813 111.49834 66.62813 112.20146Q67.12813 112.90459 67.84688 112.90459Q68.58125 112.90459 69.06563 112.20146Q69.56563 111.49834 69.56563 109.38896Q69.56563 107.26396 69.06563 106.57646Q68.58125 105.87334 67.83125 105.87334Q67.1125 105.87334 66.675 106.48271Q66.12813 107.26396 66.12813 109.38896Z" fill-rule="nonzero"/><path fill="#000000" d="M60.596874 64.90104L60.596874 65.916664L54.909374 65.916664Q54.909374 65.541664 55.034374 65.18229Q55.253124 64.604164 55.721874 64.041664Q56.20625 63.479164 57.1125 62.74479Q58.51875 61.58854 59.003124 60.916664Q59.503124 60.24479 59.503124 59.65104Q59.503124 59.02604 59.05 58.604164Q58.596874 58.166664 57.878124 58.166664Q57.1125 58.166664 56.659374 58.61979Q56.20625 59.072914 56.190624 59.885414L55.1125 59.77604Q55.221874 58.55729 55.940624 57.93229Q56.675 57.291664 57.909374 57.291664Q59.14375 57.291664 59.8625 57.979164Q60.58125 58.666664 60.58125 59.68229Q60.58125 60.197914 60.3625 60.697914Q60.159374 61.18229 59.659374 61.74479Q59.175 62.291664 58.05 63.24479Q57.096874 64.041664 56.815624 64.33854Q56.55 64.61979 56.378124 64.90104L60.596874 64.90104ZM62.64375 65.916664L62.64375 64.71354L63.846874 64.71354L63.846874 65.916664L62.64375 65.916664ZM65.05 63.666664L66.15938 63.572914Q66.28438 64.385414 66.72188 64.791664Q67.175 65.197914 67.81563 65.197914Q68.56563 65.197914 69.09688 64.61979Q69.62813 64.041664 69.62813 63.104164Q69.62813 62.197914 69.1125 61.68229Q68.6125 61.15104 67.78438 61.15104Q67.28438 61.15104 66.8625 61.385414Q66.45625 61.61979 66.22188 61.979164L65.2375 61.854164L66.06563 57.447914L70.34688 57.447914L70.34688 58.447914L66.90938 58.447914L66.45625 60.760414Q67.22188 60.21354 68.06563 60.21354Q69.19063 60.21354 69.95625 60.99479Q70.7375 61.77604 70.7375 63.010414Q70.7375 64.166664 70.06563 65.02604Q69.2375 66.05729 67.81563 66.05729Q66.64375 66.05729 65.89375 65.40104Q65.15938 64.74479 65.05 63.666664Z" fill-rule="nonzero"/><path fill="#000000" d="M168.32207 316.4344L168.32207 317.45L162.63457 317.45Q162.63457 317.075 162.75957 316.71564Q162.97832 316.1375 163.44707 315.575Q163.93144 315.0125 164.83769 314.27814Q166.24394 313.1219 166.72832 312.45Q167.22832 311.77814 167.22832 311.1844Q167.22832 310.5594 166.77519 310.1375Q166.32207 309.7 165.60332 309.7Q164.83769 309.7 164.38457 310.15314Q163.93144 310.60626 163.91582 311.41876L162.83769 311.3094Q162.94707 310.09064 163.66582 309.46564Q164.40019 308.825 165.63457 308.825Q166.86894 308.825 167.58769 309.5125Q168.30644 310.2 168.30644 311.21564Q168.30644 311.73126 168.08769 312.23126Q167.88457 312.71564 167.38457 313.27814Q166.90019 313.825 165.77519 314.77814Q164.82207 315.575 164.54082 315.8719Q164.27519 316.15314 164.10332 316.4344L168.32207 316.4344ZM169.77519 315.2L170.88457 315.10626Q171.00957 315.91876 171.44707 316.325Q171.90019 316.73126 172.54082 316.73126Q173.29082 316.73126 173.82207 316.15314Q174.35332 315.575 174.35332 314.6375Q174.35332 313.73126 173.83769 313.21564Q173.33769 312.6844 172.50957 312.6844Q172.00957 312.6844 171.58769 312.91876Q171.18144 313.15314 170.94707 313.5125L169.96269 313.3875L170.79082 308.98126L175.07207 308.98126L175.07207 309.98126L171.63457 309.98126L171.18144 312.29376Q171.94707 311.7469 172.79082 311.7469Q173.91582 311.7469 174.68144 312.52814Q175.46269 313.3094 175.46269 314.54376Q175.46269 315.7 174.79082 316.5594Q173.96269 317.59064 172.54082 317.59064Q171.36894 317.59064 170.61894 316.9344Q169.88457 316.27814 169.77519 315.2ZM176.77519 313.21564Q176.77519 311.6844 177.08769 310.7625Q177.40019 309.825 178.00957 309.325Q178.63457 308.825 179.57207 308.825Q180.25957 308.825 180.77519 309.10626Q181.30644 309.3875 181.65019 309.91876Q181.99394 310.4344 182.18144 311.1844Q182.36894 311.9344 182.36894 313.21564Q182.36894 314.73126 182.05644 315.65314Q181.75957 316.575 181.13457 317.09064Q180.52519 317.59064 179.57207 317.59064Q178.33769 317.59064 177.61894 316.7Q176.77519 315.6375 176.77519 313.21564ZM177.85332 313.21564Q177.85332 315.325 178.35332 316.02814Q178.85332 316.73126 179.57207 316.73126Q180.30644 316.73126 180.79082 316.02814Q181.29082 315.325 181.29082 313.21564Q181.29082 311.09064 180.79082 310.40314Q180.30644 309.7 179.55644 309.7Q178.83769 309.7 178.40019 310.3094Q177.85332 311.09064 177.85332 313.21564Z" fill-rule="nonzero"/><path fill="#000000" d="M261.9681 315.2L263.07748 315.10626Q263.20248 315.91876 263.63998 316.325Q264.0931 316.73126 264.73373 316.73126Q265.48373 316.73126 266.01498 316.15314Q266.54623 315.575 266.54623 314.6375Q266.54623 313.73126 266.0306 313.21564Q265.5306 312.6844 264.70248 312.6844Q264.20248 312.6844 263.7806 312.91876Q263.37436 313.15314 263.13998 313.5125L262.1556 313.3875L262.98373 308.98126L267.26498 308.98126L267.26498 309.98126L263.82748 309.98126L263.37436 312.29376Q264.13998 311.7469 264.98373 311.7469Q266.10873 311.7469 266.87436 312.52814Q267.6556 313.3094 267.6556 314.54376Q267.6556 315.7 266.98373 316.5594Q266.1556 317.59064 264.73373 317.59064Q263.56186 317.59064 262.81186 316.9344Q262.07748 316.27814 261.9681 315.2ZM268.9681 313.21564Q268.9681 311.6844 269.2806 310.7625Q269.5931 309.825 270.20248 309.325Q270.82748 308.825 271.76498 308.825Q272.45248 308.825 272.9681 309.10626Q273.49936 309.3875 273.8431 309.91876Q274.18686 310.4344 274.37436 311.1844Q274.56186 311.9344 274.56186 313.21564Q274.56186 314.73126 274.24936 315.65314Q273.95248 316.575 273.32748 317.09064Q272.7181 317.59064 271.76498 317.59064Q270.5306 317.59064 269.81186 316.7Q268.9681 315.6375 268.9681 313.21564ZM270.04623 313.21564Q270.04623 315.325 270.54623 316.02814Q271.04623 316.73126 271.76498 316.73126Q272.49936 316.73126 272.98373 316.02814Q273.48373 315.325 273.48373 313.21564Q273.48373 311.09064 272.98373 310.40314Q272.49936 309.7 271.74936 309.7Q271.0306 309.7 270.5931 310.3094Q270.04623 311.09064 270.04623 313.21564ZM275.9681 313.21564Q275.9681 311.6844 276.2806 310.7625Q276.5931 309.825 277.20248 309.325Q277.82748 308.825 278.76498 308.825Q279.45248 308.825 279.9681 309.10626Q280.49936 309.3875 280.8431 309.91876Q281.18686 310.4344 281.37436 311.1844Q281.56186 311.9344 281.56186 313.21564Q281.56186 314.73126 281.24936 315.65314Q280.95248 316.575 280.32748 317.09064Q279.7181 317.59064 278.76498 317.59064Q277.5306 317.59064 276.81186 316.7Q275.9681 315.6375 275.9681 313.21564ZM277.04623 313.21564Q277.04623 315.325 277.54623 316.02814Q278.04623 316.73126 278.76498 316.73126Q279.49936 316.73126 279.98373 316.02814Q280.48373 315.325 280.48373 313.21564Q280.48373 311.09064 279.98373 310.40314Q279.49936 309.7 278.74936 309.7Q278.0306 309.7 277.5931 310.3094Q277.04623 311.09064 277.04623 313.21564Z" fill-rule="nonzero"/><path fill="#000000" d="M361.2235 309.98126L361.2235 308.96564L366.786 308.96564L366.786 309.79376Q365.9735 310.66876 365.161 312.1219Q364.36414 313.5594 363.92664 315.09064Q363.5985 316.16876 363.5204 317.45L362.42664 317.45Q362.44226 316.4344 362.81726 314.9969Q363.2079 313.5594 363.911 312.23126Q364.62976 310.90314 365.44226 309.98126L361.2235 309.98126ZM368.161 315.2L369.2704 315.10626Q369.3954 315.91876 369.8329 316.325Q370.286 316.73126 370.92664 316.73126Q371.67664 316.73126 372.2079 316.15314Q372.73914 315.575 372.73914 314.6375Q372.73914 313.73126 372.2235 313.21564Q371.7235 312.6844 370.8954 312.6844Q370.3954 312.6844 369.9735 312.91876Q369.56726 313.15314 369.3329 313.5125L368.3485 313.3875L369.17664 308.98126L373.4579 308.98126L373.4579 309.98126L370.0204 309.98126L369.56726 312.29376Q370.3329 311.7469 371.17664 311.7469Q372.30164 311.7469 373.06726 312.52814Q373.8485 313.3094 373.8485 314.54376Q373.8485 315.7 373.17664 316.5594Q372.3485 317.59064 370.92664 317.59064Q369.75476 317.59064 369.00476 316.9344Q368.2704 316.27814 368.161 315.2ZM375.161 313.21564Q375.161 311.6844 375.4735 310.7625Q375.786 309.825 376.3954 309.325Q377.0204 308.825 377.9579 308.825Q378.6454 308.825 379.161 309.10626Q379.69226 309.3875 380.036 309.91876Q380.37976 310.4344 380.56726 311.1844Q380.75476 311.9344 380.75476 313.21564Q380.75476 314.73126 380.44226 315.65314Q380.1454 316.575 379.5204 317.09064Q378.911 317.59064 377.9579 317.59064Q376.7235 317.59064 376.00476 316.7Q375.161 315.6375 375.161 313.21564ZM376.23914 313.21564Q376.23914 315.325 376.73914 316.02814Q377.23914 316.73126 377.9579 316.73126Q378.69226 316.73126 379.17664 316.02814Q379.67664 315.325 379.67664 313.21564Q379.67664 311.09064 379.17664 310.40314Q378.69226 309.7 377.94226 309.7Q377.2235 309.7 376.786 310.3094Q376.23914 311.09064 376.23914 313.21564Z" fill-rule="nonzero"/><path fill="#000000" d="M460.8227 317.45L459.77582 317.45L459.77582 310.73126Q459.3852 311.09064 458.7602 311.46564Q458.15082 311.825 457.66644 311.9969L457.66644 310.98126Q458.54144 310.5594 459.1977 309.98126Q459.86957 309.3875 460.15082 308.825L460.8227 308.825L460.8227 317.45ZM463.85394 313.21564Q463.85394 311.6844 464.16644 310.7625Q464.47894 309.825 465.08832 309.325Q465.71332 308.825 466.65082 308.825Q467.33832 308.825 467.85394 309.10626Q468.3852 309.3875 468.72894 309.91876Q469.0727 310.4344 469.2602 311.1844Q469.4477 311.9344 469.4477 313.21564Q469.4477 314.73126 469.1352 315.65314Q468.83832 316.575 468.21332 317.09064Q467.60394 317.59064 466.65082 317.59064Q465.41644 317.59064 464.6977 316.7Q463.85394 315.6375 463.85394 313.21564ZM464.93207 313.21564Q464.93207 315.325 465.43207 316.02814Q465.93207 316.73126 466.65082 316.73126Q467.3852 316.73126 467.86957 316.02814Q468.36957 315.325 468.36957 313.21564Q468.36957 311.09064 467.86957 310.40314Q467.3852 309.7 466.6352 309.7Q465.91644 309.7 465.47894 310.3094Q464.93207 311.09064 464.93207 313.21564ZM470.85394 313.21564Q470.85394 311.6844 471.16644 310.7625Q471.47894 309.825 472.08832 309.325Q472.71332 308.825 473.65082 308.825Q474.33832 308.825 474.85394 309.10626Q475.3852 309.3875 475.72894 309.91876Q476.0727 310.4344 476.2602 311.1844Q476.4477 311.9344 476.4477 313.21564Q476.4477 314.73126 476.1352 315.65314Q475.83832 316.575 475.21332 317.09064Q474.60394 317.59064 473.65082 317.59064Q472.41644 317.59064 471.6977 316.7Q470.85394 315.6375 470.85394 313.21564ZM471.93207 313.21564Q471.93207 315.325 472.43207 316.02814Q472.93207 316.73126 473.65082 316.73126Q474.3852 316.73126 474.86957 316.02814Q475.36957 315.325 475.36957 313.21564Q475.36957 311.09064 474.86957 310.40314Q474.3852 309.7 473.6352 309.7Q472.91644 309.7 472.47894 310.3094Q471.93207 311.09064 471.93207 313.21564ZM477.85394 313.21564Q477.85394 311.6844 478.16644 310.7625Q478.47894 309.825 479.08832 309.325Q479.71332 308.825 480.65082 308.825Q481.33832 308.825 481.85394 309.10626Q482.3852 309.3875 482.72894 309.91876Q483.0727 310.4344 483.2602 311.1844Q483.4477 311.9344 483.4477 313.21564Q483.4477 314.73126 483.1352 315.65314Q482.83832 316.575 482.21332 317.09064Q481.60394 317.59064 480.65082 317.59064Q479.41644 317.59064 478.6977 316.7Q477.85394 315.6375 477.85394 313.21564ZM478.93207 313.21564Q478.93207 315.325 479.43207 316.02814Q479.93207 316.73126 480.65082 316.73126Q481.3852 316.73126 481.86957 316.02814Q482.36957 315.325 482.36957 313.21564Q482.36957 311.09064 481.86957 310.40314Q481.3852 309.7 480.6352 309.7Q479.91644 309.7 479.47894 310.3094Q478.93207 311.09064 478.93207 313.21564Z" fill-rule="nonzero"/><path fill="#000000" d="M560.0156 317.45L558.96875 317.45L558.96875 310.73126Q558.5781 311.09064 557.9531 311.46564Q557.34375 311.825 556.8594 311.9969L556.8594 310.98126Q557.7344 310.5594 558.3906 309.98126Q559.0625 309.3875 559.34375 308.825L560.0156 308.825L560.0156 317.45ZM568.59375 316.4344L568.59375 317.45L562.90625 317.45Q562.90625 317.075 563.03125 316.71564Q563.25 316.1375 563.71875 315.575Q564.2031 315.0125 565.1094 314.27814Q566.5156 313.1219 567.0 312.45Q567.5 311.77814 567.5 311.1844Q567.5 310.5594 567.0469 310.1375Q566.59375 309.7 565.875 309.7Q565.1094 309.7 564.65625 310.15314Q564.2031 310.60626 564.1875 311.41876L563.1094 311.3094Q563.21875 310.09064 563.9375 309.46564Q564.6719 308.825 565.90625 308.825Q567.1406 308.825 567.8594 309.5125Q568.5781 310.2 568.5781 311.21564Q568.5781 311.73126 568.3594 312.23126Q568.15625 312.71564 567.65625 313.27814Q567.1719 313.825 566.0469 314.77814Q565.09375 315.575 564.8125 315.8719Q564.5469 316.15314 564.375 316.4344L568.59375 316.4344ZM570.0469 315.2L571.15625 315.10626Q571.28125 315.91876 571.71875 316.325Q572.1719 316.73126 572.8125 316.73126Q573.5625 316.73126 574.09375 316.15314Q574.625 315.575 574.625 314.6375Q574.625 313.73126 574.1094 313.21564Q573.6094 312.6844 572.78125 312.6844Q572.28125 312.6844 571.8594 312.91876Q571.4531 313.15314 571.21875 313.5125L570.2344 313.3875L571.0625 308.98126L575.34375 308.98126L575.34375 309.98126L571.90625 309.98126L571.4531 312.29376Q572.21875 311.7469 573.0625 311.7469Q574.1875 311.7469 574.9531 312.52814Q575.7344 313.3094 575.7344 314.54376Q575.7344 315.7 575.0625 316.5594Q574.2344 317.59064 572.8125 317.59064Q571.6406 317.59064 570.8906 316.9344Q570.15625 316.27814 570.0469 315.2ZM577.0469 313.21564Q577.0469 311.6844 577.3594 310.7625Q577.6719 309.825 578.28125 309.325Q578.90625 308.825 579.84375 308.825Q580.53125 308.825 581.0469 309.10626Q581.5781 309.3875 581.9219 309.91876Q582.2656 310.4344 582.4531 311.1844Q582.6406 311.9344 582.6406 313.21564Q582.6406 314.73126 582.3281 315.65314Q582.03125 316.575 581.40625 317.09064Q580.7969 317.59064 579.84375 317.59064Q578.6094 317.59064 577.8906 316.7Q577.0469 315.6375 577.0469 313.21564ZM578.125 313.21564Q578.125 315.325 578.625 316.02814Q579.125 316.73126 579.84375 316.73126Q580.5781 316.73126 581.0625 316.02814Q581.5625 315.325 581.5625 313.21564Q581.5625 311.09064 581.0625 310.40314Q580.5781 309.7 579.8281 309.7Q579.1094 309.7 578.6719 310.3094Q578.125 311.09064 578.125 313.21564Z" fill-rule="nonzero"/><path fill="#757575" d="M20.034374 37.55L20.034374 23.2375L22.89375 23.2375L26.26875 33.3625Q26.7375 34.784374 26.95625 35.4875Q27.20625 34.70625 27.721874 33.190624L31.14375 23.2375L33.690624 23.2375L33.690624 37.55L31.878124 37.55L31.878124 25.565624L27.70625 37.55L26.003124 37.55L21.8625 25.3625L21.8625 37.55L20.034374 37.55ZM43.971874 34.20625L45.784374 34.440624Q45.3625 36.01875 44.190624 36.909374Q43.034374 37.784374 41.221874 37.784374Q38.95625 37.784374 37.6125 36.39375Q36.284374 34.9875 36.284374 32.45625Q36.284374 29.83125 37.628124 28.39375Q38.971874 26.940624 41.128124 26.940624Q43.20625 26.940624 44.51875 28.3625Q45.846874 29.76875 45.846874 32.346874Q45.846874 32.503124 45.83125 32.815624L38.096874 32.815624Q38.190624 34.51875 39.065624 35.425Q39.940624 36.33125 41.2375 36.33125Q42.20625 36.33125 42.878124 35.83125Q43.565624 35.315624 43.971874 34.20625ZM38.190624 31.3625L43.9875 31.3625Q43.878124 30.065624 43.33125 29.409374Q42.4875 28.39375 41.14375 28.39375Q39.940624 28.39375 39.1125 29.20625Q38.284374 30.003124 38.190624 31.3625ZM54.64375 36.26875Q53.659374 37.096874 52.753124 37.440624Q51.846874 37.784374 50.815624 37.784374Q49.1125 37.784374 48.190624 36.95625Q47.26875 36.1125 47.26875 34.815624Q47.26875 34.05 47.6125 33.425Q47.971874 32.8 48.534374 32.425Q49.096874 32.034374 49.8 31.83125Q50.315624 31.70625 51.3625 31.565624Q53.4875 31.315624 54.4875 30.971874Q54.503124 30.6125 54.503124 30.503124Q54.503124 29.440624 54.003124 28.9875Q53.33125 28.39375 52.003124 28.39375Q50.753124 28.39375 50.159374 28.83125Q49.58125 29.26875 49.3 30.378124L47.58125 30.14375Q47.815624 29.034374 48.346874 28.3625Q48.878124 27.675 49.89375 27.315624Q50.909374 26.940624 52.253124 26.940624Q53.58125 26.940624 54.409374 27.253124Q55.2375 27.565624 55.628124 28.05Q56.01875 28.51875 56.175 29.2375Q56.26875 29.690624 56.26875 30.8625L56.26875 33.20625Q56.26875 35.659374 56.378124 36.315624Q56.4875 36.95625 56.83125 37.55L54.9875 37.55Q54.721874 37.003124 54.64375 36.26875ZM54.4875 32.346874Q53.534374 32.7375 51.6125 33.003124Q50.534374 33.159374 50.08125 33.3625Q49.64375 33.55 49.39375 33.925Q49.14375 34.3 49.14375 34.76875Q49.14375 35.471874 49.675 35.940624Q50.20625 36.409374 51.2375 36.409374Q52.253124 36.409374 53.034374 35.971874Q53.83125 35.51875 54.20625 34.753124Q54.4875 34.14375 54.4875 32.9875L54.4875 32.346874ZM58.159374 34.45625L59.909374 34.175Q60.05 35.221874 60.721874 35.784374Q61.39375 36.33125 62.596874 36.33125Q63.8 36.33125 64.37813 35.846874Q64.97188 35.346874 64.97188 34.690624Q64.97188 34.096874 64.45625 33.753124Q64.09688 33.51875 62.659374 33.159374Q60.721874 32.659374 59.971874 32.315624Q59.2375 31.95625 58.846874 31.33125Q58.45625 30.690624 58.45625 29.925Q58.45625 29.2375 58.76875 28.64375Q59.096874 28.05 59.64375 27.659374Q60.05 27.3625 60.753124 27.159374Q61.471874 26.940624 62.284374 26.940624Q63.503124 26.940624 64.425 27.3Q65.34688 27.64375 65.78438 28.253124Q66.22188 28.846874 66.39375 29.846874L64.675 30.08125Q64.55 29.284374 63.9875 28.846874Q63.425 28.39375 62.409374 28.39375Q61.190624 28.39375 60.675 28.8Q60.159374 29.190624 60.159374 29.721874Q60.159374 30.065624 60.378124 30.346874Q60.58125 30.628124 61.05 30.815624Q61.315624 30.909374 62.596874 31.253124Q64.47188 31.753124 65.20625 32.08125Q65.94063 32.39375 66.3625 33.003124Q66.78438 33.596874 66.78438 34.503124Q66.78438 35.378124 66.26875 36.159374Q65.75313 36.940624 64.78438 37.3625Q63.815624 37.784374 62.596874 37.784374Q60.58125 37.784374 59.51875 36.940624Q58.45625 36.096874 58.159374 34.45625ZM75.65938 37.55L75.65938 36.01875Q74.45625 37.784374 72.37813 37.784374Q71.45625 37.784374 70.65938 37.440624Q69.8625 37.08125 69.47188 36.55Q69.09688 36.01875 68.94063 35.2375Q68.83125 34.721874 68.83125 33.596874L68.83125 27.175L70.58125 27.175L70.58125 32.925Q70.58125 34.3 70.69063 34.784374Q70.8625 35.471874 71.39375 35.878124Q71.94063 36.26875 72.72188 36.26875Q73.51875 36.26875 74.20625 35.8625Q74.90938 35.45625 75.19063 34.76875Q75.4875 34.065624 75.4875 32.7375L75.4875 27.175L77.2375 27.175L77.2375 37.55L75.65938 37.55ZM79.84688 37.55L79.84688 27.175L81.425 27.175L81.425 28.753124Q82.03438 27.64375 82.55 27.3Q83.06563 26.940624 83.675 26.940624Q84.56563 26.940624 85.4875 27.503124L84.87813 29.14375Q84.2375 28.753124 83.59688 28.753124Q83.01875 28.753124 82.55 29.1125Q82.09688 29.45625 81.89375 30.065624Q81.6125 31.003124 81.6125 32.1125L81.6125 37.55L79.84688 37.55ZM93.97188 34.20625L95.78438 34.440624Q95.3625 36.01875 94.19063 36.909374Q93.03438 37.784374 91.22188 37.784374Q88.95625 37.784374 87.6125 36.39375Q86.28438 34.9875 86.28438 32.45625Q86.28438 29.83125 87.62813 28.39375Q88.97188 26.940624 91.12813 26.940624Q93.20625 26.940624 94.51875 28.3625Q95.84688 29.76875 95.84688 32.346874Q95.84688 32.503124 95.83125 32.815624L88.09688 32.815624Q88.19063 34.51875 89.06563 35.425Q89.94063 36.33125 91.2375 36.33125Q92.20625 36.33125 92.87813 35.83125Q93.56563 35.315624 93.97188 34.20625ZM88.19063 31.3625L93.9875 31.3625Q93.87813 30.065624 93.33125 29.409374Q92.4875 28.39375 91.14375 28.39375Q89.94063 28.39375 89.1125 29.20625Q88.28438 30.003124 88.19063 31.3625ZM97.8625 37.55L97.8625 27.175L99.44063 27.175L99.44063 28.628124Q99.925 27.878124 100.7375 27.409374Q101.55 26.940624 102.58125 26.940624Q103.7375 26.940624 104.47188 27.425Q105.20625 27.89375 105.51875 28.753124Q106.75313 26.940624 108.72188 26.940624Q110.26875 26.940624 111.09688 27.8Q111.925 28.659374 111.925 30.425L111.925 37.55L110.175 37.55L110.175 31.01875Q110.175 29.95625 110.00313 29.503124Q109.83125 29.034374 109.37813 28.753124Q108.94063 28.471874 108.33125 28.471874Q107.2375 28.471874 106.50313 29.20625Q105.78438 29.925 105.78438 31.51875L105.78438 37.55L104.03438 37.55L104.03438 30.815624Q104.03438 29.64375 103.59688 29.065624Q103.175 28.471874 102.19063 28.471874Q101.45625 28.471874 100.81563 28.8625Q100.19063 29.253124 99.90938 30.003124Q99.62813 30.753124 99.62813 32.175L99.62813 37.55L97.8625 37.55ZM121.97188 34.20625L123.78438 34.440624Q123.3625 36.01875 122.19063 36.909374Q121.03438 37.784374 119.22188 37.784374Q116.95625 37.784374 115.6125 36.39375Q114.28438 34.9875 114.28438 32.45625Q114.28438 29.83125 115.62813 28.39375Q116.97188 26.940624 119.12813 26.940624Q121.20625 26.940624 122.51875 28.3625Q123.84688 29.76875 123.84688 32.346874Q123.84688 32.503124 123.83125 32.815624L116.09688 32.815624Q116.19063 34.51875 117.06563 35.425Q117.94063 36.33125 119.2375 36.33125Q120.20625 36.33125 120.87813 35.83125Q121.56563 35.315624 121.97188 34.20625ZM116.19063 31.3625L121.9875 31.3625Q121.87813 30.065624 121.33125 29.409374Q120.4875 28.39375 119.14375 28.39375Q117.94063 28.39375 117.1125 29.20625Q116.28438 30.003124 116.19063 31.3625ZM125.8625 37.55L125.8625 27.175L127.45625 27.175L127.45625 28.659374Q128.59688 26.940624 130.75313 26.940624Q131.69063 26.940624 132.47188 27.284374Q133.26875 27.6125 133.65938 28.159374Q134.05 28.70625 134.20625 29.45625Q134.3 29.95625 134.3 31.175L134.3 37.55L132.53438 37.55L132.53438 31.2375Q132.53438 30.159374 132.33125 29.628124Q132.12813 29.096874 131.59688 28.784374Q131.08125 28.471874 130.37813 28.471874Q129.25313 28.471874 128.44063 29.190624Q127.62813 29.89375 127.62813 31.878124L127.62813 37.55L125.8625 37.55ZM140.70625 35.971874L140.95625 37.534374Q140.22188 37.690624 139.62813 37.690624Q138.675 37.690624 138.14375 37.39375Q137.62813 37.08125 137.40938 36.596874Q137.19063 36.096874 137.19063 34.51875L137.19063 28.55L135.90938 28.55L135.90938 27.175L137.19063 27.175L137.19063 24.6125L138.94063 23.55L138.94063 27.175L140.70625 27.175L140.70625 28.55L138.94063 28.55L138.94063 34.6125Q138.94063 35.3625 139.03438 35.58125Q139.12813 35.784374 139.33125 35.925Q139.55 36.05 139.94063 36.05Q140.22188 36.05 140.70625 35.971874ZM152.70625 35.971874L152.95625 37.534374Q152.22188 37.690624 151.62813 37.690624Q150.675 37.690624 150.14375 37.39375Q149.62813 37.08125 149.40938 36.596874Q149.19063 36.096874 149.19063 34.51875L149.19063 28.55L147.90938 28.55L147.90938 27.175L149.19063 27.175L149.19063 24.6125L150.94063 23.55L150.94063 27.175L152.70625 27.175L152.70625 28.55L150.94063 28.55L150.94063 34.6125Q150.94063 35.3625 151.03438 35.58125Q151.12813 35.784374 151.33125 35.925Q151.55 36.05 151.94063 36.05Q152.22188 36.05 152.70625 35.971874ZM154.87813 25.253124L154.87813 23.2375L156.64375 23.2375L156.64375 25.253124L154.87813 25.253124ZM154.87813 37.55L154.87813 27.175L156.64375 27.175L156.64375 37.55L154.87813 37.55ZM158.8625 37.55L158.8625 27.175L160.44063 27.175L160.44063 28.628124Q160.925 27.878124 161.7375 27.409374Q162.55 26.940624 163.58125 26.940624Q164.7375 26.940624 165.47188 27.425Q166.20625 27.89375 166.51875 28.753124Q167.75313 26.940624 169.72188 26.940624Q171.26875 26.940624 172.09688 27.8Q172.925 28.659374 172.925 30.425L172.925 37.55L171.175 37.55L171.175 31.01875Q171.175 29.95625 171.00313 29.503124Q170.83125 29.034374 170.37813 28.753124Q169.94063 28.471874 169.33125 28.471874Q168.2375 28.471874 167.50313 29.20625Q166.78438 29.925 166.78438 31.51875L166.78438 37.55L165.03438 37.55L165.03438 30.815624Q165.03438 29.64375 164.59688 29.065624Q164.175 28.471874 163.19063 28.471874Q162.45625 28.471874 161.81563 28.8625Q161.19063 29.253124 160.90938 30.003124Q160.62813 30.753124 160.62813 32.175L160.62813 37.55L158.8625 37.55ZM182.97188 34.20625L184.78438 34.440624Q184.3625 36.01875 183.19063 36.909374Q182.03438 37.784374 180.22188 37.784374Q177.95625 37.784374 176.6125 36.39375Q175.28438 34.9875 175.28438 32.45625Q175.28438 29.83125 176.62813 28.39375Q177.97188 26.940624 180.12813 26.940624Q182.20625 26.940624 183.51875 28.3625Q184.84688 29.76875 184.84688 32.346874Q184.84688 32.503124 184.83125 32.815624L177.09688 32.815624Q177.19063 34.51875 178.06563 35.425Q178.94063 36.33125 180.2375 36.33125Q181.20625 36.33125 181.87813 35.83125Q182.56563 35.315624 182.97188 34.20625ZM177.19063 31.3625L182.9875 31.3625Q182.87813 30.065624 182.33125 29.409374Q181.4875 28.39375 180.14375 28.39375Q178.94063 28.39375 178.1125 29.20625Q177.28438 30.003124 177.19063 31.3625ZM193.28438 37.55L193.28438 28.55L191.7375 28.55L191.7375 27.175L193.28438 27.175L193.28438 26.08125Q193.28438 25.034374 193.47188 24.51875Q193.72188 23.83125 194.3625 23.409374Q195.00313 22.9875 196.15938 22.9875Q196.90938 22.9875 197.8 23.159374L197.53438 24.690624Q196.9875 24.596874 196.50313 24.596874Q195.70625 24.596874 195.3625 24.940624Q195.03438 25.284374 195.03438 26.221874L195.03438 27.175L197.06563 27.175L197.06563 28.55L195.03438 28.55L195.03438 37.55L193.28438 37.55ZM198.22188 32.3625Q198.22188 29.4875 199.81563 28.096874Q201.15938 26.940624 203.08125 26.940624Q205.22188 26.940624 206.56563 28.346874Q207.925 29.753124 207.925 32.221874Q207.925 34.221874 207.33125 35.378124Q206.7375 36.51875 205.58125 37.159374Q204.44063 37.784374 203.08125 37.784374Q200.89375 37.784374 199.55 36.39375Q198.22188 34.9875 198.22188 32.3625ZM200.01875 32.3625Q200.01875 34.3625 200.87813 35.346874Q201.75313 36.33125 203.08125 36.33125Q204.39375 36.33125 205.25313 35.346874Q206.12813 34.346874 206.12813 32.3Q206.12813 30.378124 205.25313 29.39375Q204.37813 28.39375 203.08125 28.39375Q201.75313 28.39375 200.87813 29.39375Q200.01875 30.378124 200.01875 32.3625ZM209.84688 37.55L209.84688 27.175L211.425 27.175L211.425 28.753124Q212.03438 27.64375 212.55 27.3Q213.06563 26.940624 213.675 26.940624Q214.56563 26.940624 215.4875 27.503124L214.87813 29.14375Q214.2375 28.753124 213.59688 28.753124Q213.01875 28.753124 212.55 29.1125Q212.09688 29.45625 211.89375 30.065624Q211.6125 31.003124 211.6125 32.1125L211.6125 37.55L209.84688 37.55ZM225.75313 37.55L221.8 27.175L223.65938 27.175L225.89375 33.39375Q226.25313 34.39375 226.55 35.471874Q226.78438 34.659374 227.20625 33.503124L229.50313 27.175L231.31563 27.175L227.39375 37.55L225.75313 37.55ZM239.64375 36.26875Q238.65938 37.096874 237.75313 37.440624Q236.84688 37.784374 235.81563 37.784374Q234.1125 37.784374 233.19063 36.95625Q232.26875 36.1125 232.26875 34.815624Q232.26875 34.05 232.6125 33.425Q232.97188 32.8 233.53438 32.425Q234.09688 32.034374 234.8 31.83125Q235.31563 31.70625 236.3625 31.565624Q238.4875 31.315624 239.4875 30.971874Q239.50313 30.6125 239.50313 30.503124Q239.50313 29.440624 239.00313 28.9875Q238.33125 28.39375 237.00313 28.39375Q235.75313 28.39375 235.15938 28.83125Q234.58125 29.26875 234.3 30.378124L232.58125 30.14375Q232.81563 29.034374 233.34688 28.3625Q233.87813 27.675 234.89375 27.315624Q235.90938 26.940624 237.25313 26.940624Q238.58125 26.940624 239.40938 27.253124Q240.2375 27.565624 240.62813 28.05Q241.01875 28.51875 241.175 29.2375Q241.26875 29.690624 241.26875 30.8625L241.26875 33.20625Q241.26875 35.659374 241.37813 36.315624Q241.4875 36.95625 241.83125 37.55L239.9875 37.55Q239.72188 37.003124 239.64375 36.26875ZM239.4875 32.346874Q238.53438 32.7375 236.6125 33.003124Q235.53438 33.159374 235.08125 33.3625Q234.64375 33.55 234.39375 33.925Q234.14375 34.3 234.14375 34.76875Q234.14375 35.471874 234.675 35.940624Q235.20625 36.409374 236.2375 36.409374Q237.25313 36.409374 238.03438 35.971874Q238.83125 35.51875 239.20625 34.753124Q239.4875 34.14375 239.4875 32.9875L239.4875 32.346874ZM243.84688 37.55L243.84688 27.175L245.425 27.175L245.425 28.753124Q246.03438 27.64375 246.55 27.3Q247.06563 26.940624 247.675 26.940624Q248.56563 26.940624 249.4875 27.503124L248.87813 29.14375Q248.2375 28.753124 247.59688 28.753124Q247.01875 28.753124 246.55 29.1125Q246.09688 29.45625 245.89375 30.065624Q245.6125 31.003124 245.6125 32.1125L245.6125 37.55L243.84688 37.55ZM250.78438 41.55L250.59688 39.89375Q251.175 40.05 251.59688 40.05Q252.19063 40.05 252.53438 39.846874Q252.89375 39.659374 253.1125 39.315624Q253.28438 39.05 253.65938 38.003124Q253.70625 37.846874 253.81563 37.565624L249.87813 27.175L251.76875 27.175L253.925 33.190624Q254.34688 34.33125 254.675 35.58125Q254.9875 34.378124 255.39375 33.221874L257.6125 27.175L259.3781 27.175L255.425 37.721874Q254.8 39.440624 254.44063 40.08125Q253.97188 40.95625 253.3625 41.346874Q252.76875 41.753124 251.925 41.753124Q251.40938 41.753124 250.78438 41.55ZM260.8781 25.253124L260.8781 23.2375L262.64374 23.2375L262.64374 25.253124L260.8781 25.253124ZM260.8781 37.55L260.8781 27.175L262.64374 27.175L262.64374 37.55L260.8781 37.55ZM264.8625 37.55L264.8625 27.175L266.45624 27.175L266.45624 28.659374Q267.59686 26.940624 269.7531 26.940624Q270.6906 26.940624 271.47186 27.284374Q272.26874 27.6125 272.65936 28.159374Q273.05 28.70625 273.20624 29.45625Q273.3 29.95625 273.3 31.175L273.3 37.55L271.53436 37.55L271.53436 31.2375Q271.53436 30.159374 271.33124 29.628124Q271.1281 29.096874 270.59686 28.784374Q270.08124 28.471874 269.3781 28.471874Q268.2531 28.471874 267.4406 29.190624Q266.6281 29.89375 266.6281 31.878124L266.6281 37.55L264.8625 37.55ZM275.55 38.409374L277.2531 38.659374Q277.3625 39.45625 277.84686 39.815624Q278.5031 40.3 279.64374 40.3Q280.8625 40.3 281.51874 39.815624Q282.1906 39.33125 282.425 38.45625Q282.5656 37.909374 282.55 36.190624Q281.39374 37.55 279.675 37.55Q277.53436 37.55 276.3625 36.003124Q275.1906 34.45625 275.1906 32.3Q275.1906 30.815624 275.72186 29.565624Q276.26874 28.315624 277.28436 27.628124Q278.3156 26.940624 279.6906 26.940624Q281.51874 26.940624 282.72186 28.425L282.72186 27.175L284.33124 27.175L284.33124 36.14375Q284.33124 38.565624 283.83124 39.565624Q283.34686 40.58125 282.26874 41.159374Q281.20624 41.753124 279.64374 41.753124Q277.8 41.753124 276.64374 40.925Q275.5031 40.096874 275.55 38.409374ZM277.0031 32.175Q277.0031 34.221874 277.8156 35.159374Q278.6281 36.096874 279.84686 36.096874Q281.05 36.096874 281.8625 35.159374Q282.6906 34.221874 282.6906 32.2375Q282.6906 30.33125 281.84686 29.3625Q281.0031 28.39375 279.8156 28.39375Q278.64374 28.39375 277.8156 29.346874Q277.0031 30.3 277.0031 32.175ZM294.78436 37.55L291.6125 27.175L293.425 27.175L295.08124 33.159374L295.6906 35.39375Q295.7375 35.221874 296.22186 33.253124L297.8781 27.175L299.6906 27.175L301.2375 33.190624L301.7531 35.175L302.34686 33.175L304.1281 27.175L305.83124 27.175L302.59686 37.55L300.76874 37.55L299.1125 31.33125L298.72186 29.565624L296.6125 37.55L294.78436 37.55ZM306.8781 25.253124L306.8781 23.2375L308.64374 23.2375L308.64374 25.253124L306.8781 25.253124ZM306.8781 37.55L306.8781 27.175L308.64374 27.175L308.64374 37.55L306.8781 37.55ZM310.8625 37.55L310.8625 27.175L312.45624 27.175L312.45624 28.659374Q313.59686 26.940624 315.7531 26.940624Q316.6906 26.940624 317.47186 27.284374Q318.26874 27.6125 318.65936 28.159374Q319.05 28.70625 319.20624 29.45625Q319.3 29.95625 319.3 31.175L319.3 37.55L317.53436 37.55L317.53436 31.2375Q317.53436 30.159374 317.33124 29.628124Q317.1281 29.096874 316.59686 28.784374Q316.08124 28.471874 315.3781 28.471874Q314.2531 28.471874 313.4406 29.190624Q312.6281 29.89375 312.6281 31.878124L312.6281 37.55L310.8625 37.55ZM328.59686 37.55L328.59686 36.2375Q327.6125 37.784374 325.6906 37.784374Q324.45624 37.784374 323.40936 37.096874Q322.3781 36.409374 321.8 35.190624Q321.2375 33.971874 321.2375 32.378124Q321.2375 30.815624 321.7531 29.55Q322.26874 28.284374 323.3 27.6125Q324.34686 26.940624 325.6125 26.940624Q326.55 26.940624 327.28436 27.346874Q328.01874 27.7375 328.4875 28.3625L328.4875 23.2375L330.22186 23.2375L330.22186 37.55L328.59686 37.55ZM323.03436 32.378124Q323.03436 34.3625 323.8781 35.346874Q324.72186 36.33125 325.8625 36.33125Q327.01874 36.33125 327.8156 35.39375Q328.6281 34.45625 328.6281 32.51875Q328.6281 30.39375 327.8 29.39375Q326.9875 28.39375 325.78436 28.39375Q324.6125 28.39375 323.8156 29.3625Q323.03436 30.315624 323.03436 32.378124ZM332.22186 32.3625Q332.22186 29.4875 333.8156 28.096874Q335.15936 26.940624 337.08124 26.940624Q339.22186 26.940624 340.5656 28.346874Q341.925 29.753124 341.925 32.221874Q341.925 34.221874 341.33124 35.378124Q340.7375 36.51875 339.58124 37.159374Q338.4406 37.784374 337.08124 37.784374Q334.89374 37.784374 333.55 36.39375Q332.22186 34.9875 332.22186 32.3625ZM334.01874 32.3625Q334.01874 34.3625 334.8781 35.346874Q335.7531 36.33125 337.08124 36.33125Q338.39374 36.33125 339.2531 35.346874Q340.1281 34.346874 340.1281 32.3Q340.1281 30.378124 339.2531 29.39375Q338.3781 28.39375 337.08124 28.39375Q335.7531 28.39375 334.8781 29.39375Q334.01874 30.378124 334.01874 32.3625ZM345.78436 37.55L342.6125 27.175L344.425 27.175L346.08124 33.159374L346.6906 35.39375Q346.7375 35.221874 347.22186 33.253124L348.8781 27.175L350.6906 27.175L352.2375 33.190624L352.7531 35.175L353.34686 33.175L355.1281 27.175L356.83124 27.175L353.59686 37.55L351.76874 37.55L350.1125 31.33125L349.72186 29.565624L347.6125 37.55L345.78436 37.55ZM363.15936 34.45625L364.90936 34.175Q365.05 35.221874 365.72186 35.784374Q366.39374 36.33125 367.59686 36.33125Q368.8 36.33125 369.3781 35.846874Q369.97186 35.346874 369.97186 34.690624Q369.97186 34.096874 369.45624 33.753124Q369.09686 33.51875 367.65936 33.159374Q365.72186 32.659374 364.97186 32.315624Q364.2375 31.95625 363.84686 31.33125Q363.45624 30.690624 363.45624 29.925Q363.45624 29.2375 363.76874 28.64375Q364.09686 28.05 364.64374 27.659374Q365.05 27.3625 365.7531 27.159374Q366.47186 26.940624 367.28436 26.940624Q368.5031 26.940624 369.425 27.3Q370.34686 27.64375 370.78436 28.253124Q371.22186 28.846874 371.39374 29.846874L369.675 30.08125Q369.55 29.284374 368.9875 28.846874Q368.425 28.39375 367.40936 28.39375Q366.1906 28.39375 365.675 28.8Q365.15936 29.190624 365.15936 29.721874Q365.15936 30.065624 365.3781 30.346874Q365.58124 30.628124 366.05 30.815624Q366.3156 30.909374 367.59686 31.253124Q369.47186 31.753124 370.20624 32.08125Q370.9406 32.39375 371.3625 33.003124Q371.78436 33.596874 371.78436 34.503124Q371.78436 35.378124 371.26874 36.159374Q370.7531 36.940624 369.78436 37.3625Q368.8156 37.784374 367.59686 37.784374Q365.58124 37.784374 364.51874 36.940624Q363.45624 36.096874 363.15936 34.45625ZM373.8781 25.253124L373.8781 23.2375L375.64374 23.2375L375.64374 25.253124L373.8781 25.253124ZM373.8781 37.55L373.8781 27.175L375.64374 27.175L375.64374 37.55L373.8781 37.55ZM376.9406 37.55L376.9406 36.128124L383.55 28.55Q382.425 28.596874 381.5656 28.596874L377.33124 28.596874L377.33124 27.175L385.8156 27.175L385.8156 28.346874L380.1906 34.925L379.1125 36.128124Q380.28436 36.034374 381.33124 36.034374L386.1281 36.034374L386.1281 37.55L376.9406 37.55ZM394.97186 34.20625L396.78436 34.440624Q396.3625 36.01875 395.1906 36.909374Q394.03436 37.784374 392.22186 37.784374Q389.95624 37.784374 388.6125 36.39375Q387.28436 34.9875 387.28436 32.45625Q387.28436 29.83125 388.6281 28.39375Q389.97186 26.940624 392.1281 26.940624Q394.20624 26.940624 395.51874 28.3625Q396.84686 29.76875 396.84686 32.346874Q396.84686 32.503124 396.83124 32.815624L389.09686 32.815624Q389.1906 34.51875 390.0656 35.425Q390.9406 36.33125 392.2375 36.33125Q393.20624 36.33125 393.8781 35.83125Q394.5656 35.315624 394.97186 34.20625ZM389.1906 31.3625L394.9875 31.3625Q394.8781 30.065624 394.33124 29.409374Q393.4875 28.39375 392.14374 28.39375Q390.9406 28.39375 390.1125 29.20625Q389.28436 30.003124 389.1906 31.3625Z" fill-rule="nonzero"/></svg>